M48
;Layer_Color=9474304
;FILE_FORMAT=2:5
INCH,LZ
;TYPE=PLATED
T1F00S00C0.02000
T2F00S00C0.04291
T3F00S00C0.05906
T4F00S00C0.06299
T5F00S00C0.12992
%
T01
X013937Y0141732
X0146Y0145
X01425Y0149
X01365
X0164173Y0169205
T02
X0112Y01425
Y01525
Y01625
T03
X0153Y0119
X0187Y01565
T04
X0143Y0109
Y0129
X0163
Y0109
X0177Y01465
X0197
Y01665
X0177
T05
X0113673Y0114173
X0190051
M30
