G04*
G04 #@! TF.GenerationSoftware,Altium Limited,Altium Designer,21.2.2 (38)*
G04*
G04 Layer_Color=32768*
%FSLAX25Y25*%
%MOIN*%
G70*
G04*
G04 #@! TF.SameCoordinates,DFD624CB-2947-408E-94CE-297F991FFE17*
G04*
G04*
G04 #@! TF.FilePolarity,Positive*
G04*
G01*
G75*
%ADD29C,0.00394*%
%ADD30C,0.00197*%
D29*
X162008Y166929D02*
X166339D01*
X162008Y157480D02*
X166339D01*
Y166929D01*
X162008Y157480D02*
Y166929D01*
X164173Y160335D02*
Y164075D01*
X162303Y162205D02*
X166043D01*
X148776Y143335D02*
Y147665D01*
X158224Y143335D02*
Y147665D01*
X148776D02*
X158224D01*
X148776Y143335D02*
X158224D01*
X151630Y145500D02*
X155370D01*
X153500Y143630D02*
Y147370D01*
X140335Y151276D02*
X144665D01*
X140335Y160724D02*
X144665D01*
X140335Y151276D02*
Y160724D01*
X144665Y151276D02*
Y160724D01*
X142500Y154130D02*
Y157870D01*
X140630Y156000D02*
X144370D01*
X134335Y151276D02*
X138665D01*
X134335Y160724D02*
X138665D01*
X134335Y151276D02*
Y160724D01*
X138665Y151276D02*
Y160724D01*
X136500Y154130D02*
Y157870D01*
X134630Y156000D02*
X138370D01*
X151532Y155000D02*
X155468D01*
X153500Y153032D02*
Y156968D01*
D30*
X146610Y148504D02*
Y161496D01*
X160390Y148504D02*
Y161496D01*
X146610D02*
X160390D01*
X146610Y148504D02*
X160390D01*
M02*
