G04*
G04 #@! TF.GenerationSoftware,Altium Limited,Altium Designer,21.2.2 (38)*
G04*
G04 Layer_Physical_Order=2*
G04 Layer_Color=16711680*
%FSLAX25Y25*%
%MOIN*%
G70*
G04*
G04 #@! TF.SameCoordinates,DFD624CB-2947-408E-94CE-297F991FFE17*
G04*
G04*
G04 #@! TF.FilePolarity,Positive*
G04*
G01*
G75*
%ADD24C,0.00700*%
%ADD25C,0.23622*%
%ADD26C,0.11811*%
%ADD27C,0.07874*%
%ADD28C,0.04000*%
G36*
X203543Y140157D02*
X155118D01*
X148425Y146850D01*
X147983D01*
X147926Y146926D01*
X147362Y147358D01*
X146705Y147631D01*
X146000Y147723D01*
X145295Y147631D01*
X144638Y147358D01*
X144074Y146926D01*
X144017Y146850D01*
X133465D01*
X131496Y144882D01*
Y137795D01*
X203543D01*
Y101575D01*
X100787D01*
Y173622D01*
X132283D01*
Y162205D01*
X146457D01*
Y173622D01*
X203543D01*
Y140157D01*
D02*
G37*
%LPC*%
G36*
X187000Y163137D02*
X185705Y163010D01*
X184460Y162632D01*
X183312Y162019D01*
X182307Y161193D01*
X181481Y160188D01*
X180868Y159040D01*
X180490Y157795D01*
X180362Y156500D01*
X180490Y155205D01*
X180868Y153960D01*
X181481Y152812D01*
X182307Y151807D01*
X183312Y150981D01*
X184460Y150368D01*
X185705Y149990D01*
X187000Y149863D01*
X188295Y149990D01*
X189540Y150368D01*
X190688Y150981D01*
X191693Y151807D01*
X192519Y152812D01*
X193132Y153960D01*
X193510Y155205D01*
X193638Y156500D01*
X193510Y157795D01*
X193132Y159040D01*
X192519Y160188D01*
X191693Y161193D01*
X190688Y162019D01*
X189540Y162632D01*
X188295Y163010D01*
X187000Y163137D01*
D02*
G37*
G36*
X112000Y157177D02*
X110790Y157018D01*
X109661Y156550D01*
X108693Y155807D01*
X107950Y154839D01*
X107482Y153710D01*
X107323Y152500D01*
X107482Y151289D01*
X107950Y150162D01*
X108693Y149193D01*
X109661Y148450D01*
X110790Y147982D01*
X112000Y147823D01*
X113210Y147982D01*
X114339Y148450D01*
X115307Y149193D01*
X116050Y150162D01*
X116518Y151289D01*
X116677Y152500D01*
X116518Y153710D01*
X116050Y154839D01*
X115307Y155807D01*
X114339Y156550D01*
X113210Y157018D01*
X112000Y157177D01*
D02*
G37*
G36*
Y147177D02*
X110790Y147018D01*
X109661Y146550D01*
X108693Y145807D01*
X107950Y144839D01*
X107482Y143710D01*
X107323Y142500D01*
X107482Y141289D01*
X107950Y140162D01*
X108693Y139193D01*
X109661Y138450D01*
X110790Y137982D01*
X112000Y137823D01*
X113210Y137982D01*
X114339Y138450D01*
X115307Y139193D01*
X116050Y140162D01*
X116518Y141289D01*
X116677Y142500D01*
X116518Y143710D01*
X116050Y144839D01*
X115307Y145807D01*
X114339Y146550D01*
X113210Y147018D01*
X112000Y147177D01*
D02*
G37*
G36*
X153000Y125637D02*
X151705Y125510D01*
X150460Y125132D01*
X149312Y124519D01*
X148307Y123693D01*
X147481Y122688D01*
X146868Y121540D01*
X146490Y120295D01*
X146362Y119000D01*
X146490Y117705D01*
X146868Y116460D01*
X147481Y115312D01*
X148307Y114307D01*
X149312Y113481D01*
X150460Y112868D01*
X151705Y112490D01*
X153000Y112363D01*
X154295Y112490D01*
X155540Y112868D01*
X156688Y113481D01*
X157693Y114307D01*
X158519Y115312D01*
X159132Y116460D01*
X159510Y117705D01*
X159637Y119000D01*
X159510Y120295D01*
X159132Y121540D01*
X158519Y122688D01*
X157693Y123693D01*
X156688Y124519D01*
X155540Y125132D01*
X154295Y125510D01*
X153000Y125637D01*
D02*
G37*
%LPD*%
D24*
X139370Y140945D02*
X143701Y140945D01*
X139055Y140945D02*
X139370D01*
X146000Y143244D02*
Y145000D01*
X143701Y140945D02*
X146000Y143244D01*
X139370Y141260D02*
Y141732D01*
X139055Y140945D02*
X139370Y141260D01*
D25*
X190051Y114173D02*
D03*
X113673D02*
D03*
D26*
X187000Y156500D02*
D03*
X197000Y146500D02*
D03*
X177000D02*
D03*
X197000Y166500D02*
D03*
X177000D02*
D03*
X153000Y119000D02*
D03*
X163000Y109000D02*
D03*
X143000D02*
D03*
X163000Y129000D02*
D03*
X143000D02*
D03*
D27*
X112000Y142500D02*
D03*
Y152500D02*
D03*
Y162500D02*
D03*
D28*
X142500Y149000D02*
D03*
X139370Y141732D02*
D03*
X136500Y149000D02*
D03*
X164173Y169205D02*
D03*
X146000Y145000D02*
D03*
M02*
