G04*
G04 #@! TF.GenerationSoftware,Altium Limited,Altium Designer,21.2.2 (38)*
G04*
G04 Layer_Physical_Order=1*
G04 Layer_Color=255*
%FSLAX25Y25*%
%MOIN*%
G70*
G04*
G04 #@! TF.SameCoordinates,DFD624CB-2947-408E-94CE-297F991FFE17*
G04*
G04*
G04 #@! TF.FilePolarity,Positive*
G04*
G01*
G75*
%ADD11C,0.01000*%
%ADD13R,0.03543X0.03150*%
%ADD14R,0.03150X0.03543*%
G04:AMPARAMS|DCode=15|XSize=21.65mil|YSize=31.5mil|CornerRadius=1.95mil|HoleSize=0mil|Usage=FLASHONLY|Rotation=90.000|XOffset=0mil|YOffset=0mil|HoleType=Round|Shape=RoundedRectangle|*
%AMROUNDEDRECTD15*
21,1,0.02165,0.02760,0,0,90.0*
21,1,0.01776,0.03150,0,0,90.0*
1,1,0.00390,0.01380,0.00888*
1,1,0.00390,0.01380,-0.00888*
1,1,0.00390,-0.01380,-0.00888*
1,1,0.00390,-0.01380,0.00888*
%
%ADD15ROUNDEDRECTD15*%
%ADD22C,0.02362*%
%ADD23C,0.02953*%
%ADD24C,0.00700*%
%ADD25C,0.23622*%
%ADD26C,0.11811*%
%ADD27C,0.07874*%
%ADD28C,0.04000*%
D11*
X148480Y155000D02*
X150500D01*
X152500Y153000D01*
Y149500D02*
Y153000D01*
X151186Y148186D02*
X152500Y149500D01*
X151186Y145942D02*
Y148186D01*
X150744Y145500D02*
X151186Y145942D01*
X156256Y145500D02*
Y145697D01*
X157331Y146772D01*
X157528D01*
X158520Y147764D01*
Y151260D01*
D13*
X164173Y164961D02*
D03*
Y159449D02*
D03*
X142500Y153244D02*
D03*
Y158756D02*
D03*
X136500Y153244D02*
D03*
Y158756D02*
D03*
D14*
X150744Y145500D02*
D03*
X156256D02*
D03*
D15*
X148480Y158740D02*
D03*
Y155000D02*
D03*
Y151260D02*
D03*
X158520D02*
D03*
Y158740D02*
D03*
D22*
X144583Y153638D02*
X145945Y155000D01*
X148480D01*
X142894Y153638D02*
X144583D01*
X142500Y153244D02*
X142894Y153638D01*
X142516Y158740D02*
X148480D01*
D23*
X142500Y158756D02*
X142516Y158740D01*
X142500Y149000D02*
Y153244D01*
Y149000D02*
X142500Y149000D01*
X137500Y119000D02*
X153000D01*
X124000Y132500D02*
X137500Y119000D01*
X124000Y132500D02*
Y152500D01*
X112000D02*
X124000D01*
X136500Y149000D02*
Y149500D01*
X136500Y149500D02*
X136500Y149500D01*
X136500Y149500D02*
Y153244D01*
X164173Y168705D02*
Y169205D01*
Y168705D02*
X164173Y168705D01*
Y164961D02*
Y168705D01*
X170000Y156500D02*
X187000D01*
X166854Y159646D02*
X170000Y156500D01*
X163598Y159646D02*
X166854D01*
X163500Y159744D02*
X163598Y159646D01*
X163303Y159744D02*
X163500D01*
X162299Y158740D02*
X163303Y159744D01*
X158520Y158740D02*
X162299D01*
X128750Y157250D02*
X130256Y158756D01*
X124000Y152500D02*
X128750Y157250D01*
X136500Y153244D02*
X142500D01*
X136500Y158756D02*
X142500D01*
X130256D02*
X136500D01*
D24*
X133450Y147737D02*
X139370Y141817D01*
Y141732D02*
Y141817D01*
X128750Y152483D02*
X133450Y147784D01*
Y147737D02*
Y147784D01*
X146000Y145000D02*
Y149500D01*
X147027Y150527D01*
X128750Y152483D02*
Y157250D01*
X147027Y150527D02*
X147748D01*
X148480Y151260D01*
D25*
X190051Y114173D02*
D03*
X113673D02*
D03*
D26*
X187000Y156500D02*
D03*
X197000Y146500D02*
D03*
X177000D02*
D03*
X197000Y166500D02*
D03*
X177000D02*
D03*
X153000Y119000D02*
D03*
X163000Y109000D02*
D03*
X143000D02*
D03*
X163000Y129000D02*
D03*
X143000D02*
D03*
D27*
X112000Y142500D02*
D03*
Y152500D02*
D03*
Y162500D02*
D03*
D28*
X142500Y149000D02*
D03*
X139370Y141732D02*
D03*
X136500Y149000D02*
D03*
X164173Y169205D02*
D03*
X146000Y145000D02*
D03*
M02*
