G04*
G04 #@! TF.GenerationSoftware,Altium Limited,Altium Designer,21.2.2 (38)*
G04*
G04 Layer_Color=65535*
%FSLAX25Y25*%
%MOIN*%
G70*
G04*
G04 #@! TF.SameCoordinates,DFD624CB-2947-408E-94CE-297F991FFE17*
G04*
G04*
G04 #@! TF.FilePolarity,Positive*
G04*
G01*
G75*
%ADD10C,0.00984*%
%ADD11C,0.01000*%
%ADD12C,0.00787*%
G36*
X106752Y126772D02*
X106229D01*
X104744Y130605D01*
X105295D01*
X106290Y127819D01*
X106292Y127816D01*
X106295Y127805D01*
X106301Y127786D01*
X106309Y127761D01*
X106320Y127733D01*
X106331Y127697D01*
X106345Y127658D01*
X106362Y127614D01*
X106376Y127567D01*
X106392Y127517D01*
X106425Y127411D01*
X106461Y127301D01*
X106492Y127190D01*
Y127193D01*
X106495Y127204D01*
X106500Y127220D01*
X106509Y127243D01*
X106517Y127273D01*
X106525Y127306D01*
X106539Y127345D01*
X106550Y127387D01*
X106567Y127431D01*
X106580Y127481D01*
X106600Y127533D01*
X106617Y127586D01*
X106655Y127702D01*
X106700Y127819D01*
X107736Y130605D01*
X108254D01*
X106752Y126772D01*
D02*
G37*
G36*
X104331Y130107D02*
X102797D01*
X102592Y129074D01*
X102594Y129076D01*
X102608Y129085D01*
X102625Y129096D01*
X102653Y129112D01*
X102683Y129129D01*
X102719Y129151D01*
X102763Y129171D01*
X102811Y129195D01*
X102863Y129218D01*
X102919Y129240D01*
X102980Y129259D01*
X103041Y129276D01*
X103107Y129292D01*
X103173Y129303D01*
X103245Y129312D01*
X103315Y129314D01*
X103337D01*
X103365Y129312D01*
X103398Y129309D01*
X103442Y129303D01*
X103492Y129295D01*
X103550Y129284D01*
X103611Y129270D01*
X103675Y129254D01*
X103744Y129229D01*
X103813Y129201D01*
X103885Y129168D01*
X103957Y129126D01*
X104029Y129082D01*
X104099Y129026D01*
X104165Y128965D01*
X104168Y128963D01*
X104179Y128949D01*
X104198Y128929D01*
X104220Y128902D01*
X104245Y128868D01*
X104276Y128827D01*
X104306Y128777D01*
X104340Y128722D01*
X104370Y128661D01*
X104401Y128594D01*
X104431Y128519D01*
X104459Y128442D01*
X104478Y128356D01*
X104498Y128265D01*
X104509Y128171D01*
X104511Y128071D01*
Y128068D01*
Y128065D01*
Y128057D01*
Y128049D01*
X104509Y128021D01*
X104506Y127985D01*
X104503Y127938D01*
X104495Y127885D01*
X104486Y127827D01*
X104473Y127763D01*
X104456Y127694D01*
X104437Y127622D01*
X104412Y127547D01*
X104384Y127472D01*
X104348Y127395D01*
X104306Y127320D01*
X104259Y127245D01*
X104207Y127173D01*
X104201Y127168D01*
X104190Y127154D01*
X104168Y127132D01*
X104140Y127101D01*
X104101Y127065D01*
X104057Y127026D01*
X104004Y126985D01*
X103944Y126941D01*
X103874Y126896D01*
X103799Y126855D01*
X103716Y126816D01*
X103625Y126780D01*
X103528Y126752D01*
X103426Y126727D01*
X103315Y126714D01*
X103198Y126708D01*
X103176D01*
X103148Y126711D01*
X103112Y126714D01*
X103068Y126716D01*
X103016Y126725D01*
X102957Y126733D01*
X102896Y126744D01*
X102830Y126761D01*
X102761Y126780D01*
X102689Y126802D01*
X102617Y126830D01*
X102547Y126863D01*
X102475Y126902D01*
X102409Y126949D01*
X102345Y126999D01*
X102342Y127002D01*
X102331Y127013D01*
X102315Y127029D01*
X102293Y127051D01*
X102268Y127082D01*
X102237Y127118D01*
X102207Y127159D01*
X102173Y127207D01*
X102140Y127259D01*
X102110Y127317D01*
X102076Y127381D01*
X102046Y127450D01*
X102021Y127525D01*
X101999Y127605D01*
X101980Y127689D01*
X101969Y127777D01*
X102462Y127819D01*
Y127816D01*
X102464Y127802D01*
X102467Y127786D01*
X102473Y127761D01*
X102481Y127730D01*
X102489Y127694D01*
X102500Y127655D01*
X102514Y127614D01*
X102547Y127528D01*
X102567Y127481D01*
X102589Y127436D01*
X102617Y127392D01*
X102644Y127351D01*
X102678Y127312D01*
X102714Y127276D01*
X102716Y127273D01*
X102722Y127268D01*
X102733Y127259D01*
X102750Y127248D01*
X102769Y127234D01*
X102794Y127218D01*
X102819Y127204D01*
X102849Y127187D01*
X102883Y127168D01*
X102921Y127154D01*
X102960Y127137D01*
X103005Y127123D01*
X103049Y127112D01*
X103096Y127104D01*
X103146Y127099D01*
X103198Y127096D01*
X103215D01*
X103232Y127099D01*
X103256D01*
X103284Y127104D01*
X103320Y127110D01*
X103359Y127118D01*
X103401Y127129D01*
X103445Y127140D01*
X103492Y127157D01*
X103539Y127179D01*
X103589Y127204D01*
X103636Y127232D01*
X103686Y127268D01*
X103733Y127306D01*
X103777Y127351D01*
X103780Y127353D01*
X103788Y127362D01*
X103799Y127378D01*
X103813Y127398D01*
X103833Y127423D01*
X103852Y127453D01*
X103874Y127489D01*
X103896Y127531D01*
X103916Y127578D01*
X103938Y127628D01*
X103957Y127683D01*
X103977Y127744D01*
X103991Y127810D01*
X104002Y127880D01*
X104010Y127952D01*
X104013Y128029D01*
Y128035D01*
Y128046D01*
X104010Y128068D01*
Y128096D01*
X104007Y128129D01*
X104002Y128171D01*
X103993Y128212D01*
X103985Y128262D01*
X103971Y128312D01*
X103957Y128362D01*
X103938Y128414D01*
X103916Y128470D01*
X103891Y128522D01*
X103860Y128572D01*
X103824Y128622D01*
X103786Y128666D01*
X103783Y128669D01*
X103774Y128677D01*
X103763Y128689D01*
X103744Y128702D01*
X103722Y128722D01*
X103694Y128741D01*
X103664Y128761D01*
X103628Y128783D01*
X103586Y128805D01*
X103542Y128824D01*
X103495Y128846D01*
X103442Y128863D01*
X103384Y128877D01*
X103323Y128888D01*
X103259Y128896D01*
X103193Y128899D01*
X103171D01*
X103154Y128896D01*
X103135D01*
X103110Y128893D01*
X103085Y128891D01*
X103054Y128885D01*
X102991Y128874D01*
X102921Y128855D01*
X102849Y128830D01*
X102780Y128794D01*
X102777D01*
X102772Y128788D01*
X102763Y128783D01*
X102750Y128774D01*
X102716Y128752D01*
X102675Y128722D01*
X102630Y128683D01*
X102583Y128639D01*
X102536Y128586D01*
X102495Y128528D01*
X102052Y128586D01*
X102423Y130555D01*
X104331D01*
Y130107D01*
D02*
G37*
G36*
X185110Y140459D02*
X185138D01*
X185171Y140453D01*
X185207Y140451D01*
X185246Y140445D01*
X185290Y140437D01*
X185335Y140428D01*
X185432Y140403D01*
X185484Y140390D01*
X185534Y140370D01*
X185584Y140351D01*
X185634Y140326D01*
X185637Y140323D01*
X185645Y140320D01*
X185659Y140312D01*
X185678Y140301D01*
X185700Y140287D01*
X185725Y140271D01*
X185753Y140251D01*
X185783Y140229D01*
X185850Y140176D01*
X185916Y140113D01*
X185980Y140041D01*
X186011Y139999D01*
X186038Y139958D01*
X186041Y139955D01*
X186044Y139946D01*
X186052Y139935D01*
X186060Y139916D01*
X186072Y139897D01*
X186083Y139869D01*
X186096Y139841D01*
X186110Y139808D01*
X186121Y139772D01*
X186135Y139736D01*
X186157Y139653D01*
X186174Y139561D01*
X186177Y139514D01*
X186179Y139464D01*
Y139462D01*
Y139453D01*
Y139440D01*
X186177Y139423D01*
Y139401D01*
X186171Y139376D01*
X186169Y139345D01*
X186163Y139315D01*
X186146Y139243D01*
X186121Y139168D01*
X186108Y139129D01*
X186088Y139088D01*
X186069Y139049D01*
X186044Y139010D01*
X186041Y139007D01*
X186038Y139002D01*
X186030Y138991D01*
X186019Y138977D01*
X186005Y138960D01*
X185988Y138941D01*
X185969Y138919D01*
X185944Y138894D01*
X185919Y138869D01*
X185889Y138844D01*
X185858Y138816D01*
X185822Y138789D01*
X185783Y138764D01*
X185742Y138736D01*
X185698Y138711D01*
X185651Y138689D01*
X185653D01*
X185664Y138686D01*
X185684Y138681D01*
X185706Y138672D01*
X185736Y138664D01*
X185770Y138650D01*
X185806Y138636D01*
X185844Y138617D01*
X185886Y138598D01*
X185930Y138573D01*
X185975Y138548D01*
X186019Y138517D01*
X186060Y138484D01*
X186102Y138448D01*
X186144Y138406D01*
X186179Y138362D01*
X186182Y138359D01*
X186188Y138351D01*
X186196Y138337D01*
X186210Y138318D01*
X186224Y138293D01*
X186240Y138265D01*
X186257Y138232D01*
X186274Y138193D01*
X186290Y138149D01*
X186310Y138102D01*
X186324Y138052D01*
X186337Y137996D01*
X186351Y137938D01*
X186360Y137877D01*
X186365Y137814D01*
X186368Y137744D01*
Y137739D01*
Y137722D01*
X186365Y137695D01*
X186362Y137661D01*
X186357Y137617D01*
X186348Y137567D01*
X186337Y137512D01*
X186321Y137451D01*
X186301Y137384D01*
X186279Y137318D01*
X186249Y137246D01*
X186213Y137174D01*
X186171Y137102D01*
X186121Y137030D01*
X186063Y136960D01*
X186000Y136894D01*
X185994Y136891D01*
X185983Y136880D01*
X185963Y136861D01*
X185933Y136838D01*
X185897Y136814D01*
X185855Y136783D01*
X185803Y136753D01*
X185747Y136719D01*
X185684Y136686D01*
X185612Y136656D01*
X185537Y136625D01*
X185454Y136600D01*
X185368Y136578D01*
X185274Y136559D01*
X185177Y136548D01*
X185074Y136545D01*
X185052D01*
X185024Y136548D01*
X184991Y136550D01*
X184947Y136553D01*
X184897Y136562D01*
X184842Y136570D01*
X184781Y136584D01*
X184717Y136598D01*
X184648Y136617D01*
X184579Y136642D01*
X184506Y136672D01*
X184437Y136706D01*
X184368Y136744D01*
X184299Y136792D01*
X184235Y136844D01*
X184232Y136847D01*
X184221Y136858D01*
X184204Y136874D01*
X184182Y136899D01*
X184157Y136930D01*
X184127Y136966D01*
X184097Y137007D01*
X184063Y137055D01*
X184030Y137107D01*
X183997Y137168D01*
X183966Y137232D01*
X183936Y137301D01*
X183911Y137376D01*
X183886Y137453D01*
X183869Y137537D01*
X183858Y137625D01*
X184329Y137689D01*
Y137683D01*
X184332Y137672D01*
X184337Y137650D01*
X184346Y137622D01*
X184354Y137589D01*
X184365Y137553D01*
X184379Y137512D01*
X184393Y137467D01*
X184432Y137370D01*
X184479Y137276D01*
X184506Y137229D01*
X184537Y137185D01*
X184567Y137146D01*
X184603Y137110D01*
X184606Y137107D01*
X184612Y137102D01*
X184623Y137093D01*
X184639Y137082D01*
X184656Y137068D01*
X184681Y137055D01*
X184706Y137038D01*
X184736Y137024D01*
X184770Y137007D01*
X184806Y136991D01*
X184844Y136977D01*
X184886Y136963D01*
X184930Y136952D01*
X184977Y136944D01*
X185024Y136938D01*
X185077Y136935D01*
X185091D01*
X185110Y136938D01*
X185133D01*
X185163Y136944D01*
X185196Y136947D01*
X185232Y136955D01*
X185274Y136963D01*
X185315Y136977D01*
X185362Y136991D01*
X185409Y137010D01*
X185457Y137032D01*
X185504Y137060D01*
X185551Y137091D01*
X185595Y137124D01*
X185639Y137165D01*
X185642Y137168D01*
X185651Y137177D01*
X185661Y137188D01*
X185675Y137207D01*
X185692Y137229D01*
X185711Y137257D01*
X185734Y137287D01*
X185756Y137323D01*
X185775Y137362D01*
X185797Y137406D01*
X185817Y137451D01*
X185833Y137503D01*
X185847Y137556D01*
X185858Y137611D01*
X185866Y137672D01*
X185869Y137733D01*
Y137736D01*
Y137747D01*
Y137764D01*
X185866Y137789D01*
X185864Y137814D01*
X185858Y137847D01*
X185853Y137883D01*
X185842Y137922D01*
X185830Y137963D01*
X185817Y138007D01*
X185800Y138052D01*
X185781Y138096D01*
X185756Y138140D01*
X185725Y138185D01*
X185695Y138226D01*
X185656Y138268D01*
X185653Y138271D01*
X185648Y138276D01*
X185634Y138287D01*
X185617Y138301D01*
X185598Y138318D01*
X185573Y138334D01*
X185542Y138354D01*
X185509Y138373D01*
X185473Y138392D01*
X185432Y138412D01*
X185387Y138428D01*
X185340Y138445D01*
X185290Y138459D01*
X185235Y138470D01*
X185180Y138476D01*
X185119Y138478D01*
X185094D01*
X185066Y138476D01*
X185027Y138473D01*
X184977Y138467D01*
X184922Y138456D01*
X184858Y138445D01*
X184786Y138428D01*
X184839Y138841D01*
X184847D01*
X184855Y138839D01*
X184867D01*
X184891Y138836D01*
X184944D01*
X184964Y138839D01*
X184991Y138841D01*
X185022Y138844D01*
X185055Y138850D01*
X185094Y138855D01*
X185135Y138863D01*
X185177Y138874D01*
X185268Y138902D01*
X185315Y138919D01*
X185362Y138941D01*
X185409Y138963D01*
X185454Y138991D01*
X185457Y138994D01*
X185465Y138999D01*
X185476Y139007D01*
X185493Y139021D01*
X185509Y139038D01*
X185531Y139057D01*
X185551Y139082D01*
X185576Y139110D01*
X185598Y139143D01*
X185620Y139179D01*
X185639Y139218D01*
X185656Y139262D01*
X185673Y139309D01*
X185684Y139362D01*
X185692Y139417D01*
X185695Y139476D01*
Y139478D01*
Y139487D01*
Y139500D01*
X185692Y139520D01*
X185689Y139539D01*
X185687Y139567D01*
X185681Y139595D01*
X185673Y139625D01*
X185651Y139692D01*
X185637Y139728D01*
X185620Y139764D01*
X185601Y139800D01*
X185576Y139836D01*
X185548Y139869D01*
X185518Y139902D01*
X185515Y139905D01*
X185509Y139910D01*
X185501Y139919D01*
X185487Y139930D01*
X185468Y139941D01*
X185448Y139958D01*
X185423Y139971D01*
X185396Y139988D01*
X185365Y140005D01*
X185332Y140018D01*
X185293Y140035D01*
X185254Y140046D01*
X185210Y140057D01*
X185166Y140066D01*
X185116Y140071D01*
X185066Y140074D01*
X185038D01*
X185022Y140071D01*
X184997Y140068D01*
X184969Y140066D01*
X184939Y140060D01*
X184905Y140052D01*
X184833Y140032D01*
X184797Y140018D01*
X184758Y139999D01*
X184720Y139980D01*
X184681Y139958D01*
X184645Y139930D01*
X184609Y139899D01*
X184606Y139897D01*
X184601Y139891D01*
X184592Y139880D01*
X184579Y139866D01*
X184565Y139849D01*
X184548Y139827D01*
X184531Y139800D01*
X184512Y139772D01*
X184493Y139736D01*
X184473Y139697D01*
X184451Y139656D01*
X184434Y139609D01*
X184415Y139559D01*
X184401Y139506D01*
X184387Y139448D01*
X184376Y139384D01*
X183905Y139467D01*
Y139470D01*
Y139473D01*
X183911Y139489D01*
X183916Y139512D01*
X183925Y139545D01*
X183936Y139586D01*
X183950Y139631D01*
X183966Y139681D01*
X183986Y139736D01*
X184011Y139794D01*
X184038Y139855D01*
X184072Y139916D01*
X184108Y139977D01*
X184146Y140038D01*
X184191Y140096D01*
X184240Y140152D01*
X184296Y140201D01*
X184299Y140204D01*
X184310Y140212D01*
X184326Y140226D01*
X184351Y140243D01*
X184382Y140262D01*
X184418Y140284D01*
X184459Y140307D01*
X184506Y140331D01*
X184559Y140356D01*
X184617Y140379D01*
X184678Y140401D01*
X184745Y140420D01*
X184817Y140437D01*
X184894Y140451D01*
X184975Y140459D01*
X185058Y140462D01*
X185088D01*
X185110Y140459D01*
D02*
G37*
G36*
X188639Y136614D02*
X188116D01*
X186631Y140448D01*
X187182D01*
X188177Y137661D01*
X188180Y137659D01*
X188182Y137647D01*
X188188Y137628D01*
X188196Y137603D01*
X188207Y137575D01*
X188218Y137539D01*
X188232Y137501D01*
X188249Y137456D01*
X188263Y137409D01*
X188279Y137359D01*
X188312Y137254D01*
X188348Y137143D01*
X188379Y137032D01*
Y137035D01*
X188382Y137046D01*
X188387Y137063D01*
X188396Y137085D01*
X188404Y137116D01*
X188412Y137149D01*
X188426Y137188D01*
X188437Y137229D01*
X188454Y137273D01*
X188468Y137323D01*
X188487Y137376D01*
X188504Y137428D01*
X188542Y137545D01*
X188587Y137661D01*
X189623Y140448D01*
X190141D01*
X188639Y136614D01*
D02*
G37*
G36*
X135099Y142520D02*
X134575D01*
X133090Y146353D01*
X133642D01*
X134636Y143567D01*
X134639Y143564D01*
X134642Y143553D01*
X134647Y143534D01*
X134655Y143509D01*
X134667Y143481D01*
X134678Y143445D01*
X134692Y143406D01*
X134708Y143362D01*
X134722Y143315D01*
X134739Y143265D01*
X134772Y143160D01*
X134808Y143049D01*
X134838Y142938D01*
Y142941D01*
X134841Y142952D01*
X134847Y142968D01*
X134855Y142991D01*
X134863Y143021D01*
X134872Y143054D01*
X134886Y143093D01*
X134897Y143135D01*
X134913Y143179D01*
X134927Y143229D01*
X134946Y143281D01*
X134963Y143334D01*
X135002Y143450D01*
X135046Y143567D01*
X136082Y146353D01*
X136600D01*
X135099Y142520D01*
D02*
G37*
G36*
X132678Y145855D02*
X131143D01*
X130938Y144822D01*
X130941Y144824D01*
X130955Y144833D01*
X130972Y144844D01*
X130999Y144860D01*
X131030Y144877D01*
X131066Y144899D01*
X131110Y144919D01*
X131157Y144943D01*
X131210Y144966D01*
X131265Y144988D01*
X131326Y145007D01*
X131387Y145024D01*
X131453Y145040D01*
X131520Y145052D01*
X131592Y145060D01*
X131661Y145063D01*
X131683D01*
X131711Y145060D01*
X131744Y145057D01*
X131789Y145052D01*
X131839Y145043D01*
X131897Y145032D01*
X131958Y145018D01*
X132021Y145002D01*
X132090Y144977D01*
X132160Y144949D01*
X132232Y144916D01*
X132304Y144874D01*
X132376Y144830D01*
X132445Y144774D01*
X132512Y144713D01*
X132514Y144711D01*
X132525Y144697D01*
X132545Y144677D01*
X132567Y144650D01*
X132592Y144617D01*
X132622Y144575D01*
X132653Y144525D01*
X132686Y144470D01*
X132717Y144409D01*
X132747Y144342D01*
X132778Y144268D01*
X132805Y144190D01*
X132825Y144104D01*
X132844Y144013D01*
X132855Y143919D01*
X132858Y143819D01*
Y143816D01*
Y143813D01*
Y143805D01*
Y143797D01*
X132855Y143769D01*
X132852Y143733D01*
X132850Y143686D01*
X132841Y143633D01*
X132833Y143575D01*
X132819Y143511D01*
X132802Y143442D01*
X132783Y143370D01*
X132758Y143295D01*
X132730Y143220D01*
X132694Y143143D01*
X132653Y143068D01*
X132606Y142993D01*
X132553Y142921D01*
X132548Y142916D01*
X132536Y142902D01*
X132514Y142880D01*
X132487Y142849D01*
X132448Y142813D01*
X132404Y142774D01*
X132351Y142733D01*
X132290Y142689D01*
X132221Y142644D01*
X132146Y142603D01*
X132063Y142564D01*
X131971Y142528D01*
X131875Y142500D01*
X131772Y142475D01*
X131661Y142462D01*
X131545Y142456D01*
X131523D01*
X131495Y142459D01*
X131459Y142462D01*
X131415Y142464D01*
X131362Y142473D01*
X131304Y142481D01*
X131243Y142492D01*
X131176Y142509D01*
X131107Y142528D01*
X131035Y142550D01*
X130963Y142578D01*
X130894Y142611D01*
X130822Y142650D01*
X130755Y142697D01*
X130692Y142747D01*
X130689Y142750D01*
X130678Y142761D01*
X130661Y142777D01*
X130639Y142799D01*
X130614Y142830D01*
X130584Y142866D01*
X130553Y142908D01*
X130520Y142955D01*
X130487Y143007D01*
X130456Y143065D01*
X130423Y143129D01*
X130393Y143198D01*
X130368Y143273D01*
X130345Y143353D01*
X130326Y143437D01*
X130315Y143525D01*
X130808Y143567D01*
Y143564D01*
X130811Y143550D01*
X130814Y143534D01*
X130819Y143509D01*
X130827Y143478D01*
X130836Y143442D01*
X130847Y143403D01*
X130861Y143362D01*
X130894Y143276D01*
X130913Y143229D01*
X130935Y143184D01*
X130963Y143140D01*
X130991Y143099D01*
X131024Y143060D01*
X131060Y143024D01*
X131063Y143021D01*
X131068Y143016D01*
X131079Y143007D01*
X131096Y142996D01*
X131115Y142982D01*
X131140Y142966D01*
X131165Y142952D01*
X131196Y142935D01*
X131229Y142916D01*
X131268Y142902D01*
X131307Y142885D01*
X131351Y142871D01*
X131395Y142860D01*
X131442Y142852D01*
X131492Y142847D01*
X131545Y142844D01*
X131562D01*
X131578Y142847D01*
X131603D01*
X131631Y142852D01*
X131667Y142858D01*
X131705Y142866D01*
X131747Y142877D01*
X131791Y142888D01*
X131839Y142905D01*
X131886Y142927D01*
X131935Y142952D01*
X131983Y142980D01*
X132032Y143016D01*
X132079Y143054D01*
X132124Y143099D01*
X132126Y143101D01*
X132135Y143110D01*
X132146Y143126D01*
X132160Y143146D01*
X132179Y143171D01*
X132199Y143201D01*
X132221Y143237D01*
X132243Y143279D01*
X132262Y143326D01*
X132284Y143376D01*
X132304Y143431D01*
X132323Y143492D01*
X132337Y143558D01*
X132348Y143628D01*
X132356Y143700D01*
X132359Y143777D01*
Y143783D01*
Y143794D01*
X132356Y143816D01*
Y143844D01*
X132354Y143877D01*
X132348Y143919D01*
X132340Y143960D01*
X132332Y144010D01*
X132318Y144060D01*
X132304Y144110D01*
X132284Y144162D01*
X132262Y144218D01*
X132237Y144270D01*
X132207Y144320D01*
X132171Y144370D01*
X132132Y144414D01*
X132129Y144417D01*
X132121Y144425D01*
X132110Y144437D01*
X132090Y144450D01*
X132068Y144470D01*
X132041Y144489D01*
X132010Y144509D01*
X131974Y144531D01*
X131933Y144553D01*
X131888Y144572D01*
X131841Y144594D01*
X131789Y144611D01*
X131730Y144625D01*
X131669Y144636D01*
X131606Y144644D01*
X131539Y144647D01*
X131517D01*
X131500Y144644D01*
X131481D01*
X131456Y144641D01*
X131431Y144639D01*
X131401Y144633D01*
X131337Y144622D01*
X131268Y144603D01*
X131196Y144578D01*
X131127Y144542D01*
X131124D01*
X131118Y144536D01*
X131110Y144531D01*
X131096Y144522D01*
X131063Y144500D01*
X131021Y144470D01*
X130977Y144431D01*
X130930Y144387D01*
X130883Y144334D01*
X130841Y144276D01*
X130398Y144334D01*
X130769Y146303D01*
X132678D01*
Y145855D01*
D02*
G37*
G36*
X154784Y133465D02*
X154260D01*
X152776Y137298D01*
X153327D01*
X154321Y134512D01*
X154324Y134509D01*
X154327Y134498D01*
X154332Y134478D01*
X154341Y134453D01*
X154352Y134426D01*
X154363Y134390D01*
X154377Y134351D01*
X154393Y134307D01*
X154407Y134260D01*
X154424Y134210D01*
X154457Y134104D01*
X154493Y133994D01*
X154523Y133883D01*
Y133886D01*
X154526Y133897D01*
X154532Y133913D01*
X154540Y133935D01*
X154548Y133966D01*
X154557Y133999D01*
X154570Y134038D01*
X154582Y134080D01*
X154598Y134124D01*
X154612Y134174D01*
X154631Y134226D01*
X154648Y134279D01*
X154687Y134395D01*
X154731Y134512D01*
X155767Y137298D01*
X156285D01*
X154784Y133465D01*
D02*
G37*
G36*
X152363Y136800D02*
X150828D01*
X150623Y135766D01*
X150626Y135769D01*
X150640Y135777D01*
X150656Y135789D01*
X150684Y135805D01*
X150715Y135822D01*
X150751Y135844D01*
X150795Y135863D01*
X150842Y135888D01*
X150895Y135910D01*
X150950Y135933D01*
X151011Y135952D01*
X151072Y135969D01*
X151138Y135985D01*
X151205Y135996D01*
X151277Y136005D01*
X151346Y136007D01*
X151368D01*
X151396Y136005D01*
X151429Y136002D01*
X151474Y135996D01*
X151523Y135988D01*
X151582Y135977D01*
X151643Y135963D01*
X151706Y135947D01*
X151776Y135922D01*
X151845Y135894D01*
X151917Y135861D01*
X151989Y135819D01*
X152061Y135775D01*
X152130Y135719D01*
X152197Y135658D01*
X152199Y135656D01*
X152210Y135642D01*
X152230Y135622D01*
X152252Y135595D01*
X152277Y135562D01*
X152307Y135520D01*
X152338Y135470D01*
X152371Y135415D01*
X152402Y135354D01*
X152432Y135287D01*
X152462Y135212D01*
X152490Y135135D01*
X152510Y135049D01*
X152529Y134958D01*
X152540Y134863D01*
X152543Y134764D01*
Y134761D01*
Y134758D01*
Y134750D01*
Y134741D01*
X152540Y134714D01*
X152537Y134678D01*
X152534Y134631D01*
X152526Y134578D01*
X152518Y134520D01*
X152504Y134456D01*
X152488Y134387D01*
X152468Y134315D01*
X152443Y134240D01*
X152415Y134165D01*
X152379Y134088D01*
X152338Y134013D01*
X152291Y133938D01*
X152238Y133866D01*
X152233Y133861D01*
X152222Y133847D01*
X152199Y133825D01*
X152172Y133794D01*
X152133Y133758D01*
X152089Y133719D01*
X152036Y133678D01*
X151975Y133633D01*
X151906Y133589D01*
X151831Y133548D01*
X151748Y133509D01*
X151656Y133473D01*
X151559Y133445D01*
X151457Y133420D01*
X151346Y133406D01*
X151230Y133401D01*
X151208D01*
X151180Y133404D01*
X151144Y133406D01*
X151100Y133409D01*
X151047Y133417D01*
X150989Y133426D01*
X150928Y133437D01*
X150862Y133454D01*
X150792Y133473D01*
X150720Y133495D01*
X150648Y133523D01*
X150579Y133556D01*
X150507Y133595D01*
X150440Y133642D01*
X150377Y133692D01*
X150374Y133695D01*
X150363Y133706D01*
X150346Y133722D01*
X150324Y133744D01*
X150299Y133775D01*
X150269Y133811D01*
X150238Y133852D01*
X150205Y133899D01*
X150172Y133952D01*
X150141Y134010D01*
X150108Y134074D01*
X150078Y134143D01*
X150053Y134218D01*
X150031Y134298D01*
X150011Y134381D01*
X150000Y134470D01*
X150493Y134512D01*
Y134509D01*
X150496Y134495D01*
X150499Y134478D01*
X150504Y134453D01*
X150512Y134423D01*
X150521Y134387D01*
X150532Y134348D01*
X150546Y134307D01*
X150579Y134221D01*
X150598Y134174D01*
X150620Y134129D01*
X150648Y134085D01*
X150676Y134044D01*
X150709Y134005D01*
X150745Y133969D01*
X150748Y133966D01*
X150753Y133960D01*
X150765Y133952D01*
X150781Y133941D01*
X150801Y133927D01*
X150826Y133911D01*
X150850Y133897D01*
X150881Y133880D01*
X150914Y133861D01*
X150953Y133847D01*
X150992Y133830D01*
X151036Y133816D01*
X151080Y133805D01*
X151127Y133797D01*
X151177Y133791D01*
X151230Y133789D01*
X151247D01*
X151263Y133791D01*
X151288D01*
X151316Y133797D01*
X151352Y133802D01*
X151391Y133811D01*
X151432Y133822D01*
X151476Y133833D01*
X151523Y133850D01*
X151571Y133872D01*
X151620Y133897D01*
X151667Y133924D01*
X151717Y133960D01*
X151765Y133999D01*
X151809Y134044D01*
X151812Y134046D01*
X151820Y134055D01*
X151831Y134071D01*
X151845Y134091D01*
X151864Y134116D01*
X151884Y134146D01*
X151906Y134182D01*
X151928Y134224D01*
X151947Y134271D01*
X151970Y134320D01*
X151989Y134376D01*
X152008Y134437D01*
X152022Y134503D01*
X152033Y134573D01*
X152041Y134645D01*
X152044Y134722D01*
Y134728D01*
Y134739D01*
X152041Y134761D01*
Y134789D01*
X152039Y134822D01*
X152033Y134863D01*
X152025Y134905D01*
X152017Y134955D01*
X152003Y135005D01*
X151989Y135055D01*
X151970Y135107D01*
X151947Y135163D01*
X151922Y135215D01*
X151892Y135265D01*
X151856Y135315D01*
X151817Y135359D01*
X151814Y135362D01*
X151806Y135370D01*
X151795Y135381D01*
X151776Y135395D01*
X151753Y135415D01*
X151726Y135434D01*
X151695Y135453D01*
X151659Y135476D01*
X151618Y135498D01*
X151573Y135517D01*
X151526Y135539D01*
X151474Y135556D01*
X151416Y135570D01*
X151355Y135581D01*
X151291Y135589D01*
X151224Y135592D01*
X151202D01*
X151186Y135589D01*
X151166D01*
X151141Y135586D01*
X151116Y135584D01*
X151086Y135578D01*
X151022Y135567D01*
X150953Y135548D01*
X150881Y135523D01*
X150812Y135487D01*
X150809D01*
X150803Y135481D01*
X150795Y135476D01*
X150781Y135467D01*
X150748Y135445D01*
X150706Y135415D01*
X150662Y135376D01*
X150615Y135331D01*
X150568Y135279D01*
X150526Y135221D01*
X150083Y135279D01*
X150454Y137248D01*
X152363D01*
Y136800D01*
D02*
G37*
G36*
X154195Y165004D02*
Y165001D01*
Y164998D01*
Y164990D01*
Y164979D01*
Y164965D01*
Y164948D01*
X154192Y164909D01*
Y164859D01*
X154189Y164804D01*
X154184Y164740D01*
X154178Y164674D01*
X154170Y164602D01*
X154162Y164527D01*
X154139Y164375D01*
X154123Y164297D01*
X154106Y164225D01*
X154084Y164153D01*
X154062Y164087D01*
X154059Y164084D01*
X154056Y164073D01*
X154048Y164053D01*
X154037Y164031D01*
X154020Y164001D01*
X154004Y163968D01*
X153982Y163932D01*
X153954Y163890D01*
X153923Y163846D01*
X153890Y163801D01*
X153851Y163757D01*
X153807Y163710D01*
X153760Y163663D01*
X153710Y163619D01*
X153652Y163574D01*
X153591Y163533D01*
X153588Y163530D01*
X153574Y163524D01*
X153555Y163513D01*
X153530Y163499D01*
X153494Y163483D01*
X153455Y163466D01*
X153405Y163447D01*
X153353Y163427D01*
X153289Y163408D01*
X153223Y163389D01*
X153151Y163372D01*
X153070Y163355D01*
X152984Y163341D01*
X152893Y163330D01*
X152799Y163325D01*
X152696Y163322D01*
X152644D01*
X152608Y163325D01*
X152561Y163328D01*
X152508Y163333D01*
X152447Y163339D01*
X152383Y163344D01*
X152314Y163355D01*
X152242Y163366D01*
X152170Y163383D01*
X152095Y163400D01*
X152023Y163422D01*
X151948Y163447D01*
X151879Y163475D01*
X151813Y163508D01*
X151810Y163511D01*
X151799Y163516D01*
X151779Y163527D01*
X151757Y163541D01*
X151730Y163560D01*
X151696Y163585D01*
X151663Y163613D01*
X151624Y163643D01*
X151585Y163679D01*
X151544Y163721D01*
X151502Y163763D01*
X151464Y163812D01*
X151425Y163862D01*
X151389Y163920D01*
X151356Y163979D01*
X151325Y164042D01*
X151322Y164048D01*
X151320Y164059D01*
X151311Y164078D01*
X151303Y164106D01*
X151292Y164142D01*
X151281Y164186D01*
X151267Y164236D01*
X151253Y164294D01*
X151239Y164361D01*
X151225Y164433D01*
X151214Y164510D01*
X151203Y164596D01*
X151195Y164688D01*
X151187Y164787D01*
X151184Y164893D01*
X151181Y165004D01*
Y167219D01*
X151688D01*
Y165006D01*
Y165001D01*
Y164984D01*
Y164959D01*
X151691Y164926D01*
Y164884D01*
X151694Y164837D01*
X151696Y164785D01*
X151699Y164726D01*
X151705Y164668D01*
X151710Y164607D01*
X151727Y164486D01*
X151738Y164427D01*
X151749Y164369D01*
X151763Y164317D01*
X151779Y164269D01*
Y164267D01*
X151785Y164258D01*
X151790Y164247D01*
X151799Y164231D01*
X151807Y164211D01*
X151821Y164189D01*
X151854Y164137D01*
X151899Y164078D01*
X151924Y164048D01*
X151954Y164017D01*
X151984Y163987D01*
X152020Y163959D01*
X152056Y163932D01*
X152098Y163907D01*
X152101D01*
X152109Y163901D01*
X152120Y163895D01*
X152139Y163887D01*
X152162Y163876D01*
X152187Y163865D01*
X152217Y163854D01*
X152253Y163843D01*
X152292Y163832D01*
X152333Y163821D01*
X152378Y163810D01*
X152428Y163799D01*
X152480Y163790D01*
X152536Y163785D01*
X152591Y163782D01*
X152652Y163779D01*
X152677D01*
X152705Y163782D01*
X152743D01*
X152790Y163787D01*
X152840Y163793D01*
X152899Y163801D01*
X152962Y163810D01*
X153026Y163823D01*
X153092Y163840D01*
X153159Y163862D01*
X153225Y163884D01*
X153289Y163915D01*
X153347Y163948D01*
X153403Y163987D01*
X153450Y164031D01*
X153453Y164034D01*
X153461Y164042D01*
X153472Y164059D01*
X153486Y164081D01*
X153505Y164112D01*
X153524Y164150D01*
X153547Y164195D01*
X153569Y164250D01*
X153591Y164311D01*
X153613Y164380D01*
X153632Y164461D01*
X153652Y164549D01*
X153666Y164649D01*
X153677Y164757D01*
X153685Y164876D01*
X153688Y165006D01*
Y167219D01*
X154195D01*
Y165004D01*
D02*
G37*
G36*
X156621Y163386D02*
X156150D01*
Y166383D01*
X156148Y166380D01*
X156142Y166375D01*
X156134Y166366D01*
X156120Y166355D01*
X156103Y166341D01*
X156081Y166322D01*
X156056Y166303D01*
X156031Y166280D01*
X155998Y166258D01*
X155965Y166231D01*
X155929Y166206D01*
X155890Y166175D01*
X155846Y166147D01*
X155801Y166117D01*
X155702Y166056D01*
X155699Y166053D01*
X155691Y166048D01*
X155674Y166040D01*
X155655Y166031D01*
X155632Y166017D01*
X155605Y166001D01*
X155572Y165984D01*
X155538Y165965D01*
X155461Y165926D01*
X155378Y165887D01*
X155292Y165848D01*
X155209Y165815D01*
Y166269D01*
X155214Y166272D01*
X155225Y166278D01*
X155247Y166289D01*
X155275Y166303D01*
X155308Y166319D01*
X155350Y166341D01*
X155394Y166366D01*
X155441Y166394D01*
X155494Y166427D01*
X155549Y166461D01*
X155666Y166538D01*
X155785Y166624D01*
X155898Y166718D01*
X155901Y166721D01*
X155912Y166729D01*
X155926Y166743D01*
X155946Y166762D01*
X155970Y166787D01*
X155998Y166815D01*
X156029Y166848D01*
X156062Y166882D01*
X156095Y166920D01*
X156131Y166962D01*
X156200Y167048D01*
X156264Y167139D01*
X156292Y167186D01*
X156317Y167233D01*
X156621D01*
Y163386D01*
D02*
G37*
G36*
X135511Y120845D02*
X135539D01*
X135572Y120839D01*
X135608Y120836D01*
X135647Y120831D01*
X135691Y120823D01*
X135735Y120814D01*
X135832Y120789D01*
X135885Y120775D01*
X135935Y120756D01*
X135985Y120737D01*
X136035Y120712D01*
X136037Y120709D01*
X136046Y120706D01*
X136059Y120698D01*
X136079Y120687D01*
X136101Y120673D01*
X136126Y120656D01*
X136154Y120637D01*
X136184Y120615D01*
X136250Y120562D01*
X136317Y120499D01*
X136381Y120426D01*
X136411Y120385D01*
X136439Y120343D01*
X136442Y120341D01*
X136444Y120332D01*
X136453Y120321D01*
X136461Y120302D01*
X136472Y120282D01*
X136483Y120255D01*
X136497Y120227D01*
X136511Y120194D01*
X136522Y120158D01*
X136536Y120122D01*
X136558Y120039D01*
X136575Y119947D01*
X136577Y119900D01*
X136580Y119850D01*
Y119848D01*
Y119839D01*
Y119825D01*
X136577Y119809D01*
Y119787D01*
X136572Y119762D01*
X136569Y119731D01*
X136564Y119701D01*
X136547Y119629D01*
X136522Y119554D01*
X136508Y119515D01*
X136489Y119474D01*
X136469Y119435D01*
X136444Y119396D01*
X136442Y119393D01*
X136439Y119388D01*
X136431Y119377D01*
X136419Y119363D01*
X136406Y119346D01*
X136389Y119327D01*
X136370Y119305D01*
X136345Y119280D01*
X136320Y119255D01*
X136289Y119230D01*
X136259Y119202D01*
X136223Y119175D01*
X136184Y119149D01*
X136143Y119122D01*
X136098Y119097D01*
X136051Y119075D01*
X136054D01*
X136065Y119072D01*
X136084Y119066D01*
X136107Y119058D01*
X136137Y119050D01*
X136170Y119036D01*
X136206Y119022D01*
X136245Y119003D01*
X136287Y118983D01*
X136331Y118958D01*
X136375Y118933D01*
X136419Y118903D01*
X136461Y118870D01*
X136503Y118834D01*
X136544Y118792D01*
X136580Y118748D01*
X136583Y118745D01*
X136589Y118737D01*
X136597Y118723D01*
X136611Y118703D01*
X136625Y118679D01*
X136641Y118651D01*
X136658Y118618D01*
X136674Y118579D01*
X136691Y118535D01*
X136710Y118488D01*
X136724Y118438D01*
X136738Y118382D01*
X136752Y118324D01*
X136760Y118263D01*
X136766Y118199D01*
X136768Y118130D01*
Y118125D01*
Y118108D01*
X136766Y118080D01*
X136763Y118047D01*
X136758Y118003D01*
X136749Y117953D01*
X136738Y117897D01*
X136722Y117836D01*
X136702Y117770D01*
X136680Y117704D01*
X136649Y117632D01*
X136613Y117560D01*
X136572Y117488D01*
X136522Y117415D01*
X136464Y117346D01*
X136400Y117280D01*
X136395Y117277D01*
X136383Y117266D01*
X136364Y117246D01*
X136334Y117224D01*
X136298Y117199D01*
X136256Y117169D01*
X136204Y117139D01*
X136148Y117105D01*
X136084Y117072D01*
X136012Y117042D01*
X135938Y117011D01*
X135854Y116986D01*
X135769Y116964D01*
X135674Y116945D01*
X135577Y116934D01*
X135475Y116931D01*
X135453D01*
X135425Y116934D01*
X135392Y116936D01*
X135347Y116939D01*
X135298Y116947D01*
X135242Y116956D01*
X135181Y116970D01*
X135118Y116983D01*
X135048Y117003D01*
X134979Y117028D01*
X134907Y117058D01*
X134838Y117091D01*
X134769Y117130D01*
X134699Y117177D01*
X134636Y117230D01*
X134633Y117233D01*
X134622Y117244D01*
X134605Y117260D01*
X134583Y117285D01*
X134558Y117316D01*
X134528Y117352D01*
X134497Y117393D01*
X134464Y117440D01*
X134431Y117493D01*
X134397Y117554D01*
X134367Y117618D01*
X134336Y117687D01*
X134312Y117762D01*
X134287Y117839D01*
X134270Y117922D01*
X134259Y118011D01*
X134730Y118075D01*
Y118069D01*
X134733Y118058D01*
X134738Y118036D01*
X134746Y118008D01*
X134755Y117975D01*
X134766Y117939D01*
X134780Y117897D01*
X134793Y117853D01*
X134832Y117756D01*
X134879Y117662D01*
X134907Y117615D01*
X134938Y117571D01*
X134968Y117532D01*
X135004Y117496D01*
X135007Y117493D01*
X135012Y117488D01*
X135023Y117479D01*
X135040Y117468D01*
X135057Y117454D01*
X135082Y117440D01*
X135107Y117424D01*
X135137Y117410D01*
X135170Y117393D01*
X135206Y117377D01*
X135245Y117363D01*
X135287Y117349D01*
X135331Y117338D01*
X135378Y117330D01*
X135425Y117324D01*
X135478Y117321D01*
X135492D01*
X135511Y117324D01*
X135533D01*
X135564Y117330D01*
X135597Y117332D01*
X135633Y117341D01*
X135674Y117349D01*
X135716Y117363D01*
X135763Y117377D01*
X135810Y117396D01*
X135857Y117418D01*
X135904Y117446D01*
X135951Y117476D01*
X135996Y117510D01*
X136040Y117551D01*
X136043Y117554D01*
X136051Y117562D01*
X136062Y117573D01*
X136076Y117593D01*
X136093Y117615D01*
X136112Y117643D01*
X136134Y117673D01*
X136156Y117709D01*
X136176Y117748D01*
X136198Y117792D01*
X136217Y117836D01*
X136234Y117889D01*
X136248Y117942D01*
X136259Y117997D01*
X136267Y118058D01*
X136270Y118119D01*
Y118122D01*
Y118133D01*
Y118149D01*
X136267Y118175D01*
X136264Y118199D01*
X136259Y118233D01*
X136253Y118269D01*
X136242Y118307D01*
X136231Y118349D01*
X136217Y118393D01*
X136201Y118438D01*
X136181Y118482D01*
X136156Y118526D01*
X136126Y118571D01*
X136095Y118612D01*
X136057Y118654D01*
X136054Y118657D01*
X136048Y118662D01*
X136035Y118673D01*
X136018Y118687D01*
X135998Y118703D01*
X135974Y118720D01*
X135943Y118740D01*
X135910Y118759D01*
X135874Y118778D01*
X135832Y118798D01*
X135788Y118814D01*
X135741Y118831D01*
X135691Y118845D01*
X135636Y118856D01*
X135580Y118861D01*
X135519Y118864D01*
X135494D01*
X135467Y118861D01*
X135428Y118859D01*
X135378Y118853D01*
X135323Y118842D01*
X135259Y118831D01*
X135187Y118814D01*
X135240Y119227D01*
X135248D01*
X135256Y119224D01*
X135267D01*
X135292Y119221D01*
X135345D01*
X135364Y119224D01*
X135392Y119227D01*
X135422Y119230D01*
X135456Y119235D01*
X135494Y119241D01*
X135536Y119249D01*
X135577Y119260D01*
X135669Y119288D01*
X135716Y119305D01*
X135763Y119327D01*
X135810Y119349D01*
X135854Y119377D01*
X135857Y119379D01*
X135865Y119385D01*
X135877Y119393D01*
X135893Y119407D01*
X135910Y119424D01*
X135932Y119443D01*
X135951Y119468D01*
X135976Y119496D01*
X135998Y119529D01*
X136021Y119565D01*
X136040Y119604D01*
X136057Y119648D01*
X136073Y119695D01*
X136084Y119748D01*
X136093Y119803D01*
X136095Y119861D01*
Y119864D01*
Y119872D01*
Y119886D01*
X136093Y119906D01*
X136090Y119925D01*
X136087Y119953D01*
X136082Y119981D01*
X136073Y120011D01*
X136051Y120078D01*
X136037Y120114D01*
X136021Y120150D01*
X136001Y120185D01*
X135976Y120221D01*
X135949Y120255D01*
X135918Y120288D01*
X135915Y120291D01*
X135910Y120296D01*
X135901Y120305D01*
X135888Y120316D01*
X135868Y120327D01*
X135849Y120343D01*
X135824Y120357D01*
X135796Y120374D01*
X135766Y120390D01*
X135733Y120404D01*
X135694Y120421D01*
X135655Y120432D01*
X135611Y120443D01*
X135566Y120451D01*
X135517Y120457D01*
X135467Y120460D01*
X135439D01*
X135422Y120457D01*
X135397Y120454D01*
X135370Y120451D01*
X135339Y120446D01*
X135306Y120438D01*
X135234Y120418D01*
X135198Y120404D01*
X135159Y120385D01*
X135120Y120366D01*
X135082Y120343D01*
X135046Y120316D01*
X135010Y120285D01*
X135007Y120282D01*
X135001Y120277D01*
X134993Y120266D01*
X134979Y120252D01*
X134965Y120235D01*
X134949Y120213D01*
X134932Y120185D01*
X134913Y120158D01*
X134893Y120122D01*
X134874Y120083D01*
X134852Y120042D01*
X134835Y119994D01*
X134816Y119945D01*
X134802Y119892D01*
X134788Y119834D01*
X134777Y119770D01*
X134306Y119853D01*
Y119856D01*
Y119859D01*
X134312Y119875D01*
X134317Y119897D01*
X134325Y119931D01*
X134336Y119972D01*
X134350Y120017D01*
X134367Y120066D01*
X134386Y120122D01*
X134411Y120180D01*
X134439Y120241D01*
X134472Y120302D01*
X134508Y120363D01*
X134547Y120424D01*
X134591Y120482D01*
X134641Y120537D01*
X134697Y120587D01*
X134699Y120590D01*
X134710Y120598D01*
X134727Y120612D01*
X134752Y120629D01*
X134782Y120648D01*
X134818Y120670D01*
X134860Y120692D01*
X134907Y120717D01*
X134960Y120742D01*
X135018Y120764D01*
X135079Y120787D01*
X135145Y120806D01*
X135217Y120823D01*
X135295Y120836D01*
X135375Y120845D01*
X135458Y120847D01*
X135489D01*
X135511Y120845D01*
D02*
G37*
G36*
X133619Y118222D02*
Y118216D01*
Y118199D01*
Y118175D01*
X133616Y118141D01*
Y118103D01*
X133614Y118055D01*
X133608Y118003D01*
X133605Y117947D01*
X133597Y117889D01*
X133591Y117828D01*
X133569Y117704D01*
X133555Y117643D01*
X133539Y117585D01*
X133522Y117529D01*
X133500Y117476D01*
Y117474D01*
X133494Y117465D01*
X133489Y117452D01*
X133478Y117432D01*
X133467Y117410D01*
X133450Y117385D01*
X133431Y117357D01*
X133411Y117327D01*
X133386Y117296D01*
X133359Y117263D01*
X133328Y117230D01*
X133295Y117197D01*
X133259Y117163D01*
X133220Y117133D01*
X133179Y117103D01*
X133132Y117075D01*
X133129Y117072D01*
X133121Y117069D01*
X133107Y117061D01*
X133087Y117053D01*
X133062Y117042D01*
X133035Y117031D01*
X133001Y117019D01*
X132963Y117006D01*
X132921Y116992D01*
X132877Y116981D01*
X132827Y116970D01*
X132777Y116958D01*
X132722Y116950D01*
X132663Y116942D01*
X132605Y116939D01*
X132542Y116936D01*
X132519D01*
X132494Y116939D01*
X132458Y116942D01*
X132417Y116945D01*
X132367Y116953D01*
X132312Y116961D01*
X132253Y116972D01*
X132193Y116989D01*
X132129Y117006D01*
X132065Y117031D01*
X132001Y117058D01*
X131938Y117091D01*
X131877Y117130D01*
X131819Y117174D01*
X131766Y117224D01*
X131763Y117227D01*
X131755Y117238D01*
X131741Y117255D01*
X131724Y117280D01*
X131705Y117310D01*
X131683Y117346D01*
X131658Y117391D01*
X131636Y117440D01*
X131611Y117499D01*
X131586Y117562D01*
X131567Y117634D01*
X131547Y117712D01*
X131530Y117795D01*
X131519Y117886D01*
X131511Y117983D01*
Y118086D01*
X131968Y118149D01*
Y118144D01*
Y118130D01*
X131971Y118108D01*
X131974Y118078D01*
X131976Y118042D01*
X131982Y118003D01*
X131988Y117958D01*
X131996Y117909D01*
X132015Y117809D01*
X132043Y117709D01*
X132062Y117665D01*
X132082Y117621D01*
X132107Y117582D01*
X132132Y117549D01*
X132134Y117546D01*
X132137Y117543D01*
X132148Y117535D01*
X132159Y117524D01*
X132173Y117512D01*
X132193Y117499D01*
X132212Y117482D01*
X132237Y117468D01*
X132264Y117454D01*
X132295Y117438D01*
X132328Y117424D01*
X132364Y117413D01*
X132406Y117402D01*
X132447Y117396D01*
X132492Y117391D01*
X132539Y117388D01*
X132558D01*
X132572Y117391D01*
X132589D01*
X132608Y117393D01*
X132652Y117399D01*
X132702Y117410D01*
X132758Y117424D01*
X132816Y117446D01*
X132868Y117474D01*
X132871D01*
X132874Y117479D01*
X132890Y117490D01*
X132915Y117510D01*
X132943Y117537D01*
X132976Y117571D01*
X133007Y117612D01*
X133037Y117659D01*
X133060Y117712D01*
Y117715D01*
X133062Y117720D01*
X133065Y117728D01*
X133068Y117740D01*
X133071Y117756D01*
X133076Y117776D01*
X133082Y117800D01*
X133087Y117828D01*
X133090Y117859D01*
X133096Y117895D01*
X133101Y117933D01*
X133104Y117978D01*
X133107Y118025D01*
X133109Y118075D01*
X133112Y118130D01*
Y118191D01*
Y120834D01*
X133619D01*
Y118222D01*
D02*
G37*
G36*
X133500Y134698D02*
X133497D01*
X133492D01*
X133483D01*
X133472D01*
X133456D01*
X133439Y134701D01*
X133395Y134704D01*
X133348Y134709D01*
X133292Y134717D01*
X133234Y134731D01*
X133176Y134751D01*
X133173D01*
X133165Y134756D01*
X133151Y134762D01*
X133132Y134770D01*
X133107Y134778D01*
X133079Y134792D01*
X133048Y134809D01*
X133015Y134825D01*
X132976Y134845D01*
X132938Y134870D01*
X132852Y134922D01*
X132760Y134986D01*
X132666Y135061D01*
X132664Y135064D01*
X132655Y135072D01*
X132641Y135083D01*
X132622Y135100D01*
X132597Y135122D01*
X132569Y135150D01*
X132536Y135180D01*
X132500Y135219D01*
X132458Y135260D01*
X132414Y135305D01*
X132367Y135354D01*
X132314Y135410D01*
X132262Y135471D01*
X132206Y135535D01*
X132148Y135604D01*
X132087Y135676D01*
X132085Y135679D01*
X132082Y135684D01*
X132073Y135692D01*
X132065Y135704D01*
X132051Y135717D01*
X132037Y135734D01*
X132001Y135775D01*
X131960Y135828D01*
X131907Y135883D01*
X131852Y135947D01*
X131791Y136014D01*
X131727Y136086D01*
X131661Y136155D01*
X131594Y136227D01*
X131525Y136293D01*
X131458Y136360D01*
X131395Y136418D01*
X131331Y136474D01*
X131273Y136518D01*
X131270Y136521D01*
X131259Y136526D01*
X131243Y136537D01*
X131223Y136554D01*
X131195Y136571D01*
X131165Y136587D01*
X131129Y136609D01*
X131090Y136629D01*
X131049Y136648D01*
X131004Y136670D01*
X130907Y136706D01*
X130857Y136720D01*
X130808Y136731D01*
X130758Y136737D01*
X130708Y136740D01*
X130705D01*
X130694D01*
X130680D01*
X130661Y136737D01*
X130636Y136734D01*
X130608Y136728D01*
X130578Y136723D01*
X130544Y136714D01*
X130508Y136704D01*
X130470Y136690D01*
X130431Y136673D01*
X130392Y136654D01*
X130350Y136631D01*
X130312Y136604D01*
X130273Y136573D01*
X130237Y136537D01*
X130234Y136535D01*
X130229Y136529D01*
X130220Y136518D01*
X130207Y136501D01*
X130193Y136482D01*
X130176Y136457D01*
X130157Y136429D01*
X130140Y136399D01*
X130121Y136363D01*
X130104Y136324D01*
X130087Y136280D01*
X130073Y136235D01*
X130060Y136186D01*
X130051Y136133D01*
X130046Y136077D01*
X130043Y136019D01*
Y135986D01*
X130046Y135964D01*
X130049Y135933D01*
X130054Y135900D01*
X130060Y135864D01*
X130068Y135823D01*
X130079Y135781D01*
X130093Y135737D01*
X130110Y135692D01*
X130129Y135645D01*
X130154Y135601D01*
X130182Y135557D01*
X130212Y135512D01*
X130248Y135474D01*
X130251Y135471D01*
X130256Y135465D01*
X130270Y135454D01*
X130284Y135443D01*
X130306Y135426D01*
X130331Y135410D01*
X130362Y135390D01*
X130395Y135374D01*
X130431Y135354D01*
X130475Y135335D01*
X130519Y135319D01*
X130569Y135302D01*
X130625Y135291D01*
X130683Y135280D01*
X130744Y135274D01*
X130810Y135271D01*
X130761Y134787D01*
X130758D01*
X130755D01*
X130747Y134789D01*
X130736D01*
X130708Y134792D01*
X130672Y134801D01*
X130628Y134809D01*
X130575Y134820D01*
X130517Y134834D01*
X130456Y134850D01*
X130389Y134872D01*
X130323Y134897D01*
X130254Y134928D01*
X130184Y134964D01*
X130118Y135003D01*
X130054Y135050D01*
X129993Y135100D01*
X129938Y135158D01*
X129935Y135161D01*
X129927Y135172D01*
X129910Y135191D01*
X129894Y135216D01*
X129871Y135249D01*
X129846Y135288D01*
X129821Y135335D01*
X129794Y135388D01*
X129769Y135449D01*
X129744Y135512D01*
X129719Y135584D01*
X129697Y135662D01*
X129677Y135745D01*
X129664Y135834D01*
X129655Y135928D01*
X129653Y136028D01*
Y136053D01*
X129655Y136080D01*
X129658Y136119D01*
X129661Y136166D01*
X129669Y136219D01*
X129677Y136280D01*
X129691Y136343D01*
X129708Y136413D01*
X129727Y136482D01*
X129752Y136557D01*
X129783Y136629D01*
X129819Y136701D01*
X129857Y136770D01*
X129904Y136836D01*
X129960Y136900D01*
X129963Y136903D01*
X129974Y136914D01*
X129990Y136931D01*
X130015Y136950D01*
X130043Y136975D01*
X130079Y137003D01*
X130121Y137033D01*
X130168Y137064D01*
X130220Y137091D01*
X130279Y137122D01*
X130342Y137149D01*
X130409Y137174D01*
X130481Y137194D01*
X130555Y137210D01*
X130636Y137222D01*
X130719Y137224D01*
X130722D01*
X130730D01*
X130741D01*
X130758D01*
X130780Y137222D01*
X130802Y137219D01*
X130830Y137216D01*
X130860Y137213D01*
X130929Y137202D01*
X131007Y137185D01*
X131087Y137161D01*
X131170Y137130D01*
X131173D01*
X131182Y137125D01*
X131193Y137119D01*
X131209Y137111D01*
X131229Y137102D01*
X131254Y137089D01*
X131281Y137075D01*
X131312Y137055D01*
X131345Y137036D01*
X131381Y137014D01*
X131461Y136958D01*
X131503Y136928D01*
X131547Y136895D01*
X131591Y136856D01*
X131639Y136817D01*
X131641Y136814D01*
X131650Y136806D01*
X131664Y136795D01*
X131683Y136776D01*
X131708Y136750D01*
X131738Y136720D01*
X131774Y136687D01*
X131816Y136645D01*
X131860Y136598D01*
X131910Y136543D01*
X131965Y136485D01*
X132026Y136418D01*
X132090Y136346D01*
X132159Y136269D01*
X132234Y136183D01*
X132312Y136091D01*
X132314Y136086D01*
X132328Y136072D01*
X132345Y136053D01*
X132370Y136025D01*
X132397Y135989D01*
X132431Y135953D01*
X132467Y135911D01*
X132506Y135867D01*
X132586Y135773D01*
X132627Y135728D01*
X132666Y135684D01*
X132705Y135643D01*
X132738Y135607D01*
X132769Y135573D01*
X132796Y135548D01*
X132802Y135543D01*
X132819Y135529D01*
X132843Y135507D01*
X132874Y135479D01*
X132913Y135449D01*
X132954Y135415D01*
X133001Y135382D01*
X133048Y135352D01*
Y137230D01*
X133500D01*
Y134698D01*
D02*
G37*
G36*
X132359Y134116D02*
X132397D01*
X132445Y134114D01*
X132497Y134108D01*
X132553Y134105D01*
X132611Y134097D01*
X132672Y134091D01*
X132796Y134069D01*
X132857Y134055D01*
X132915Y134039D01*
X132971Y134022D01*
X133024Y134000D01*
X133026D01*
X133035Y133994D01*
X133048Y133989D01*
X133068Y133978D01*
X133090Y133967D01*
X133115Y133950D01*
X133143Y133931D01*
X133173Y133911D01*
X133204Y133886D01*
X133237Y133859D01*
X133270Y133828D01*
X133303Y133795D01*
X133337Y133759D01*
X133367Y133720D01*
X133397Y133679D01*
X133425Y133632D01*
X133428Y133629D01*
X133431Y133621D01*
X133439Y133607D01*
X133447Y133587D01*
X133458Y133562D01*
X133469Y133535D01*
X133481Y133501D01*
X133494Y133463D01*
X133508Y133421D01*
X133519Y133377D01*
X133530Y133327D01*
X133542Y133277D01*
X133550Y133222D01*
X133558Y133163D01*
X133561Y133105D01*
X133564Y133042D01*
Y133019D01*
X133561Y132994D01*
X133558Y132958D01*
X133555Y132917D01*
X133547Y132867D01*
X133539Y132812D01*
X133528Y132753D01*
X133511Y132693D01*
X133494Y132629D01*
X133469Y132565D01*
X133442Y132501D01*
X133409Y132438D01*
X133370Y132377D01*
X133326Y132319D01*
X133276Y132266D01*
X133273Y132263D01*
X133262Y132255D01*
X133245Y132241D01*
X133220Y132224D01*
X133190Y132205D01*
X133154Y132183D01*
X133109Y132158D01*
X133060Y132136D01*
X133001Y132111D01*
X132938Y132086D01*
X132866Y132067D01*
X132788Y132047D01*
X132705Y132030D01*
X132614Y132019D01*
X132517Y132011D01*
X132414D01*
X132351Y132468D01*
X132356D01*
X132370D01*
X132392Y132471D01*
X132422Y132474D01*
X132458Y132476D01*
X132497Y132482D01*
X132542Y132487D01*
X132591Y132496D01*
X132691Y132515D01*
X132791Y132543D01*
X132835Y132562D01*
X132879Y132582D01*
X132918Y132607D01*
X132951Y132632D01*
X132954Y132634D01*
X132957Y132637D01*
X132965Y132648D01*
X132976Y132659D01*
X132988Y132673D01*
X133001Y132693D01*
X133018Y132712D01*
X133032Y132737D01*
X133046Y132764D01*
X133062Y132795D01*
X133076Y132828D01*
X133087Y132864D01*
X133098Y132906D01*
X133104Y132947D01*
X133109Y132992D01*
X133112Y133039D01*
Y133058D01*
X133109Y133072D01*
Y133089D01*
X133107Y133108D01*
X133101Y133152D01*
X133090Y133202D01*
X133076Y133258D01*
X133054Y133316D01*
X133026Y133368D01*
Y133371D01*
X133021Y133374D01*
X133010Y133390D01*
X132990Y133415D01*
X132963Y133443D01*
X132929Y133476D01*
X132888Y133507D01*
X132841Y133537D01*
X132788Y133560D01*
X132785D01*
X132780Y133562D01*
X132772Y133565D01*
X132760Y133568D01*
X132744Y133571D01*
X132724Y133576D01*
X132700Y133582D01*
X132672Y133587D01*
X132641Y133590D01*
X132605Y133596D01*
X132566Y133601D01*
X132522Y133604D01*
X132475Y133607D01*
X132425Y133609D01*
X132370Y133612D01*
X132309D01*
X129666D01*
Y134119D01*
X132278D01*
X132284D01*
X132301D01*
X132325D01*
X132359Y134116D01*
D02*
G37*
G36*
X169119Y154222D02*
Y154216D01*
Y154199D01*
Y154174D01*
X169116Y154141D01*
Y154103D01*
X169114Y154055D01*
X169108Y154003D01*
X169105Y153947D01*
X169097Y153889D01*
X169091Y153828D01*
X169069Y153704D01*
X169055Y153643D01*
X169039Y153585D01*
X169022Y153529D01*
X169000Y153476D01*
Y153474D01*
X168994Y153465D01*
X168989Y153452D01*
X168978Y153432D01*
X168967Y153410D01*
X168950Y153385D01*
X168931Y153357D01*
X168911Y153327D01*
X168886Y153296D01*
X168859Y153263D01*
X168828Y153230D01*
X168795Y153197D01*
X168759Y153163D01*
X168720Y153133D01*
X168679Y153103D01*
X168631Y153075D01*
X168629Y153072D01*
X168621Y153069D01*
X168607Y153061D01*
X168587Y153053D01*
X168562Y153042D01*
X168535Y153031D01*
X168501Y153019D01*
X168463Y153006D01*
X168421Y152992D01*
X168377Y152981D01*
X168327Y152970D01*
X168277Y152958D01*
X168222Y152950D01*
X168163Y152942D01*
X168105Y152939D01*
X168042Y152936D01*
X168019D01*
X167994Y152939D01*
X167958Y152942D01*
X167917Y152945D01*
X167867Y152953D01*
X167812Y152961D01*
X167753Y152972D01*
X167692Y152989D01*
X167629Y153006D01*
X167565Y153031D01*
X167501Y153058D01*
X167438Y153091D01*
X167377Y153130D01*
X167319Y153174D01*
X167266Y153224D01*
X167263Y153227D01*
X167255Y153238D01*
X167241Y153255D01*
X167224Y153280D01*
X167205Y153310D01*
X167183Y153346D01*
X167158Y153391D01*
X167136Y153440D01*
X167111Y153499D01*
X167086Y153562D01*
X167067Y153634D01*
X167047Y153712D01*
X167031Y153795D01*
X167019Y153886D01*
X167011Y153983D01*
Y154086D01*
X167468Y154149D01*
Y154144D01*
Y154130D01*
X167471Y154108D01*
X167474Y154077D01*
X167476Y154042D01*
X167482Y154003D01*
X167488Y153958D01*
X167496Y153909D01*
X167515Y153809D01*
X167543Y153709D01*
X167562Y153665D01*
X167582Y153621D01*
X167607Y153582D01*
X167632Y153549D01*
X167634Y153546D01*
X167637Y153543D01*
X167648Y153535D01*
X167659Y153524D01*
X167673Y153512D01*
X167692Y153499D01*
X167712Y153482D01*
X167737Y153468D01*
X167764Y153454D01*
X167795Y153438D01*
X167828Y153424D01*
X167864Y153413D01*
X167906Y153402D01*
X167947Y153396D01*
X167992Y153391D01*
X168039Y153388D01*
X168058D01*
X168072Y153391D01*
X168089D01*
X168108Y153393D01*
X168152Y153399D01*
X168202Y153410D01*
X168258Y153424D01*
X168316Y153446D01*
X168368Y153474D01*
X168371D01*
X168374Y153479D01*
X168391Y153490D01*
X168415Y153510D01*
X168443Y153537D01*
X168476Y153571D01*
X168507Y153612D01*
X168537Y153659D01*
X168560Y153712D01*
Y153715D01*
X168562Y153720D01*
X168565Y153728D01*
X168568Y153740D01*
X168571Y153756D01*
X168576Y153776D01*
X168582Y153800D01*
X168587Y153828D01*
X168590Y153859D01*
X168596Y153895D01*
X168601Y153934D01*
X168604Y153978D01*
X168607Y154025D01*
X168609Y154075D01*
X168612Y154130D01*
Y154191D01*
Y156834D01*
X169119D01*
Y154222D01*
D02*
G37*
G36*
X171529Y153000D02*
X171058D01*
Y155997D01*
X171055Y155994D01*
X171050Y155989D01*
X171041Y155981D01*
X171028Y155969D01*
X171011Y155956D01*
X170989Y155936D01*
X170964Y155917D01*
X170939Y155895D01*
X170906Y155872D01*
X170872Y155845D01*
X170836Y155820D01*
X170798Y155789D01*
X170753Y155762D01*
X170709Y155731D01*
X170609Y155670D01*
X170607Y155667D01*
X170598Y155662D01*
X170582Y155654D01*
X170562Y155645D01*
X170540Y155631D01*
X170512Y155615D01*
X170479Y155598D01*
X170446Y155579D01*
X170368Y155540D01*
X170285Y155501D01*
X170199Y155463D01*
X170116Y155429D01*
Y155884D01*
X170122Y155886D01*
X170133Y155892D01*
X170155Y155903D01*
X170183Y155917D01*
X170216Y155933D01*
X170257Y155956D01*
X170302Y155981D01*
X170349Y156008D01*
X170402Y156042D01*
X170457Y156075D01*
X170573Y156152D01*
X170692Y156238D01*
X170806Y156332D01*
X170809Y156335D01*
X170820Y156343D01*
X170834Y156357D01*
X170853Y156377D01*
X170878Y156402D01*
X170906Y156429D01*
X170936Y156463D01*
X170969Y156496D01*
X171003Y156535D01*
X171039Y156576D01*
X171108Y156662D01*
X171172Y156753D01*
X171199Y156800D01*
X171224Y156848D01*
X171529D01*
Y153000D01*
D02*
G37*
G36*
X161364Y147397D02*
X161406Y147395D01*
X161456Y147392D01*
X161511Y147383D01*
X161575Y147375D01*
X161647Y147364D01*
X161722Y147347D01*
X161799Y147328D01*
X161879Y147306D01*
X161960Y147275D01*
X162040Y147242D01*
X162123Y147204D01*
X162201Y147159D01*
X162276Y147107D01*
X162281Y147104D01*
X162292Y147093D01*
X162314Y147076D01*
X162339Y147051D01*
X162373Y147023D01*
X162408Y146985D01*
X162447Y146943D01*
X162492Y146893D01*
X162536Y146838D01*
X162583Y146777D01*
X162627Y146708D01*
X162672Y146636D01*
X162716Y146555D01*
X162755Y146469D01*
X162794Y146378D01*
X162824Y146281D01*
X162325Y146165D01*
X162323Y146170D01*
X162320Y146184D01*
X162312Y146203D01*
X162301Y146234D01*
X162287Y146267D01*
X162270Y146306D01*
X162248Y146350D01*
X162226Y146397D01*
X162201Y146447D01*
X162170Y146497D01*
X162140Y146547D01*
X162104Y146600D01*
X162065Y146647D01*
X162026Y146694D01*
X161982Y146735D01*
X161935Y146774D01*
X161932Y146777D01*
X161924Y146782D01*
X161910Y146791D01*
X161890Y146805D01*
X161866Y146818D01*
X161835Y146835D01*
X161799Y146852D01*
X161760Y146871D01*
X161716Y146888D01*
X161669Y146904D01*
X161616Y146921D01*
X161561Y146935D01*
X161500Y146949D01*
X161436Y146957D01*
X161370Y146962D01*
X161298Y146965D01*
X161256D01*
X161226Y146962D01*
X161187Y146960D01*
X161143Y146954D01*
X161093Y146949D01*
X161040Y146938D01*
X160982Y146926D01*
X160924Y146913D01*
X160863Y146896D01*
X160799Y146877D01*
X160738Y146852D01*
X160677Y146821D01*
X160616Y146791D01*
X160558Y146752D01*
X160555Y146749D01*
X160544Y146744D01*
X160530Y146730D01*
X160511Y146713D01*
X160486Y146691D01*
X160458Y146666D01*
X160428Y146636D01*
X160395Y146602D01*
X160362Y146564D01*
X160326Y146522D01*
X160292Y146475D01*
X160259Y146422D01*
X160226Y146370D01*
X160195Y146312D01*
X160168Y146251D01*
X160143Y146184D01*
Y146181D01*
X160137Y146168D01*
X160132Y146148D01*
X160123Y146123D01*
X160115Y146090D01*
X160104Y146051D01*
X160096Y146007D01*
X160084Y145957D01*
X160073Y145904D01*
X160062Y145846D01*
X160051Y145785D01*
X160043Y145721D01*
X160029Y145589D01*
X160026Y145519D01*
X160023Y145447D01*
Y145442D01*
Y145425D01*
Y145400D01*
X160026Y145364D01*
X160029Y145323D01*
X160032Y145273D01*
X160035Y145217D01*
X160040Y145159D01*
X160048Y145093D01*
X160057Y145024D01*
X160084Y144882D01*
X160098Y144807D01*
X160118Y144735D01*
X160140Y144663D01*
X160165Y144594D01*
X160168Y144591D01*
X160170Y144578D01*
X160179Y144561D01*
X160193Y144536D01*
X160206Y144506D01*
X160226Y144469D01*
X160248Y144431D01*
X160273Y144389D01*
X160303Y144348D01*
X160336Y144303D01*
X160373Y144256D01*
X160411Y144212D01*
X160456Y144168D01*
X160503Y144126D01*
X160553Y144087D01*
X160608Y144051D01*
X160611Y144049D01*
X160622Y144043D01*
X160638Y144035D01*
X160661Y144024D01*
X160688Y144010D01*
X160722Y143993D01*
X160760Y143979D01*
X160802Y143963D01*
X160849Y143943D01*
X160899Y143929D01*
X160954Y143913D01*
X161010Y143899D01*
X161071Y143888D01*
X161132Y143879D01*
X161195Y143874D01*
X161259Y143871D01*
X161278D01*
X161301Y143874D01*
X161331D01*
X161367Y143879D01*
X161408Y143885D01*
X161458Y143891D01*
X161508Y143902D01*
X161564Y143915D01*
X161622Y143932D01*
X161683Y143951D01*
X161744Y143974D01*
X161805Y144001D01*
X161866Y144035D01*
X161924Y144073D01*
X161982Y144115D01*
X161985Y144118D01*
X161996Y144126D01*
X162010Y144140D01*
X162029Y144162D01*
X162054Y144187D01*
X162082Y144217D01*
X162112Y144256D01*
X162143Y144298D01*
X162176Y144348D01*
X162209Y144400D01*
X162245Y144461D01*
X162276Y144528D01*
X162309Y144597D01*
X162337Y144675D01*
X162361Y144755D01*
X162384Y144843D01*
X162891Y144716D01*
Y144713D01*
X162888Y144708D01*
X162885Y144699D01*
X162882Y144688D01*
X162879Y144675D01*
X162874Y144655D01*
X162860Y144614D01*
X162841Y144561D01*
X162819Y144503D01*
X162791Y144436D01*
X162758Y144364D01*
X162722Y144287D01*
X162680Y144209D01*
X162633Y144132D01*
X162580Y144051D01*
X162522Y143974D01*
X162458Y143899D01*
X162389Y143830D01*
X162314Y143763D01*
X162309Y143760D01*
X162295Y143749D01*
X162273Y143733D01*
X162240Y143713D01*
X162201Y143688D01*
X162151Y143661D01*
X162095Y143630D01*
X162032Y143600D01*
X161962Y143569D01*
X161885Y143539D01*
X161802Y143511D01*
X161713Y143486D01*
X161616Y143467D01*
X161517Y143450D01*
X161411Y143439D01*
X161301Y143436D01*
X161259D01*
X161240Y143439D01*
X161198D01*
X161145Y143445D01*
X161084Y143450D01*
X161015Y143458D01*
X160943Y143467D01*
X160863Y143481D01*
X160783Y143497D01*
X160697Y143519D01*
X160614Y143542D01*
X160530Y143572D01*
X160447Y143605D01*
X160367Y143644D01*
X160292Y143688D01*
X160287Y143691D01*
X160276Y143699D01*
X160256Y143716D01*
X160229Y143735D01*
X160195Y143760D01*
X160159Y143794D01*
X160118Y143830D01*
X160073Y143874D01*
X160026Y143924D01*
X159979Y143976D01*
X159929Y144037D01*
X159880Y144101D01*
X159832Y144173D01*
X159785Y144248D01*
X159741Y144331D01*
X159702Y144417D01*
Y144420D01*
X159699Y144422D01*
X159694Y144439D01*
X159683Y144464D01*
X159672Y144500D01*
X159655Y144544D01*
X159639Y144597D01*
X159619Y144658D01*
X159602Y144724D01*
X159583Y144799D01*
X159564Y144879D01*
X159547Y144963D01*
X159530Y145054D01*
X159519Y145145D01*
X159508Y145242D01*
X159503Y145342D01*
X159500Y145445D01*
Y145447D01*
Y145453D01*
Y145461D01*
Y145472D01*
Y145486D01*
X159503Y145503D01*
Y145544D01*
X159508Y145597D01*
X159511Y145658D01*
X159519Y145727D01*
X159528Y145802D01*
X159542Y145879D01*
X159555Y145963D01*
X159575Y146051D01*
X159597Y146140D01*
X159622Y146228D01*
X159652Y146317D01*
X159688Y146403D01*
X159727Y146489D01*
X159730Y146494D01*
X159738Y146508D01*
X159752Y146530D01*
X159769Y146564D01*
X159794Y146600D01*
X159821Y146641D01*
X159857Y146691D01*
X159896Y146741D01*
X159938Y146793D01*
X159987Y146852D01*
X160040Y146907D01*
X160098Y146962D01*
X160162Y147018D01*
X160229Y147071D01*
X160301Y147120D01*
X160378Y147168D01*
X160384Y147170D01*
X160398Y147179D01*
X160420Y147190D01*
X160453Y147204D01*
X160492Y147223D01*
X160539Y147242D01*
X160594Y147262D01*
X160652Y147284D01*
X160719Y147306D01*
X160791Y147325D01*
X160868Y147347D01*
X160949Y147364D01*
X161035Y147378D01*
X161123Y147389D01*
X161215Y147397D01*
X161309Y147400D01*
X161348D01*
X161364Y147397D01*
D02*
G37*
G36*
X165303Y144849D02*
X165821D01*
Y144417D01*
X165303D01*
Y143500D01*
X164832D01*
Y144417D01*
X163170D01*
Y144849D01*
X164918Y147334D01*
X165303D01*
Y144849D01*
D02*
G37*
G36*
X170093Y166037D02*
X170126Y166034D01*
X170170Y166029D01*
X170220Y166020D01*
X170276Y166009D01*
X170337Y165993D01*
X170403Y165973D01*
X170470Y165951D01*
X170542Y165921D01*
X170614Y165885D01*
X170686Y165843D01*
X170758Y165793D01*
X170827Y165735D01*
X170894Y165671D01*
X170896Y165666D01*
X170907Y165655D01*
X170927Y165635D01*
X170949Y165605D01*
X170974Y165569D01*
X171004Y165527D01*
X171035Y165475D01*
X171068Y165419D01*
X171101Y165356D01*
X171132Y165284D01*
X171162Y165209D01*
X171187Y165126D01*
X171209Y165040D01*
X171229Y164946D01*
X171240Y164849D01*
X171242Y164746D01*
Y164724D01*
X171240Y164696D01*
X171237Y164663D01*
X171234Y164619D01*
X171226Y164569D01*
X171218Y164513D01*
X171204Y164453D01*
X171190Y164389D01*
X171170Y164320D01*
X171145Y164250D01*
X171115Y164178D01*
X171082Y164109D01*
X171043Y164040D01*
X170996Y163970D01*
X170943Y163907D01*
X170941Y163904D01*
X170930Y163893D01*
X170913Y163876D01*
X170888Y163854D01*
X170857Y163829D01*
X170821Y163799D01*
X170780Y163768D01*
X170733Y163735D01*
X170680Y163702D01*
X170619Y163669D01*
X170555Y163638D01*
X170486Y163608D01*
X170412Y163583D01*
X170334Y163558D01*
X170251Y163541D01*
X170162Y163530D01*
X170098Y164001D01*
X170104D01*
X170115Y164004D01*
X170137Y164009D01*
X170165Y164018D01*
X170198Y164026D01*
X170234Y164037D01*
X170276Y164051D01*
X170320Y164065D01*
X170417Y164103D01*
X170511Y164151D01*
X170558Y164178D01*
X170603Y164209D01*
X170641Y164239D01*
X170677Y164275D01*
X170680Y164278D01*
X170686Y164284D01*
X170694Y164295D01*
X170705Y164311D01*
X170719Y164328D01*
X170733Y164353D01*
X170749Y164378D01*
X170763Y164408D01*
X170780Y164441D01*
X170797Y164477D01*
X170810Y164516D01*
X170824Y164558D01*
X170835Y164602D01*
X170844Y164649D01*
X170849Y164696D01*
X170852Y164749D01*
Y164763D01*
X170849Y164782D01*
Y164804D01*
X170844Y164835D01*
X170841Y164868D01*
X170833Y164904D01*
X170824Y164946D01*
X170810Y164987D01*
X170797Y165034D01*
X170777Y165081D01*
X170755Y165128D01*
X170727Y165175D01*
X170697Y165223D01*
X170664Y165267D01*
X170622Y165311D01*
X170619Y165314D01*
X170611Y165322D01*
X170600Y165333D01*
X170580Y165347D01*
X170558Y165364D01*
X170531Y165383D01*
X170500Y165405D01*
X170464Y165427D01*
X170425Y165447D01*
X170381Y165469D01*
X170337Y165489D01*
X170284Y165505D01*
X170231Y165519D01*
X170176Y165530D01*
X170115Y165538D01*
X170054Y165541D01*
X170051D01*
X170040D01*
X170024D01*
X169999Y165538D01*
X169974Y165536D01*
X169941Y165530D01*
X169905Y165524D01*
X169866Y165513D01*
X169824Y165502D01*
X169780Y165489D01*
X169736Y165472D01*
X169691Y165453D01*
X169647Y165427D01*
X169603Y165397D01*
X169561Y165367D01*
X169519Y165328D01*
X169517Y165325D01*
X169511Y165320D01*
X169500Y165306D01*
X169486Y165289D01*
X169470Y165270D01*
X169453Y165245D01*
X169434Y165214D01*
X169414Y165181D01*
X169395Y165145D01*
X169376Y165103D01*
X169359Y165059D01*
X169342Y165012D01*
X169328Y164962D01*
X169317Y164907D01*
X169312Y164851D01*
X169309Y164790D01*
Y164766D01*
X169312Y164738D01*
X169315Y164699D01*
X169320Y164649D01*
X169331Y164594D01*
X169342Y164530D01*
X169359Y164458D01*
X168946Y164511D01*
Y164519D01*
X168949Y164527D01*
Y164538D01*
X168952Y164563D01*
Y164616D01*
X168949Y164635D01*
X168946Y164663D01*
X168943Y164693D01*
X168938Y164727D01*
X168932Y164766D01*
X168924Y164807D01*
X168913Y164849D01*
X168885Y164940D01*
X168869Y164987D01*
X168846Y165034D01*
X168824Y165081D01*
X168797Y165126D01*
X168794Y165128D01*
X168788Y165137D01*
X168780Y165148D01*
X168766Y165164D01*
X168749Y165181D01*
X168730Y165203D01*
X168705Y165223D01*
X168677Y165247D01*
X168644Y165270D01*
X168608Y165292D01*
X168569Y165311D01*
X168525Y165328D01*
X168478Y165344D01*
X168425Y165356D01*
X168370Y165364D01*
X168312Y165367D01*
X168309D01*
X168301D01*
X168287D01*
X168268Y165364D01*
X168248Y165361D01*
X168220Y165358D01*
X168193Y165353D01*
X168162Y165344D01*
X168096Y165322D01*
X168060Y165308D01*
X168024Y165292D01*
X167988Y165272D01*
X167952Y165247D01*
X167919Y165220D01*
X167885Y165189D01*
X167883Y165187D01*
X167877Y165181D01*
X167869Y165173D01*
X167858Y165159D01*
X167847Y165139D01*
X167830Y165120D01*
X167816Y165095D01*
X167799Y165067D01*
X167783Y165037D01*
X167769Y165004D01*
X167752Y164965D01*
X167741Y164926D01*
X167730Y164882D01*
X167722Y164838D01*
X167716Y164788D01*
X167713Y164738D01*
Y164710D01*
X167716Y164693D01*
X167719Y164669D01*
X167722Y164641D01*
X167727Y164610D01*
X167736Y164577D01*
X167755Y164505D01*
X167769Y164469D01*
X167788Y164430D01*
X167808Y164392D01*
X167830Y164353D01*
X167858Y164317D01*
X167888Y164281D01*
X167891Y164278D01*
X167896Y164272D01*
X167907Y164264D01*
X167921Y164250D01*
X167938Y164236D01*
X167960Y164220D01*
X167988Y164203D01*
X168015Y164184D01*
X168051Y164164D01*
X168090Y164145D01*
X168132Y164123D01*
X168179Y164106D01*
X168229Y164087D01*
X168281Y164073D01*
X168340Y164059D01*
X168403Y164048D01*
X168320Y163577D01*
X168317D01*
X168315D01*
X168298Y163583D01*
X168276Y163588D01*
X168243Y163597D01*
X168201Y163608D01*
X168157Y163621D01*
X168107Y163638D01*
X168051Y163657D01*
X167993Y163682D01*
X167932Y163710D01*
X167871Y163743D01*
X167810Y163779D01*
X167750Y163818D01*
X167691Y163863D01*
X167636Y163912D01*
X167586Y163968D01*
X167583Y163970D01*
X167575Y163982D01*
X167561Y163998D01*
X167544Y164023D01*
X167525Y164054D01*
X167503Y164090D01*
X167481Y164131D01*
X167456Y164178D01*
X167431Y164231D01*
X167409Y164289D01*
X167387Y164350D01*
X167367Y164417D01*
X167351Y164488D01*
X167337Y164566D01*
X167329Y164646D01*
X167326Y164729D01*
Y164760D01*
X167329Y164782D01*
Y164810D01*
X167334Y164843D01*
X167337Y164879D01*
X167342Y164918D01*
X167351Y164962D01*
X167359Y165006D01*
X167384Y165103D01*
X167398Y165156D01*
X167417Y165206D01*
X167437Y165256D01*
X167461Y165306D01*
X167464Y165308D01*
X167467Y165317D01*
X167475Y165331D01*
X167486Y165350D01*
X167500Y165372D01*
X167517Y165397D01*
X167536Y165425D01*
X167558Y165455D01*
X167611Y165522D01*
X167675Y165588D01*
X167747Y165652D01*
X167788Y165682D01*
X167830Y165710D01*
X167833Y165713D01*
X167841Y165716D01*
X167852Y165724D01*
X167871Y165732D01*
X167891Y165743D01*
X167919Y165754D01*
X167946Y165768D01*
X167979Y165782D01*
X168015Y165793D01*
X168051Y165807D01*
X168134Y165829D01*
X168226Y165846D01*
X168273Y165849D01*
X168323Y165851D01*
X168326D01*
X168334D01*
X168348D01*
X168365Y165849D01*
X168387D01*
X168412Y165843D01*
X168442Y165840D01*
X168473Y165835D01*
X168544Y165818D01*
X168619Y165793D01*
X168658Y165779D01*
X168700Y165760D01*
X168738Y165741D01*
X168777Y165716D01*
X168780Y165713D01*
X168786Y165710D01*
X168797Y165702D01*
X168810Y165691D01*
X168827Y165677D01*
X168846Y165660D01*
X168869Y165641D01*
X168894Y165616D01*
X168919Y165591D01*
X168943Y165560D01*
X168971Y165530D01*
X168999Y165494D01*
X169024Y165455D01*
X169051Y165414D01*
X169076Y165369D01*
X169098Y165322D01*
Y165325D01*
X169101Y165336D01*
X169107Y165356D01*
X169115Y165378D01*
X169123Y165408D01*
X169137Y165441D01*
X169151Y165477D01*
X169170Y165516D01*
X169190Y165558D01*
X169215Y165602D01*
X169240Y165646D01*
X169270Y165691D01*
X169304Y165732D01*
X169340Y165774D01*
X169381Y165815D01*
X169425Y165851D01*
X169428Y165854D01*
X169436Y165860D01*
X169450Y165868D01*
X169470Y165882D01*
X169495Y165896D01*
X169522Y165912D01*
X169555Y165929D01*
X169594Y165945D01*
X169639Y165962D01*
X169686Y165981D01*
X169736Y165995D01*
X169791Y166009D01*
X169849Y166023D01*
X169910Y166031D01*
X169974Y166037D01*
X170043Y166040D01*
X170049D01*
X170065D01*
X170093Y166037D01*
D02*
G37*
G36*
X169966Y163092D02*
X169974Y163090D01*
X169985Y163087D01*
X169999Y163084D01*
X170018Y163079D01*
X170060Y163065D01*
X170112Y163045D01*
X170170Y163023D01*
X170237Y162996D01*
X170309Y162962D01*
X170387Y162926D01*
X170464Y162885D01*
X170542Y162838D01*
X170622Y162785D01*
X170700Y162727D01*
X170774Y162663D01*
X170844Y162594D01*
X170910Y162519D01*
X170913Y162513D01*
X170924Y162500D01*
X170941Y162478D01*
X170960Y162444D01*
X170985Y162406D01*
X171013Y162356D01*
X171043Y162300D01*
X171073Y162236D01*
X171104Y162167D01*
X171134Y162090D01*
X171162Y162007D01*
X171187Y161918D01*
X171206Y161821D01*
X171223Y161721D01*
X171234Y161616D01*
X171237Y161505D01*
Y161464D01*
X171234Y161444D01*
Y161403D01*
X171229Y161350D01*
X171223Y161289D01*
X171215Y161220D01*
X171206Y161148D01*
X171193Y161068D01*
X171176Y160987D01*
X171154Y160901D01*
X171132Y160818D01*
X171101Y160735D01*
X171068Y160652D01*
X171029Y160572D01*
X170985Y160497D01*
X170982Y160491D01*
X170974Y160480D01*
X170957Y160461D01*
X170938Y160433D01*
X170913Y160400D01*
X170880Y160364D01*
X170844Y160322D01*
X170799Y160278D01*
X170749Y160231D01*
X170697Y160184D01*
X170636Y160134D01*
X170572Y160084D01*
X170500Y160037D01*
X170425Y159990D01*
X170342Y159946D01*
X170256Y159907D01*
X170254D01*
X170251Y159904D01*
X170234Y159899D01*
X170209Y159888D01*
X170173Y159877D01*
X170129Y159860D01*
X170076Y159843D01*
X170015Y159824D01*
X169949Y159807D01*
X169874Y159788D01*
X169794Y159768D01*
X169711Y159752D01*
X169619Y159735D01*
X169528Y159724D01*
X169431Y159713D01*
X169331Y159707D01*
X169229Y159705D01*
X169226D01*
X169220D01*
X169212D01*
X169201D01*
X169187D01*
X169170Y159707D01*
X169129D01*
X169076Y159713D01*
X169015Y159716D01*
X168946Y159724D01*
X168871Y159732D01*
X168794Y159746D01*
X168711Y159760D01*
X168622Y159780D01*
X168533Y159802D01*
X168445Y159827D01*
X168356Y159857D01*
X168270Y159893D01*
X168184Y159932D01*
X168179Y159935D01*
X168165Y159943D01*
X168143Y159957D01*
X168110Y159973D01*
X168074Y159998D01*
X168032Y160026D01*
X167982Y160062D01*
X167932Y160101D01*
X167880Y160142D01*
X167822Y160192D01*
X167766Y160245D01*
X167711Y160303D01*
X167655Y160367D01*
X167603Y160433D01*
X167553Y160505D01*
X167506Y160583D01*
X167503Y160588D01*
X167495Y160602D01*
X167484Y160624D01*
X167470Y160658D01*
X167450Y160696D01*
X167431Y160743D01*
X167412Y160799D01*
X167389Y160857D01*
X167367Y160924D01*
X167348Y160995D01*
X167326Y161073D01*
X167309Y161153D01*
X167295Y161239D01*
X167284Y161328D01*
X167276Y161419D01*
X167273Y161513D01*
Y161552D01*
X167276Y161569D01*
X167279Y161610D01*
X167281Y161660D01*
X167290Y161716D01*
X167298Y161779D01*
X167309Y161852D01*
X167326Y161926D01*
X167345Y162004D01*
X167367Y162084D01*
X167398Y162164D01*
X167431Y162245D01*
X167470Y162328D01*
X167514Y162406D01*
X167567Y162480D01*
X167569Y162486D01*
X167580Y162497D01*
X167597Y162519D01*
X167622Y162544D01*
X167650Y162577D01*
X167689Y162613D01*
X167730Y162652D01*
X167780Y162696D01*
X167835Y162741D01*
X167896Y162788D01*
X167966Y162832D01*
X168038Y162876D01*
X168118Y162921D01*
X168204Y162960D01*
X168295Y162998D01*
X168392Y163029D01*
X168509Y162530D01*
X168503Y162527D01*
X168489Y162525D01*
X168470Y162516D01*
X168439Y162505D01*
X168406Y162491D01*
X168367Y162475D01*
X168323Y162453D01*
X168276Y162430D01*
X168226Y162406D01*
X168176Y162375D01*
X168126Y162345D01*
X168074Y162309D01*
X168026Y162270D01*
X167979Y162231D01*
X167938Y162187D01*
X167899Y162140D01*
X167896Y162137D01*
X167891Y162128D01*
X167883Y162115D01*
X167869Y162095D01*
X167855Y162070D01*
X167838Y162040D01*
X167822Y162004D01*
X167802Y161965D01*
X167786Y161921D01*
X167769Y161874D01*
X167752Y161821D01*
X167738Y161766D01*
X167725Y161705D01*
X167716Y161641D01*
X167711Y161574D01*
X167708Y161502D01*
Y161461D01*
X167711Y161430D01*
X167713Y161392D01*
X167719Y161347D01*
X167725Y161298D01*
X167736Y161245D01*
X167747Y161187D01*
X167761Y161128D01*
X167777Y161068D01*
X167797Y161004D01*
X167822Y160943D01*
X167852Y160882D01*
X167883Y160821D01*
X167921Y160763D01*
X167924Y160760D01*
X167930Y160749D01*
X167943Y160735D01*
X167960Y160716D01*
X167982Y160691D01*
X168007Y160663D01*
X168038Y160633D01*
X168071Y160599D01*
X168110Y160566D01*
X168151Y160530D01*
X168198Y160497D01*
X168251Y160464D01*
X168304Y160431D01*
X168362Y160400D01*
X168423Y160372D01*
X168489Y160347D01*
X168492D01*
X168506Y160342D01*
X168525Y160336D01*
X168550Y160328D01*
X168583Y160320D01*
X168622Y160309D01*
X168666Y160300D01*
X168716Y160289D01*
X168769Y160278D01*
X168827Y160267D01*
X168888Y160256D01*
X168952Y160248D01*
X169085Y160234D01*
X169154Y160231D01*
X169226Y160228D01*
X169231D01*
X169248D01*
X169273D01*
X169309Y160231D01*
X169351Y160234D01*
X169400Y160237D01*
X169456Y160239D01*
X169514Y160245D01*
X169580Y160253D01*
X169650Y160261D01*
X169791Y160289D01*
X169866Y160303D01*
X169938Y160322D01*
X170010Y160345D01*
X170079Y160370D01*
X170082Y160372D01*
X170096Y160375D01*
X170112Y160383D01*
X170137Y160397D01*
X170168Y160411D01*
X170204Y160431D01*
X170243Y160453D01*
X170284Y160477D01*
X170326Y160508D01*
X170370Y160541D01*
X170417Y160577D01*
X170461Y160616D01*
X170506Y160660D01*
X170547Y160707D01*
X170586Y160757D01*
X170622Y160813D01*
X170625Y160816D01*
X170630Y160827D01*
X170639Y160843D01*
X170650Y160865D01*
X170664Y160893D01*
X170680Y160926D01*
X170694Y160965D01*
X170711Y161007D01*
X170730Y161054D01*
X170744Y161104D01*
X170761Y161159D01*
X170774Y161214D01*
X170785Y161275D01*
X170794Y161336D01*
X170799Y161400D01*
X170802Y161464D01*
Y161483D01*
X170799Y161505D01*
Y161536D01*
X170794Y161572D01*
X170788Y161613D01*
X170783Y161663D01*
X170772Y161713D01*
X170758Y161768D01*
X170741Y161827D01*
X170722Y161888D01*
X170700Y161948D01*
X170672Y162009D01*
X170639Y162070D01*
X170600Y162128D01*
X170558Y162187D01*
X170555Y162189D01*
X170547Y162200D01*
X170533Y162214D01*
X170511Y162234D01*
X170486Y162259D01*
X170456Y162286D01*
X170417Y162317D01*
X170376Y162347D01*
X170326Y162381D01*
X170273Y162414D01*
X170212Y162450D01*
X170146Y162480D01*
X170076Y162513D01*
X169999Y162541D01*
X169918Y162566D01*
X169830Y162588D01*
X169957Y163095D01*
X169960D01*
X169966Y163092D01*
D02*
G37*
G36*
X144500Y165264D02*
X144497D01*
X144492D01*
X144483D01*
X144472D01*
X144456D01*
X144439Y165267D01*
X144395Y165270D01*
X144348Y165276D01*
X144292Y165284D01*
X144234Y165298D01*
X144176Y165317D01*
X144173D01*
X144165Y165323D01*
X144151Y165328D01*
X144132Y165336D01*
X144107Y165345D01*
X144079Y165359D01*
X144049Y165375D01*
X144015Y165392D01*
X143976Y165411D01*
X143938Y165436D01*
X143852Y165489D01*
X143760Y165552D01*
X143666Y165627D01*
X143664Y165630D01*
X143655Y165638D01*
X143641Y165649D01*
X143622Y165666D01*
X143597Y165688D01*
X143569Y165716D01*
X143536Y165746D01*
X143500Y165785D01*
X143458Y165827D01*
X143414Y165871D01*
X143367Y165921D01*
X143314Y165976D01*
X143262Y166037D01*
X143206Y166101D01*
X143148Y166170D01*
X143087Y166242D01*
X143085Y166245D01*
X143082Y166251D01*
X143073Y166259D01*
X143065Y166270D01*
X143051Y166284D01*
X143037Y166300D01*
X143001Y166342D01*
X142960Y166395D01*
X142907Y166450D01*
X142852Y166514D01*
X142791Y166580D01*
X142727Y166652D01*
X142661Y166721D01*
X142594Y166794D01*
X142525Y166860D01*
X142458Y166926D01*
X142395Y166985D01*
X142331Y167040D01*
X142273Y167084D01*
X142270Y167087D01*
X142259Y167093D01*
X142243Y167104D01*
X142223Y167120D01*
X142195Y167137D01*
X142165Y167154D01*
X142129Y167176D01*
X142090Y167195D01*
X142049Y167215D01*
X142004Y167237D01*
X141907Y167273D01*
X141857Y167287D01*
X141808Y167298D01*
X141758Y167303D01*
X141708Y167306D01*
X141705D01*
X141694D01*
X141680D01*
X141661Y167303D01*
X141636Y167300D01*
X141608Y167295D01*
X141578Y167289D01*
X141544Y167281D01*
X141508Y167270D01*
X141470Y167256D01*
X141431Y167239D01*
X141392Y167220D01*
X141350Y167198D01*
X141312Y167170D01*
X141273Y167140D01*
X141237Y167104D01*
X141234Y167101D01*
X141229Y167095D01*
X141220Y167084D01*
X141207Y167068D01*
X141193Y167048D01*
X141176Y167023D01*
X141157Y166996D01*
X141140Y166965D01*
X141121Y166929D01*
X141104Y166890D01*
X141087Y166846D01*
X141074Y166802D01*
X141060Y166752D01*
X141051Y166699D01*
X141046Y166644D01*
X141043Y166586D01*
Y166552D01*
X141046Y166530D01*
X141049Y166500D01*
X141054Y166467D01*
X141060Y166431D01*
X141068Y166389D01*
X141079Y166348D01*
X141093Y166303D01*
X141110Y166259D01*
X141129Y166212D01*
X141154Y166167D01*
X141182Y166123D01*
X141212Y166079D01*
X141248Y166040D01*
X141251Y166037D01*
X141256Y166032D01*
X141270Y166021D01*
X141284Y166010D01*
X141306Y165993D01*
X141331Y165976D01*
X141362Y165957D01*
X141395Y165940D01*
X141431Y165921D01*
X141475Y165902D01*
X141519Y165885D01*
X141569Y165868D01*
X141625Y165857D01*
X141683Y165846D01*
X141744Y165841D01*
X141810Y165838D01*
X141761Y165353D01*
X141758D01*
X141755D01*
X141747Y165356D01*
X141735D01*
X141708Y165359D01*
X141672Y165367D01*
X141628Y165375D01*
X141575Y165386D01*
X141517Y165400D01*
X141456Y165417D01*
X141389Y165439D01*
X141323Y165464D01*
X141254Y165494D01*
X141184Y165530D01*
X141118Y165569D01*
X141054Y165616D01*
X140993Y165666D01*
X140938Y165724D01*
X140935Y165727D01*
X140927Y165738D01*
X140910Y165758D01*
X140893Y165782D01*
X140871Y165816D01*
X140846Y165854D01*
X140821Y165902D01*
X140794Y165954D01*
X140769Y166015D01*
X140744Y166079D01*
X140719Y166151D01*
X140697Y166228D01*
X140677Y166312D01*
X140664Y166400D01*
X140655Y166494D01*
X140653Y166594D01*
Y166619D01*
X140655Y166647D01*
X140658Y166685D01*
X140661Y166733D01*
X140669Y166785D01*
X140677Y166846D01*
X140691Y166910D01*
X140708Y166979D01*
X140727Y167048D01*
X140752Y167123D01*
X140783Y167195D01*
X140819Y167267D01*
X140857Y167336D01*
X140904Y167403D01*
X140960Y167467D01*
X140963Y167469D01*
X140974Y167480D01*
X140990Y167497D01*
X141015Y167516D01*
X141043Y167541D01*
X141079Y167569D01*
X141121Y167599D01*
X141168Y167630D01*
X141220Y167658D01*
X141279Y167688D01*
X141342Y167716D01*
X141409Y167741D01*
X141481Y167760D01*
X141556Y167777D01*
X141636Y167788D01*
X141719Y167791D01*
X141722D01*
X141730D01*
X141741D01*
X141758D01*
X141780Y167788D01*
X141802Y167785D01*
X141830Y167782D01*
X141860Y167780D01*
X141929Y167769D01*
X142007Y167752D01*
X142087Y167727D01*
X142170Y167696D01*
X142173D01*
X142182Y167691D01*
X142193Y167685D01*
X142209Y167677D01*
X142229Y167669D01*
X142253Y167655D01*
X142281Y167641D01*
X142312Y167622D01*
X142345Y167602D01*
X142381Y167580D01*
X142461Y167525D01*
X142503Y167494D01*
X142547Y167461D01*
X142592Y167422D01*
X142639Y167384D01*
X142641Y167381D01*
X142650Y167372D01*
X142664Y167361D01*
X142683Y167342D01*
X142708Y167317D01*
X142738Y167287D01*
X142774Y167253D01*
X142816Y167212D01*
X142860Y167165D01*
X142910Y167109D01*
X142965Y167051D01*
X143026Y166985D01*
X143090Y166913D01*
X143159Y166835D01*
X143234Y166749D01*
X143312Y166658D01*
X143314Y166652D01*
X143328Y166638D01*
X143345Y166619D01*
X143370Y166591D01*
X143397Y166555D01*
X143431Y166519D01*
X143467Y166478D01*
X143506Y166433D01*
X143586Y166339D01*
X143627Y166295D01*
X143666Y166251D01*
X143705Y166209D01*
X143738Y166173D01*
X143769Y166140D01*
X143796Y166115D01*
X143802Y166109D01*
X143819Y166095D01*
X143843Y166073D01*
X143874Y166046D01*
X143913Y166015D01*
X143954Y165982D01*
X144001Y165949D01*
X144049Y165918D01*
Y167796D01*
X144500D01*
Y165264D01*
D02*
G37*
G36*
X143292Y164888D02*
X143301Y164885D01*
X143312Y164882D01*
X143325Y164879D01*
X143345Y164874D01*
X143386Y164860D01*
X143439Y164841D01*
X143497Y164819D01*
X143564Y164791D01*
X143636Y164758D01*
X143713Y164722D01*
X143791Y164680D01*
X143868Y164633D01*
X143949Y164580D01*
X144026Y164522D01*
X144101Y164458D01*
X144170Y164389D01*
X144237Y164314D01*
X144240Y164309D01*
X144251Y164295D01*
X144267Y164273D01*
X144287Y164240D01*
X144312Y164201D01*
X144339Y164151D01*
X144370Y164095D01*
X144400Y164032D01*
X144431Y163962D01*
X144461Y163885D01*
X144489Y163802D01*
X144514Y163713D01*
X144533Y163616D01*
X144550Y163517D01*
X144561Y163411D01*
X144564Y163301D01*
Y163259D01*
X144561Y163240D01*
Y163198D01*
X144555Y163145D01*
X144550Y163084D01*
X144542Y163015D01*
X144533Y162943D01*
X144519Y162863D01*
X144503Y162783D01*
X144481Y162697D01*
X144458Y162613D01*
X144428Y162530D01*
X144395Y162447D01*
X144356Y162367D01*
X144312Y162292D01*
X144309Y162287D01*
X144301Y162276D01*
X144284Y162256D01*
X144265Y162229D01*
X144240Y162195D01*
X144206Y162159D01*
X144170Y162118D01*
X144126Y162073D01*
X144076Y162026D01*
X144024Y161979D01*
X143963Y161929D01*
X143899Y161880D01*
X143827Y161832D01*
X143752Y161785D01*
X143669Y161741D01*
X143583Y161702D01*
X143580D01*
X143578Y161699D01*
X143561Y161694D01*
X143536Y161683D01*
X143500Y161672D01*
X143456Y161655D01*
X143403Y161638D01*
X143342Y161619D01*
X143276Y161602D01*
X143201Y161583D01*
X143121Y161564D01*
X143037Y161547D01*
X142946Y161530D01*
X142855Y161519D01*
X142758Y161508D01*
X142658Y161503D01*
X142555Y161500D01*
X142553D01*
X142547D01*
X142539D01*
X142528D01*
X142514D01*
X142497Y161503D01*
X142456D01*
X142403Y161508D01*
X142342Y161511D01*
X142273Y161519D01*
X142198Y161528D01*
X142121Y161542D01*
X142037Y161555D01*
X141949Y161575D01*
X141860Y161597D01*
X141772Y161622D01*
X141683Y161652D01*
X141597Y161688D01*
X141511Y161727D01*
X141506Y161730D01*
X141492Y161738D01*
X141470Y161752D01*
X141436Y161769D01*
X141400Y161794D01*
X141359Y161821D01*
X141309Y161857D01*
X141259Y161896D01*
X141207Y161938D01*
X141148Y161987D01*
X141093Y162040D01*
X141037Y162098D01*
X140982Y162162D01*
X140929Y162229D01*
X140880Y162301D01*
X140832Y162378D01*
X140830Y162384D01*
X140821Y162398D01*
X140810Y162420D01*
X140796Y162453D01*
X140777Y162492D01*
X140758Y162539D01*
X140738Y162594D01*
X140716Y162652D01*
X140694Y162719D01*
X140675Y162791D01*
X140653Y162868D01*
X140636Y162949D01*
X140622Y163035D01*
X140611Y163123D01*
X140603Y163215D01*
X140600Y163309D01*
Y163348D01*
X140603Y163364D01*
X140605Y163406D01*
X140608Y163456D01*
X140617Y163511D01*
X140625Y163575D01*
X140636Y163647D01*
X140653Y163722D01*
X140672Y163799D01*
X140694Y163879D01*
X140725Y163960D01*
X140758Y164040D01*
X140796Y164123D01*
X140841Y164201D01*
X140893Y164276D01*
X140896Y164281D01*
X140907Y164292D01*
X140924Y164314D01*
X140949Y164339D01*
X140977Y164373D01*
X141015Y164409D01*
X141057Y164447D01*
X141107Y164492D01*
X141162Y164536D01*
X141223Y164583D01*
X141292Y164627D01*
X141364Y164672D01*
X141445Y164716D01*
X141531Y164755D01*
X141622Y164794D01*
X141719Y164824D01*
X141835Y164325D01*
X141830Y164323D01*
X141816Y164320D01*
X141797Y164312D01*
X141766Y164301D01*
X141733Y164287D01*
X141694Y164270D01*
X141650Y164248D01*
X141603Y164226D01*
X141553Y164201D01*
X141503Y164170D01*
X141453Y164140D01*
X141400Y164104D01*
X141353Y164065D01*
X141306Y164026D01*
X141265Y163982D01*
X141226Y163935D01*
X141223Y163932D01*
X141218Y163924D01*
X141209Y163910D01*
X141195Y163891D01*
X141182Y163866D01*
X141165Y163835D01*
X141148Y163799D01*
X141129Y163760D01*
X141112Y163716D01*
X141096Y163669D01*
X141079Y163616D01*
X141065Y163561D01*
X141051Y163500D01*
X141043Y163436D01*
X141037Y163370D01*
X141035Y163298D01*
Y163256D01*
X141037Y163226D01*
X141040Y163187D01*
X141046Y163143D01*
X141051Y163093D01*
X141062Y163040D01*
X141074Y162982D01*
X141087Y162924D01*
X141104Y162863D01*
X141123Y162799D01*
X141148Y162738D01*
X141179Y162677D01*
X141209Y162616D01*
X141248Y162558D01*
X141251Y162555D01*
X141256Y162544D01*
X141270Y162530D01*
X141287Y162511D01*
X141309Y162486D01*
X141334Y162458D01*
X141364Y162428D01*
X141398Y162395D01*
X141436Y162362D01*
X141478Y162326D01*
X141525Y162292D01*
X141578Y162259D01*
X141630Y162226D01*
X141688Y162195D01*
X141749Y162168D01*
X141816Y162143D01*
X141819D01*
X141832Y162137D01*
X141852Y162132D01*
X141877Y162123D01*
X141910Y162115D01*
X141949Y162104D01*
X141993Y162096D01*
X142043Y162084D01*
X142096Y162073D01*
X142154Y162062D01*
X142215Y162051D01*
X142279Y162043D01*
X142411Y162029D01*
X142481Y162026D01*
X142553Y162023D01*
X142558D01*
X142575D01*
X142600D01*
X142636Y162026D01*
X142677Y162029D01*
X142727Y162032D01*
X142783Y162035D01*
X142841Y162040D01*
X142907Y162048D01*
X142976Y162057D01*
X143118Y162084D01*
X143193Y162098D01*
X143265Y162118D01*
X143337Y162140D01*
X143406Y162165D01*
X143409Y162168D01*
X143422Y162170D01*
X143439Y162179D01*
X143464Y162192D01*
X143494Y162206D01*
X143530Y162226D01*
X143569Y162248D01*
X143611Y162273D01*
X143652Y162303D01*
X143697Y162337D01*
X143744Y162373D01*
X143788Y162411D01*
X143832Y162456D01*
X143874Y162503D01*
X143913Y162553D01*
X143949Y162608D01*
X143951Y162611D01*
X143957Y162622D01*
X143965Y162638D01*
X143976Y162661D01*
X143990Y162688D01*
X144007Y162722D01*
X144021Y162760D01*
X144037Y162802D01*
X144057Y162849D01*
X144071Y162899D01*
X144087Y162954D01*
X144101Y163010D01*
X144112Y163071D01*
X144121Y163131D01*
X144126Y163195D01*
X144129Y163259D01*
Y163278D01*
X144126Y163301D01*
Y163331D01*
X144121Y163367D01*
X144115Y163409D01*
X144109Y163458D01*
X144098Y163508D01*
X144085Y163564D01*
X144068Y163622D01*
X144049Y163683D01*
X144026Y163744D01*
X143999Y163805D01*
X143965Y163866D01*
X143927Y163924D01*
X143885Y163982D01*
X143882Y163985D01*
X143874Y163996D01*
X143860Y164010D01*
X143838Y164029D01*
X143813Y164054D01*
X143783Y164082D01*
X143744Y164112D01*
X143702Y164143D01*
X143652Y164176D01*
X143600Y164209D01*
X143539Y164245D01*
X143472Y164276D01*
X143403Y164309D01*
X143325Y164337D01*
X143245Y164361D01*
X143157Y164384D01*
X143284Y164891D01*
X143287D01*
X143292Y164888D01*
D02*
G37*
G36*
X138500Y166624D02*
X135503D01*
X135506Y166622D01*
X135511Y166616D01*
X135520Y166608D01*
X135531Y166594D01*
X135544Y166577D01*
X135564Y166555D01*
X135583Y166530D01*
X135605Y166505D01*
X135627Y166472D01*
X135655Y166439D01*
X135680Y166403D01*
X135711Y166364D01*
X135738Y166320D01*
X135769Y166276D01*
X135830Y166176D01*
X135833Y166173D01*
X135838Y166165D01*
X135846Y166148D01*
X135855Y166129D01*
X135869Y166106D01*
X135885Y166079D01*
X135902Y166046D01*
X135921Y166012D01*
X135960Y165935D01*
X135999Y165852D01*
X136038Y165766D01*
X136071Y165683D01*
X135616D01*
X135614Y165688D01*
X135608Y165699D01*
X135597Y165721D01*
X135583Y165749D01*
X135567Y165782D01*
X135544Y165824D01*
X135520Y165868D01*
X135492Y165915D01*
X135459Y165968D01*
X135425Y166023D01*
X135348Y166140D01*
X135262Y166259D01*
X135168Y166372D01*
X135165Y166375D01*
X135157Y166386D01*
X135143Y166400D01*
X135123Y166419D01*
X135098Y166445D01*
X135071Y166472D01*
X135038Y166503D01*
X135004Y166536D01*
X134966Y166569D01*
X134924Y166605D01*
X134838Y166674D01*
X134747Y166738D01*
X134700Y166766D01*
X134652Y166791D01*
Y167095D01*
X138500D01*
Y166624D01*
D02*
G37*
G36*
X137292Y164888D02*
X137301Y164885D01*
X137312Y164882D01*
X137326Y164879D01*
X137345Y164874D01*
X137387Y164860D01*
X137439Y164841D01*
X137497Y164819D01*
X137564Y164791D01*
X137636Y164758D01*
X137713Y164722D01*
X137791Y164680D01*
X137868Y164633D01*
X137949Y164580D01*
X138026Y164522D01*
X138101Y164458D01*
X138170Y164389D01*
X138237Y164314D01*
X138240Y164309D01*
X138251Y164295D01*
X138267Y164273D01*
X138287Y164240D01*
X138312Y164201D01*
X138339Y164151D01*
X138370Y164095D01*
X138400Y164032D01*
X138431Y163962D01*
X138461Y163885D01*
X138489Y163802D01*
X138514Y163713D01*
X138533Y163616D01*
X138550Y163517D01*
X138561Y163411D01*
X138564Y163301D01*
Y163259D01*
X138561Y163240D01*
Y163198D01*
X138555Y163145D01*
X138550Y163084D01*
X138542Y163015D01*
X138533Y162943D01*
X138519Y162863D01*
X138503Y162783D01*
X138481Y162697D01*
X138458Y162613D01*
X138428Y162530D01*
X138395Y162447D01*
X138356Y162367D01*
X138312Y162292D01*
X138309Y162287D01*
X138301Y162276D01*
X138284Y162256D01*
X138265Y162229D01*
X138240Y162195D01*
X138206Y162159D01*
X138170Y162118D01*
X138126Y162073D01*
X138076Y162026D01*
X138024Y161979D01*
X137963Y161929D01*
X137899Y161880D01*
X137827Y161832D01*
X137752Y161785D01*
X137669Y161741D01*
X137583Y161702D01*
X137580D01*
X137578Y161699D01*
X137561Y161694D01*
X137536Y161683D01*
X137500Y161672D01*
X137456Y161655D01*
X137403Y161638D01*
X137342Y161619D01*
X137276Y161602D01*
X137201Y161583D01*
X137120Y161564D01*
X137037Y161547D01*
X136946Y161530D01*
X136855Y161519D01*
X136758Y161508D01*
X136658Y161503D01*
X136556Y161500D01*
X136553D01*
X136547D01*
X136539D01*
X136528D01*
X136514D01*
X136497Y161503D01*
X136456D01*
X136403Y161508D01*
X136342Y161511D01*
X136273Y161519D01*
X136198Y161528D01*
X136121Y161542D01*
X136038Y161555D01*
X135949Y161575D01*
X135860Y161597D01*
X135772Y161622D01*
X135683Y161652D01*
X135597Y161688D01*
X135511Y161727D01*
X135506Y161730D01*
X135492Y161738D01*
X135470Y161752D01*
X135436Y161769D01*
X135400Y161794D01*
X135359Y161821D01*
X135309Y161857D01*
X135259Y161896D01*
X135206Y161938D01*
X135148Y161987D01*
X135093Y162040D01*
X135038Y162098D01*
X134982Y162162D01*
X134930Y162229D01*
X134880Y162301D01*
X134833Y162378D01*
X134830Y162384D01*
X134821Y162398D01*
X134810Y162420D01*
X134797Y162453D01*
X134777Y162492D01*
X134758Y162539D01*
X134738Y162594D01*
X134716Y162652D01*
X134694Y162719D01*
X134675Y162791D01*
X134652Y162868D01*
X134636Y162949D01*
X134622Y163035D01*
X134611Y163123D01*
X134603Y163215D01*
X134600Y163309D01*
Y163348D01*
X134603Y163364D01*
X134605Y163406D01*
X134608Y163456D01*
X134616Y163511D01*
X134625Y163575D01*
X134636Y163647D01*
X134652Y163722D01*
X134672Y163799D01*
X134694Y163879D01*
X134724Y163960D01*
X134758Y164040D01*
X134797Y164123D01*
X134841Y164201D01*
X134894Y164276D01*
X134896Y164281D01*
X134907Y164292D01*
X134924Y164314D01*
X134949Y164339D01*
X134977Y164373D01*
X135015Y164409D01*
X135057Y164447D01*
X135107Y164492D01*
X135162Y164536D01*
X135223Y164583D01*
X135292Y164627D01*
X135364Y164672D01*
X135445Y164716D01*
X135531Y164755D01*
X135622Y164794D01*
X135719Y164824D01*
X135835Y164325D01*
X135830Y164323D01*
X135816Y164320D01*
X135796Y164312D01*
X135766Y164301D01*
X135733Y164287D01*
X135694Y164270D01*
X135650Y164248D01*
X135603Y164226D01*
X135553Y164201D01*
X135503Y164170D01*
X135453Y164140D01*
X135400Y164104D01*
X135353Y164065D01*
X135306Y164026D01*
X135265Y163982D01*
X135226Y163935D01*
X135223Y163932D01*
X135218Y163924D01*
X135209Y163910D01*
X135195Y163891D01*
X135181Y163866D01*
X135165Y163835D01*
X135148Y163799D01*
X135129Y163760D01*
X135112Y163716D01*
X135096Y163669D01*
X135079Y163616D01*
X135065Y163561D01*
X135051Y163500D01*
X135043Y163436D01*
X135038Y163370D01*
X135035Y163298D01*
Y163256D01*
X135038Y163226D01*
X135040Y163187D01*
X135046Y163143D01*
X135051Y163093D01*
X135062Y163040D01*
X135073Y162982D01*
X135087Y162924D01*
X135104Y162863D01*
X135123Y162799D01*
X135148Y162738D01*
X135179Y162677D01*
X135209Y162616D01*
X135248Y162558D01*
X135251Y162555D01*
X135256Y162544D01*
X135270Y162530D01*
X135287Y162511D01*
X135309Y162486D01*
X135334Y162458D01*
X135364Y162428D01*
X135398Y162395D01*
X135436Y162362D01*
X135478Y162326D01*
X135525Y162292D01*
X135578Y162259D01*
X135630Y162226D01*
X135688Y162195D01*
X135749Y162168D01*
X135816Y162143D01*
X135819D01*
X135833Y162137D01*
X135852Y162132D01*
X135877Y162123D01*
X135910Y162115D01*
X135949Y162104D01*
X135993Y162096D01*
X136043Y162084D01*
X136096Y162073D01*
X136154Y162062D01*
X136215Y162051D01*
X136278Y162043D01*
X136411Y162029D01*
X136481Y162026D01*
X136553Y162023D01*
X136558D01*
X136575D01*
X136600D01*
X136636Y162026D01*
X136677Y162029D01*
X136727Y162032D01*
X136783Y162035D01*
X136841Y162040D01*
X136907Y162048D01*
X136977Y162057D01*
X137118Y162084D01*
X137193Y162098D01*
X137265Y162118D01*
X137337Y162140D01*
X137406Y162165D01*
X137409Y162168D01*
X137423Y162170D01*
X137439Y162179D01*
X137464Y162192D01*
X137495Y162206D01*
X137531Y162226D01*
X137569Y162248D01*
X137611Y162273D01*
X137652Y162303D01*
X137697Y162337D01*
X137744Y162373D01*
X137788Y162411D01*
X137832Y162456D01*
X137874Y162503D01*
X137913Y162553D01*
X137949Y162608D01*
X137952Y162611D01*
X137957Y162622D01*
X137965Y162638D01*
X137977Y162661D01*
X137990Y162688D01*
X138007Y162722D01*
X138021Y162760D01*
X138037Y162802D01*
X138057Y162849D01*
X138071Y162899D01*
X138087Y162954D01*
X138101Y163010D01*
X138112Y163071D01*
X138120Y163131D01*
X138126Y163195D01*
X138129Y163259D01*
Y163278D01*
X138126Y163301D01*
Y163331D01*
X138120Y163367D01*
X138115Y163409D01*
X138109Y163458D01*
X138098Y163508D01*
X138084Y163564D01*
X138068Y163622D01*
X138049Y163683D01*
X138026Y163744D01*
X137999Y163805D01*
X137965Y163866D01*
X137927Y163924D01*
X137885Y163982D01*
X137882Y163985D01*
X137874Y163996D01*
X137860Y164010D01*
X137838Y164029D01*
X137813Y164054D01*
X137783Y164082D01*
X137744Y164112D01*
X137702Y164143D01*
X137652Y164176D01*
X137600Y164209D01*
X137539Y164245D01*
X137472Y164276D01*
X137403Y164309D01*
X137326Y164337D01*
X137245Y164361D01*
X137156Y164384D01*
X137284Y164891D01*
X137287D01*
X137292Y164888D01*
D02*
G37*
%LPC*%
G36*
X164832Y146578D02*
X163630Y144849D01*
X164832D01*
Y146578D01*
D02*
G37*
%LPD*%
D10*
X148972Y161988D02*
G03*
X148972Y161988I-492J0D01*
G01*
D11*
X174402Y154138D02*
Y159256D01*
X184244Y143902D02*
X189362D01*
X199598Y154138D02*
Y159256D01*
X184244Y169098D02*
X189362D01*
X123417Y132264D02*
Y172421D01*
X101764Y132264D02*
X128142D01*
Y172421D01*
X101764D02*
X128142D01*
X101764Y132264D02*
Y172421D01*
X140402Y116638D02*
Y121756D01*
X150244Y106402D02*
X155362D01*
X165598Y116638D02*
Y121756D01*
X150244Y131598D02*
X155362D01*
D12*
X151532Y161102D02*
X155468D01*
X151532Y148898D02*
X155468D01*
X151532D02*
Y161102D01*
X155468Y148898D02*
Y161102D01*
M02*
