G04*
G04 #@! TF.GenerationSoftware,Altium Limited,Altium Designer,20.1.7 (139)*
G04*
G04 Layer_Color=32768*
%FSLAX25Y25*%
%MOIN*%
G70*
G04*
G04 #@! TF.SameCoordinates,72195594-E7F7-4266-BDA2-BCA36E094617*
G04*
G04*
G04 #@! TF.FilePolarity,Positive*
G04*
G01*
G75*
%ADD14C,0.00600*%
%ADD137C,0.00197*%
%ADD138C,0.00394*%
D14*
X197650Y345300D02*
X205300D01*
X213700D02*
X221350D01*
X205300Y341950D02*
Y345300D01*
Y341950D02*
X213700D01*
Y345300D01*
X197650D02*
Y369000D01*
X221350Y345300D02*
Y369000D01*
X213700D02*
X221350D01*
X197650D02*
X205300D01*
Y372350D01*
X213700Y369000D02*
Y372350D01*
X205300D02*
X213700D01*
X208000Y255000D02*
X211250D01*
X223750D02*
X227000D01*
Y281000D01*
X223750D02*
X227000D01*
X208000D02*
X211250D01*
Y282000D01*
Y254000D02*
Y255000D01*
Y254000D02*
X223750D01*
Y255000D01*
Y281000D02*
Y282000D01*
X211250D02*
X223750D01*
X208000Y255000D02*
Y281000D01*
X324500Y255000D02*
Y258250D01*
Y270750D02*
Y274000D01*
X298500D02*
X324500D01*
X298500Y270750D02*
Y274000D01*
Y255000D02*
Y258250D01*
X297500D02*
X298500D01*
X324500D02*
X325500D01*
Y270750D01*
X324500D02*
X325500D01*
X297500D02*
X298500D01*
X297500Y258250D02*
Y270750D01*
X298500Y255000D02*
X324500D01*
X353689Y207866D02*
X356939D01*
X369439D02*
X372689D01*
Y233866D01*
X369439D02*
X372689D01*
X353689D02*
X356939D01*
Y234866D01*
Y206866D02*
Y207866D01*
Y206866D02*
X369439D01*
Y207866D01*
Y233866D02*
Y234866D01*
X356939D02*
X369439D01*
X353689Y207866D02*
Y233866D01*
X258045Y246750D02*
Y250000D01*
Y231000D02*
Y234250D01*
Y231000D02*
X284045D01*
Y234250D01*
Y246750D02*
Y250000D01*
Y246750D02*
X285045D01*
X257045D02*
X258045D01*
X257045Y234250D02*
Y246750D01*
Y234250D02*
X258045D01*
X284045D02*
X285045D01*
Y246750D01*
X258045Y250000D02*
X284045D01*
D137*
X403803Y320862D02*
Y366138D01*
X454197Y320862D02*
Y366138D01*
X403803D02*
X454197D01*
X403803Y320862D02*
X454197D01*
X349748Y330126D02*
X368252D01*
X349748Y345874D02*
X368252D01*
Y330126D02*
Y345874D01*
X349748Y330126D02*
Y345874D01*
X289724Y253405D02*
X342087D01*
X289724Y196516D02*
X342087D01*
Y253405D01*
X289724Y196516D02*
Y253405D01*
X208126Y305067D02*
X238835D01*
X208126Y325933D02*
X238835D01*
Y305067D02*
Y325933D01*
X208126Y305067D02*
Y325933D01*
X286496Y200827D02*
Y209882D01*
X268386Y200827D02*
Y209882D01*
Y200827D02*
X286496D01*
X268386Y209882D02*
X286496D01*
X358268Y301575D02*
X388976D01*
X358268Y323622D02*
X388976D01*
Y301575D02*
Y323622D01*
X358268Y301575D02*
Y323622D01*
X269543Y299433D02*
X290016D01*
X269543Y270890D02*
X290016D01*
Y299433D01*
X269543Y270890D02*
Y299433D01*
X481602Y330820D02*
X496563D01*
X481602Y343813D02*
X496563D01*
Y330820D02*
Y343813D01*
X481602Y330820D02*
Y343813D01*
X172815Y194315D02*
Y208685D01*
Y194315D02*
X187185D01*
Y208685D01*
X172815D02*
X187185D01*
X220311Y393126D02*
X246689D01*
X220311Y372654D02*
X246689D01*
X220311D02*
Y393126D01*
X246689Y372654D02*
Y393126D01*
X474469Y378898D02*
Y391102D01*
X495532Y378898D02*
Y391102D01*
X474469D02*
X495532D01*
X474469Y378898D02*
X495532D01*
X128839Y356890D02*
X140256D01*
X128839Y366339D02*
X140256D01*
Y356890D02*
Y366339D01*
X128839Y356890D02*
Y366339D01*
X408610Y173004D02*
X422390D01*
X408610Y185996D02*
X422390D01*
Y173004D02*
Y185996D01*
X408610Y173004D02*
Y185996D01*
X173308Y427362D02*
Y450984D01*
X205985Y427362D02*
Y450984D01*
X173308D02*
X205985D01*
X173308Y427362D02*
X205985D01*
X151752Y184240D02*
X183248D01*
X151752Y168886D02*
X183248D01*
X151752D02*
Y184240D01*
X183248Y168886D02*
Y184240D01*
X203110Y378658D02*
Y398342D01*
X216890Y378658D02*
Y398342D01*
X203110Y378658D02*
X216890D01*
X203110Y398342D02*
X216890D01*
X141539Y361276D02*
X160043D01*
X141539Y370724D02*
X160043D01*
Y361276D02*
Y370724D01*
X141539Y361276D02*
Y370724D01*
X187563Y360413D02*
Y374587D01*
Y360413D02*
X195437D01*
X187563Y374587D02*
X195437D01*
Y360413D02*
Y374587D01*
X554776Y304732D02*
X564224D01*
X554776Y286228D02*
X564224D01*
Y304732D01*
X554776Y286228D02*
Y304732D01*
X566276D02*
X575724D01*
X566276Y286228D02*
X575724D01*
Y304732D01*
X566276Y286228D02*
Y304732D01*
X529776Y304752D02*
X539224D01*
X529776Y286248D02*
X539224D01*
Y304752D01*
X529776Y286248D02*
Y304752D01*
X481496Y300984D02*
X490945D01*
X481496Y319488D02*
X490945D01*
X481496Y300984D02*
Y319488D01*
X490945Y300984D02*
Y319488D01*
X558268Y266776D02*
Y276224D01*
X576772Y266776D02*
Y276224D01*
X558268D02*
X576772D01*
X558268Y266776D02*
X576772D01*
X545232Y267276D02*
Y276724D01*
X526728Y267276D02*
Y276724D01*
Y267276D02*
X545232D01*
X526728Y276724D02*
X545232D01*
X482732Y280276D02*
Y289724D01*
X464228Y280276D02*
Y289724D01*
Y280276D02*
X482732D01*
X464228Y289724D02*
X482732D01*
X423768Y181776D02*
Y191224D01*
X442272Y181776D02*
Y191224D01*
X423768D02*
X442272D01*
X423768Y181776D02*
X442272D01*
X407252D02*
Y191224D01*
X388748Y181776D02*
Y191224D01*
Y181776D02*
X407252D01*
X388748Y191224D02*
X407252D01*
X416815Y284890D02*
Y294339D01*
X435319Y284890D02*
Y294339D01*
X416815D02*
X435319D01*
X416815Y284890D02*
X435319D01*
X404496Y283858D02*
Y293307D01*
X385992Y283858D02*
Y293307D01*
Y283858D02*
X404496D01*
X385992Y293307D02*
X404496D01*
X497996Y284858D02*
Y298638D01*
X485004Y284858D02*
Y298638D01*
X497996D01*
X485004Y284858D02*
X497996D01*
X556724Y263691D02*
Y275109D01*
X547276Y263691D02*
Y275109D01*
X556724D01*
X547276Y263691D02*
X556724D01*
X415772Y275905D02*
Y287323D01*
X406323Y275905D02*
Y287323D01*
X415772D01*
X406323Y275905D02*
X415772D01*
X141539Y345669D02*
X160043D01*
X141539Y355118D02*
X160043D01*
Y345669D02*
Y355118D01*
X141539Y345669D02*
Y355118D01*
D138*
X427032Y343500D02*
X430969D01*
X429000Y341531D02*
Y345468D01*
X359000Y336032D02*
Y339968D01*
X357031Y338000D02*
X360968D01*
X315905Y222992D02*
Y226929D01*
X313937Y224961D02*
X317874D01*
X223480Y313531D02*
Y317469D01*
X221512Y315500D02*
X225449D01*
X275472Y205354D02*
X279409D01*
X277441Y203386D02*
Y207323D01*
X373622Y310630D02*
Y314567D01*
X371654Y312598D02*
X375591D01*
X279780Y283193D02*
Y287130D01*
X277811Y285161D02*
X281748D01*
X215512Y429273D02*
Y433013D01*
X213642Y431143D02*
X217382D01*
X210787Y433309D02*
X220236D01*
X210787Y428978D02*
X220236D01*
X210787D02*
Y433309D01*
X220236Y428978D02*
Y433309D01*
X489083Y335348D02*
Y339285D01*
X487114Y337316D02*
X491051D01*
X178032Y201500D02*
X181968D01*
X180000Y199531D02*
Y203468D01*
X233500Y380921D02*
Y384858D01*
X231532Y382890D02*
X235469D01*
X483032Y385000D02*
X486969D01*
X485000Y383032D02*
Y386968D01*
X134547Y359646D02*
Y363583D01*
X132579Y361614D02*
X136516D01*
X415500Y177532D02*
Y181468D01*
X413531Y179500D02*
X417469D01*
X187678Y439173D02*
X191615D01*
X189647Y437205D02*
Y441142D01*
X554524Y330106D02*
X556933D01*
Y327362D02*
Y330106D01*
X559551D01*
X556933D02*
Y332539D01*
X588441Y306480D02*
Y353724D01*
X527417Y306480D02*
X588441D01*
X527417D02*
Y353724D01*
X588441D01*
X306374Y289488D02*
Y300512D01*
X290626Y289488D02*
Y300512D01*
Y289488D02*
X306374D01*
X290626Y300512D02*
X306374D01*
X296532Y295000D02*
X300468D01*
X298500Y293032D02*
Y296969D01*
X193701Y327165D02*
X201181D01*
X193701Y311417D02*
X201181D01*
Y327165D01*
X193701Y311417D02*
Y327165D01*
X197441Y317323D02*
Y321260D01*
X195472Y319291D02*
X199409D01*
X530500Y180563D02*
Y188437D01*
X526563Y184500D02*
X534437D01*
X167500Y174594D02*
Y178532D01*
X165532Y176563D02*
X169468D01*
X389630Y325197D02*
X393370D01*
X391500Y323327D02*
Y327067D01*
X393665Y320472D02*
Y329921D01*
X389335Y320472D02*
Y329921D01*
X393665D01*
X389335Y320472D02*
X393665D01*
X208032Y388500D02*
X211968D01*
X210000Y386531D02*
Y390469D01*
X150791Y364032D02*
Y367969D01*
X148823Y366000D02*
X152760D01*
X191500Y365531D02*
Y369468D01*
X189532Y367500D02*
X193468D01*
X180315Y228740D02*
Y233071D01*
X189764Y228740D02*
Y233071D01*
X180315D02*
X189764D01*
X180315Y228740D02*
X189764D01*
X183169Y230906D02*
X186909D01*
X185039Y229035D02*
Y232776D01*
X166630Y195004D02*
X170370D01*
X168500Y193134D02*
Y196874D01*
X166335Y190279D02*
Y199728D01*
X170665Y190279D02*
Y199728D01*
X166335Y190279D02*
X170665D01*
X166335Y199728D02*
X170665D01*
X166630Y205000D02*
X170370D01*
X168500Y203130D02*
Y206870D01*
X166335Y200276D02*
Y209724D01*
X170665Y200276D02*
Y209724D01*
X166335Y200276D02*
X170665D01*
X166335Y209724D02*
X170665D01*
X178000Y189130D02*
Y192870D01*
X176130Y191000D02*
X179870D01*
X173276Y188835D02*
X182724D01*
X173276Y193165D02*
X182724D01*
Y188835D02*
Y193165D01*
X173276Y188835D02*
Y193165D01*
X184988Y248687D02*
Y253018D01*
X175539Y248687D02*
Y253018D01*
Y248687D02*
X184988D01*
X175539Y253018D02*
X184988D01*
X178394Y250853D02*
X182134D01*
X180264Y248983D02*
Y252723D01*
X162803Y159630D02*
Y163370D01*
X160933Y161500D02*
X164673D01*
X158079Y159335D02*
X167528D01*
X158079Y163665D02*
X167528D01*
Y159335D02*
Y163665D01*
X158079Y159335D02*
Y163665D01*
X195984Y195374D02*
Y199114D01*
X194114Y197244D02*
X197854D01*
X191260Y199409D02*
X200709D01*
X191260Y195079D02*
X200709D01*
X191260D02*
Y199409D01*
X200709Y195079D02*
Y199409D01*
X152303Y124630D02*
Y128370D01*
X150433Y126500D02*
X154173D01*
X147579Y128665D02*
X157027D01*
X147579Y124335D02*
X157027D01*
X147579D02*
Y128665D01*
X157027Y124335D02*
Y128665D01*
X287500Y261130D02*
Y264870D01*
X285630Y263000D02*
X289370D01*
X282776Y260835D02*
X292224D01*
X282776Y265165D02*
X292224D01*
Y260835D02*
Y265165D01*
X282776Y260835D02*
Y265165D01*
X261941Y182966D02*
X269421D01*
X261941Y198714D02*
X269421D01*
X261941Y182966D02*
Y198714D01*
X269421Y182966D02*
Y198714D01*
X265681Y188871D02*
Y192808D01*
X263713Y190840D02*
X267650D01*
X559500Y293512D02*
Y297449D01*
X557531Y295480D02*
X561469D01*
X571000Y293512D02*
Y297449D01*
X569031Y295480D02*
X572968D01*
X534500Y293531D02*
Y297468D01*
X532531Y295500D02*
X536469D01*
X486221Y308268D02*
Y312205D01*
X484252Y310236D02*
X488189D01*
X565551Y271500D02*
X569488D01*
X567520Y269531D02*
Y273468D01*
X534012Y272000D02*
X537949D01*
X535980Y270031D02*
Y273969D01*
X471512Y285000D02*
X475449D01*
X473480Y283032D02*
Y286968D01*
X425000Y395130D02*
Y398870D01*
X423130Y397000D02*
X426870D01*
X420276Y399165D02*
X429724D01*
X420276Y394835D02*
X429724D01*
X420276D02*
Y399165D01*
X429724Y394835D02*
Y399165D01*
X502362Y387894D02*
Y391634D01*
X500492Y389764D02*
X504232D01*
X497638Y387598D02*
X507087D01*
X497638Y391929D02*
X507087D01*
Y387598D02*
Y391929D01*
X497638Y387598D02*
Y391929D01*
X431051Y186500D02*
X434988D01*
X433020Y184531D02*
Y188469D01*
X396031Y186500D02*
X399969D01*
X398000Y184531D02*
Y188469D01*
X456000Y193130D02*
Y196870D01*
X454130Y195000D02*
X457870D01*
X451276Y192835D02*
X460724D01*
X451276Y197165D02*
X460724D01*
Y192835D02*
Y197165D01*
X451276Y192835D02*
Y197165D01*
X445126Y184260D02*
Y191740D01*
X460874Y184260D02*
Y191740D01*
X445126D02*
X460874D01*
X445126Y184260D02*
X460874D01*
X451031Y188000D02*
X454969D01*
X453000Y186031D02*
Y189969D01*
X248130Y377000D02*
X251870D01*
X250000Y375130D02*
Y378870D01*
X247835Y372276D02*
Y381724D01*
X252165Y372276D02*
Y381724D01*
X247835Y372276D02*
X252165D01*
X247835Y381724D02*
X252165D01*
X238626Y344760D02*
Y352240D01*
X254374Y344760D02*
Y352240D01*
X238626D02*
X254374D01*
X238626Y344760D02*
X254374D01*
X244531Y348500D02*
X248468D01*
X246500Y346532D02*
Y350468D01*
X238626Y336260D02*
Y343740D01*
X254374Y336260D02*
Y343740D01*
X238626D02*
X254374D01*
X238626Y336260D02*
X254374D01*
X244531Y340000D02*
X248468D01*
X246500Y338032D02*
Y341968D01*
X252500Y383630D02*
Y387370D01*
X250630Y385500D02*
X254370D01*
X247776Y387665D02*
X257224D01*
X247776Y383335D02*
X257224D01*
X247776D02*
Y387665D01*
X257224Y383335D02*
Y387665D01*
X373228Y340256D02*
Y343996D01*
X371358Y342126D02*
X375098D01*
X368504Y339961D02*
X377953D01*
X368504Y344291D02*
X377953D01*
Y339961D02*
Y344291D01*
X368504Y339961D02*
Y344291D01*
X398000Y354083D02*
Y357823D01*
X396130Y355953D02*
X399870D01*
X393276Y358118D02*
X402724D01*
X393276Y353787D02*
X402724D01*
X393276D02*
Y358118D01*
X402724Y353787D02*
Y358118D01*
X424098Y289614D02*
X428035D01*
X426067Y287646D02*
Y291583D01*
X393276Y288583D02*
X397213D01*
X395244Y286614D02*
Y290551D01*
X133630Y137402D02*
X137370D01*
X135500Y135531D02*
Y139272D01*
X137665Y132677D02*
Y142126D01*
X133335Y132677D02*
Y142126D01*
X137665D01*
X133335Y132677D02*
X137665D01*
X132776Y434252D02*
X136516D01*
X134646Y432382D02*
Y436122D01*
X132480Y429528D02*
Y438976D01*
X136811Y429528D02*
Y438976D01*
X132480Y429528D02*
X136811D01*
X132480Y438976D02*
X136811D01*
X142618Y381315D02*
X146358D01*
X144488Y379445D02*
Y383185D01*
X142323Y376590D02*
Y386039D01*
X146653Y376590D02*
Y386039D01*
X142323Y376590D02*
X146653D01*
X142323Y386039D02*
X146653D01*
X138268Y297988D02*
X142008D01*
X140138Y296118D02*
Y299858D01*
X137972Y293264D02*
Y302713D01*
X142303Y293264D02*
Y302713D01*
X137972Y293264D02*
X142303D01*
X137972Y302713D02*
X142303D01*
X543405Y115354D02*
X547146D01*
X545276Y113484D02*
Y117224D01*
X543110Y110630D02*
Y120079D01*
X547441Y110630D02*
Y120079D01*
X543110Y110630D02*
X547441D01*
X543110Y120079D02*
X547441D01*
X223228Y229035D02*
Y232776D01*
X221358Y230906D02*
X225098D01*
X218504Y233071D02*
X227953D01*
X218504Y228740D02*
X227953D01*
X218504D02*
Y233071D01*
X227953Y228740D02*
Y233071D01*
X196134Y200768D02*
Y204508D01*
X194264Y202638D02*
X198004D01*
X191409Y200472D02*
X200858D01*
X191409Y204803D02*
X200858D01*
Y200472D02*
Y204803D01*
X191409Y200472D02*
Y204803D01*
X161000Y205630D02*
Y209370D01*
X159130Y207500D02*
X162870D01*
X156276Y205335D02*
X165724D01*
X156276Y209665D02*
X165724D01*
Y205335D02*
Y209665D01*
X156276Y205335D02*
Y209665D01*
X161000Y200630D02*
Y204370D01*
X159130Y202500D02*
X162870D01*
X156276Y200335D02*
X165724D01*
X156276Y204665D02*
X165724D01*
Y200335D02*
Y204665D01*
X156276Y200335D02*
Y204665D01*
X161000Y195630D02*
Y199370D01*
X159130Y197500D02*
X162870D01*
X156276Y195335D02*
X165724D01*
X156276Y199665D02*
X165724D01*
Y195335D02*
Y199665D01*
X156276Y195335D02*
Y199665D01*
X223228Y237894D02*
Y241634D01*
X221358Y239764D02*
X225098D01*
X218504Y237598D02*
X227953D01*
X218504Y241929D02*
X227953D01*
Y237598D02*
Y241929D01*
X218504Y237598D02*
Y241929D01*
X142367Y249198D02*
Y252938D01*
X140497Y251068D02*
X144237D01*
X137643Y248902D02*
X147092D01*
X137643Y253233D02*
X147092D01*
Y248902D02*
Y253233D01*
X137643Y248902D02*
Y253233D01*
X175579Y131635D02*
Y135965D01*
X185028Y131635D02*
Y135965D01*
X175579D02*
X185028D01*
X175579Y131635D02*
X185028D01*
X178433Y133800D02*
X182173D01*
X180303Y131930D02*
Y135670D01*
X151803Y159630D02*
Y163370D01*
X149933Y161500D02*
X153673D01*
X147079Y163665D02*
X156527D01*
X147079Y159335D02*
X156527D01*
X147079D02*
Y163665D01*
X156527Y159335D02*
Y163665D01*
X281898Y307480D02*
X285638D01*
X283768Y305610D02*
Y309350D01*
X285933Y302756D02*
Y312205D01*
X281602Y302756D02*
Y312205D01*
X285933D01*
X281602Y302756D02*
X285933D01*
X276937Y307480D02*
X280677D01*
X278807Y305610D02*
Y309350D01*
X276642Y302756D02*
Y312205D01*
X280973Y302756D02*
Y312205D01*
X276642Y302756D02*
X280973D01*
X276642Y312205D02*
X280973D01*
X268724Y275835D02*
Y280165D01*
X259276Y275835D02*
Y280165D01*
Y275835D02*
X268724D01*
X259276Y280165D02*
X268724D01*
X262130Y278000D02*
X265870D01*
X264000Y276130D02*
Y279870D01*
X259276Y280835D02*
Y285165D01*
X268724Y280835D02*
Y285165D01*
X259276D02*
X268724D01*
X259276Y280835D02*
X268724D01*
X262130Y283000D02*
X265870D01*
X264000Y281130D02*
Y284870D01*
X544130Y359500D02*
X547870D01*
X546000Y357630D02*
Y361370D01*
X543835Y354776D02*
Y364224D01*
X548165Y354776D02*
Y364224D01*
X543835Y354776D02*
X548165D01*
X543835Y364224D02*
X548165D01*
X536571Y359500D02*
X540311D01*
X538441Y357630D02*
Y361370D01*
X536276Y354776D02*
Y364224D01*
X540606Y354776D02*
Y364224D01*
X536276Y354776D02*
X540606D01*
X536276Y364224D02*
X540606D01*
X530630Y359500D02*
X534370D01*
X532500Y357630D02*
Y361370D01*
X530335Y354776D02*
Y364224D01*
X534665Y354776D02*
Y364224D01*
X530335Y354776D02*
X534665D01*
X530335Y364224D02*
X534665D01*
X476213Y337317D02*
X479953D01*
X478083Y335447D02*
Y339187D01*
X480248Y332592D02*
Y342041D01*
X475917Y332592D02*
Y342041D01*
X480248D01*
X475917Y332592D02*
X480248D01*
X494183Y277657D02*
X497923D01*
X496053Y275787D02*
Y279527D01*
X498219Y272932D02*
Y282381D01*
X493888Y272932D02*
Y282381D01*
X498219D01*
X493888Y272932D02*
X498219D01*
X435500Y395130D02*
Y398870D01*
X433630Y397000D02*
X437370D01*
X430776Y394835D02*
X440224D01*
X430776Y399165D02*
X440224D01*
Y394835D02*
Y399165D01*
X430776Y394835D02*
Y399165D01*
X502362Y382894D02*
Y386634D01*
X500492Y384764D02*
X504232D01*
X497638Y386929D02*
X507087D01*
X497638Y382598D02*
X507087D01*
X497638D02*
Y386929D01*
X507087Y382598D02*
Y386929D01*
X453000Y238130D02*
Y241870D01*
X451130Y240000D02*
X454870D01*
X448276Y242165D02*
X457724D01*
X448276Y237835D02*
X457724D01*
X448276D02*
Y242165D01*
X457724Y237835D02*
Y242165D01*
X406500Y167630D02*
Y171370D01*
X404630Y169500D02*
X408370D01*
X401776Y167335D02*
X411224D01*
X401776Y171665D02*
X411224D01*
Y167335D02*
Y171665D01*
X401776Y167335D02*
Y171665D01*
X197736Y375791D02*
X201476D01*
X199606Y373921D02*
Y377661D01*
X201772Y371067D02*
Y380516D01*
X197441Y371067D02*
Y380516D01*
X201772D01*
X197441Y371067D02*
X201772D01*
X242630Y398500D02*
X246370D01*
X244500Y396630D02*
Y400370D01*
X246665Y393776D02*
Y403224D01*
X242335Y393776D02*
Y403224D01*
X246665D01*
X242335Y393776D02*
X246665D01*
X247630Y398500D02*
X251370D01*
X249500Y396630D02*
Y400370D01*
X247335Y393776D02*
Y403224D01*
X251665Y393776D02*
Y403224D01*
X247335Y393776D02*
X251665D01*
X247335Y403224D02*
X251665D01*
X203248Y332677D02*
X206988D01*
X205118Y330807D02*
Y334547D01*
X202953Y327953D02*
Y337402D01*
X207283Y327953D02*
Y337402D01*
X202953Y327953D02*
X207283D01*
X202953Y337402D02*
X207283D01*
X390158Y344980D02*
Y348721D01*
X388287Y346850D02*
X392028D01*
X385433Y349016D02*
X394882D01*
X385433Y344685D02*
X394882D01*
X385433D02*
Y349016D01*
X394882Y344685D02*
Y349016D01*
X374000Y360976D02*
X377740D01*
X375870Y359106D02*
Y362846D01*
X378035Y356252D02*
Y365701D01*
X373705Y356252D02*
Y365701D01*
X378035D01*
X373705Y356252D02*
X378035D01*
X363500Y360976D02*
X367240D01*
X365370Y359106D02*
Y362846D01*
X367535Y356252D02*
Y365701D01*
X363205Y356252D02*
Y365701D01*
X367535D01*
X363205Y356252D02*
X367535D01*
X489532Y291748D02*
X493469D01*
X491500Y289779D02*
Y293717D01*
X550032Y269400D02*
X553968D01*
X552000Y267431D02*
Y271369D01*
X409079Y281614D02*
X413016D01*
X411047Y279646D02*
Y283583D01*
X278598Y334345D02*
Y338085D01*
X276728Y336215D02*
X280469D01*
X273874Y334050D02*
X283323D01*
X273874Y338380D02*
X283323D01*
Y334050D02*
Y338380D01*
X273874Y334050D02*
Y338380D01*
X299606Y335416D02*
Y339156D01*
X297736Y337286D02*
X301476D01*
X294882Y335121D02*
X304331D01*
X294882Y339452D02*
X304331D01*
Y335121D02*
Y339452D01*
X294882Y335121D02*
Y339452D01*
X146756Y297988D02*
X150496D01*
X148626Y296118D02*
Y299858D01*
X150791Y293264D02*
Y302713D01*
X146461Y293264D02*
Y302713D01*
X150791D01*
X146461Y293264D02*
X150791D01*
X150791Y348425D02*
Y352362D01*
X148823Y350394D02*
X152760D01*
X186417Y303701D02*
X190748D01*
X186417Y313150D02*
X190748D01*
X186417Y303701D02*
Y313150D01*
X190748Y303701D02*
Y313150D01*
X188583Y306555D02*
Y310295D01*
X186713Y308425D02*
X190453D01*
X207896Y450417D02*
X211636D01*
X209766Y448547D02*
Y452287D01*
X211931Y445693D02*
Y455142D01*
X207600Y445693D02*
Y455142D01*
X211931D01*
X207600Y445693D02*
X211931D01*
X215579Y434744D02*
Y438484D01*
X213708Y436614D02*
X217449D01*
X210854Y434449D02*
X220303D01*
X210854Y438779D02*
X220303D01*
Y434449D02*
Y438779D01*
X210854Y434449D02*
Y438779D01*
M02*
