M48
;Layer_Color=9474304
;FILE_FORMAT=2:5
INCH,LZ
;TYPE=PLATED
T1F00S00C0.01500
T2F00S00C0.03937
T3F00S00C0.04200
T4F00S00C0.04291
T5F00S00C0.05906
T6F00S00C0.06299
T7F00S00C0.12992
;TYPE=NON_PLATED
T8F00S00C0.05906
%
T01
X0135498Y0130313
X0145669Y0126378
X0160807Y0091613
X020315Y0094488
Y0087795
Y0101181
Y0107874
Y0114567
Y0120378
Y0126378
Y013189
X0189764Y0140354
X0180709Y0141732
X0545276Y0107874
X0545397Y0261754
X0550844
X0555724
X0569937Y0262918
X0575242
X0579952
X0579937Y0267758
Y0272811
X0586473Y0272718
Y0267758
Y0262918
Y0257394
X0579952
X0575242
X0569937
Y0278346
Y0283101
X0576992
X0581496Y0283071
Y0287795
X0586473
Y0283101
Y0278346
X0581496
X0577122
X0558661
X0561937Y0281951
X0555118Y0281855
X0552211Y0287795
X0552362Y0293663
X0542095
Y0287795
X0541617Y0280478
X0535104
X0527998
X0521654
Y0274453
Y0268701
Y0263469
Y0258268
X0515524
Y0263531
Y0268701
Y0274541
Y0280478
X0509449
Y0274453
Y0268701
Y0263469
Y0258342
X0527998Y0258268
Y0263469
Y0287795
Y0293663
X0521654
Y0287795
X0515524
Y0293663
X0509449
Y0287795
X0501968Y0283858
X04915Y0283071
Y0277319
X0481496Y0292126
X0476378
X04785Y0296768
X049372Y0306693
X0498032Y030315
X0509055Y0311205
X0515524
X0521654
X0528009
X0527998Y0300524
X0577811
X0582339Y0298143
X0586473
Y0303319
X0582339
X0581496Y0292913
X0586473
X0460236Y0286736
Y0282687
X0442126Y0287795
X0438189
Y0292044
X0442126
X0423228Y0299606
X0418898
Y0303937
X041437
Y0299606
X0410972Y0273657
X0399606Y0272047
Y0266929
X0392913
Y0272047
X039685Y02765
X0383071Y0286736
X0377953
Y0292044
X0383071
X0370266Y029475
X0365821
X0347244Y0312205
X0333465Y0269815
X0327807Y0270005
Y0263
X0333465
X0326693Y02765
X0317323
X0387008Y0218504
X0391339Y0196063
X0394882Y0192913
X0401968Y0196063
X0408488
X041048Y0190945
X0405905Y0179528
X0399606Y01695
X0445669Y0172047
X0454724Y0170472
X0455953Y0162402
X0460063Y0162453
X0464567
Y0188
Y0192126
Y0196063
X0465354Y0206693
X0449606
X0449522Y0212598
Y0199606
X0443307
X0447685Y019513
X0438039Y0193898
X0434047Y0197697
X0429921Y0247244
X0425197
X0420276Y024685
X0308906Y0287327
Y0292913
Y0298202
X03041Y0285339
X029626Y0283787
X0290945
X0288189Y0300394
X0281102Y03
X0270866Y0301295
X0274015Y0305511
X0273997Y0312221
X0256338Y0283071
X0275941Y02606
X028411Y0220866
X0272456Y0185525
Y0180485
X0265681
X0259283
X0259212Y0185525
X0206299Y0184335
Y0179134
Y0173937
Y0169322
X0200787
Y0173937
Y0179134
Y0184437
X0194453
Y0179134
Y0173937
Y0169322
X0188189
Y0173937
Y0179134
Y0184437
X0189764Y020748
X018Y0210236
X0185433Y022559
X0188189Y0235433
X0177559Y0230906
Y0246068
X018302
X0216142Y0239764
X0230315Y023937
Y0230709
X020315Y0197244
X0188732Y0300713
X0148626Y0305906
X0140157Y0305118
X014532Y0255906
X0144488Y0246068
X0150791Y0242126
X0144488Y0161417
X0150791Y0335433
X0154331Y0359498
X0144488Y0373228
X0150791Y038039
X013937Y0384551
X0126772Y0361417
X0134646Y0440945
X01523Y0435827
X0171653Y0436614
Y043189
Y0449815
X0208Y0443307
X021026Y0457307
X0218898Y0455512
X0222835Y0431102
X0246063Y0437402
X0251575Y0436614
X0256299Y0447638
X0253937Y0399606
X0260507Y0389876
Y0384548
X0237432Y0396256
Y0401453
X0233567Y0398827
X0229921Y0396256
Y0401453
X0215512Y0400394
X0208
X0199213
Y03945
X0193388Y0354445
X0189764Y0357347
X0201969Y0342634
X0200394Y0335433
X0197441Y0329685
X0191535
X0206693Y0322835
X0215512Y0329842
X0217849Y0337815
Y0342634
X0212992Y0338583
X0234646
Y034373
Y0348539
X0234405Y0368653
X0229921
X0225378
X0239094
X0258661Y0349606
Y0344882
Y0340158
X0264152
X0264173Y0344882
Y0349606
X029252Y0355906
X0287743Y0336215
X0298819Y0332357
X0311811Y0337729
X0278807Y0314567
X0158661Y0357087
X0330709Y0362205
X0335827Y0369291
X0365354Y0368504
X0375984
X0389764Y0363779
X0395276Y0360236
X0400787
X0402756Y0340945
Y0336
Y0331
Y0325984
X0396457Y0327953
Y0322441
X0387008Y0351575
X0375984Y0346457
X0370472
X0349213Y0338016
X0355906Y0321622
X0351327Y0313512
X0313779Y0333858
X0401936Y0382283
X041811Y0397
X0428346Y0376378
X0455118Y0351
X0454953Y0346
Y0341
X0455118Y0336
Y0331
Y0326165
X0398031Y046811
X0379134Y0464961
X0477953Y0420079
X0492913Y043189
X0500394Y0411417
X0511417Y041063
X0505512Y0394094
X0499606
X0509449Y0385039
X0511417Y0380709
X051408Y0374046
X0510268Y0370472
X0511417Y0359842
X0517323
X0523622
Y0353015
Y034685
X0517323
Y0352898
X0509331Y0353015
X0509055Y034685
Y0340269
Y0334039
Y0328124
Y0322228
Y0316535
X0515524
X0521654
X0527179
X0534646Y0317323
X0539764
X0544882
X055
X0555118
X0559937
X0564961
X05634Y0322228
X0563439Y0327165
X0563526Y0332061
Y0337316
Y034252
X0558126
X0553138
X0547514
X0543003
X0537523
X053737Y0337316
Y0332061
X0537523Y0327165
X0537398Y0322228
X0523622
Y0328124
Y0334039
Y0340269
X0517323
Y0334039
Y0328124
Y0322228
X0486221Y032126
X0477559
Y0315142
X0478083Y0330293
X0484307Y0328931
X0478937Y0345063
X0495331Y0348222
X0473228Y0382283
Y0388189
X0533418Y0382283
X0538742Y0386547
X0544882Y0389539
X0545397Y0395276
X0551378
X0557087
Y0401575
Y0407087
X05634
Y0401575
X05695
Y0407087
Y0412598
Y041811
X0575372
Y0412598
Y0407087
Y0401575
X0581496
X0586473
Y0407087
X0581496
Y0412598
X0586614
X0586473Y041811
X0581496
Y0395276
X0586473
X0575372
X05695
X05634
X0563439Y0412598
X0551378Y0401575
Y0389539
Y0383084
X0544882
X0551378Y0373561
X0551072Y0362453
X0550754Y0356
X0556496
X0561937
X0579325
X0583858
X0586614Y0360475
X0586473Y0374025
Y0379049
X0546Y0367063
X0538189Y0372047
X0532526Y0370472
X03315Y0482677
X0316929Y0470472
X0257357Y0469291
X0252362
Y0474957
X0257357
Y0480626
Y0484957
X0252362
Y0480626
X0250787Y0490173
X0252362Y0495257
X025748
Y0490173
Y0501181
X0252362
X0246063
Y0495257
X023937
Y0501181
X0232677
X0226772
X0220866
X0214961
Y0494957
X0220866Y0495257
X0226772
X0232677
Y0474957
Y0469291
X0226772
Y0474957
X0220866
Y0469291
X0214961
Y0474957
X023937
Y0469291
X0246063
Y0474957
X0195583Y0469291
X0176181Y0470472
X0170866
Y0476378
X0176181
Y0482455
X0170866
Y0488588
X0176181
Y0494957
X0170866
Y0501181
X0176181
X0195189
T02
X0117106Y0133063
Y0140937
X0116606Y0176563
Y0184437
Y0219063
Y0226937
X03215Y0415
X03315
X03415
X03515
X03615
X03715
X03815
X03915
X04015
X04115
X04215
X04315
X04415
X04515
Y0495
X04415
X04315
X04215
X04115
X04015
X03915
X03815
X03715
X03615
X03515
X03415
X03315
X03215
T03
X0259784Y0085878
Y0095878
X0259283Y0120878
Y0130878
X0299783Y0130378
Y0120378
X0300284Y0096378
Y0086378
X0339784Y0085878
Y0095878
X0339283Y0120878
Y0130878
X0378284
Y0120878
X0378783Y0095878
Y0085878
T04
X0113Y0323815
Y0333815
Y0343815
Y0381315
Y0391315
Y0401315
X01125Y0439815
Y0449815
Y0459815
T05
X0569937Y0376547
X0195189Y0484957
T06
X0559937Y0366547
Y0386547
X0579937
Y0366547
X0205189Y0474957
Y0494957
X0185189
Y0474957
T07
X011761Y0098425
X0566429
X0565929Y04885
X011711
T08
X056613Y0136862
Y0232138
M30
