G04*
G04 #@! TF.GenerationSoftware,Altium Limited,Altium Designer,20.1.7 (139)*
G04*
G04 Layer_Color=16711935*
%FSLAX25Y25*%
%MOIN*%
G70*
G04*
G04 #@! TF.SameCoordinates,72195594-E7F7-4266-BDA2-BCA36E094617*
G04*
G04*
G04 #@! TF.FilePolarity,Negative*
G04*
G01*
G75*
%ADD70C,0.08474*%
%ADD113C,0.07687*%
%ADD114R,0.07687X0.07687*%
%ADD115C,0.24222*%
%ADD116C,0.06899*%
%ADD117C,0.06506*%
%ADD118C,0.12411*%
%ADD119C,0.08600*%
D70*
X113000Y323815D02*
D03*
Y333815D02*
D03*
Y343815D02*
D03*
X112500Y459815D02*
D03*
Y449815D02*
D03*
Y439815D02*
D03*
X113000Y381315D02*
D03*
Y391315D02*
D03*
Y401315D02*
D03*
D113*
X411500Y415000D02*
D03*
X421500D02*
D03*
X451500D02*
D03*
X441500D02*
D03*
X431500D02*
D03*
X401500D02*
D03*
X391500D02*
D03*
X381500D02*
D03*
X371500D02*
D03*
X361500D02*
D03*
X351500D02*
D03*
X341500D02*
D03*
X331500D02*
D03*
X321500D02*
D03*
Y495000D02*
D03*
X331500D02*
D03*
X341500D02*
D03*
X351500D02*
D03*
X361500D02*
D03*
X371500D02*
D03*
X381500D02*
D03*
X391500D02*
D03*
X401500D02*
D03*
X431500D02*
D03*
X441500D02*
D03*
X421500D02*
D03*
X411500D02*
D03*
D114*
X451500D02*
D03*
D115*
X566429Y98425D02*
D03*
X565929Y488500D02*
D03*
X117110D02*
D03*
X117610Y98425D02*
D03*
D116*
X117106Y133063D02*
D03*
Y140937D02*
D03*
X116606Y219063D02*
D03*
Y226937D02*
D03*
Y176563D02*
D03*
Y184437D02*
D03*
D117*
X566130Y232138D02*
D03*
Y136862D02*
D03*
D118*
X185189Y494957D02*
D03*
X205189D02*
D03*
X185189Y474957D02*
D03*
X205189D02*
D03*
X195189Y484957D02*
D03*
X559937Y386547D02*
D03*
X579937D02*
D03*
X559937Y366547D02*
D03*
X579937D02*
D03*
X569937Y376547D02*
D03*
D119*
X378783Y95878D02*
D03*
Y85878D02*
D03*
X259283Y130878D02*
D03*
Y120878D02*
D03*
X299783Y120378D02*
D03*
Y130378D02*
D03*
X339283Y130878D02*
D03*
Y120878D02*
D03*
X378284Y130878D02*
D03*
Y120878D02*
D03*
X259784Y95878D02*
D03*
Y85878D02*
D03*
X300284Y96378D02*
D03*
Y86378D02*
D03*
X339784Y95878D02*
D03*
Y85878D02*
D03*
M02*
