G04*
G04 #@! TF.GenerationSoftware,Altium Limited,Altium Designer,20.1.7 (139)*
G04*
G04 Layer_Physical_Order=2*
G04 Layer_Color=36540*
%FSLAX25Y25*%
%MOIN*%
G70*
G04*
G04 #@! TF.SameCoordinates,72195594-E7F7-4266-BDA2-BCA36E094617*
G04*
G04*
G04 #@! TF.FilePolarity,Positive*
G04*
G01*
G75*
%ADD14C,0.00600*%
%ADD22C,0.07874*%
%ADD123C,0.02000*%
%ADD126C,0.07087*%
%ADD128C,0.23622*%
%ADD129C,0.06299*%
%ADD131C,0.11811*%
%ADD132C,0.08000*%
%ADD133C,0.03000*%
G36*
X284097Y502756D02*
X577953D01*
X584494Y496214D01*
Y424229D01*
X566474D01*
X516657Y374413D01*
X516115Y374577D01*
X516058Y374865D01*
X515593Y375560D01*
X514899Y376024D01*
X514080Y376187D01*
X513260Y376024D01*
X512566Y375560D01*
X512101Y374865D01*
X511938Y374046D01*
X512101Y373226D01*
X512566Y372532D01*
X513260Y372067D01*
X513548Y372010D01*
X513712Y371468D01*
X512886Y370641D01*
X512343Y370806D01*
X512246Y371292D01*
X511782Y371987D01*
X511088Y372451D01*
X510268Y372614D01*
X509449Y372451D01*
X508754Y371987D01*
X508290Y371292D01*
X508127Y370472D01*
X508290Y369653D01*
X508754Y368958D01*
X509449Y368494D01*
X509935Y368398D01*
X510100Y367855D01*
X501181Y358937D01*
X501181Y285843D01*
X501149Y285836D01*
X500455Y285372D01*
X499990Y284678D01*
X499827Y283858D01*
X499990Y283039D01*
X500455Y282344D01*
X501149Y281880D01*
X501181Y281874D01*
X501181Y275197D01*
X505118D01*
Y357874D01*
X567772Y420528D01*
Y420866D01*
X588976D01*
Y254724D01*
X501181D01*
Y250394D01*
X505512Y246063D01*
X582677D01*
X587402Y241339D01*
X587008Y240945D01*
Y84252D01*
X457087D01*
X387402Y153937D01*
Y144095D01*
X393701Y137795D01*
Y82677D01*
X102362D01*
Y267717D01*
X185039D01*
Y354331D01*
X169291Y370079D01*
Y405512D01*
X250634D01*
X295226Y360919D01*
X292313Y358005D01*
X291700Y357884D01*
X291006Y357419D01*
X290542Y356725D01*
X290378Y355906D01*
X290542Y355086D01*
X291006Y354392D01*
X291700Y353927D01*
X292520Y353764D01*
X293339Y353927D01*
X294034Y354392D01*
X294498Y355086D01*
X294620Y355698D01*
X297533Y358612D01*
X317037Y339109D01*
X316846Y338647D01*
X313723D01*
X313325Y339243D01*
X312630Y339707D01*
X311811Y339870D01*
X310992Y339707D01*
X310297Y339243D01*
X309833Y338548D01*
X309670Y337729D01*
X309833Y336910D01*
X310297Y336215D01*
X310992Y335751D01*
X311811Y335588D01*
X312108Y335137D01*
X311801Y334677D01*
X311638Y333858D01*
X311801Y333038D01*
X312265Y332344D01*
X312960Y331879D01*
X313779Y331716D01*
X314598Y331879D01*
X315293Y332344D01*
X315691Y332940D01*
X322835D01*
Y287402D01*
X342520Y267717D01*
Y190945D01*
X350394D01*
X347638Y193701D01*
Y268032D01*
X325984Y289685D01*
Y332940D01*
X328525D01*
X328841Y333003D01*
X346326Y315517D01*
Y314117D01*
X345730Y313719D01*
X345266Y313024D01*
X345103Y312205D01*
X345266Y311385D01*
X345730Y310691D01*
X346425Y310227D01*
X347244Y310064D01*
X348063Y310227D01*
X348758Y310691D01*
X349222Y311385D01*
X349314Y311845D01*
X349630Y311942D01*
X349849Y311974D01*
X350507Y311534D01*
X351327Y311371D01*
X352146Y311534D01*
X352841Y311998D01*
X353305Y312692D01*
X353468Y313512D01*
X353305Y314331D01*
X352841Y315026D01*
X352146Y315490D01*
X351327Y315653D01*
X350623Y315513D01*
X327758Y338378D01*
X327461Y338577D01*
X327110Y338647D01*
X325984D01*
Y360573D01*
X329370D01*
X329889Y360227D01*
X330709Y360064D01*
X331528Y360227D01*
X332223Y360691D01*
X332687Y361385D01*
X332850Y362205D01*
X332687Y363024D01*
X332223Y363719D01*
X331528Y364183D01*
X330709Y364346D01*
X329889Y364183D01*
X329370Y363836D01*
X322778D01*
X278346Y408268D01*
Y410039D01*
X164567D01*
Y368110D01*
X181163Y351514D01*
X181163Y273228D01*
X102362D01*
X101969Y273622D01*
X102362Y471654D01*
X153543D01*
X164355Y461614D01*
X278346D01*
Y467717D01*
X167323D01*
Y503937D01*
X282916D01*
X284097Y502756D01*
D02*
G37*
%LPC*%
G36*
X455643Y499143D02*
X447357D01*
Y490857D01*
X455643D01*
Y499143D01*
D02*
G37*
G36*
X441500Y499179D02*
X440418Y499037D01*
X439410Y498619D01*
X438545Y497955D01*
X437881Y497089D01*
X437463Y496082D01*
X437321Y495000D01*
X437463Y493918D01*
X437881Y492910D01*
X438545Y492045D01*
X439410Y491381D01*
X440418Y490963D01*
X441500Y490821D01*
X442582Y490963D01*
X443589Y491381D01*
X444455Y492045D01*
X445119Y492910D01*
X445537Y493918D01*
X445679Y495000D01*
X445537Y496082D01*
X445119Y497089D01*
X444455Y497955D01*
X443589Y498619D01*
X442582Y499037D01*
X441500Y499179D01*
D02*
G37*
G36*
X431500D02*
X430418Y499037D01*
X429411Y498619D01*
X428545Y497955D01*
X427881Y497089D01*
X427463Y496082D01*
X427321Y495000D01*
X427463Y493918D01*
X427881Y492910D01*
X428545Y492045D01*
X429411Y491381D01*
X430418Y490963D01*
X431500Y490821D01*
X432582Y490963D01*
X433590Y491381D01*
X434455Y492045D01*
X435119Y492910D01*
X435537Y493918D01*
X435679Y495000D01*
X435537Y496082D01*
X435119Y497089D01*
X434455Y497955D01*
X433590Y498619D01*
X432582Y499037D01*
X431500Y499179D01*
D02*
G37*
G36*
X421500D02*
X420418Y499037D01*
X419411Y498619D01*
X418545Y497955D01*
X417881Y497089D01*
X417463Y496082D01*
X417321Y495000D01*
X417463Y493918D01*
X417881Y492910D01*
X418545Y492045D01*
X419411Y491381D01*
X420418Y490963D01*
X421500Y490821D01*
X422582Y490963D01*
X423590Y491381D01*
X424455Y492045D01*
X425119Y492910D01*
X425537Y493918D01*
X425679Y495000D01*
X425537Y496082D01*
X425119Y497089D01*
X424455Y497955D01*
X423590Y498619D01*
X422582Y499037D01*
X421500Y499179D01*
D02*
G37*
G36*
X411500D02*
X410418Y499037D01*
X409410Y498619D01*
X408545Y497955D01*
X407881Y497089D01*
X407463Y496082D01*
X407321Y495000D01*
X407463Y493918D01*
X407881Y492910D01*
X408545Y492045D01*
X409410Y491381D01*
X410418Y490963D01*
X411500Y490821D01*
X412582Y490963D01*
X413589Y491381D01*
X414455Y492045D01*
X415119Y492910D01*
X415537Y493918D01*
X415679Y495000D01*
X415537Y496082D01*
X415119Y497089D01*
X414455Y497955D01*
X413589Y498619D01*
X412582Y499037D01*
X411500Y499179D01*
D02*
G37*
G36*
X401500D02*
X400418Y499037D01*
X399411Y498619D01*
X398545Y497955D01*
X397881Y497089D01*
X397463Y496082D01*
X397321Y495000D01*
X397463Y493918D01*
X397881Y492910D01*
X398545Y492045D01*
X399411Y491381D01*
X400418Y490963D01*
X401500Y490821D01*
X402582Y490963D01*
X403589Y491381D01*
X404455Y492045D01*
X405119Y492910D01*
X405537Y493918D01*
X405679Y495000D01*
X405537Y496082D01*
X405119Y497089D01*
X404455Y497955D01*
X403589Y498619D01*
X402582Y499037D01*
X401500Y499179D01*
D02*
G37*
G36*
X391500D02*
X390418Y499037D01*
X389410Y498619D01*
X388545Y497955D01*
X387881Y497089D01*
X387463Y496082D01*
X387321Y495000D01*
X387463Y493918D01*
X387881Y492910D01*
X388545Y492045D01*
X389410Y491381D01*
X390418Y490963D01*
X391500Y490821D01*
X392582Y490963D01*
X393589Y491381D01*
X394455Y492045D01*
X395119Y492910D01*
X395537Y493918D01*
X395679Y495000D01*
X395537Y496082D01*
X395119Y497089D01*
X394455Y497955D01*
X393589Y498619D01*
X392582Y499037D01*
X391500Y499179D01*
D02*
G37*
G36*
X381500D02*
X380418Y499037D01*
X379411Y498619D01*
X378545Y497955D01*
X377881Y497089D01*
X377463Y496082D01*
X377321Y495000D01*
X377463Y493918D01*
X377881Y492910D01*
X378545Y492045D01*
X379411Y491381D01*
X380418Y490963D01*
X381500Y490821D01*
X382582Y490963D01*
X383590Y491381D01*
X384455Y492045D01*
X385119Y492910D01*
X385537Y493918D01*
X385679Y495000D01*
X385537Y496082D01*
X385119Y497089D01*
X384455Y497955D01*
X383590Y498619D01*
X382582Y499037D01*
X381500Y499179D01*
D02*
G37*
G36*
X371500D02*
X370418Y499037D01*
X369410Y498619D01*
X368545Y497955D01*
X367881Y497089D01*
X367463Y496082D01*
X367321Y495000D01*
X367463Y493918D01*
X367881Y492910D01*
X368545Y492045D01*
X369410Y491381D01*
X370418Y490963D01*
X371500Y490821D01*
X372582Y490963D01*
X373589Y491381D01*
X374455Y492045D01*
X375119Y492910D01*
X375537Y493918D01*
X375679Y495000D01*
X375537Y496082D01*
X375119Y497089D01*
X374455Y497955D01*
X373589Y498619D01*
X372582Y499037D01*
X371500Y499179D01*
D02*
G37*
G36*
X361500D02*
X360418Y499037D01*
X359411Y498619D01*
X358545Y497955D01*
X357881Y497089D01*
X357463Y496082D01*
X357321Y495000D01*
X357463Y493918D01*
X357881Y492910D01*
X358545Y492045D01*
X359411Y491381D01*
X360418Y490963D01*
X361500Y490821D01*
X362582Y490963D01*
X363590Y491381D01*
X364455Y492045D01*
X365119Y492910D01*
X365537Y493918D01*
X365679Y495000D01*
X365537Y496082D01*
X365119Y497089D01*
X364455Y497955D01*
X363590Y498619D01*
X362582Y499037D01*
X361500Y499179D01*
D02*
G37*
G36*
X351500D02*
X350418Y499037D01*
X349411Y498619D01*
X348545Y497955D01*
X347881Y497089D01*
X347463Y496082D01*
X347321Y495000D01*
X347463Y493918D01*
X347881Y492910D01*
X348545Y492045D01*
X349411Y491381D01*
X350418Y490963D01*
X351500Y490821D01*
X352582Y490963D01*
X353590Y491381D01*
X354455Y492045D01*
X355119Y492910D01*
X355537Y493918D01*
X355679Y495000D01*
X355537Y496082D01*
X355119Y497089D01*
X354455Y497955D01*
X353590Y498619D01*
X352582Y499037D01*
X351500Y499179D01*
D02*
G37*
G36*
X341500D02*
X340418Y499037D01*
X339410Y498619D01*
X338545Y497955D01*
X337881Y497089D01*
X337463Y496082D01*
X337321Y495000D01*
X337463Y493918D01*
X337881Y492910D01*
X338545Y492045D01*
X339410Y491381D01*
X340418Y490963D01*
X341500Y490821D01*
X342582Y490963D01*
X343589Y491381D01*
X344455Y492045D01*
X345119Y492910D01*
X345537Y493918D01*
X345679Y495000D01*
X345537Y496082D01*
X345119Y497089D01*
X344455Y497955D01*
X343589Y498619D01*
X342582Y499037D01*
X341500Y499179D01*
D02*
G37*
G36*
X331500D02*
X330418Y499037D01*
X329411Y498619D01*
X328545Y497955D01*
X327881Y497089D01*
X327463Y496082D01*
X327321Y495000D01*
X327463Y493918D01*
X327881Y492910D01*
X328545Y492045D01*
X329411Y491381D01*
X330418Y490963D01*
X331500Y490821D01*
X332582Y490963D01*
X333590Y491381D01*
X334455Y492045D01*
X335119Y492910D01*
X335537Y493918D01*
X335679Y495000D01*
X335537Y496082D01*
X335119Y497089D01*
X334455Y497955D01*
X333590Y498619D01*
X332582Y499037D01*
X331500Y499179D01*
D02*
G37*
G36*
X321500D02*
X320418Y499037D01*
X319410Y498619D01*
X318545Y497955D01*
X317881Y497089D01*
X317463Y496082D01*
X317321Y495000D01*
X317463Y493918D01*
X317881Y492910D01*
X318545Y492045D01*
X319410Y491381D01*
X320418Y490963D01*
X321500Y490821D01*
X322582Y490963D01*
X323589Y491381D01*
X324455Y492045D01*
X325119Y492910D01*
X325537Y493918D01*
X325679Y495000D01*
X325537Y496082D01*
X325119Y497089D01*
X324455Y497955D01*
X323589Y498619D01*
X322582Y499037D01*
X321500Y499179D01*
D02*
G37*
G36*
X331500Y484818D02*
X330681Y484655D01*
X329986Y484191D01*
X329522Y483497D01*
X329359Y482677D01*
X329522Y481858D01*
X329986Y481163D01*
X330681Y480699D01*
X331500Y480536D01*
X332319Y480699D01*
X333014Y481163D01*
X333478Y481858D01*
X333641Y482677D01*
X333478Y483497D01*
X333014Y484191D01*
X332319Y484655D01*
X331500Y484818D01*
D02*
G37*
G36*
X195189Y491494D02*
X193914Y491368D01*
X192687Y490996D01*
X191557Y490392D01*
X190567Y489579D01*
X189754Y488588D01*
X189150Y487458D01*
X188778Y486232D01*
X188652Y484957D01*
X188778Y483681D01*
X189150Y482455D01*
X189754Y481325D01*
X190567Y480334D01*
X191557Y479521D01*
X192687Y478917D01*
X193914Y478545D01*
X195189Y478420D01*
X196464Y478545D01*
X197691Y478917D01*
X198821Y479521D01*
X199811Y480334D01*
X200624Y481325D01*
X201228Y482455D01*
X201600Y483681D01*
X201726Y484957D01*
X201600Y486232D01*
X201228Y487458D01*
X200624Y488588D01*
X199811Y489579D01*
X198821Y490392D01*
X197691Y490996D01*
X196464Y491368D01*
X195189Y491494D01*
D02*
G37*
G36*
X398031Y470251D02*
X397212Y470088D01*
X396517Y469624D01*
X396053Y468930D01*
X395890Y468110D01*
X396053Y467291D01*
X396517Y466596D01*
X397212Y466132D01*
X398031Y465969D01*
X398851Y466132D01*
X399546Y466596D01*
X400010Y467291D01*
X400173Y468110D01*
X400010Y468930D01*
X399546Y469624D01*
X398851Y470088D01*
X398031Y470251D01*
D02*
G37*
G36*
X379134Y467102D02*
X378314Y466939D01*
X377620Y466475D01*
X377156Y465780D01*
X376993Y464961D01*
X377156Y464141D01*
X377620Y463447D01*
X378314Y462983D01*
X379134Y462819D01*
X379953Y462983D01*
X380648Y463447D01*
X381112Y464141D01*
X381275Y464961D01*
X381112Y465780D01*
X380648Y466475D01*
X379953Y466939D01*
X379134Y467102D01*
D02*
G37*
G36*
X218898Y457653D02*
X218078Y457490D01*
X217384Y457026D01*
X216919Y456331D01*
X216757Y455512D01*
X216919Y454692D01*
X217384Y453998D01*
X218078Y453534D01*
X218898Y453371D01*
X219717Y453534D01*
X220412Y453998D01*
X220876Y454692D01*
X221039Y455512D01*
X220876Y456331D01*
X220412Y457026D01*
X219717Y457490D01*
X218898Y457653D01*
D02*
G37*
G36*
X171653Y451956D02*
X170834Y451793D01*
X170140Y451329D01*
X169675Y450634D01*
X169512Y449815D01*
X169675Y448996D01*
X170140Y448301D01*
X170834Y447837D01*
X171653Y447674D01*
X172473Y447837D01*
X173168Y448301D01*
X173632Y448996D01*
X173795Y449815D01*
X173632Y450634D01*
X173168Y451329D01*
X172473Y451793D01*
X171653Y451956D01*
D02*
G37*
G36*
X256299Y449779D02*
X255480Y449616D01*
X254785Y449152D01*
X254321Y448457D01*
X254158Y447638D01*
X254321Y446818D01*
X254785Y446124D01*
X255480Y445660D01*
X256299Y445497D01*
X257119Y445660D01*
X257813Y446124D01*
X258277Y446818D01*
X258440Y447638D01*
X258277Y448457D01*
X257813Y449152D01*
X257119Y449616D01*
X256299Y449779D01*
D02*
G37*
G36*
X112500Y454391D02*
X111316Y454235D01*
X110212Y453778D01*
X109264Y453051D01*
X108537Y452103D01*
X108080Y450999D01*
X107924Y449815D01*
X108080Y448631D01*
X108537Y447527D01*
X109264Y446579D01*
X110212Y445852D01*
X111316Y445395D01*
X112500Y445239D01*
X113684Y445395D01*
X114788Y445852D01*
X115736Y446579D01*
X116463Y447527D01*
X116920Y448631D01*
X117076Y449815D01*
X116920Y450999D01*
X116463Y452103D01*
X115736Y453051D01*
X114788Y453778D01*
X113684Y454235D01*
X112500Y454391D01*
D02*
G37*
G36*
X208000Y445448D02*
X207181Y445285D01*
X206486Y444821D01*
X206022Y444127D01*
X205859Y443307D01*
X206022Y442488D01*
X206486Y441793D01*
X207181Y441329D01*
X208000Y441166D01*
X208819Y441329D01*
X209514Y441793D01*
X209978Y442488D01*
X210141Y443307D01*
X209978Y444127D01*
X209514Y444821D01*
X208819Y445285D01*
X208000Y445448D01*
D02*
G37*
G36*
X246063Y439543D02*
X245244Y439380D01*
X244549Y438916D01*
X244085Y438221D01*
X243922Y437402D01*
X244085Y436582D01*
X244549Y435888D01*
X245244Y435423D01*
X246063Y435260D01*
X246882Y435423D01*
X247577Y435888D01*
X248041Y436582D01*
X248204Y437402D01*
X248041Y438221D01*
X247577Y438916D01*
X246882Y439380D01*
X246063Y439543D01*
D02*
G37*
G36*
X112500Y444391D02*
X111316Y444235D01*
X110212Y443778D01*
X109264Y443051D01*
X108537Y442103D01*
X108080Y440999D01*
X107924Y439815D01*
X108080Y438631D01*
X108537Y437527D01*
X109264Y436579D01*
X110212Y435852D01*
X111316Y435395D01*
X112500Y435239D01*
X113684Y435395D01*
X114788Y435852D01*
X115736Y436579D01*
X116463Y437527D01*
X116920Y438631D01*
X117076Y439815D01*
X116920Y440999D01*
X116463Y442103D01*
X115736Y443051D01*
X114788Y443778D01*
X113684Y444235D01*
X112500Y444391D01*
D02*
G37*
G36*
X251575Y438755D02*
X250755Y438592D01*
X250061Y438128D01*
X249597Y437434D01*
X249434Y436614D01*
X249597Y435795D01*
X250061Y435100D01*
X250755Y434636D01*
X251575Y434473D01*
X252394Y434636D01*
X253089Y435100D01*
X253553Y435795D01*
X253716Y436614D01*
X253553Y437434D01*
X253089Y438128D01*
X252394Y438592D01*
X251575Y438755D01*
D02*
G37*
G36*
X171653D02*
X170834Y438592D01*
X170140Y438128D01*
X169675Y437434D01*
X169512Y436614D01*
X169675Y435795D01*
X170140Y435100D01*
X170834Y434636D01*
X171653Y434473D01*
X172473Y434636D01*
X173168Y435100D01*
X173632Y435795D01*
X173795Y436614D01*
X173632Y437434D01*
X173168Y438128D01*
X172473Y438592D01*
X171653Y438755D01*
D02*
G37*
G36*
X152300Y437968D02*
X151480Y437805D01*
X150786Y437341D01*
X150321Y436646D01*
X150159Y435827D01*
X150321Y435007D01*
X150786Y434313D01*
X151480Y433849D01*
X152300Y433686D01*
X153119Y433849D01*
X153814Y434313D01*
X154278Y435007D01*
X154441Y435827D01*
X154278Y436646D01*
X153814Y437341D01*
X153119Y437805D01*
X152300Y437968D01*
D02*
G37*
G36*
X492913Y434031D02*
X492094Y433868D01*
X491399Y433404D01*
X490935Y432709D01*
X490772Y431890D01*
X490935Y431070D01*
X491399Y430376D01*
X492094Y429912D01*
X492913Y429749D01*
X493733Y429912D01*
X494427Y430376D01*
X494892Y431070D01*
X495054Y431890D01*
X494892Y432709D01*
X494427Y433404D01*
X493733Y433868D01*
X492913Y434031D01*
D02*
G37*
G36*
X477953Y422220D02*
X477133Y422057D01*
X476439Y421593D01*
X475975Y420898D01*
X475812Y420079D01*
X475975Y419259D01*
X476439Y418565D01*
X477133Y418101D01*
X477953Y417938D01*
X478772Y418101D01*
X479467Y418565D01*
X479931Y419259D01*
X480094Y420079D01*
X479931Y420898D01*
X479467Y421593D01*
X478772Y422057D01*
X477953Y422220D01*
D02*
G37*
G36*
X451500Y419179D02*
X450418Y419037D01*
X449410Y418619D01*
X448545Y417955D01*
X447881Y417090D01*
X447463Y416082D01*
X447321Y415000D01*
X447463Y413918D01*
X447881Y412911D01*
X448545Y412045D01*
X449410Y411381D01*
X450418Y410963D01*
X451500Y410821D01*
X452582Y410963D01*
X453589Y411381D01*
X454455Y412045D01*
X455119Y412911D01*
X455537Y413918D01*
X455679Y415000D01*
X455537Y416082D01*
X455119Y417090D01*
X454455Y417955D01*
X453589Y418619D01*
X452582Y419037D01*
X451500Y419179D01*
D02*
G37*
G36*
X441500D02*
X440418Y419037D01*
X439410Y418619D01*
X438545Y417955D01*
X437881Y417090D01*
X437463Y416082D01*
X437321Y415000D01*
X437463Y413918D01*
X437881Y412911D01*
X438545Y412045D01*
X439410Y411381D01*
X440418Y410963D01*
X441500Y410821D01*
X442582Y410963D01*
X443589Y411381D01*
X444455Y412045D01*
X445119Y412911D01*
X445537Y413918D01*
X445679Y415000D01*
X445537Y416082D01*
X445119Y417090D01*
X444455Y417955D01*
X443589Y418619D01*
X442582Y419037D01*
X441500Y419179D01*
D02*
G37*
G36*
X431500D02*
X430418Y419037D01*
X429411Y418619D01*
X428545Y417955D01*
X427881Y417090D01*
X427463Y416082D01*
X427321Y415000D01*
X427463Y413918D01*
X427881Y412911D01*
X428545Y412045D01*
X429411Y411381D01*
X430418Y410963D01*
X431500Y410821D01*
X432582Y410963D01*
X433590Y411381D01*
X434455Y412045D01*
X435119Y412911D01*
X435537Y413918D01*
X435679Y415000D01*
X435537Y416082D01*
X435119Y417090D01*
X434455Y417955D01*
X433590Y418619D01*
X432582Y419037D01*
X431500Y419179D01*
D02*
G37*
G36*
X411500D02*
X410418Y419037D01*
X409410Y418619D01*
X408545Y417955D01*
X407881Y417090D01*
X407463Y416082D01*
X407321Y415000D01*
X407463Y413918D01*
X407881Y412911D01*
X408545Y412045D01*
X409410Y411381D01*
X410418Y410963D01*
X411500Y410821D01*
X412582Y410963D01*
X413589Y411381D01*
X414455Y412045D01*
X415119Y412911D01*
X415537Y413918D01*
X415679Y415000D01*
X415537Y416082D01*
X415119Y417090D01*
X414455Y417955D01*
X413589Y418619D01*
X412582Y419037D01*
X411500Y419179D01*
D02*
G37*
G36*
X401500D02*
X400418Y419037D01*
X399411Y418619D01*
X398545Y417955D01*
X397881Y417090D01*
X397463Y416082D01*
X397321Y415000D01*
X397463Y413918D01*
X397881Y412911D01*
X398545Y412045D01*
X399411Y411381D01*
X400418Y410963D01*
X401500Y410821D01*
X402582Y410963D01*
X403589Y411381D01*
X404455Y412045D01*
X405119Y412911D01*
X405537Y413918D01*
X405679Y415000D01*
X405537Y416082D01*
X405119Y417090D01*
X404455Y417955D01*
X403589Y418619D01*
X402582Y419037D01*
X401500Y419179D01*
D02*
G37*
G36*
X391500D02*
X390418Y419037D01*
X389410Y418619D01*
X388545Y417955D01*
X387881Y417090D01*
X387463Y416082D01*
X387321Y415000D01*
X387463Y413918D01*
X387881Y412911D01*
X388545Y412045D01*
X389410Y411381D01*
X390418Y410963D01*
X391500Y410821D01*
X392582Y410963D01*
X393589Y411381D01*
X394455Y412045D01*
X395119Y412911D01*
X395537Y413918D01*
X395679Y415000D01*
X395537Y416082D01*
X395119Y417090D01*
X394455Y417955D01*
X393589Y418619D01*
X392582Y419037D01*
X391500Y419179D01*
D02*
G37*
G36*
X381500D02*
X380418Y419037D01*
X379411Y418619D01*
X378545Y417955D01*
X377881Y417090D01*
X377463Y416082D01*
X377321Y415000D01*
X377463Y413918D01*
X377881Y412911D01*
X378545Y412045D01*
X379411Y411381D01*
X380418Y410963D01*
X381500Y410821D01*
X382582Y410963D01*
X383590Y411381D01*
X384455Y412045D01*
X385119Y412911D01*
X385537Y413918D01*
X385679Y415000D01*
X385537Y416082D01*
X385119Y417090D01*
X384455Y417955D01*
X383590Y418619D01*
X382582Y419037D01*
X381500Y419179D01*
D02*
G37*
G36*
X371500D02*
X370418Y419037D01*
X369410Y418619D01*
X368545Y417955D01*
X367881Y417090D01*
X367463Y416082D01*
X367321Y415000D01*
X367463Y413918D01*
X367881Y412911D01*
X368545Y412045D01*
X369410Y411381D01*
X370418Y410963D01*
X371500Y410821D01*
X372582Y410963D01*
X373589Y411381D01*
X374455Y412045D01*
X375119Y412911D01*
X375537Y413918D01*
X375679Y415000D01*
X375537Y416082D01*
X375119Y417090D01*
X374455Y417955D01*
X373589Y418619D01*
X372582Y419037D01*
X371500Y419179D01*
D02*
G37*
G36*
X361500D02*
X360418Y419037D01*
X359411Y418619D01*
X358545Y417955D01*
X357881Y417090D01*
X357463Y416082D01*
X357321Y415000D01*
X357463Y413918D01*
X357881Y412911D01*
X358545Y412045D01*
X359411Y411381D01*
X360418Y410963D01*
X361500Y410821D01*
X362582Y410963D01*
X363590Y411381D01*
X364455Y412045D01*
X365119Y412911D01*
X365537Y413918D01*
X365679Y415000D01*
X365537Y416082D01*
X365119Y417090D01*
X364455Y417955D01*
X363590Y418619D01*
X362582Y419037D01*
X361500Y419179D01*
D02*
G37*
G36*
X351500D02*
X350418Y419037D01*
X349411Y418619D01*
X348545Y417955D01*
X347881Y417090D01*
X347463Y416082D01*
X347321Y415000D01*
X347463Y413918D01*
X347881Y412911D01*
X348545Y412045D01*
X349411Y411381D01*
X350418Y410963D01*
X351500Y410821D01*
X352582Y410963D01*
X353590Y411381D01*
X354455Y412045D01*
X355119Y412911D01*
X355537Y413918D01*
X355679Y415000D01*
X355537Y416082D01*
X355119Y417090D01*
X354455Y417955D01*
X353590Y418619D01*
X352582Y419037D01*
X351500Y419179D01*
D02*
G37*
G36*
X341500D02*
X340418Y419037D01*
X339410Y418619D01*
X338545Y417955D01*
X337881Y417090D01*
X337463Y416082D01*
X337321Y415000D01*
X337463Y413918D01*
X337881Y412911D01*
X338545Y412045D01*
X339410Y411381D01*
X340418Y410963D01*
X341500Y410821D01*
X342582Y410963D01*
X343589Y411381D01*
X344455Y412045D01*
X345119Y412911D01*
X345537Y413918D01*
X345679Y415000D01*
X345537Y416082D01*
X345119Y417090D01*
X344455Y417955D01*
X343589Y418619D01*
X342582Y419037D01*
X341500Y419179D01*
D02*
G37*
G36*
X331500D02*
X330418Y419037D01*
X329411Y418619D01*
X328545Y417955D01*
X327881Y417090D01*
X327463Y416082D01*
X327321Y415000D01*
X327463Y413918D01*
X327881Y412911D01*
X328545Y412045D01*
X329411Y411381D01*
X330418Y410963D01*
X331500Y410821D01*
X332582Y410963D01*
X333590Y411381D01*
X334455Y412045D01*
X335119Y412911D01*
X335537Y413918D01*
X335679Y415000D01*
X335537Y416082D01*
X335119Y417090D01*
X334455Y417955D01*
X333590Y418619D01*
X332582Y419037D01*
X331500Y419179D01*
D02*
G37*
G36*
X321500D02*
X320418Y419037D01*
X319410Y418619D01*
X318545Y417955D01*
X317881Y417090D01*
X317463Y416082D01*
X317321Y415000D01*
X317463Y413918D01*
X317881Y412911D01*
X318545Y412045D01*
X319410Y411381D01*
X320418Y410963D01*
X321500Y410821D01*
X322582Y410963D01*
X323589Y411381D01*
X324455Y412045D01*
X325119Y412911D01*
X325537Y413918D01*
X325679Y415000D01*
X325537Y416082D01*
X325119Y417090D01*
X324455Y417955D01*
X323589Y418619D01*
X322582Y419037D01*
X321500Y419179D01*
D02*
G37*
G36*
X500394Y413558D02*
X499574Y413396D01*
X498880Y412931D01*
X498416Y412237D01*
X498253Y411417D01*
X498416Y410598D01*
X498880Y409903D01*
X499574Y409439D01*
X500394Y409276D01*
X501213Y409439D01*
X501908Y409903D01*
X502372Y410598D01*
X502535Y411417D01*
X502372Y412237D01*
X501908Y412931D01*
X501213Y413396D01*
X500394Y413558D01*
D02*
G37*
G36*
X511417Y412771D02*
X510598Y412608D01*
X509903Y412144D01*
X509439Y411449D01*
X509276Y410630D01*
X509439Y409810D01*
X509903Y409116D01*
X510598Y408652D01*
X511417Y408489D01*
X512237Y408652D01*
X512931Y409116D01*
X513396Y409810D01*
X513558Y410630D01*
X513396Y411449D01*
X512931Y412144D01*
X512237Y412608D01*
X511417Y412771D01*
D02*
G37*
G36*
X499606Y396236D02*
X498787Y396073D01*
X498092Y395608D01*
X497628Y394914D01*
X497465Y394094D01*
X497628Y393275D01*
X498092Y392581D01*
X498787Y392116D01*
X499606Y391953D01*
X500426Y392116D01*
X501120Y392581D01*
X501584Y393275D01*
X501747Y394094D01*
X501584Y394914D01*
X501120Y395608D01*
X500426Y396073D01*
X499606Y396236D01*
D02*
G37*
G36*
X113000Y395891D02*
X111816Y395735D01*
X110712Y395278D01*
X109764Y394551D01*
X109037Y393603D01*
X108580Y392499D01*
X108424Y391315D01*
X108580Y390131D01*
X109037Y389027D01*
X109764Y388079D01*
X110712Y387352D01*
X111816Y386895D01*
X113000Y386739D01*
X114184Y386895D01*
X115288Y387352D01*
X116236Y388079D01*
X116963Y389027D01*
X117420Y390131D01*
X117576Y391315D01*
X117420Y392499D01*
X116963Y393603D01*
X116236Y394551D01*
X115288Y395278D01*
X114184Y395735D01*
X113000Y395891D01*
D02*
G37*
G36*
X401936Y384425D02*
X401117Y384262D01*
X400422Y383798D01*
X399958Y383103D01*
X399795Y382283D01*
X399958Y381464D01*
X400422Y380769D01*
X401117Y380305D01*
X401936Y380142D01*
X402756Y380305D01*
X403450Y380769D01*
X403915Y381464D01*
X404078Y382283D01*
X403915Y383103D01*
X403450Y383798D01*
X402756Y384262D01*
X401936Y384425D01*
D02*
G37*
G36*
X511417Y382850D02*
X510598Y382687D01*
X509903Y382223D01*
X509439Y381528D01*
X509276Y380709D01*
X509439Y379889D01*
X509903Y379195D01*
X510598Y378731D01*
X511417Y378568D01*
X512237Y378731D01*
X512931Y379195D01*
X513396Y379889D01*
X513558Y380709D01*
X513396Y381528D01*
X512931Y382223D01*
X512237Y382687D01*
X511417Y382850D01*
D02*
G37*
G36*
X150791Y382531D02*
X149972Y382368D01*
X149277Y381904D01*
X148813Y381209D01*
X148650Y380390D01*
X148813Y379570D01*
X149277Y378876D01*
X149972Y378412D01*
X150791Y378249D01*
X151611Y378412D01*
X152305Y378876D01*
X152769Y379570D01*
X152933Y380390D01*
X152769Y381209D01*
X152305Y381904D01*
X151611Y382368D01*
X150791Y382531D01*
D02*
G37*
G36*
X113000Y385891D02*
X111816Y385735D01*
X110712Y385278D01*
X109764Y384551D01*
X109037Y383603D01*
X108580Y382499D01*
X108424Y381315D01*
X108580Y380131D01*
X109037Y379027D01*
X109764Y378079D01*
X110712Y377352D01*
X111816Y376895D01*
X113000Y376739D01*
X114184Y376895D01*
X115288Y377352D01*
X116236Y378079D01*
X116963Y379027D01*
X117420Y380131D01*
X117576Y381315D01*
X117420Y382499D01*
X116963Y383603D01*
X116236Y384551D01*
X115288Y385278D01*
X114184Y385735D01*
X113000Y385891D01*
D02*
G37*
G36*
X428346Y378519D02*
X427527Y378356D01*
X426832Y377892D01*
X426368Y377197D01*
X426205Y376378D01*
X426368Y375559D01*
X426832Y374864D01*
X427527Y374400D01*
X428346Y374237D01*
X429166Y374400D01*
X429860Y374864D01*
X430325Y375559D01*
X430488Y376378D01*
X430325Y377197D01*
X429860Y377892D01*
X429166Y378356D01*
X428346Y378519D01*
D02*
G37*
G36*
X144488Y375370D02*
X143669Y375206D01*
X142974Y374742D01*
X142510Y374048D01*
X142347Y373228D01*
X142510Y372409D01*
X142974Y371714D01*
X143669Y371250D01*
X144488Y371087D01*
X145308Y371250D01*
X146002Y371714D01*
X146466Y372409D01*
X146629Y373228D01*
X146466Y374048D01*
X146002Y374742D01*
X145308Y375206D01*
X144488Y375370D01*
D02*
G37*
G36*
X569937Y383084D02*
X568662Y382959D01*
X567435Y382587D01*
X566305Y381982D01*
X565315Y381170D01*
X564502Y380179D01*
X563898Y379049D01*
X563526Y377822D01*
X563400Y376547D01*
X563526Y375272D01*
X563898Y374046D01*
X564502Y372916D01*
X565315Y371925D01*
X566305Y371112D01*
X567435Y370508D01*
X568662Y370136D01*
X569937Y370010D01*
X571212Y370136D01*
X572439Y370508D01*
X573569Y371112D01*
X574559Y371925D01*
X575372Y372916D01*
X575976Y374046D01*
X576348Y375272D01*
X576474Y376547D01*
X576348Y377822D01*
X575976Y379049D01*
X575372Y380179D01*
X574559Y381170D01*
X573569Y381982D01*
X572439Y382587D01*
X571212Y382959D01*
X569937Y383084D01*
D02*
G37*
G36*
X538189Y374188D02*
X537370Y374025D01*
X536675Y373561D01*
X536211Y372867D01*
X536048Y372047D01*
X536211Y371228D01*
X536675Y370533D01*
X537370Y370069D01*
X538189Y369906D01*
X539008Y370069D01*
X539703Y370533D01*
X540167Y371228D01*
X540330Y372047D01*
X540167Y372867D01*
X539703Y373561D01*
X539008Y374025D01*
X538189Y374188D01*
D02*
G37*
G36*
X532526Y372614D02*
X531707Y372451D01*
X531012Y371987D01*
X530548Y371292D01*
X530385Y370472D01*
X530548Y369653D01*
X531012Y368958D01*
X531707Y368494D01*
X532526Y368331D01*
X533345Y368494D01*
X534040Y368958D01*
X534504Y369653D01*
X534667Y370472D01*
X534504Y371292D01*
X534040Y371987D01*
X533345Y372451D01*
X532526Y372614D01*
D02*
G37*
G36*
X335827Y371432D02*
X335007Y371269D01*
X334313Y370805D01*
X333849Y370111D01*
X333686Y369291D01*
X333849Y368472D01*
X334313Y367777D01*
X335007Y367313D01*
X335827Y367150D01*
X336646Y367313D01*
X337341Y367777D01*
X337805Y368472D01*
X337968Y369291D01*
X337805Y370111D01*
X337341Y370805D01*
X336646Y371269D01*
X335827Y371432D01*
D02*
G37*
G36*
X375984Y370645D02*
X375165Y370482D01*
X374470Y370018D01*
X374006Y369323D01*
X373843Y368504D01*
X374006Y367685D01*
X374470Y366990D01*
X375165Y366526D01*
X375984Y366363D01*
X376804Y366526D01*
X377498Y366990D01*
X377962Y367685D01*
X378125Y368504D01*
X377962Y369323D01*
X377498Y370018D01*
X376804Y370482D01*
X375984Y370645D01*
D02*
G37*
G36*
X365354D02*
X364535Y370482D01*
X363840Y370018D01*
X363376Y369323D01*
X363213Y368504D01*
X363376Y367685D01*
X363840Y366990D01*
X364535Y366526D01*
X365354Y366363D01*
X366174Y366526D01*
X366868Y366990D01*
X367333Y367685D01*
X367495Y368504D01*
X367333Y369323D01*
X366868Y370018D01*
X366174Y370482D01*
X365354Y370645D01*
D02*
G37*
G36*
X546000Y369204D02*
X545181Y369041D01*
X544486Y368577D01*
X544022Y367882D01*
X543859Y367063D01*
X544022Y366244D01*
X544486Y365549D01*
X545181Y365085D01*
X546000Y364922D01*
X546819Y365085D01*
X547514Y365549D01*
X547978Y366244D01*
X548141Y367063D01*
X547978Y367882D01*
X547514Y368577D01*
X546819Y369041D01*
X546000Y369204D01*
D02*
G37*
G36*
X389764Y365921D02*
X388944Y365758D01*
X388250Y365294D01*
X387786Y364599D01*
X387623Y363779D01*
X387786Y362960D01*
X388250Y362265D01*
X388944Y361801D01*
X389764Y361638D01*
X390583Y361801D01*
X391278Y362265D01*
X391742Y362960D01*
X391905Y363779D01*
X391742Y364599D01*
X391278Y365294D01*
X390583Y365758D01*
X389764Y365921D01*
D02*
G37*
G36*
X400787Y362377D02*
X399968Y362214D01*
X399273Y361750D01*
X398809Y361056D01*
X398646Y360236D01*
X398809Y359417D01*
X399273Y358722D01*
X399968Y358258D01*
X400787Y358095D01*
X401607Y358258D01*
X402301Y358722D01*
X402766Y359417D01*
X402928Y360236D01*
X402766Y361056D01*
X402301Y361750D01*
X401607Y362214D01*
X400787Y362377D01*
D02*
G37*
G36*
X387008Y353716D02*
X386189Y353553D01*
X385494Y353089D01*
X385030Y352394D01*
X384867Y351575D01*
X385030Y350755D01*
X385494Y350061D01*
X386189Y349597D01*
X387008Y349434D01*
X387827Y349597D01*
X388522Y350061D01*
X388986Y350755D01*
X389149Y351575D01*
X388986Y352394D01*
X388522Y353089D01*
X387827Y353553D01*
X387008Y353716D01*
D02*
G37*
G36*
X495331Y350363D02*
X494511Y350200D01*
X493817Y349736D01*
X493353Y349041D01*
X493189Y348222D01*
X493353Y347403D01*
X493817Y346708D01*
X494511Y346244D01*
X495331Y346081D01*
X496150Y346244D01*
X496845Y346708D01*
X497309Y347403D01*
X497472Y348222D01*
X497309Y349041D01*
X496845Y349736D01*
X496150Y350200D01*
X495331Y350363D01*
D02*
G37*
G36*
X370472Y348598D02*
X369653Y348435D01*
X368958Y347971D01*
X368494Y347276D01*
X368331Y346457D01*
X368494Y345637D01*
X368958Y344943D01*
X369653Y344479D01*
X370472Y344316D01*
X371292Y344479D01*
X371987Y344943D01*
X372451Y345637D01*
X372614Y346457D01*
X372451Y347276D01*
X371987Y347971D01*
X371292Y348435D01*
X370472Y348598D01*
D02*
G37*
G36*
X478937Y347204D02*
X478118Y347041D01*
X477423Y346577D01*
X476959Y345882D01*
X476796Y345063D01*
X476959Y344244D01*
X477423Y343549D01*
X478118Y343085D01*
X478937Y342922D01*
X479756Y343085D01*
X480451Y343549D01*
X480915Y344244D01*
X481078Y345063D01*
X480915Y345882D01*
X480451Y346577D01*
X479756Y347041D01*
X478937Y347204D01*
D02*
G37*
G36*
X264173Y351747D02*
X263354Y351585D01*
X262659Y351120D01*
X262195Y350426D01*
X262032Y349606D01*
X262195Y348787D01*
X262659Y348092D01*
X263354Y347628D01*
X263856Y347528D01*
X264003Y347499D01*
Y346989D01*
X263856Y346960D01*
X263354Y346860D01*
X262659Y346396D01*
X262195Y345701D01*
X262032Y344882D01*
X262195Y344062D01*
X262659Y343368D01*
X263354Y342904D01*
X263846Y342806D01*
X263992Y342777D01*
Y342267D01*
X263843Y342237D01*
X263332Y342136D01*
X262637Y341671D01*
X262173Y340977D01*
X262010Y340158D01*
X262173Y339338D01*
X262637Y338644D01*
X263332Y338179D01*
X264152Y338016D01*
X264971Y338179D01*
X265666Y338644D01*
X266130Y339338D01*
X266293Y340158D01*
X266130Y340977D01*
X265666Y341671D01*
X264971Y342136D01*
X264478Y342234D01*
X264333Y342263D01*
Y342772D01*
X264482Y342802D01*
X264993Y342904D01*
X265687Y343368D01*
X266151Y344062D01*
X266314Y344882D01*
X266151Y345701D01*
X265687Y346396D01*
X264993Y346860D01*
X264491Y346960D01*
X264343Y346989D01*
Y347499D01*
X264491Y347528D01*
X264993Y347628D01*
X265687Y348092D01*
X266151Y348787D01*
X266314Y349606D01*
X266151Y350426D01*
X265687Y351120D01*
X264993Y351585D01*
X264173Y351747D01*
D02*
G37*
G36*
X258661D02*
X257842Y351585D01*
X257147Y351120D01*
X256683Y350426D01*
X256520Y349606D01*
X256683Y348787D01*
X257147Y348092D01*
X257842Y347628D01*
X258344Y347528D01*
X258491Y347499D01*
Y346989D01*
X258344Y346960D01*
X257842Y346860D01*
X257147Y346396D01*
X256683Y345701D01*
X256520Y344882D01*
X256683Y344062D01*
X257147Y343368D01*
X257842Y342904D01*
X258344Y342804D01*
X258491Y342775D01*
Y342265D01*
X258344Y342235D01*
X257842Y342136D01*
X257147Y341671D01*
X256683Y340977D01*
X256520Y340158D01*
X256683Y339338D01*
X257147Y338644D01*
X257842Y338179D01*
X258661Y338016D01*
X259481Y338179D01*
X260175Y338644D01*
X260640Y339338D01*
X260803Y340158D01*
X260640Y340977D01*
X260175Y341671D01*
X259481Y342136D01*
X258979Y342235D01*
X258832Y342265D01*
Y342775D01*
X258979Y342804D01*
X259481Y342904D01*
X260175Y343368D01*
X260640Y344062D01*
X260803Y344882D01*
X260640Y345701D01*
X260175Y346396D01*
X259481Y346860D01*
X258979Y346960D01*
X258832Y346989D01*
Y347499D01*
X258979Y347528D01*
X259481Y347628D01*
X260175Y348092D01*
X260640Y348787D01*
X260803Y349606D01*
X260640Y350426D01*
X260175Y351120D01*
X259481Y351585D01*
X258661Y351747D01*
D02*
G37*
G36*
X287743Y338356D02*
X286924Y338193D01*
X286229Y337729D01*
X285765Y337034D01*
X285602Y336215D01*
X285765Y335396D01*
X286229Y334701D01*
X286924Y334237D01*
X287743Y334074D01*
X288562Y334237D01*
X289257Y334701D01*
X289721Y335396D01*
X289884Y336215D01*
X289721Y337034D01*
X289257Y337729D01*
X288562Y338193D01*
X287743Y338356D01*
D02*
G37*
G36*
X150791Y337574D02*
X149972Y337411D01*
X149277Y336947D01*
X148813Y336252D01*
X148650Y335433D01*
X148813Y334614D01*
X149277Y333919D01*
X149972Y333455D01*
X150791Y333292D01*
X151611Y333455D01*
X152305Y333919D01*
X152769Y334614D01*
X152933Y335433D01*
X152769Y336252D01*
X152305Y336947D01*
X151611Y337411D01*
X150791Y337574D01*
D02*
G37*
G36*
X298819Y334498D02*
X298000Y334335D01*
X297305Y333871D01*
X296841Y333176D01*
X296678Y332357D01*
X296841Y331537D01*
X297305Y330843D01*
X298000Y330379D01*
X298819Y330216D01*
X299638Y330379D01*
X300333Y330843D01*
X300797Y331537D01*
X300960Y332357D01*
X300797Y333176D01*
X300333Y333871D01*
X299638Y334335D01*
X298819Y334498D01*
D02*
G37*
G36*
X113000Y338391D02*
X111816Y338235D01*
X110712Y337778D01*
X109764Y337051D01*
X109037Y336103D01*
X108580Y334999D01*
X108424Y333815D01*
X108580Y332631D01*
X109037Y331527D01*
X109764Y330579D01*
X110712Y329852D01*
X111816Y329395D01*
X113000Y329239D01*
X114184Y329395D01*
X115288Y329852D01*
X116236Y330579D01*
X116963Y331527D01*
X117420Y332631D01*
X117576Y333815D01*
X117420Y334999D01*
X116963Y336103D01*
X116236Y337051D01*
X115288Y337778D01*
X114184Y338235D01*
X113000Y338391D01*
D02*
G37*
G36*
X215512Y331984D02*
X214692Y331821D01*
X213998Y331357D01*
X213534Y330662D01*
X213371Y329842D01*
X213534Y329023D01*
X213998Y328328D01*
X214692Y327864D01*
X215512Y327701D01*
X216331Y327864D01*
X217026Y328328D01*
X217490Y329023D01*
X217653Y329842D01*
X217490Y330662D01*
X217026Y331357D01*
X216331Y331821D01*
X215512Y331984D01*
D02*
G37*
G36*
X396457Y324582D02*
X395637Y324419D01*
X394943Y323955D01*
X394479Y323260D01*
X394316Y322441D01*
X394479Y321622D01*
X394943Y320927D01*
X395637Y320463D01*
X396457Y320300D01*
X397276Y320463D01*
X397971Y320927D01*
X398435Y321622D01*
X398598Y322441D01*
X398435Y323260D01*
X397971Y323955D01*
X397276Y324419D01*
X396457Y324582D01*
D02*
G37*
G36*
X113000Y328391D02*
X111816Y328235D01*
X110712Y327778D01*
X109764Y327051D01*
X109037Y326103D01*
X108580Y324999D01*
X108424Y323815D01*
X108580Y322631D01*
X109037Y321527D01*
X109764Y320579D01*
X110712Y319852D01*
X111816Y319395D01*
X113000Y319239D01*
X114184Y319395D01*
X115288Y319852D01*
X116236Y320579D01*
X116963Y321527D01*
X117420Y322631D01*
X117576Y323815D01*
X117420Y324999D01*
X116963Y326103D01*
X116236Y327051D01*
X115288Y327778D01*
X114184Y328235D01*
X113000Y328391D01*
D02*
G37*
G36*
X586473Y345063D02*
X567772D01*
Y315142D01*
X586473D01*
Y345063D01*
D02*
G37*
G36*
X273997Y314362D02*
X273178Y314199D01*
X272483Y313735D01*
X272019Y313040D01*
X271856Y312221D01*
X272019Y311401D01*
X272483Y310706D01*
X273178Y310242D01*
X273997Y310079D01*
X274816Y310242D01*
X275511Y310706D01*
X275975Y311401D01*
X276138Y312221D01*
X275975Y313040D01*
X275511Y313735D01*
X274816Y314199D01*
X273997Y314362D01*
D02*
G37*
G36*
X418898Y306078D02*
X418078Y305915D01*
X417384Y305451D01*
X416920Y304756D01*
X416889Y304602D01*
X416379D01*
X416348Y304756D01*
X415884Y305451D01*
X415190Y305915D01*
X414370Y306078D01*
X413551Y305915D01*
X412856Y305451D01*
X412392Y304756D01*
X412229Y303937D01*
X412392Y303118D01*
X412856Y302423D01*
X413415Y302049D01*
X413439Y301967D01*
Y301577D01*
X413415Y301494D01*
X412856Y301120D01*
X412392Y300426D01*
X412229Y299606D01*
X412392Y298787D01*
X412856Y298092D01*
X413551Y297628D01*
X414370Y297465D01*
X415190Y297628D01*
X415884Y298092D01*
X416348Y298787D01*
X416379Y298941D01*
X416889D01*
X416920Y298787D01*
X417384Y298092D01*
X418078Y297628D01*
X418898Y297465D01*
X419717Y297628D01*
X420412Y298092D01*
X420785Y298651D01*
X420868Y298675D01*
X421258D01*
X421341Y298651D01*
X421714Y298092D01*
X422409Y297628D01*
X423228Y297465D01*
X424048Y297628D01*
X424742Y298092D01*
X425207Y298787D01*
X425370Y299606D01*
X425207Y300426D01*
X424742Y301120D01*
X424048Y301585D01*
X423228Y301747D01*
X422409Y301585D01*
X421714Y301120D01*
X421341Y300561D01*
X421258Y300537D01*
X420868D01*
X420785Y300561D01*
X420412Y301120D01*
X419853Y301494D01*
X419828Y301577D01*
Y301967D01*
X419853Y302049D01*
X420412Y302423D01*
X420876Y303118D01*
X421039Y303937D01*
X420876Y304756D01*
X420412Y305451D01*
X419717Y305915D01*
X418898Y306078D01*
D02*
G37*
G36*
X493720Y308834D02*
X492900Y308671D01*
X492206Y308207D01*
X491742Y307512D01*
X491578Y306693D01*
X491742Y305873D01*
X492206Y305179D01*
X492900Y304715D01*
X493720Y304552D01*
X494539Y304715D01*
X495234Y305179D01*
X495698Y305873D01*
X495861Y306693D01*
X495698Y307512D01*
X495234Y308207D01*
X494539Y308671D01*
X493720Y308834D01*
D02*
G37*
G36*
X148626Y308047D02*
X147807Y307884D01*
X147112Y307419D01*
X146648Y306725D01*
X146485Y305906D01*
X146648Y305086D01*
X147112Y304392D01*
X147807Y303927D01*
X148626Y303764D01*
X149445Y303927D01*
X150140Y304392D01*
X150604Y305086D01*
X150767Y305906D01*
X150604Y306725D01*
X150140Y307419D01*
X149445Y307884D01*
X148626Y308047D01*
D02*
G37*
G36*
X274015Y307652D02*
X273196Y307489D01*
X272501Y307025D01*
X272037Y306331D01*
X271874Y305511D01*
X272037Y304692D01*
X272501Y303997D01*
X273196Y303533D01*
X274015Y303370D01*
X274835Y303533D01*
X275529Y303997D01*
X275993Y304692D01*
X276156Y305511D01*
X275993Y306331D01*
X275529Y307025D01*
X274835Y307489D01*
X274015Y307652D01*
D02*
G37*
G36*
X498032Y305291D02*
X497212Y305128D01*
X496518Y304664D01*
X496053Y303969D01*
X495890Y303150D01*
X496053Y302330D01*
X496518Y301636D01*
X497212Y301171D01*
X498032Y301009D01*
X498851Y301171D01*
X499545Y301636D01*
X500010Y302330D01*
X500173Y303150D01*
X500010Y303969D01*
X499545Y304664D01*
X498851Y305128D01*
X498032Y305291D01*
D02*
G37*
G36*
X577811Y302665D02*
X576992Y302502D01*
X576297Y302038D01*
X575833Y301343D01*
X575670Y300524D01*
X575833Y299704D01*
X576297Y299010D01*
X576992Y298545D01*
X577811Y298382D01*
X578630Y298545D01*
X579325Y299010D01*
X579789Y299704D01*
X579952Y300524D01*
X579789Y301343D01*
X579325Y302038D01*
X578630Y302502D01*
X577811Y302665D01*
D02*
G37*
G36*
X527998D02*
X527179Y302502D01*
X526484Y302038D01*
X526020Y301343D01*
X525857Y300524D01*
X526020Y299704D01*
X526484Y299010D01*
X527179Y298545D01*
X527998Y298382D01*
X528818Y298545D01*
X529512Y299010D01*
X529977Y299704D01*
X530140Y300524D01*
X529977Y301343D01*
X529512Y302038D01*
X528818Y302502D01*
X527998Y302665D01*
D02*
G37*
G36*
X288189Y302535D02*
X287370Y302372D01*
X286675Y301908D01*
X286211Y301213D01*
X286048Y300394D01*
X286211Y299574D01*
X286675Y298880D01*
X287370Y298415D01*
X288189Y298253D01*
X289008Y298415D01*
X289703Y298880D01*
X290167Y299574D01*
X290330Y300394D01*
X290167Y301213D01*
X289703Y301908D01*
X289008Y302372D01*
X288189Y302535D01*
D02*
G37*
G36*
X281102Y302141D02*
X280283Y301978D01*
X279588Y301514D01*
X279124Y300819D01*
X278961Y300000D01*
X279124Y299181D01*
X279588Y298486D01*
X280283Y298022D01*
X281102Y297859D01*
X281922Y298022D01*
X282616Y298486D01*
X283081Y299181D01*
X283243Y300000D01*
X283081Y300819D01*
X282616Y301514D01*
X281922Y301978D01*
X281102Y302141D01*
D02*
G37*
G36*
X478500Y298909D02*
X477681Y298746D01*
X476986Y298282D01*
X476522Y297587D01*
X476359Y296768D01*
X476522Y295948D01*
X476986Y295254D01*
X477681Y294790D01*
X478500Y294627D01*
X479319Y294790D01*
X480014Y295254D01*
X480478Y295948D01*
X480641Y296768D01*
X480478Y297587D01*
X480014Y298282D01*
X479319Y298746D01*
X478500Y298909D01*
D02*
G37*
G36*
X481496Y294267D02*
X480677Y294104D01*
X479982Y293640D01*
X479518Y292945D01*
X479355Y292126D01*
X479518Y291307D01*
X479982Y290612D01*
X480677Y290148D01*
X481496Y289985D01*
X482315Y290148D01*
X483010Y290612D01*
X483474Y291307D01*
X483637Y292126D01*
X483474Y292945D01*
X483010Y293640D01*
X482315Y294104D01*
X481496Y294267D01*
D02*
G37*
G36*
X476378D02*
X475559Y294104D01*
X474864Y293640D01*
X474400Y292945D01*
X474237Y292126D01*
X474400Y291307D01*
X474864Y290612D01*
X475559Y290148D01*
X476378Y289985D01*
X477197Y290148D01*
X477892Y290612D01*
X478356Y291307D01*
X478519Y292126D01*
X478356Y292945D01*
X477892Y293640D01*
X477197Y294104D01*
X476378Y294267D01*
D02*
G37*
G36*
X561937Y284092D02*
X561118Y283929D01*
X560423Y283465D01*
X559959Y282770D01*
X559796Y281951D01*
X559959Y281131D01*
X560423Y280437D01*
X561118Y279973D01*
X561937Y279810D01*
X562756Y279973D01*
X563451Y280437D01*
X563915Y281131D01*
X564078Y281951D01*
X563915Y282770D01*
X563451Y283465D01*
X562756Y283929D01*
X561937Y284092D01*
D02*
G37*
G36*
X555118Y283997D02*
X554299Y283834D01*
X553604Y283369D01*
X553140Y282675D01*
X552977Y281855D01*
X553140Y281036D01*
X553604Y280341D01*
X554299Y279877D01*
X555118Y279714D01*
X555937Y279877D01*
X556632Y280341D01*
X557096Y281036D01*
X557259Y281855D01*
X557096Y282675D01*
X556632Y283369D01*
X555937Y283834D01*
X555118Y283997D01*
D02*
G37*
G36*
X558661Y280488D02*
X557842Y280325D01*
X557147Y279860D01*
X556683Y279166D01*
X556520Y278346D01*
X556683Y277527D01*
X557147Y276833D01*
X557842Y276368D01*
X558661Y276205D01*
X559481Y276368D01*
X560175Y276833D01*
X560640Y277527D01*
X560803Y278346D01*
X560640Y279166D01*
X560175Y279860D01*
X559481Y280325D01*
X558661Y280488D01*
D02*
G37*
G36*
X396850Y278641D02*
X396031Y278478D01*
X395336Y278014D01*
X394872Y277319D01*
X394709Y276500D01*
X394872Y275681D01*
X395336Y274986D01*
X396031Y274522D01*
X396850Y274359D01*
X397670Y274522D01*
X398364Y274986D01*
X398829Y275681D01*
X398991Y276500D01*
X398829Y277319D01*
X398364Y278014D01*
X397670Y278478D01*
X396850Y278641D01*
D02*
G37*
G36*
X399606Y274188D02*
X398787Y274025D01*
X398092Y273561D01*
X397628Y272867D01*
X397465Y272047D01*
X397628Y271228D01*
X398092Y270533D01*
X398787Y270069D01*
X399606Y269906D01*
X400426Y270069D01*
X401120Y270533D01*
X401584Y271228D01*
X401747Y272047D01*
X401584Y272867D01*
X401120Y273561D01*
X400426Y274025D01*
X399606Y274188D01*
D02*
G37*
G36*
X392913D02*
X392094Y274025D01*
X391399Y273561D01*
X390935Y272867D01*
X390772Y272047D01*
X390935Y271228D01*
X391399Y270533D01*
X392094Y270069D01*
X392913Y269906D01*
X393733Y270069D01*
X394427Y270533D01*
X394892Y271228D01*
X395055Y272047D01*
X394892Y272867D01*
X394427Y273561D01*
X393733Y274025D01*
X392913Y274188D01*
D02*
G37*
G36*
X399606Y269070D02*
X398787Y268907D01*
X398092Y268443D01*
X397628Y267748D01*
X397465Y266929D01*
X397628Y266110D01*
X398092Y265415D01*
X398787Y264951D01*
X399606Y264788D01*
X400426Y264951D01*
X401120Y265415D01*
X401584Y266110D01*
X401747Y266929D01*
X401584Y267748D01*
X401120Y268443D01*
X400426Y268907D01*
X399606Y269070D01*
D02*
G37*
G36*
X392913D02*
X392094Y268907D01*
X391399Y268443D01*
X390935Y267748D01*
X390772Y266929D01*
X390935Y266110D01*
X391399Y265415D01*
X392094Y264951D01*
X392913Y264788D01*
X393733Y264951D01*
X394427Y265415D01*
X394892Y266110D01*
X395055Y266929D01*
X394892Y267748D01*
X394427Y268443D01*
X393733Y268907D01*
X392913Y269070D01*
D02*
G37*
G36*
X275941Y262741D02*
X275122Y262578D01*
X274427Y262114D01*
X273963Y261419D01*
X273800Y260600D01*
X273963Y259781D01*
X274427Y259086D01*
X275122Y258622D01*
X275941Y258459D01*
X276760Y258622D01*
X277455Y259086D01*
X277919Y259781D01*
X278082Y260600D01*
X277919Y261419D01*
X277455Y262114D01*
X276760Y262578D01*
X275941Y262741D01*
D02*
G37*
G36*
X429921Y249385D02*
X429102Y249222D01*
X428407Y248758D01*
X427943Y248063D01*
X427843Y247562D01*
X427814Y247414D01*
X427304D01*
X427275Y247562D01*
X427175Y248063D01*
X426711Y248758D01*
X426016Y249222D01*
X425197Y249385D01*
X424377Y249222D01*
X423683Y248758D01*
X423219Y248063D01*
X423056Y247244D01*
X423219Y246425D01*
X423683Y245730D01*
X424377Y245266D01*
X425197Y245103D01*
X426016Y245266D01*
X426711Y245730D01*
X427175Y246425D01*
X427275Y246926D01*
X427304Y247074D01*
X427814D01*
X427843Y246926D01*
X427943Y246425D01*
X428407Y245730D01*
X429102Y245266D01*
X429921Y245103D01*
X430741Y245266D01*
X431435Y245730D01*
X431899Y246425D01*
X432062Y247244D01*
X431899Y248063D01*
X431435Y248758D01*
X430741Y249222D01*
X429921Y249385D01*
D02*
G37*
G36*
X420276Y248991D02*
X419456Y248829D01*
X418762Y248364D01*
X418297Y247670D01*
X418134Y246850D01*
X418297Y246031D01*
X418762Y245336D01*
X419456Y244872D01*
X420276Y244709D01*
X421095Y244872D01*
X421790Y245336D01*
X422254Y246031D01*
X422417Y246850D01*
X422254Y247670D01*
X421790Y248364D01*
X421095Y248829D01*
X420276Y248991D01*
D02*
G37*
G36*
X144488Y248209D02*
X143669Y248046D01*
X142974Y247582D01*
X142510Y246887D01*
X142347Y246068D01*
X142510Y245248D01*
X142974Y244554D01*
X143669Y244090D01*
X144488Y243927D01*
X145308Y244090D01*
X146002Y244554D01*
X146466Y245248D01*
X146629Y246068D01*
X146466Y246887D01*
X146002Y247582D01*
X145308Y248046D01*
X144488Y248209D01*
D02*
G37*
G36*
X150791Y244267D02*
X149972Y244104D01*
X149277Y243640D01*
X148813Y242945D01*
X148650Y242126D01*
X148813Y241307D01*
X149277Y240612D01*
X149972Y240148D01*
X150791Y239985D01*
X151611Y240148D01*
X152305Y240612D01*
X152769Y241307D01*
X152933Y242126D01*
X152769Y242945D01*
X152305Y243640D01*
X151611Y244104D01*
X150791Y244267D01*
D02*
G37*
G36*
X230315Y241511D02*
X229496Y241348D01*
X228801Y240884D01*
X228337Y240189D01*
X228174Y239370D01*
X228337Y238551D01*
X228801Y237856D01*
X229496Y237392D01*
X230315Y237229D01*
X231134Y237392D01*
X231829Y237856D01*
X232293Y238551D01*
X232456Y239370D01*
X232293Y240189D01*
X231829Y240884D01*
X231134Y241348D01*
X230315Y241511D01*
D02*
G37*
G36*
X566130Y235721D02*
X565203Y235599D01*
X564338Y235241D01*
X563596Y234672D01*
X563027Y233929D01*
X562669Y233065D01*
X562546Y232138D01*
X562669Y231210D01*
X563027Y230346D01*
X563596Y229604D01*
X564338Y229034D01*
X565203Y228677D01*
X566130Y228554D01*
X567057Y228677D01*
X567922Y229034D01*
X568664Y229604D01*
X569233Y230346D01*
X569591Y231210D01*
X569713Y232138D01*
X569591Y233065D01*
X569233Y233929D01*
X568664Y234672D01*
X567922Y235241D01*
X567057Y235599D01*
X566130Y235721D01*
D02*
G37*
G36*
X185433Y227732D02*
X184614Y227569D01*
X183919Y227105D01*
X183455Y226410D01*
X183292Y225590D01*
X183455Y224771D01*
X183919Y224077D01*
X184614Y223612D01*
X185433Y223449D01*
X186252Y223612D01*
X186947Y224077D01*
X187411Y224771D01*
X187574Y225590D01*
X187411Y226410D01*
X186947Y227105D01*
X186252Y227569D01*
X185433Y227732D01*
D02*
G37*
G36*
X284110Y223007D02*
X283291Y222844D01*
X282596Y222380D01*
X282132Y221686D01*
X281969Y220866D01*
X282132Y220047D01*
X282596Y219352D01*
X283291Y218888D01*
X284110Y218725D01*
X284930Y218888D01*
X285624Y219352D01*
X286088Y220047D01*
X286251Y220866D01*
X286088Y221686D01*
X285624Y222380D01*
X284930Y222844D01*
X284110Y223007D01*
D02*
G37*
G36*
X387008Y220645D02*
X386189Y220482D01*
X385494Y220018D01*
X385030Y219323D01*
X384867Y218504D01*
X385030Y217685D01*
X385494Y216990D01*
X386189Y216526D01*
X387008Y216363D01*
X387827Y216526D01*
X388522Y216990D01*
X388986Y217685D01*
X389149Y218504D01*
X388986Y219323D01*
X388522Y220018D01*
X387827Y220482D01*
X387008Y220645D01*
D02*
G37*
G36*
X116606Y230719D02*
X115628Y230590D01*
X114715Y230212D01*
X113932Y229611D01*
X113331Y228828D01*
X112953Y227916D01*
X112824Y226937D01*
X112953Y225958D01*
X113331Y225046D01*
X113932Y224263D01*
X114715Y223662D01*
X115628Y223284D01*
X115869Y223252D01*
Y222748D01*
X115628Y222716D01*
X114715Y222338D01*
X113932Y221737D01*
X113331Y220954D01*
X112953Y220042D01*
X112824Y219063D01*
X112953Y218084D01*
X113331Y217172D01*
X113932Y216389D01*
X114715Y215788D01*
X115628Y215410D01*
X116606Y215281D01*
X117585Y215410D01*
X118497Y215788D01*
X119281Y216389D01*
X119882Y217172D01*
X120259Y218084D01*
X120388Y219063D01*
X120259Y220042D01*
X119882Y220954D01*
X119281Y221737D01*
X118497Y222338D01*
X117585Y222716D01*
X117344Y222748D01*
Y223252D01*
X117585Y223284D01*
X118497Y223662D01*
X119281Y224263D01*
X119882Y225046D01*
X120259Y225958D01*
X120388Y226937D01*
X120259Y227916D01*
X119882Y228828D01*
X119281Y229611D01*
X118497Y230212D01*
X117585Y230590D01*
X116606Y230719D01*
D02*
G37*
G36*
X189764Y209622D02*
X188944Y209458D01*
X188250Y208994D01*
X187786Y208300D01*
X187623Y207480D01*
X187786Y206661D01*
X188250Y205966D01*
X188944Y205502D01*
X189764Y205339D01*
X190583Y205502D01*
X191278Y205966D01*
X191742Y206661D01*
X191905Y207480D01*
X191742Y208300D01*
X191278Y208994D01*
X190583Y209458D01*
X189764Y209622D01*
D02*
G37*
G36*
X465354Y208834D02*
X464535Y208671D01*
X463840Y208207D01*
X463376Y207512D01*
X463213Y206693D01*
X463376Y205873D01*
X463840Y205179D01*
X464535Y204715D01*
X465354Y204552D01*
X466174Y204715D01*
X466868Y205179D01*
X467333Y205873D01*
X467495Y206693D01*
X467333Y207512D01*
X466868Y208207D01*
X466174Y208671D01*
X465354Y208834D01*
D02*
G37*
G36*
X408488Y198204D02*
X407669Y198041D01*
X406974Y197577D01*
X406510Y196882D01*
X406347Y196063D01*
X406510Y195244D01*
X406974Y194549D01*
X407669Y194085D01*
X408488Y193922D01*
X409308Y194085D01*
X410002Y194549D01*
X410466Y195244D01*
X410629Y196063D01*
X410466Y196882D01*
X410002Y197577D01*
X409308Y198041D01*
X408488Y198204D01*
D02*
G37*
G36*
X401968D02*
X401149Y198041D01*
X400455Y197577D01*
X399990Y196882D01*
X399827Y196063D01*
X399990Y195244D01*
X400455Y194549D01*
X401149Y194085D01*
X401968Y193922D01*
X402788Y194085D01*
X403482Y194549D01*
X403947Y195244D01*
X404110Y196063D01*
X403947Y196882D01*
X403482Y197577D01*
X402788Y198041D01*
X401968Y198204D01*
D02*
G37*
G36*
X410480Y193086D02*
X409661Y192923D01*
X408966Y192459D01*
X408502Y191764D01*
X408339Y190945D01*
X408502Y190126D01*
X408966Y189431D01*
X409661Y188967D01*
X410480Y188804D01*
X411300Y188967D01*
X411994Y189431D01*
X412459Y190126D01*
X412621Y190945D01*
X412459Y191764D01*
X411994Y192459D01*
X411300Y192923D01*
X410480Y193086D01*
D02*
G37*
G36*
X116606Y188219D02*
X115628Y188090D01*
X114715Y187712D01*
X113932Y187111D01*
X113331Y186328D01*
X112953Y185416D01*
X112824Y184437D01*
X112953Y183458D01*
X113331Y182546D01*
X113932Y181763D01*
X114715Y181162D01*
X115628Y180784D01*
X115869Y180752D01*
Y180248D01*
X115628Y180216D01*
X114715Y179838D01*
X113932Y179237D01*
X113331Y178454D01*
X112953Y177542D01*
X112824Y176563D01*
X112953Y175584D01*
X113331Y174672D01*
X113932Y173889D01*
X114715Y173288D01*
X115628Y172910D01*
X116606Y172781D01*
X117585Y172910D01*
X118497Y173288D01*
X119281Y173889D01*
X119882Y174672D01*
X120259Y175584D01*
X120388Y176563D01*
X120259Y177542D01*
X119882Y178454D01*
X119281Y179237D01*
X118497Y179838D01*
X117585Y180216D01*
X117344Y180248D01*
Y180752D01*
X117585Y180784D01*
X118497Y181162D01*
X119281Y181763D01*
X119882Y182546D01*
X120259Y183458D01*
X120388Y184437D01*
X120259Y185416D01*
X119882Y186328D01*
X119281Y187111D01*
X118497Y187712D01*
X117585Y188090D01*
X116606Y188219D01*
D02*
G37*
G36*
X445669Y174188D02*
X444850Y174025D01*
X444155Y173561D01*
X443691Y172867D01*
X443528Y172047D01*
X443691Y171228D01*
X444155Y170533D01*
X444850Y170069D01*
X445669Y169906D01*
X446489Y170069D01*
X447183Y170533D01*
X447647Y171228D01*
X447810Y172047D01*
X447647Y172867D01*
X447183Y173561D01*
X446489Y174025D01*
X445669Y174188D01*
D02*
G37*
G36*
X454724Y172614D02*
X453905Y172451D01*
X453210Y171986D01*
X452746Y171292D01*
X452583Y170472D01*
X452746Y169653D01*
X453210Y168958D01*
X453905Y168494D01*
X454724Y168331D01*
X455544Y168494D01*
X456238Y168958D01*
X456703Y169653D01*
X456866Y170472D01*
X456703Y171292D01*
X456238Y171986D01*
X455544Y172451D01*
X454724Y172614D01*
D02*
G37*
G36*
X180709Y143873D02*
X179889Y143710D01*
X179195Y143246D01*
X178730Y142552D01*
X178568Y141732D01*
X178730Y140913D01*
X179195Y140218D01*
X179889Y139754D01*
X180709Y139591D01*
X181528Y139754D01*
X182223Y140218D01*
X182687Y140913D01*
X182850Y141732D01*
X182687Y142552D01*
X182223Y143246D01*
X181528Y143710D01*
X180709Y143873D01*
D02*
G37*
G36*
X189764Y142496D02*
X188944Y142332D01*
X188250Y141868D01*
X187786Y141174D01*
X187623Y140354D01*
X187786Y139535D01*
X188250Y138840D01*
X188944Y138376D01*
X189764Y138213D01*
X190583Y138376D01*
X191278Y138840D01*
X191742Y139535D01*
X191905Y140354D01*
X191742Y141174D01*
X191278Y141868D01*
X190583Y142332D01*
X189764Y142496D01*
D02*
G37*
G36*
X117106Y144719D02*
X116128Y144590D01*
X115215Y144212D01*
X114432Y143611D01*
X113831Y142828D01*
X113453Y141916D01*
X113324Y140937D01*
X113453Y139958D01*
X113831Y139046D01*
X114432Y138263D01*
X115215Y137662D01*
X116128Y137284D01*
X117106Y137155D01*
X118085Y137284D01*
X118997Y137662D01*
X119781Y138263D01*
X120382Y139046D01*
X120759Y139958D01*
X120888Y140937D01*
X120759Y141916D01*
X120382Y142828D01*
X119781Y143611D01*
X118997Y144212D01*
X118085Y144590D01*
X117106Y144719D01*
D02*
G37*
G36*
X566130Y140446D02*
X565203Y140323D01*
X564338Y139965D01*
X563596Y139396D01*
X563027Y138654D01*
X562669Y137790D01*
X562546Y136862D01*
X562669Y135935D01*
X563027Y135071D01*
X563596Y134328D01*
X564338Y133759D01*
X565203Y133401D01*
X566130Y133279D01*
X567057Y133401D01*
X567922Y133759D01*
X568664Y134328D01*
X569233Y135071D01*
X569591Y135935D01*
X569713Y136862D01*
X569591Y137790D01*
X569233Y138654D01*
X568664Y139396D01*
X567922Y139965D01*
X567057Y140323D01*
X566130Y140446D01*
D02*
G37*
G36*
X378284Y135518D02*
X377083Y135360D01*
X375964Y134896D01*
X375003Y134159D01*
X374265Y133198D01*
X373802Y132079D01*
X373644Y130878D01*
X373802Y129677D01*
X374265Y128558D01*
X375003Y127597D01*
X375964Y126860D01*
X377083Y126396D01*
X378284Y126238D01*
X379484Y126396D01*
X380603Y126860D01*
X381564Y127597D01*
X382301Y128558D01*
X382765Y129677D01*
X382923Y130878D01*
X382765Y132079D01*
X382301Y133198D01*
X381564Y134159D01*
X380603Y134896D01*
X379484Y135360D01*
X378284Y135518D01*
D02*
G37*
G36*
X339283D02*
X338083Y135360D01*
X336964Y134896D01*
X336003Y134159D01*
X335265Y133198D01*
X334802Y132079D01*
X334644Y130878D01*
X334802Y129677D01*
X335265Y128558D01*
X336003Y127597D01*
X336964Y126860D01*
X338083Y126396D01*
X339283Y126238D01*
X340484Y126396D01*
X341603Y126860D01*
X342564Y127597D01*
X343302Y128558D01*
X343765Y129677D01*
X343923Y130878D01*
X343765Y132079D01*
X343302Y133198D01*
X342564Y134159D01*
X341603Y134896D01*
X340484Y135360D01*
X339283Y135518D01*
D02*
G37*
G36*
X259283D02*
X258083Y135360D01*
X256964Y134896D01*
X256003Y134159D01*
X255265Y133198D01*
X254802Y132079D01*
X254644Y130878D01*
X254802Y129677D01*
X255265Y128558D01*
X256003Y127597D01*
X256964Y126860D01*
X258083Y126396D01*
X259283Y126238D01*
X260484Y126396D01*
X261603Y126860D01*
X262564Y127597D01*
X263301Y128558D01*
X263765Y129677D01*
X263923Y130878D01*
X263765Y132079D01*
X263301Y133198D01*
X262564Y134159D01*
X261603Y134896D01*
X260484Y135360D01*
X259283Y135518D01*
D02*
G37*
G36*
X299783Y135018D02*
X298583Y134860D01*
X297464Y134396D01*
X296503Y133659D01*
X295765Y132698D01*
X295302Y131579D01*
X295144Y130378D01*
X295302Y129177D01*
X295765Y128058D01*
X296503Y127097D01*
X297464Y126360D01*
X298583Y125896D01*
X299783Y125738D01*
X300984Y125896D01*
X302103Y126360D01*
X303064Y127097D01*
X303801Y128058D01*
X304265Y129177D01*
X304423Y130378D01*
X304265Y131579D01*
X303801Y132698D01*
X303064Y133659D01*
X302103Y134396D01*
X300984Y134860D01*
X299783Y135018D01*
D02*
G37*
G36*
X378284Y125518D02*
X377083Y125359D01*
X375964Y124896D01*
X375003Y124159D01*
X374265Y123198D01*
X373802Y122079D01*
X373644Y120878D01*
X373802Y119677D01*
X374265Y118558D01*
X375003Y117597D01*
X375964Y116860D01*
X377083Y116396D01*
X378284Y116238D01*
X379484Y116396D01*
X380603Y116860D01*
X381564Y117597D01*
X382301Y118558D01*
X382765Y119677D01*
X382923Y120878D01*
X382765Y122079D01*
X382301Y123198D01*
X381564Y124159D01*
X380603Y124896D01*
X379484Y125359D01*
X378284Y125518D01*
D02*
G37*
G36*
X339283D02*
X338083Y125359D01*
X336964Y124896D01*
X336003Y124159D01*
X335265Y123198D01*
X334802Y122079D01*
X334644Y120878D01*
X334802Y119677D01*
X335265Y118558D01*
X336003Y117597D01*
X336964Y116860D01*
X338083Y116396D01*
X339283Y116238D01*
X340484Y116396D01*
X341603Y116860D01*
X342564Y117597D01*
X343302Y118558D01*
X343765Y119677D01*
X343923Y120878D01*
X343765Y122079D01*
X343302Y123198D01*
X342564Y124159D01*
X341603Y124896D01*
X340484Y125359D01*
X339283Y125518D01*
D02*
G37*
G36*
X259283D02*
X258083Y125359D01*
X256964Y124896D01*
X256003Y124159D01*
X255265Y123198D01*
X254802Y122079D01*
X254644Y120878D01*
X254802Y119677D01*
X255265Y118558D01*
X256003Y117597D01*
X256964Y116860D01*
X258083Y116396D01*
X259283Y116238D01*
X260484Y116396D01*
X261603Y116860D01*
X262564Y117597D01*
X263301Y118558D01*
X263765Y119677D01*
X263923Y120878D01*
X263765Y122079D01*
X263301Y123198D01*
X262564Y124159D01*
X261603Y124896D01*
X260484Y125359D01*
X259283Y125518D01*
D02*
G37*
G36*
X299783Y125018D02*
X298583Y124859D01*
X297464Y124396D01*
X296503Y123659D01*
X295765Y122698D01*
X295302Y121579D01*
X295144Y120378D01*
X295302Y119177D01*
X295765Y118058D01*
X296503Y117097D01*
X297464Y116360D01*
X298583Y115896D01*
X299783Y115738D01*
X300984Y115896D01*
X302103Y116360D01*
X303064Y117097D01*
X303801Y118058D01*
X304265Y119177D01*
X304423Y120378D01*
X304265Y121579D01*
X303801Y122698D01*
X303064Y123659D01*
X302103Y124396D01*
X300984Y124859D01*
X299783Y125018D01*
D02*
G37*
G36*
X300284Y101018D02*
X299083Y100860D01*
X297964Y100396D01*
X297003Y99659D01*
X296265Y98698D01*
X295802Y97579D01*
X295644Y96378D01*
X295802Y95177D01*
X296265Y94058D01*
X297003Y93097D01*
X297964Y92360D01*
X299083Y91896D01*
X300284Y91738D01*
X301484Y91896D01*
X302603Y92360D01*
X303564Y93097D01*
X304302Y94058D01*
X304765Y95177D01*
X304923Y96378D01*
X304765Y97579D01*
X304302Y98698D01*
X303564Y99659D01*
X302603Y100396D01*
X301484Y100860D01*
X300284Y101018D01*
D02*
G37*
G36*
X378783Y100518D02*
X377583Y100360D01*
X376464Y99896D01*
X375503Y99159D01*
X374765Y98198D01*
X374302Y97079D01*
X374144Y95878D01*
X374302Y94677D01*
X374765Y93558D01*
X375503Y92597D01*
X376464Y91860D01*
X377583Y91396D01*
X378783Y91238D01*
X379984Y91396D01*
X381103Y91860D01*
X382064Y92597D01*
X382802Y93558D01*
X383265Y94677D01*
X383423Y95878D01*
X383265Y97079D01*
X382802Y98198D01*
X382064Y99159D01*
X381103Y99896D01*
X379984Y100360D01*
X378783Y100518D01*
D02*
G37*
G36*
X339784D02*
X338583Y100360D01*
X337464Y99896D01*
X336503Y99159D01*
X335765Y98198D01*
X335302Y97079D01*
X335144Y95878D01*
X335302Y94677D01*
X335765Y93558D01*
X336503Y92597D01*
X337464Y91860D01*
X338583Y91396D01*
X339784Y91238D01*
X340984Y91396D01*
X342103Y91860D01*
X343064Y92597D01*
X343801Y93558D01*
X344265Y94677D01*
X344423Y95878D01*
X344265Y97079D01*
X343801Y98198D01*
X343064Y99159D01*
X342103Y99896D01*
X340984Y100360D01*
X339784Y100518D01*
D02*
G37*
G36*
X259784D02*
X258583Y100360D01*
X257464Y99896D01*
X256503Y99159D01*
X255765Y98198D01*
X255302Y97079D01*
X255144Y95878D01*
X255302Y94677D01*
X255765Y93558D01*
X256503Y92597D01*
X257464Y91860D01*
X258583Y91396D01*
X259784Y91238D01*
X260984Y91396D01*
X262103Y91860D01*
X263064Y92597D01*
X263802Y93558D01*
X264265Y94677D01*
X264423Y95878D01*
X264265Y97079D01*
X263802Y98198D01*
X263064Y99159D01*
X262103Y99896D01*
X260984Y100360D01*
X259784Y100518D01*
D02*
G37*
%LPD*%
D14*
X313779Y333858D02*
X328525D01*
X328656Y333988D01*
X329153D01*
X347244Y315897D01*
Y312205D02*
Y315897D01*
X311811Y337729D02*
X327110D01*
X351327Y313512D01*
D22*
X113000Y343815D02*
D03*
X112500Y459815D02*
D03*
X113000Y401315D02*
D03*
D123*
X292520Y355906D02*
X298819Y362205D01*
X330709D01*
D126*
X421500Y415000D02*
D03*
D128*
X566429Y98425D02*
D03*
X565929Y488500D02*
D03*
X117610Y98425D02*
D03*
D129*
X117106Y133063D02*
D03*
D131*
X185189Y494957D02*
D03*
X205189D02*
D03*
X185189Y474957D02*
D03*
X205189D02*
D03*
X559937Y386547D02*
D03*
X579937D02*
D03*
X559937Y366547D02*
D03*
X579937D02*
D03*
D132*
X378783Y85878D02*
D03*
X259784D02*
D03*
X300284Y86378D02*
D03*
X339784Y85878D02*
D03*
D133*
X177559Y246068D02*
D03*
X145320Y255906D02*
D03*
X370266Y294750D02*
D03*
X365821D02*
D03*
X355906Y321622D02*
D03*
X396457Y327953D02*
D03*
X313779Y333858D02*
D03*
X347244Y312205D02*
D03*
X311811Y337729D02*
D03*
X351327Y313512D02*
D03*
X292520Y355906D02*
D03*
X330709Y362205D02*
D03*
X222835Y431102D02*
D03*
X171653Y431890D02*
D03*
X210260Y457307D02*
D03*
X188732Y300713D02*
D03*
X410972Y273657D02*
D03*
X256338Y283071D02*
D03*
X296260Y283787D02*
D03*
X290945D02*
D03*
X180000Y210236D02*
D03*
X491500Y277319D02*
D03*
Y283071D02*
D03*
X464567Y162453D02*
D03*
X460063D02*
D03*
X455953Y162402D02*
D03*
X394882Y192913D02*
D03*
X391339Y196063D02*
D03*
X545276Y107874D02*
D03*
X399606Y169500D02*
D03*
X405905Y179528D02*
D03*
X438039Y193898D02*
D03*
X434047Y197697D02*
D03*
X449606Y206693D02*
D03*
X449522Y212598D02*
D03*
X447685Y195130D02*
D03*
X449522Y199606D02*
D03*
X443307D02*
D03*
X464567Y196063D02*
D03*
Y188000D02*
D03*
Y192126D02*
D03*
X316929Y470472D02*
D03*
X486221Y321260D02*
D03*
X477559Y315142D02*
D03*
Y321260D02*
D03*
X460236Y282687D02*
D03*
Y286736D02*
D03*
X537523Y327165D02*
D03*
X537370Y332061D02*
D03*
X543003Y342520D02*
D03*
X558126D02*
D03*
X559937Y317323D02*
D03*
X555118D02*
D03*
X511417Y359842D02*
D03*
X517323D02*
D03*
X523622D02*
D03*
X509331Y353015D02*
D03*
X517323Y352898D02*
D03*
X523622Y353015D02*
D03*
X509055Y346850D02*
D03*
X517323D02*
D03*
X523622D02*
D03*
X509055Y340269D02*
D03*
X517323D02*
D03*
X523622D02*
D03*
X509055Y334039D02*
D03*
X517323D02*
D03*
X523622D02*
D03*
X509055Y328124D02*
D03*
X517323D02*
D03*
X523622D02*
D03*
Y322228D02*
D03*
X517323D02*
D03*
X509055D02*
D03*
Y316535D02*
D03*
X515524D02*
D03*
X521654D02*
D03*
X527179D02*
D03*
X528009Y311205D02*
D03*
X521654D02*
D03*
X515524D02*
D03*
X509055D02*
D03*
X586614Y360475D02*
D03*
X586473Y374025D02*
D03*
Y379049D02*
D03*
X583858Y356000D02*
D03*
X579325D02*
D03*
X561937D02*
D03*
X556496D02*
D03*
X550754D02*
D03*
X551072Y362453D02*
D03*
X551378Y373561D02*
D03*
X533418Y382283D02*
D03*
X538742Y386547D02*
D03*
X544882Y383084D02*
D03*
Y389539D02*
D03*
X551378Y383084D02*
D03*
Y389539D02*
D03*
X545397Y395276D02*
D03*
X551378D02*
D03*
Y401575D02*
D03*
X557087Y395276D02*
D03*
Y401575D02*
D03*
Y407087D02*
D03*
X563400Y395276D02*
D03*
Y401575D02*
D03*
Y407087D02*
D03*
X563439Y412598D02*
D03*
X569500Y395276D02*
D03*
Y401575D02*
D03*
Y407087D02*
D03*
Y412598D02*
D03*
X575372Y395276D02*
D03*
Y401575D02*
D03*
Y407087D02*
D03*
Y412598D02*
D03*
X581496Y395276D02*
D03*
Y401575D02*
D03*
Y407087D02*
D03*
Y412598D02*
D03*
X586473Y395276D02*
D03*
Y401575D02*
D03*
Y407087D02*
D03*
X586614Y412598D02*
D03*
X586473Y418110D02*
D03*
X581496D02*
D03*
X575372D02*
D03*
X569500D02*
D03*
X509449Y258342D02*
D03*
Y263469D02*
D03*
Y268701D02*
D03*
Y274453D02*
D03*
Y280478D02*
D03*
Y287795D02*
D03*
Y293663D02*
D03*
X515524Y258268D02*
D03*
Y263531D02*
D03*
Y268701D02*
D03*
Y274541D02*
D03*
Y280478D02*
D03*
Y287795D02*
D03*
Y293663D02*
D03*
X563526Y342520D02*
D03*
X553138D02*
D03*
X547514D02*
D03*
X537523D02*
D03*
X563526Y337316D02*
D03*
X537370D02*
D03*
X563526Y332061D02*
D03*
X582339Y298143D02*
D03*
Y303319D02*
D03*
X581496Y292913D02*
D03*
Y287795D02*
D03*
Y278346D02*
D03*
Y283071D02*
D03*
X586473Y287795D02*
D03*
Y292913D02*
D03*
Y298143D02*
D03*
Y303319D02*
D03*
Y257394D02*
D03*
X579952D02*
D03*
X575242D02*
D03*
X569937D02*
D03*
X575242Y262918D02*
D03*
X586473D02*
D03*
X579952D02*
D03*
X569937D02*
D03*
X586473Y267758D02*
D03*
X579937D02*
D03*
X586473Y272718D02*
D03*
X579937Y272811D02*
D03*
X555724Y261754D02*
D03*
X550844D02*
D03*
X545397D02*
D03*
X586473Y278346D02*
D03*
X577122D02*
D03*
X569937D02*
D03*
X586473Y283101D02*
D03*
X576992D02*
D03*
X569937D02*
D03*
X552211Y287795D02*
D03*
X552362Y293663D02*
D03*
X563439Y327165D02*
D03*
X563400Y322228D02*
D03*
X537398D02*
D03*
X564961Y317323D02*
D03*
X550000D02*
D03*
X544882D02*
D03*
X539764D02*
D03*
X534646D02*
D03*
X542095Y293663D02*
D03*
Y287795D02*
D03*
X527998D02*
D03*
Y293663D02*
D03*
X521654D02*
D03*
Y287795D02*
D03*
X541617Y280478D02*
D03*
X535104D02*
D03*
X527998D02*
D03*
X521654D02*
D03*
Y274453D02*
D03*
Y268701D02*
D03*
X527998Y263469D02*
D03*
X521654D02*
D03*
X527998Y258268D02*
D03*
X521654D02*
D03*
X478083Y330293D02*
D03*
X484307Y328931D02*
D03*
X257357Y469291D02*
D03*
Y474957D02*
D03*
Y480626D02*
D03*
X252362Y484957D02*
D03*
X257357D02*
D03*
X257480Y490173D02*
D03*
Y495257D02*
D03*
Y501181D02*
D03*
X252362Y469291D02*
D03*
Y474957D02*
D03*
Y480626D02*
D03*
X250787Y490173D02*
D03*
X252362Y495257D02*
D03*
Y501181D02*
D03*
X246063Y469291D02*
D03*
X239370D02*
D03*
X246063Y474957D02*
D03*
X239370D02*
D03*
X246063Y495257D02*
D03*
Y501181D02*
D03*
X239370Y495257D02*
D03*
Y501181D02*
D03*
X232677Y469291D02*
D03*
Y474957D02*
D03*
Y495257D02*
D03*
Y501181D02*
D03*
X226772Y469291D02*
D03*
Y474957D02*
D03*
Y495257D02*
D03*
Y501181D02*
D03*
X220866Y469291D02*
D03*
Y474957D02*
D03*
Y495257D02*
D03*
Y501181D02*
D03*
X214961Y469291D02*
D03*
Y474957D02*
D03*
Y494957D02*
D03*
Y501181D02*
D03*
X195583Y469291D02*
D03*
X195189Y501181D02*
D03*
X176181D02*
D03*
Y494957D02*
D03*
Y488588D02*
D03*
Y482455D02*
D03*
Y476378D02*
D03*
Y470472D02*
D03*
X170866D02*
D03*
Y476378D02*
D03*
Y482455D02*
D03*
Y488588D02*
D03*
Y494957D02*
D03*
Y501181D02*
D03*
X418110Y397000D02*
D03*
X505512Y394094D02*
D03*
X509449Y385039D02*
D03*
X473228Y382283D02*
D03*
Y388189D02*
D03*
X455118Y351000D02*
D03*
X454953Y346000D02*
D03*
Y341000D02*
D03*
X455118Y336000D02*
D03*
Y331000D02*
D03*
Y326165D02*
D03*
X402756Y325984D02*
D03*
Y331000D02*
D03*
Y336000D02*
D03*
Y340945D02*
D03*
X395276Y360236D02*
D03*
X349213Y338016D02*
D03*
X375984Y346457D02*
D03*
X259212Y185525D02*
D03*
X272456D02*
D03*
Y180485D02*
D03*
X265681D02*
D03*
X259283D02*
D03*
X438189Y287795D02*
D03*
X442126Y292044D02*
D03*
Y287795D02*
D03*
X438189Y292044D02*
D03*
X383071Y286736D02*
D03*
X377953D02*
D03*
X383071Y292044D02*
D03*
X377953D02*
D03*
X278807Y314567D02*
D03*
X160807Y91613D02*
D03*
X203150Y87795D02*
D03*
Y94488D02*
D03*
Y101181D02*
D03*
Y107874D02*
D03*
Y114567D02*
D03*
Y120378D02*
D03*
Y126378D02*
D03*
Y131890D02*
D03*
X126772Y361417D02*
D03*
X139370Y384551D02*
D03*
X140157Y305118D02*
D03*
X134646Y440945D02*
D03*
X158661Y357087D02*
D03*
X154331Y359498D02*
D03*
X206299Y169322D02*
D03*
X200787D02*
D03*
X194453D02*
D03*
X188189D02*
D03*
X206299Y173937D02*
D03*
X200787D02*
D03*
X194453D02*
D03*
X188189D02*
D03*
X206299Y179134D02*
D03*
X200787D02*
D03*
X194453D02*
D03*
X188189D02*
D03*
X206299Y184335D02*
D03*
X200787Y184437D02*
D03*
X194453D02*
D03*
X188189D02*
D03*
X145669Y126378D02*
D03*
X260507Y384548D02*
D03*
Y389876D02*
D03*
X253937Y399606D02*
D03*
X233567Y398827D02*
D03*
X237432Y396256D02*
D03*
X229921D02*
D03*
X237432Y401453D02*
D03*
X229921D02*
D03*
X239094Y368653D02*
D03*
X234405D02*
D03*
X229921D02*
D03*
X225378D02*
D03*
X215512Y400394D02*
D03*
X208000D02*
D03*
X199213Y394500D02*
D03*
Y400394D02*
D03*
X212992Y338583D02*
D03*
X201969Y342634D02*
D03*
X217849Y337815D02*
D03*
Y342634D02*
D03*
X193388Y354445D02*
D03*
X189764Y357347D02*
D03*
X234646Y338583D02*
D03*
Y343730D02*
D03*
Y348539D02*
D03*
X200394Y335433D02*
D03*
X206693Y322835D02*
D03*
X197441Y329685D02*
D03*
X191535D02*
D03*
X135498Y130313D02*
D03*
X144488Y161417D02*
D03*
X203150Y197244D02*
D03*
X188189Y235433D02*
D03*
X177559Y230906D02*
D03*
X183020Y246068D02*
D03*
X216142Y239764D02*
D03*
X230315Y230709D02*
D03*
X270866Y301295D02*
D03*
X333465Y263000D02*
D03*
Y269815D02*
D03*
X327807Y263000D02*
D03*
Y270005D02*
D03*
X326693Y276500D02*
D03*
X317323D02*
D03*
X308906Y298202D02*
D03*
Y292913D02*
D03*
Y287327D02*
D03*
X304100Y285339D02*
D03*
M02*
