G04*
G04 #@! TF.GenerationSoftware,Altium Limited,Altium Designer,20.1.7 (139)*
G04*
G04 Layer_Physical_Order=1*
G04 Layer_Color=255*
%FSLAX25Y25*%
%MOIN*%
G70*
G04*
G04 #@! TF.SameCoordinates,72195594-E7F7-4266-BDA2-BCA36E094617*
G04*
G04*
G04 #@! TF.FilePolarity,Positive*
G04*
G01*
G75*
%ADD13C,0.01000*%
%ADD14C,0.00600*%
%ADD20O,0.10236X0.02756*%
%ADD21R,0.05118X0.02756*%
%ADD22C,0.07874*%
%ADD23R,0.20276X0.15748*%
%ADD24O,0.06890X0.02362*%
%ADD25R,0.08268X0.05000*%
%ADD26R,0.04528X0.07087*%
G04:AMPARAMS|DCode=27|XSize=17.72mil|YSize=55.12mil|CornerRadius=1.95mil|HoleSize=0mil|Usage=FLASHONLY|Rotation=90.000|XOffset=0mil|YOffset=0mil|HoleType=Round|Shape=RoundedRectangle|*
%AMROUNDEDRECTD27*
21,1,0.01772,0.05122,0,0,90.0*
21,1,0.01382,0.05512,0,0,90.0*
1,1,0.00390,0.02561,0.00691*
1,1,0.00390,0.02561,-0.00691*
1,1,0.00390,-0.02561,-0.00691*
1,1,0.00390,-0.02561,0.00691*
%
%ADD27ROUNDEDRECTD27*%
%ADD28R,0.06400X0.10700*%
%ADD29R,0.14567X0.04331*%
%ADD30O,0.01772X0.07480*%
%ADD31R,0.11614X0.06929*%
%ADD32R,0.02756X0.03543*%
%ADD33R,0.05512X0.03937*%
G04:AMPARAMS|DCode=34|XSize=11.81mil|YSize=23.62mil|CornerRadius=1.95mil|HoleSize=0mil|Usage=FLASHONLY|Rotation=90.000|XOffset=0mil|YOffset=0mil|HoleType=Round|Shape=RoundedRectangle|*
%AMROUNDEDRECTD34*
21,1,0.01181,0.01972,0,0,90.0*
21,1,0.00791,0.02362,0,0,90.0*
1,1,0.00390,0.00986,0.00396*
1,1,0.00390,0.00986,-0.00396*
1,1,0.00390,-0.00986,-0.00396*
1,1,0.00390,-0.00986,0.00396*
%
%ADD34ROUNDEDRECTD34*%
%ADD35R,0.08500X0.09200*%
%ADD36R,0.04921X0.02165*%
%ADD37R,0.09449X0.12205*%
G04:AMPARAMS|DCode=38|XSize=11.81mil|YSize=39.37mil|CornerRadius=1.95mil|HoleSize=0mil|Usage=FLASHONLY|Rotation=90.000|XOffset=0mil|YOffset=0mil|HoleType=Round|Shape=RoundedRectangle|*
%AMROUNDEDRECTD38*
21,1,0.01181,0.03547,0,0,90.0*
21,1,0.00791,0.03937,0,0,90.0*
1,1,0.00390,0.01774,0.00396*
1,1,0.00390,0.01774,-0.00396*
1,1,0.00390,-0.01774,-0.00396*
1,1,0.00390,-0.01774,0.00396*
%
%ADD38ROUNDEDRECTD38*%
G04:AMPARAMS|DCode=39|XSize=15.75mil|YSize=25.59mil|CornerRadius=1.97mil|HoleSize=0mil|Usage=FLASHONLY|Rotation=90.000|XOffset=0mil|YOffset=0mil|HoleType=Round|Shape=RoundedRectangle|*
%AMROUNDEDRECTD39*
21,1,0.01575,0.02165,0,0,90.0*
21,1,0.01181,0.02559,0,0,90.0*
1,1,0.00394,0.01083,0.00591*
1,1,0.00394,0.01083,-0.00591*
1,1,0.00394,-0.01083,-0.00591*
1,1,0.00394,-0.01083,0.00591*
%
%ADD39ROUNDEDRECTD39*%
G04:AMPARAMS|DCode=40|XSize=21.65mil|YSize=31.5mil|CornerRadius=1.95mil|HoleSize=0mil|Usage=FLASHONLY|Rotation=90.000|XOffset=0mil|YOffset=0mil|HoleType=Round|Shape=RoundedRectangle|*
%AMROUNDEDRECTD40*
21,1,0.02165,0.02760,0,0,90.0*
21,1,0.01776,0.03150,0,0,90.0*
1,1,0.00390,0.01380,0.00888*
1,1,0.00390,0.01380,-0.00888*
1,1,0.00390,-0.01380,-0.00888*
1,1,0.00390,-0.01380,0.00888*
%
%ADD40ROUNDEDRECTD40*%
G04:AMPARAMS|DCode=41|XSize=25.59mil|YSize=64.96mil|CornerRadius=1.92mil|HoleSize=0mil|Usage=FLASHONLY|Rotation=90.000|XOffset=0mil|YOffset=0mil|HoleType=Round|Shape=RoundedRectangle|*
%AMROUNDEDRECTD41*
21,1,0.02559,0.06112,0,0,90.0*
21,1,0.02175,0.06496,0,0,90.0*
1,1,0.00384,0.03056,0.01088*
1,1,0.00384,0.03056,-0.01088*
1,1,0.00384,-0.03056,-0.01088*
1,1,0.00384,-0.03056,0.01088*
%
%ADD41ROUNDEDRECTD41*%
%ADD43R,0.03937X0.05906*%
%ADD44R,0.02756X0.05906*%
%ADD45R,0.05906X0.02756*%
%ADD46R,0.04331X0.10236*%
%ADD47R,0.06693X0.04331*%
%ADD48R,0.08661X0.04134*%
%ADD49R,0.03937X0.03937*%
%ADD50R,0.04724X0.11024*%
%ADD51R,0.05906X0.03937*%
%ADD52R,0.07874X0.04724*%
%ADD53R,0.05512X0.13386*%
%ADD54R,0.02100X0.07800*%
%ADD55R,0.05118X0.22047*%
%ADD56R,0.03543X0.03150*%
%ADD57R,0.11811X0.06496*%
%ADD58R,0.06496X0.07284*%
%ADD59R,0.05709X0.05118*%
%ADD60R,0.03150X0.03543*%
%ADD61R,0.07284X0.06496*%
%ADD62R,0.04331X0.06693*%
%ADD63R,0.03543X0.02756*%
%ADD64R,0.09200X0.08500*%
%ADD65R,0.05000X0.08268*%
G04:AMPARAMS|DCode=66|XSize=21.65mil|YSize=31.5mil|CornerRadius=1.95mil|HoleSize=0mil|Usage=FLASHONLY|Rotation=180.000|XOffset=0mil|YOffset=0mil|HoleType=Round|Shape=RoundedRectangle|*
%AMROUNDEDRECTD66*
21,1,0.02165,0.02760,0,0,180.0*
21,1,0.01776,0.03150,0,0,180.0*
1,1,0.00390,-0.00888,0.01380*
1,1,0.00390,0.00888,0.01380*
1,1,0.00390,0.00888,-0.01380*
1,1,0.00390,-0.00888,-0.01380*
%
%ADD66ROUNDEDRECTD66*%
G04:AMPARAMS|DCode=67|XSize=15.75mil|YSize=25.59mil|CornerRadius=1.97mil|HoleSize=0mil|Usage=FLASHONLY|Rotation=180.000|XOffset=0mil|YOffset=0mil|HoleType=Round|Shape=RoundedRectangle|*
%AMROUNDEDRECTD67*
21,1,0.01575,0.02165,0,0,180.0*
21,1,0.01181,0.02559,0,0,180.0*
1,1,0.00394,-0.00591,0.01083*
1,1,0.00394,0.00591,0.01083*
1,1,0.00394,0.00591,-0.01083*
1,1,0.00394,-0.00591,-0.01083*
%
%ADD67ROUNDEDRECTD67*%
G04:AMPARAMS|DCode=120|XSize=64.96mil|YSize=94.49mil|CornerRadius=10.72mil|HoleSize=0mil|Usage=FLASHONLY|Rotation=0.000|XOffset=0mil|YOffset=0mil|HoleType=Round|Shape=RoundedRectangle|*
%AMROUNDEDRECTD120*
21,1,0.06496,0.07305,0,0,0.0*
21,1,0.04352,0.09449,0,0,0.0*
1,1,0.02144,0.02176,-0.03653*
1,1,0.02144,-0.02176,-0.03653*
1,1,0.02144,-0.02176,0.03653*
1,1,0.02144,0.02176,0.03653*
%
%ADD120ROUNDEDRECTD120*%
%ADD121O,0.07480X0.02362*%
%ADD122C,0.01500*%
%ADD123C,0.02000*%
%ADD124C,0.02953*%
%ADD125C,0.03000*%
%ADD126C,0.07087*%
%ADD127R,0.07087X0.07087*%
%ADD128C,0.23622*%
%ADD129C,0.06299*%
%ADD130C,0.05906*%
%ADD131C,0.11811*%
%ADD132C,0.08000*%
%ADD133C,0.03000*%
G36*
X259599Y467343D02*
X259474Y467218D01*
X167636D01*
X167473Y467612D01*
Y503832D01*
X259599D01*
Y467343D01*
D02*
G37*
G36*
X218531Y389819D02*
X220555Y387795D01*
X225984D01*
Y383343D01*
X219685D01*
Y385754D01*
X214655Y390784D01*
X199193D01*
X195866Y394110D01*
Y403543D01*
X218531D01*
Y389819D01*
D02*
G37*
G36*
X201969Y386614D02*
X217035D01*
Y383123D01*
X218663Y381496D01*
X225984D01*
Y378953D01*
X203165D01*
X200591Y376378D01*
X194882D01*
Y368504D01*
X188583D01*
X188583Y368504D01*
Y376378D01*
Y377173D01*
X188583Y377173D01*
Y382892D01*
D01*
Y388976D01*
X190138D01*
Y382500D01*
X190207Y382149D01*
X190406Y381851D01*
X190704Y381652D01*
X191055Y381582D01*
X191406Y381652D01*
X191704Y381851D01*
X191903Y382149D01*
X191973Y382500D01*
Y388976D01*
X199606D01*
X201969Y386614D01*
D02*
G37*
G36*
X264294Y389481D02*
Y381496D01*
X253937D01*
Y392468D01*
X253974Y392483D01*
X261292D01*
X264294Y389481D01*
D02*
G37*
G36*
X252417Y378744D02*
X241185D01*
Y381431D01*
X241341Y381496D01*
X252417D01*
Y378744D01*
D02*
G37*
G36*
X239243Y375431D02*
X239153Y375394D01*
X227892D01*
Y403395D01*
X239243D01*
Y375431D01*
D02*
G37*
G36*
X230760Y371437D02*
X241185D01*
Y366000D01*
X222835D01*
Y369158D01*
X220555Y371437D01*
Y377173D01*
X225024D01*
X230760Y371437D01*
D02*
G37*
G36*
X264791Y363563D02*
X246879D01*
Y372839D01*
X241341D01*
Y376300D01*
X241809Y376378D01*
X264791D01*
Y363563D01*
D02*
G37*
G36*
X217035Y359708D02*
X216574Y359517D01*
X216150Y359941D01*
X197441D01*
Y374141D01*
X197691Y374244D01*
X217035D01*
Y359708D01*
D02*
G37*
G36*
X195866Y351488D02*
X187126Y351488D01*
X187126Y366622D01*
X195866Y366622D01*
Y351488D01*
D02*
G37*
G36*
X160827Y345037D02*
X152300D01*
Y371375D01*
X160827D01*
Y345037D01*
D02*
G37*
G36*
X221260Y354445D02*
Y335630D01*
X211733D01*
X207363Y340000D01*
X199606D01*
Y354457D01*
X221248D01*
X221260Y354445D01*
D02*
G37*
G36*
X243835Y334798D02*
X231030Y334798D01*
Y352661D01*
X243835Y352661D01*
Y334798D01*
D02*
G37*
G36*
X201969Y321654D02*
X201969Y321654D01*
X189764D01*
Y331890D01*
X201969D01*
Y321654D01*
D02*
G37*
G36*
X166929Y449815D02*
Y390390D01*
Y358268D01*
X179134Y346063D01*
Y316142D01*
X203543D01*
X205118Y314567D01*
X214607D01*
X214961Y314213D01*
X214961Y311024D01*
X136614D01*
X118110Y329547D01*
X103897Y329528D01*
X103543Y329881D01*
Y337795D01*
X120472D01*
X142126Y316142D01*
X174016D01*
Y342634D01*
X162205Y354445D01*
Y387795D01*
X159449Y387795D01*
X109843D01*
Y394882D01*
X161811D01*
Y444488D01*
X159449Y446850D01*
X108661D01*
Y452756D01*
X109055Y453150D01*
X163594D01*
X166929Y449815D01*
D02*
G37*
G36*
X491500Y324081D02*
Y311205D01*
X474016D01*
Y324187D01*
X491394D01*
X491500Y324081D01*
D02*
G37*
G36*
X266732Y359646D02*
X266732Y329372D01*
X242111Y304751D01*
X231890Y304751D01*
Y325984D01*
X248079D01*
Y350866D01*
X244488Y354457D01*
Y360236D01*
X266142D01*
X266732Y359646D01*
D02*
G37*
G36*
X190704Y298202D02*
X186811D01*
Y307074D01*
X190704D01*
Y298202D01*
D02*
G37*
G36*
X500331Y300500D02*
X491500D01*
Y295276D01*
X486221D01*
X486221Y295276D01*
X485772Y295408D01*
X481890Y299290D01*
X481890Y309055D01*
X500331D01*
Y300500D01*
D02*
G37*
G36*
X372835Y295000D02*
Y292146D01*
X365464D01*
X358661Y298948D01*
X358661Y304528D01*
X372835D01*
Y295000D01*
D02*
G37*
G36*
X444882Y285000D02*
X427291D01*
X427165Y285126D01*
Y295276D01*
X444882D01*
Y285000D01*
D02*
G37*
G36*
X425197Y301575D02*
Y285752D01*
X423945Y284500D01*
X411811D01*
Y309842D01*
X416929D01*
X425197Y301575D01*
D02*
G37*
G36*
X394094Y283189D02*
X375197D01*
Y295000D01*
X394094D01*
Y283189D01*
D02*
G37*
G36*
X313189Y297555D02*
Y286736D01*
X309449Y282996D01*
X301524Y283000D01*
Y301089D01*
Y301295D01*
X309449D01*
X313189Y297555D01*
D02*
G37*
G36*
X488976Y289691D02*
X488976Y281102D01*
X474016D01*
X474016Y298819D01*
X479848Y298819D01*
X488976Y289691D01*
D02*
G37*
G36*
X290007Y287327D02*
X299606D01*
Y280248D01*
X289831D01*
X288583Y281496D01*
X273997D01*
Y288583D01*
X288751D01*
X290007Y287327D01*
D02*
G37*
G36*
X472047Y279921D02*
X456693D01*
Y289094D01*
X472047D01*
Y279921D01*
D02*
G37*
G36*
X409842Y283858D02*
X403543D01*
Y265026D01*
X391241D01*
X390224Y266042D01*
Y273228D01*
X397244Y280248D01*
Y283858D01*
Y297171D01*
X409842D01*
Y283858D01*
D02*
G37*
G36*
X337402Y269815D02*
Y260236D01*
X313553D01*
X313189Y260600D01*
Y279410D01*
X327807D01*
X337402Y269815D01*
D02*
G37*
G36*
X588976Y254724D02*
X505315D01*
Y358213D01*
X567969Y420866D01*
X588976D01*
X588976Y254724D01*
D02*
G37*
G36*
X309449Y255512D02*
X311496Y253465D01*
X326693D01*
Y231890D01*
X324685Y229882D01*
X297258D01*
X288465Y238675D01*
Y270307D01*
X286177Y272594D01*
Y279409D01*
X286840Y279409D01*
X293185D01*
X309449Y279410D01*
Y255512D01*
D02*
G37*
G36*
X284110Y278756D02*
Y272480D01*
X287321Y269270D01*
Y228740D01*
X282756D01*
Y228740D01*
X273382D01*
Y249005D01*
X282756D01*
Y278583D01*
X283283D01*
X283648Y278947D01*
X284110Y278756D01*
D02*
G37*
G36*
X155492Y258661D02*
X142520D01*
X135827Y251969D01*
Y242126D01*
X146850D01*
X149547Y239429D01*
Y224342D01*
X149412Y224016D01*
X111417D01*
Y261910D01*
X112500Y262992D01*
X155492D01*
Y258661D01*
D02*
G37*
G36*
X264294Y421260D02*
X337402Y348153D01*
X337402Y303787D01*
X380315Y260874D01*
X380315Y221508D01*
X351327Y221508D01*
X346063D01*
X346063Y266386D01*
X308906Y303543D01*
X297251D01*
Y288590D01*
X297248Y288583D01*
X290945D01*
Y289736D01*
X285716D01*
Y297555D01*
X290945D01*
Y306299D01*
X286139D01*
Y306505D01*
X281890D01*
Y310551D01*
X282756Y311417D01*
X289622D01*
X284110Y316929D01*
X275362D01*
X266732Y308299D01*
Y291677D01*
X262851Y287795D01*
X239094D01*
X228740Y277441D01*
Y270307D01*
X211811D01*
Y288976D01*
X222260Y299425D01*
X256226D01*
X256226Y314722D01*
X271228Y329724D01*
X315905Y329724D01*
Y333785D01*
X315920Y333858D01*
X315905Y333931D01*
Y344264D01*
X253476Y406693D01*
X193307D01*
X185827Y399213D01*
Y374016D01*
X172835D01*
Y391118D01*
X173031Y391315D01*
X173031Y421260D01*
X264294Y421260D01*
D02*
G37*
G36*
X197441Y241861D02*
X193376Y237795D01*
X176406D01*
X174016Y235405D01*
X174016Y226378D01*
X178740Y221654D01*
X198740D01*
Y214567D01*
X163138D01*
X152300Y225406D01*
Y239370D01*
X153707Y240778D01*
X161768D01*
X163953Y242963D01*
X186270D01*
X187795Y244488D01*
Y257850D01*
X186196Y259449D01*
X166580Y259449D01*
X166580Y264500D01*
X197441Y264500D01*
Y241861D01*
D02*
G37*
G36*
X182874Y197244D02*
X182736Y197106D01*
X177350D01*
Y211707D01*
X182874D01*
Y197244D01*
D02*
G37*
G36*
X171412Y185525D02*
X172500Y184437D01*
X178740D01*
Y193307D01*
X179134Y193701D01*
X185512D01*
Y186614D01*
X208661D01*
Y167391D01*
X183718D01*
X183256Y166929D01*
X165559D01*
Y194041D01*
X165612Y194095D01*
X166580D01*
X166641Y194082D01*
X170359D01*
X170420Y194095D01*
X171412D01*
Y185525D01*
D02*
G37*
G36*
X326772Y192913D02*
X281059D01*
Y216079D01*
X281122Y216142D01*
X326772D01*
Y192913D01*
D02*
G37*
G36*
X239984Y255908D02*
X269685Y255908D01*
X269685Y216535D01*
X275449D01*
Y192913D01*
X234646Y192913D01*
Y207756D01*
X208661D01*
Y221654D01*
X232541D01*
X234646Y223758D01*
X234646Y241737D01*
X230315Y246068D01*
X206693D01*
Y265748D01*
X239984D01*
Y255908D01*
D02*
G37*
G36*
X466535Y190945D02*
X473622D01*
Y186614D01*
X472835Y185827D01*
X462598D01*
Y189764D01*
Y198031D01*
X466535D01*
Y190945D01*
D02*
G37*
G36*
X452756Y203543D02*
X455118Y201181D01*
X454724Y200787D01*
Y183240D01*
X444319D01*
X444095Y183465D01*
Y195000D01*
X443976D01*
X438583Y200394D01*
Y214961D01*
X452756D01*
Y203543D01*
D02*
G37*
G36*
X412598Y182200D02*
X412449Y182138D01*
X399606D01*
Y198191D01*
X412598D01*
Y182200D01*
D02*
G37*
G36*
X396850D02*
X396751Y182100D01*
X388583D01*
Y198191D01*
X396850D01*
Y182200D01*
D02*
G37*
G36*
X442126Y194488D02*
Y182325D01*
X441677Y181876D01*
X435039D01*
Y191463D01*
X431087Y195415D01*
Y199606D01*
X437008D01*
X442126Y194488D01*
D02*
G37*
G36*
X149547Y181102D02*
X112500D01*
Y221654D01*
X149547D01*
Y181102D01*
D02*
G37*
G36*
X461811Y184252D02*
X474016D01*
Y179500D01*
X461811D01*
Y174409D01*
X427953D01*
X422047Y180315D01*
X418504D01*
Y191732D01*
X418898Y192126D01*
X431087D01*
Y180331D01*
X431917Y179500D01*
X456693D01*
Y189485D01*
Y216882D01*
X458315Y218504D01*
X461811D01*
Y184252D01*
D02*
G37*
G36*
X275449Y177003D02*
X255512D01*
Y187795D01*
X275449D01*
Y177003D01*
D02*
G37*
G36*
X160047Y184232D02*
Y166929D01*
X112602D01*
Y179134D01*
X152300D01*
Y184437D01*
X159843D01*
X160047Y184232D01*
D02*
G37*
G36*
X473622Y159055D02*
X473622Y159055D01*
X453244D01*
Y165748D01*
X473622D01*
Y159055D01*
D02*
G37*
G36*
X272567Y92646D02*
X272456Y92378D01*
X246850D01*
Y124016D01*
X247244Y124409D01*
X272567D01*
Y92646D01*
D02*
G37*
G36*
X352362Y123622D02*
Y92378D01*
X326839D01*
X326772Y92445D01*
Y124016D01*
X352199D01*
X352362Y123622D01*
D02*
G37*
G36*
X312402Y92512D02*
X312268Y92378D01*
X286614D01*
Y123622D01*
X286777Y124016D01*
X312402D01*
Y92512D01*
D02*
G37*
G36*
X391339Y91339D02*
X365748D01*
Y123381D01*
X366215Y123622D01*
X391339D01*
Y91339D01*
D02*
G37*
G36*
X380315Y177559D02*
X392126Y165748D01*
Y135039D01*
X383465Y126378D01*
X241339D01*
Y82677D01*
X220472D01*
Y137402D01*
X245669Y162598D01*
X346063D01*
Y218504D01*
X380315D01*
Y177559D01*
D02*
G37*
G36*
X214961Y82677D02*
X199213D01*
Y135433D01*
X214961D01*
Y82677D01*
D02*
G37*
%LPC*%
G36*
X195189Y491494D02*
X193914Y491368D01*
X192687Y490996D01*
X191557Y490392D01*
X190567Y489579D01*
X189754Y488588D01*
X189150Y487458D01*
X188778Y486232D01*
X188652Y484957D01*
X188778Y483681D01*
X189150Y482455D01*
X189754Y481325D01*
X190567Y480334D01*
X191557Y479521D01*
X192687Y478917D01*
X193914Y478545D01*
X195189Y478420D01*
X196464Y478545D01*
X197691Y478917D01*
X198821Y479521D01*
X199811Y480334D01*
X200624Y481325D01*
X201228Y482455D01*
X201464Y483233D01*
X232921D01*
Y482782D01*
X238058D01*
Y487919D01*
X232921D01*
Y487467D01*
X201223D01*
X200624Y488588D01*
X199811Y489579D01*
X198821Y490392D01*
X197691Y490996D01*
X196464Y491368D01*
X195189Y491494D01*
D02*
G37*
G36*
X546000Y369204D02*
X545181Y369041D01*
X544486Y368577D01*
X544022Y367882D01*
X543859Y367063D01*
X544022Y366244D01*
X544486Y365549D01*
X545082Y365150D01*
Y364431D01*
X543628D01*
Y360475D01*
X548372D01*
Y364431D01*
X546918D01*
Y365150D01*
X547514Y365549D01*
X547978Y366244D01*
X548141Y367063D01*
X547978Y367882D01*
X547514Y368577D01*
X546819Y369041D01*
X546000Y369204D01*
D02*
G37*
G36*
X532526Y372614D02*
X531707Y372451D01*
X531012Y371987D01*
X530548Y371292D01*
X530385Y370472D01*
X530548Y369653D01*
X531012Y368958D01*
X531582Y368577D01*
Y364431D01*
X530128D01*
Y360475D01*
X534872D01*
Y364431D01*
X533418D01*
Y368543D01*
X534040Y368958D01*
X534504Y369653D01*
X534667Y370472D01*
X534504Y371292D01*
X534040Y371987D01*
X533345Y372451D01*
X532526Y372614D01*
D02*
G37*
G36*
X538189Y374188D02*
X537370Y374025D01*
X536675Y373561D01*
X536211Y372867D01*
X536048Y372047D01*
X536211Y371228D01*
X536675Y370533D01*
X537271Y370135D01*
Y364844D01*
X536969Y364448D01*
X536881Y364431D01*
X536069D01*
Y363619D01*
X536052Y363531D01*
X536069Y363442D01*
Y360475D01*
X540813D01*
Y364431D01*
X539107D01*
Y370135D01*
X539703Y370533D01*
X540167Y371228D01*
X540330Y372047D01*
X540167Y372867D01*
X539703Y373561D01*
X539008Y374025D01*
X538189Y374188D01*
D02*
G37*
G36*
X548372Y358525D02*
X543628D01*
Y354569D01*
X545397D01*
Y352553D01*
X539359D01*
Y354569D01*
X540813D01*
Y358525D01*
X536069D01*
Y354569D01*
X537523D01*
Y352553D01*
X535422D01*
Y352898D01*
X535352Y353249D01*
X535153Y353547D01*
X534592Y354107D01*
X534783Y354569D01*
X534872D01*
Y358525D01*
X530128D01*
Y354569D01*
X531873D01*
X531933Y354270D01*
X532132Y353972D01*
X533089Y353015D01*
X532898Y352553D01*
X532526D01*
Y345447D01*
X548293D01*
Y352553D01*
X547233D01*
Y354569D01*
X548372D01*
Y358525D01*
D02*
G37*
G36*
X560104Y352553D02*
X556148D01*
Y345447D01*
X560104D01*
Y352553D01*
D02*
G37*
G36*
X535104Y336017D02*
X527998D01*
Y332061D01*
Y328124D01*
Y324187D01*
X535104D01*
Y328124D01*
Y332061D01*
Y336017D01*
D02*
G37*
G36*
X569937Y383084D02*
X568662Y382959D01*
X567435Y382587D01*
X566305Y381982D01*
X565315Y381170D01*
X564502Y380179D01*
X563898Y379049D01*
X563526Y377822D01*
X563400Y376547D01*
X563526Y375272D01*
X563898Y374046D01*
X564502Y372916D01*
X565315Y371925D01*
X566305Y371112D01*
X567435Y370508D01*
X567820Y370391D01*
Y349000D01*
X567959Y348301D01*
X567959Y345485D01*
X567772Y345063D01*
X567772Y345025D01*
X567772Y315324D01*
D01*
X567772Y315142D01*
X567492Y314757D01*
X567478Y314757D01*
X552211D01*
Y307652D01*
X560686D01*
Y304348D01*
X555258D01*
Y303797D01*
X551378D01*
X550754Y303673D01*
X550224Y303319D01*
X546878Y299972D01*
X546524Y299443D01*
X546400Y298819D01*
Y281778D01*
X542095Y277472D01*
X541741Y276943D01*
X541617Y276319D01*
Y276242D01*
X537152D01*
Y267758D01*
X539853D01*
X540044Y267296D01*
X538553Y265805D01*
X538199Y265276D01*
X538175Y265152D01*
X537398Y265050D01*
X536295Y264593D01*
X535347Y263866D01*
X534620Y262918D01*
X534162Y261814D01*
X534007Y260630D01*
X534162Y259446D01*
X534620Y258342D01*
X535347Y257394D01*
X536295Y256667D01*
X537398Y256210D01*
X538583Y256054D01*
X539767Y256210D01*
X540871Y256667D01*
X541819Y257394D01*
X542546Y258342D01*
X543003Y259446D01*
X543159Y260630D01*
X543003Y261814D01*
X542546Y262918D01*
X541819Y263866D01*
X541785Y263891D01*
X541752Y264390D01*
X543532Y266169D01*
X543885Y266699D01*
X544009Y267323D01*
Y267758D01*
X544848D01*
Y271804D01*
X548259D01*
X548276Y271778D01*
X548539Y271602D01*
X548850Y271540D01*
X550032D01*
X550342Y271602D01*
X550606Y271778D01*
X550782Y272042D01*
X550844Y272353D01*
Y272655D01*
X550948Y272811D01*
X551072Y273435D01*
X550948Y274060D01*
X550844Y274216D01*
Y274518D01*
X550782Y274829D01*
X550606Y275093D01*
X550342Y275269D01*
X550032Y275331D01*
X548850D01*
X548539Y275269D01*
X548276Y275093D01*
X548259Y275067D01*
X544879D01*
Y275643D01*
X549185Y279949D01*
X549539Y280478D01*
X549663Y281102D01*
Y298143D01*
X552054Y300534D01*
X555258D01*
Y296652D01*
X563742D01*
Y304348D01*
X563439D01*
Y307652D01*
X564623D01*
Y305500D01*
X564728Y304973D01*
X565027Y304527D01*
X566758Y302795D01*
Y296652D01*
X575242D01*
Y298869D01*
X576508D01*
X576992Y298545D01*
X577811Y298382D01*
X578630Y298545D01*
X579325Y299010D01*
X579789Y299704D01*
X579952Y300524D01*
X579789Y301343D01*
X579325Y302038D01*
X578630Y302502D01*
X577811Y302665D01*
X576992Y302502D01*
X576437Y302131D01*
X575242D01*
Y304348D01*
X569093D01*
X569082Y304365D01*
X569081Y304365D01*
X567377Y306070D01*
Y307652D01*
X567978D01*
X567978Y314575D01*
D01*
X567978Y314757D01*
X568257Y315142D01*
X568272Y315142D01*
X586473D01*
Y345063D01*
X576131D01*
X575852Y345447D01*
X575852Y345563D01*
Y352553D01*
X572054D01*
Y370391D01*
X572439Y370508D01*
X573569Y371112D01*
X574559Y371925D01*
X575372Y372916D01*
X575976Y374046D01*
X576348Y375272D01*
X576474Y376547D01*
X576348Y377822D01*
X575976Y379049D01*
X575372Y380179D01*
X574559Y381170D01*
X573569Y381982D01*
X572439Y382587D01*
X571212Y382959D01*
X569937Y383084D01*
D02*
G37*
G36*
X544356Y314757D02*
X532526D01*
Y307652D01*
X533127D01*
Y304368D01*
X530258D01*
Y301910D01*
X529597D01*
X529512Y302038D01*
X528818Y302502D01*
X527998Y302665D01*
X527179Y302502D01*
X526484Y302038D01*
X526020Y301343D01*
X525857Y300524D01*
X526020Y299704D01*
X526484Y299010D01*
X527179Y298545D01*
X527998Y298382D01*
X528818Y298545D01*
X529512Y299010D01*
X529611Y299158D01*
X530258D01*
Y296672D01*
X538742D01*
Y304368D01*
X535880D01*
Y307652D01*
X544356D01*
Y314757D01*
D02*
G37*
G36*
X563768Y284901D02*
X552362D01*
X551903Y284711D01*
X551713Y284252D01*
Y270079D01*
X551903Y269619D01*
X552362Y269429D01*
X554849D01*
X557415Y266864D01*
X557874Y266673D01*
X566000D01*
X566459Y266864D01*
X566649Y267323D01*
Y281760D01*
X566459Y282219D01*
X566282Y282396D01*
X564254Y284683D01*
X564235Y284692D01*
X564227Y284711D01*
X564014Y284799D01*
X563806Y284900D01*
X563787Y284893D01*
X563768Y284901D01*
D02*
G37*
G36*
X555150Y267260D02*
X553968D01*
X553658Y267198D01*
X553394Y267022D01*
X553218Y266758D01*
X553156Y266447D01*
Y264282D01*
X553218Y263971D01*
X553394Y263707D01*
X553658Y263531D01*
X553968Y263469D01*
X555150D01*
X555461Y263531D01*
X555724Y263707D01*
X555900Y263971D01*
X555962Y264282D01*
Y266447D01*
X555900Y266758D01*
X555724Y267022D01*
X555461Y267198D01*
X555150Y267260D01*
D02*
G37*
G36*
X550032D02*
X548850D01*
X548539Y267198D01*
X548276Y267022D01*
X548100Y266758D01*
X548038Y266447D01*
Y264282D01*
X548100Y263971D01*
X548276Y263707D01*
X548539Y263531D01*
X548850Y263469D01*
X550032D01*
X550342Y263531D01*
X550606Y263707D01*
X550782Y263971D01*
X550844Y264282D01*
Y266447D01*
X550782Y266758D01*
X550606Y267022D01*
X550342Y267198D01*
X550032Y267260D01*
D02*
G37*
%LPD*%
G36*
X565809Y281951D02*
X566000Y281760D01*
Y267323D01*
X557874D01*
X555118Y270079D01*
X552362D01*
Y284252D01*
X563768D01*
X565809Y281951D01*
D02*
G37*
D13*
X146850Y237795D02*
Y238185D01*
X150791Y242126D01*
X185433Y225590D02*
X185618Y225406D01*
X194508D01*
X152080Y261068D02*
X159344D01*
X164344Y256068D01*
X170584D01*
X158047Y210992D02*
Y216270D01*
Y207500D02*
Y210992D01*
X144927Y229390D02*
X158047Y216270D01*
X144927Y229390D02*
Y230768D01*
X142927Y232768D02*
X144927Y230768D01*
X141549Y232768D02*
X142927D01*
X177293Y251068D02*
X177508Y250853D01*
X170584Y251068D02*
X177293D01*
X170369Y250853D02*
X170584Y251068D01*
X209255Y457307D02*
X210000Y456562D01*
X158047Y210992D02*
X160047Y212992D01*
X188732D01*
X209255Y457307D02*
X210260D01*
X188732Y212992D02*
X197815Y203909D01*
X478083Y330293D02*
Y334364D01*
X484690Y330046D02*
X484752Y330108D01*
X484690Y329313D02*
Y330046D01*
X484307Y328931D02*
X484690Y329313D01*
X484752Y330108D02*
Y333576D01*
X155982Y127423D02*
Y133621D01*
X155803Y133800D02*
X155982Y133621D01*
X155059Y126500D02*
X155982Y127423D01*
X197815Y203909D02*
X198209D01*
X199087Y203031D01*
Y202638D02*
Y203031D01*
X193181Y202638D02*
X193228Y202591D01*
X193039Y202780D02*
X193181Y202638D01*
X193228Y197244D02*
Y202591D01*
X185512Y202780D02*
X193039D01*
X145320Y251068D02*
X145320Y251068D01*
X152080D01*
D14*
X381500Y387004D02*
X383071Y385433D01*
Y361000D02*
Y385433D01*
X381500Y387004D02*
Y415000D01*
X237432Y259449D02*
X237713D01*
X234646Y261974D02*
Y264567D01*
X144488Y246068D02*
X152080D01*
X168303Y197760D02*
X168500Y197957D01*
Y202244D01*
X168244Y202500D02*
X168500Y202244D01*
X163953Y202500D02*
X168244D01*
X355280Y310079D02*
X356520Y311319D01*
X349370Y310079D02*
X355280D01*
X347244Y312205D02*
X349370Y310079D01*
X355972Y319559D02*
X356535Y318996D01*
X355958Y320571D02*
Y321570D01*
X355972Y319559D02*
Y320557D01*
Y317717D02*
Y319559D01*
X355958Y320571D02*
X355972Y320557D01*
Y317717D02*
X357252Y316437D01*
X362008D01*
X355958Y321570D02*
X355972Y321555D01*
X355906Y321622D02*
X355958Y321570D01*
X356535Y318996D02*
X362008D01*
X355972Y321555D02*
X362008D01*
X377764Y352193D02*
X381500Y348457D01*
Y341740D02*
Y348457D01*
Y341740D02*
X387240Y336000D01*
X395065D01*
X400066Y331000D01*
Y319559D02*
Y331000D01*
X396944Y316437D02*
X400066Y319559D01*
X385236Y316437D02*
X396944D01*
X354276Y329739D02*
Y334260D01*
Y329739D02*
X356850Y327165D01*
X367717D01*
X375886Y318996D01*
X385236D01*
X356520Y311319D02*
X362008D01*
X302165Y337815D02*
Y341171D01*
X302251Y337729D02*
X311811D01*
X302165Y337815D02*
X302251Y337729D01*
X351327Y313512D02*
X351693Y313878D01*
X362008D01*
X302766Y333889D02*
Y337080D01*
X301233Y332357D02*
X302766Y333889D01*
X298819Y332357D02*
X301233D01*
X291929D02*
X296260Y336687D01*
X277616Y332357D02*
X291929D01*
X276078Y333895D02*
X277616Y332357D01*
X450244Y397000D02*
X455118Y392126D01*
X438453Y397000D02*
X450244D01*
X276078Y333895D02*
Y335783D01*
X275646Y336215D02*
X276078Y335783D01*
X281102Y354980D02*
Y361811D01*
X281890Y362598D01*
X271004Y344882D02*
X281102Y354980D01*
X264173Y344882D02*
X271004D01*
X450047Y155905D02*
X453067Y152886D01*
X470421D01*
X450047Y155905D02*
Y169947D01*
X447947Y172047D02*
X450047Y169947D01*
X445669Y172047D02*
X447947D01*
X426378Y250787D02*
X429921Y247244D01*
X404181Y250787D02*
X426378D01*
X343900Y311069D02*
X404181Y250787D01*
X404022Y249250D02*
X421270D01*
X342700Y310572D02*
Y354980D01*
X421308Y249213D02*
X423228D01*
X425197Y247244D01*
X342700Y310572D02*
X404022Y249250D01*
X421270D02*
X421308Y249213D01*
X341500Y310075D02*
X404331Y247244D01*
X419882D01*
X341500Y310075D02*
Y415000D01*
X342700Y354980D02*
X351500Y363780D01*
X343900Y311069D02*
Y354483D01*
X345100Y335502D02*
Y353986D01*
Y335502D02*
X346342Y334260D01*
X340158Y308819D02*
Y369970D01*
X331500Y378628D02*
X340158Y369970D01*
Y308819D02*
X404526Y244450D01*
X343900Y354483D02*
X353843Y364426D01*
Y380737D01*
X361500Y388394D01*
Y415000D01*
X351500Y363780D02*
Y415000D01*
X345100Y353986D02*
X355043Y363929D01*
X464567Y172296D02*
X470421D01*
X462744Y170472D02*
X464567Y172296D01*
X454724Y170472D02*
X462744D01*
X419882Y247244D02*
X420276Y246850D01*
X404526Y244450D02*
X451502D01*
X465354Y206693D02*
X468453D01*
X470421Y201823D02*
Y204724D01*
X468453Y206693D02*
X470421Y204724D01*
X451502Y244450D02*
X454481Y241472D01*
X454875D01*
X455953Y240394D01*
Y240000D02*
Y240394D01*
X331500Y378628D02*
Y415000D01*
X478083Y343559D02*
X478937Y344413D01*
Y345063D01*
X478083Y340269D02*
Y343559D01*
X456693Y468110D02*
X492913Y431890D01*
X398031Y468110D02*
X456693D01*
X500394Y411417D02*
X507236D01*
X510423Y408230D01*
X510668D01*
X517323Y401575D01*
Y386614D02*
Y401575D01*
X511417Y380709D02*
X517323Y386614D01*
X499409Y382091D02*
X500331Y381170D01*
X499409Y382091D02*
Y384764D01*
X500331Y381170D02*
X509866D01*
X509868Y381168D01*
X510958D01*
X511417Y380709D01*
X498720Y280609D02*
X501968Y283858D01*
X496053Y280609D02*
X498720D01*
X495240Y284252D02*
Y286728D01*
Y284252D02*
X496053Y283439D01*
Y280609D02*
Y283439D01*
X410174Y175698D02*
X410296Y175576D01*
X410894Y174977D01*
X409453D02*
X410894D01*
X321500Y382969D02*
X334474Y369995D01*
X321500Y382969D02*
Y415000D01*
X410174Y175698D02*
X410235Y175760D01*
X409453Y174977D02*
X410174Y175698D01*
X334474Y369995D02*
Y369995D01*
X410112Y175760D02*
X410235D01*
X409988D02*
X410112D01*
X391630D02*
X409988D01*
X410112D02*
X410174Y175698D01*
X409205Y174977D02*
X409453D01*
X383465Y183925D02*
X391630Y175760D01*
X410235D02*
X410480D01*
X409205Y174977D02*
X409988Y175760D01*
X383465Y183925D02*
Y201181D01*
X387008Y204724D01*
Y218504D01*
X334474Y369995D02*
X335177Y369291D01*
X335827D01*
X409453Y169500D02*
Y174977D01*
X459000Y210000D02*
Y217819D01*
X450047Y226772D02*
X459000Y217819D01*
X450047Y226772D02*
Y240000D01*
X455953Y226134D02*
Y240000D01*
Y226134D02*
X467924Y214163D01*
Y213334D02*
Y214163D01*
Y213334D02*
X469593Y211666D01*
X470421D01*
X498032Y303150D02*
Y318226D01*
X497753Y318504D02*
X498032Y318226D01*
X538189Y362705D02*
X538441Y362453D01*
X538189Y362705D02*
Y372047D01*
X507874Y374046D02*
X514080D01*
X506269Y372441D02*
X507874Y374046D01*
X496000Y372441D02*
X506269D01*
X496000Y370472D02*
X510268D01*
X532500Y370446D02*
X532526Y370472D01*
X532500Y362453D02*
Y370446D01*
X478083Y340269D02*
X478870Y341057D01*
X484752D01*
X490949Y352604D02*
X495331Y348222D01*
X485094Y352604D02*
X490949D01*
X495331Y338985D02*
Y348222D01*
X493662Y337316D02*
X495331Y338985D01*
X493413Y337316D02*
X493662D01*
X546000Y362453D02*
Y367063D01*
Y356547D02*
X546315Y356232D01*
Y349000D02*
Y356232D01*
X538441Y356547D02*
X538441Y356547D01*
X538441Y349000D02*
Y356547D01*
X532781Y354621D02*
Y356266D01*
X532500Y356547D02*
X532781Y356266D01*
Y354621D02*
X534504Y352898D01*
Y349000D02*
Y352898D01*
X276772Y478346D02*
X347638D01*
X246063Y447638D02*
X276772Y478346D01*
X246063Y437402D02*
Y447638D01*
X277559Y474803D02*
X356299D01*
X251575Y448819D02*
X277559Y474803D01*
X251575Y436614D02*
Y448819D01*
X411500Y407480D02*
Y415000D01*
Y407480D02*
X413862Y405118D01*
X423622D01*
X427756Y400984D01*
Y397000D02*
Y400984D01*
X418110Y397000D02*
X422244D01*
X432547D02*
X432547Y397000D01*
X427756Y397000D02*
X432547D01*
X431102Y409055D02*
Y414602D01*
X431500Y415000D01*
X431102Y409055D02*
X438453Y401705D01*
Y397000D02*
Y401705D01*
X511417Y410630D02*
X511811D01*
X520866Y401575D01*
Y384988D02*
Y401575D01*
X513831Y377953D02*
X520866Y384988D01*
X500331Y377953D02*
X513831D01*
X494268Y384016D02*
X500331Y377953D01*
X491693Y384016D02*
X494268D01*
X498331Y385984D02*
X499409Y384906D01*
X491693Y385984D02*
X498331D01*
X401936Y415437D02*
Y422047D01*
X401500Y415000D02*
X401936Y415437D01*
Y422047D02*
X405086Y425197D01*
X464173D01*
X475197Y414173D01*
X512598D01*
X523622Y403150D01*
Y384646D02*
Y403150D01*
X515524Y376547D02*
X523622Y384646D01*
X495240Y376547D02*
X515524D01*
X491693Y380095D02*
X495240Y376547D01*
X491693Y380095D02*
Y382047D01*
X536969Y363531D02*
X538047Y362453D01*
X538441D01*
X482457Y385984D02*
X496000Y372441D01*
X478307Y385984D02*
X482457D01*
X532106Y362453D02*
X532500D01*
X482457Y384016D02*
X496000Y370472D01*
X478307Y384016D02*
X482457D01*
X505512Y390158D02*
Y394094D01*
X499606Y389764D02*
Y394094D01*
X505118Y389764D02*
X505512Y390158D01*
X509331Y385039D02*
X509449D01*
X509055Y384764D02*
X509331Y385039D01*
X505315Y384764D02*
X509055D01*
X393110Y346850D02*
Y351378D01*
X389764Y354724D02*
X393110Y351378D01*
X389764Y354724D02*
Y363779D01*
X470079Y427953D02*
X477953Y420079D01*
X390161Y427953D02*
X470079D01*
X381500Y436614D02*
X390161Y427953D01*
X381500Y436614D02*
Y462595D01*
X379134Y464961D02*
X381500Y462595D01*
X331500Y482677D02*
Y495000D01*
X399606Y266929D02*
X400066Y266470D01*
X401097D01*
X410480Y257087D01*
X495240Y389764D02*
X498032D01*
X493720Y388243D02*
X495240Y389764D01*
X491984Y388243D02*
X493720D01*
X491693Y387953D02*
X491984Y388243D01*
X473228Y382283D02*
X473465Y382047D01*
X478307D01*
X473228Y388189D02*
X473779D01*
X474016Y387953D01*
X478307D01*
X383071Y357500D02*
Y361000D01*
X377764Y352193D02*
X383071Y357500D01*
X359842Y352193D02*
X377764D01*
X354276Y346626D02*
X359842Y352193D01*
X354276Y341740D02*
Y346626D01*
X346342Y334260D02*
X354276D01*
X387008Y351575D02*
X387205Y351378D01*
Y346850D02*
Y351378D01*
X393504Y346457D02*
X396747D01*
X393110Y346850D02*
X393504Y346457D01*
X396747D02*
X401290Y351000D01*
X410890D01*
X428346Y376378D02*
X450787D01*
X458268Y368898D01*
Y360236D02*
Y368898D01*
X454032Y356000D02*
X458268Y360236D01*
X447110Y356000D02*
X454032D01*
X383071Y385433D02*
X395276Y373228D01*
X440945D01*
X447110Y367063D01*
Y361000D02*
Y367063D01*
X375984Y367831D02*
Y368504D01*
X375870Y367717D02*
X375984Y367831D01*
X375870Y363929D02*
Y367717D01*
X365370Y363929D02*
Y368488D01*
X365354Y368504D02*
X365370Y368488D01*
X371500Y396697D02*
Y415000D01*
X355043Y380240D02*
X371500Y396697D01*
X380095Y358024D02*
X383071Y361000D01*
X375870Y358024D02*
X380095D01*
X355043Y363929D02*
Y380240D01*
Y363929D02*
X360949Y358024D01*
X365370D01*
X270866Y304689D02*
X273997Y301559D01*
Y300146D02*
Y301559D01*
Y300146D02*
X275941Y298202D01*
X278807Y310433D02*
Y314567D01*
X288189Y300394D02*
X290471Y298112D01*
X291320D01*
X293185Y296246D01*
Y295000D02*
Y296246D01*
X281102Y299437D02*
Y300000D01*
X281059Y299394D02*
X281102Y299437D01*
X281059Y293823D02*
Y299394D01*
X275175Y269270D02*
X278500Y272594D01*
X267738Y269270D02*
X275175D01*
X262205Y274803D02*
X267738Y269270D01*
X253067Y274803D02*
X262205D01*
X237713Y259449D02*
X253067Y274803D01*
X266142Y348300D02*
X268300D01*
X251815Y339915D02*
Y340000D01*
Y339152D02*
Y339915D01*
Y339152D02*
X253680Y337286D01*
X351969Y482677D02*
Y494531D01*
X351500Y495000D02*
X351969Y494531D01*
X347638Y478346D02*
X351969Y482677D01*
X215248Y330106D02*
X215512Y329842D01*
X214752Y330106D02*
X215248D01*
X214370Y329724D02*
X214752Y330106D01*
X205118Y329724D02*
X214370D01*
X360630Y479134D02*
Y494130D01*
X361500Y495000D01*
X356299Y474803D02*
X360630Y479134D01*
X180709Y141732D02*
X180756Y141685D01*
Y140937D02*
Y141685D01*
X177350Y137531D02*
X180756Y140937D01*
X177350Y133800D02*
Y137531D01*
X274015Y354015D02*
Y383079D01*
X268300Y348300D02*
X274015Y354015D01*
X251815Y348500D02*
X252015Y348300D01*
X251976Y405118D02*
X274015Y383079D01*
X251815Y339915D02*
X253680Y338050D01*
X246283Y405118D02*
X251976D01*
X244545Y403379D02*
X246283Y405118D01*
X244545Y401497D02*
Y403379D01*
X244500Y401453D02*
X244545Y401497D01*
X253937Y399606D02*
Y399933D01*
X252417Y401453D02*
X253937Y399933D01*
X249500Y401453D02*
X252417D01*
X249500Y395547D02*
X249500Y395547D01*
X244500Y395547D02*
X249500D01*
X243835Y394882D02*
X244500Y395547D01*
X243835Y390390D02*
Y394882D01*
X191055Y382500D02*
Y400898D01*
X195276Y405118D01*
X221248D01*
X223165Y403201D01*
Y390390D02*
Y403201D01*
X281551Y336215D02*
X287743D01*
X274416Y303717D02*
X275665Y302468D01*
X274416Y303717D02*
Y305111D01*
X274015Y305511D02*
X274416Y305111D01*
X275665Y300713D02*
Y302468D01*
X270866Y304689D02*
Y309090D01*
X273997Y312221D01*
X302559Y337286D02*
X302766Y337080D01*
X200394Y335433D02*
X200591Y335630D01*
X205118D01*
X205587Y326969D02*
Y329547D01*
X204293Y325675D02*
X205587Y326969D01*
X204293Y319723D02*
Y325675D01*
X206016Y318000D02*
X212555D01*
X204293Y319723D02*
X206016Y318000D01*
X206693Y322835D02*
X207015D01*
X207180Y323000D01*
X205587Y329547D02*
X205980D01*
X207180Y323000D02*
X212555D01*
X177350Y133800D02*
X177350Y133800D01*
X170803Y133800D02*
X177350D01*
X135498Y130313D02*
X135500Y130315D01*
X135894Y139953D02*
X136878Y140937D01*
X135295Y140157D02*
Y140937D01*
Y140157D02*
X135500Y139953D01*
X141549Y140937D02*
X153812Y153200D01*
X136878Y140937D02*
X141549D01*
X153812Y153200D02*
X155803D01*
X117106Y140937D02*
X135295D01*
X135500Y130315D02*
Y134047D01*
Y139953D02*
X135894D01*
X144488Y161417D02*
X145051D01*
X145134Y161500D01*
X148850D01*
X170803Y160120D02*
X179508Y168825D01*
Y176563D01*
X170803Y153200D02*
Y160120D01*
X178740Y175795D02*
X179508Y176563D01*
X155492D02*
X157738Y174318D01*
Y169322D02*
Y174318D01*
Y169322D02*
X164087Y162972D01*
X164284D01*
X165559Y161697D01*
Y161500D02*
Y161697D01*
X160047Y161500D02*
X160047Y161500D01*
X154756Y161500D02*
X160047D01*
X160047Y161500D02*
X160803Y160744D01*
Y153200D02*
Y160744D01*
X165559Y161500D02*
X165803Y161256D01*
Y153200D02*
Y161256D01*
X202756Y197244D02*
X203150D01*
X202756Y197244D02*
X202756Y197244D01*
X198740Y197244D02*
X202756D01*
X183628Y191000D02*
X187358D01*
X189500Y193142D01*
Y199869D01*
X189148Y200220D02*
X189500Y199869D01*
X185512Y200220D02*
X189148D01*
X180756Y191000D02*
X183628D01*
X185512Y192884D01*
Y197661D01*
X174488Y191756D02*
X175244Y191000D01*
X174488Y191756D02*
Y197661D01*
X177559Y230906D02*
X182283D01*
X216142Y239764D02*
X216535D01*
X216535Y239764D01*
X220276D01*
X230118Y230906D02*
X230315Y230709D01*
X226181Y230906D02*
X230118D01*
X270866Y301295D02*
X273382Y298780D01*
Y293823D02*
Y298780D01*
X299606Y343730D02*
Y344955D01*
Y343730D02*
X302165Y341171D01*
X275941Y293823D02*
Y298202D01*
X275665Y300713D02*
X278438Y297940D01*
Y293885D02*
Y297940D01*
X283618Y303472D02*
X283768Y303622D01*
X283618Y293823D02*
Y303472D01*
X281551Y343668D02*
X282598Y344715D01*
X281551Y336215D02*
Y343668D01*
X278438Y293885D02*
X278500Y293823D01*
X283150Y205354D02*
X284110Y206315D01*
Y220866D01*
X275941Y260600D02*
Y265748D01*
X281059Y270866D01*
Y276500D01*
X278500Y272594D02*
Y276500D01*
X278807Y303622D02*
X283768D01*
X265681Y196154D02*
X266598Y197072D01*
X234646Y264567D02*
X248079Y278000D01*
X261047D01*
X266953Y283000D02*
X266953Y283000D01*
X266953Y278000D02*
Y283000D01*
X270866Y276500D02*
X273382D01*
X269366Y278000D02*
X270866Y276500D01*
X266953Y278000D02*
X269366D01*
X187795Y230906D02*
X188295Y230405D01*
X194508D01*
X218539D02*
X219539Y231405D01*
X213012Y230405D02*
X218539D01*
X226181Y237795D02*
Y239764D01*
X223791Y235405D02*
X226181Y237795D01*
X213012Y235405D02*
X223791D01*
X226181Y239764D02*
X226575Y239370D01*
X230315D01*
X189500Y207480D02*
X189764D01*
X187358Y205339D02*
X189500Y207480D01*
X185512Y205339D02*
X187358D01*
X172661D02*
X174488D01*
X171412Y206588D02*
X172661Y205339D01*
X169668Y206588D02*
X171412D01*
X168244Y207500D02*
X168500Y207756D01*
X163953Y207500D02*
X168244D01*
X165031Y201028D02*
X165035D01*
X163953Y202106D02*
Y202500D01*
Y202106D02*
X165031Y201028D01*
X168303Y197760D02*
X168500D01*
X168500Y207756D02*
X169668Y206588D01*
X168500Y202244D02*
X169035Y202780D01*
X174488D01*
X170359Y195000D02*
X171500Y196141D01*
X166641Y195000D02*
X170359D01*
X165612Y196028D02*
X166641Y195000D01*
X172500Y200000D02*
X174268D01*
X174488Y200220D01*
X171500Y199000D02*
X172500Y200000D01*
X171500Y196141D02*
Y199000D01*
X165078Y196028D02*
X165612D01*
X164000Y197106D02*
X165078Y196028D01*
X164000Y197106D02*
Y197500D01*
D20*
X410890Y361000D02*
D03*
Y356000D02*
D03*
Y351000D02*
D03*
Y346000D02*
D03*
Y341000D02*
D03*
Y336000D02*
D03*
Y331000D02*
D03*
Y326000D02*
D03*
X447110Y361000D02*
D03*
Y356000D02*
D03*
Y351000D02*
D03*
Y346000D02*
D03*
Y341000D02*
D03*
Y336000D02*
D03*
Y331000D02*
D03*
Y326000D02*
D03*
D21*
X363724Y341740D02*
D03*
Y334260D02*
D03*
X354276D02*
D03*
Y338000D02*
D03*
Y341740D02*
D03*
D22*
X166929Y301969D02*
D03*
X485094Y352604D02*
D03*
X497753Y318504D02*
D03*
X538583Y260630D02*
D03*
X160803Y98425D02*
D03*
X455118Y392126D02*
D03*
X281890Y362598D02*
D03*
X197628Y301128D02*
D03*
X410480Y257087D02*
D03*
X148031Y422835D02*
D03*
X157087Y377165D02*
D03*
X126772Y284252D02*
D03*
X282598Y344715D02*
D03*
X299606Y344955D02*
D03*
X113000Y323815D02*
D03*
Y333815D02*
D03*
Y343815D02*
D03*
X112500Y459815D02*
D03*
Y449815D02*
D03*
Y439815D02*
D03*
X113000Y381315D02*
D03*
Y391315D02*
D03*
Y401315D02*
D03*
D23*
X315905Y244646D02*
D03*
Y205276D02*
D03*
D24*
X234405Y308000D02*
D03*
Y313000D02*
D03*
Y318000D02*
D03*
Y323000D02*
D03*
X212555Y308000D02*
D03*
Y313000D02*
D03*
Y318000D02*
D03*
Y323000D02*
D03*
D25*
X140565Y190053D02*
D03*
Y172730D02*
D03*
X141549Y232768D02*
D03*
Y215445D02*
D03*
D26*
X283150Y205354D02*
D03*
X271732D02*
D03*
D27*
X385236Y303642D02*
D03*
Y306201D02*
D03*
Y308760D02*
D03*
Y311319D02*
D03*
Y313878D02*
D03*
Y316437D02*
D03*
Y318996D02*
D03*
Y321555D02*
D03*
X362008Y303642D02*
D03*
Y306201D02*
D03*
Y308760D02*
D03*
Y311319D02*
D03*
Y313878D02*
D03*
Y316437D02*
D03*
Y318996D02*
D03*
Y321555D02*
D03*
D28*
X209500Y348300D02*
D03*
Y366000D02*
D03*
D29*
X255835Y356563D02*
D03*
Y367980D02*
D03*
D30*
X286177Y293823D02*
D03*
X283618D02*
D03*
X281059D02*
D03*
X278500D02*
D03*
X275941D02*
D03*
X273382D02*
D03*
X286177Y276500D02*
D03*
X283618D02*
D03*
X281059D02*
D03*
X278500D02*
D03*
X275941D02*
D03*
X273382D02*
D03*
D31*
X279780Y285161D02*
D03*
D32*
X212559Y431143D02*
D03*
X218465D02*
D03*
X220276Y230906D02*
D03*
X226181D02*
D03*
X199087Y202638D02*
D03*
X193181D02*
D03*
X163953Y207500D02*
D03*
X158047D02*
D03*
X163953Y202500D02*
D03*
X158047D02*
D03*
X163953Y197500D02*
D03*
X158047D02*
D03*
X226181Y239764D02*
D03*
X220276D02*
D03*
X145320Y251068D02*
D03*
X139414D02*
D03*
X177350Y133800D02*
D03*
X183256D02*
D03*
X148850Y161500D02*
D03*
X154756D02*
D03*
X266953Y278000D02*
D03*
X261047D02*
D03*
X261047Y283000D02*
D03*
X266953D02*
D03*
X438453Y397000D02*
D03*
X432547D02*
D03*
X499409Y384764D02*
D03*
X505315D02*
D03*
X450047Y240000D02*
D03*
X455953D02*
D03*
X409453Y169500D02*
D03*
X403547D02*
D03*
X387205Y346850D02*
D03*
X393110D02*
D03*
X281551Y336215D02*
D03*
X275646D02*
D03*
X302559Y337286D02*
D03*
X296654D02*
D03*
X218531Y436614D02*
D03*
X212626D02*
D03*
D33*
X493413Y337316D02*
D03*
X484752Y333576D02*
D03*
Y341057D02*
D03*
D34*
X174488Y205339D02*
D03*
Y202780D02*
D03*
Y200220D02*
D03*
Y197661D02*
D03*
X185512D02*
D03*
Y200220D02*
D03*
Y202780D02*
D03*
Y205339D02*
D03*
D35*
X217500Y260600D02*
D03*
Y275400D02*
D03*
X363189Y213466D02*
D03*
Y228266D02*
D03*
D36*
X243835Y375390D02*
D03*
Y380390D02*
D03*
Y385390D02*
D03*
Y390390D02*
D03*
X223165D02*
D03*
Y385390D02*
D03*
Y380390D02*
D03*
Y375390D02*
D03*
D37*
X233500Y382890D02*
D03*
D38*
X478307Y387953D02*
D03*
Y385984D02*
D03*
Y384016D02*
D03*
Y382047D02*
D03*
X491693Y387953D02*
D03*
Y385984D02*
D03*
Y384016D02*
D03*
Y382047D02*
D03*
D39*
X138583Y364173D02*
D03*
Y359055D02*
D03*
X130512D02*
D03*
Y361614D02*
D03*
Y364173D02*
D03*
D40*
X420520Y183240D02*
D03*
Y175760D02*
D03*
X410480D02*
D03*
Y179500D02*
D03*
Y183240D02*
D03*
D41*
X178525Y446673D02*
D03*
Y441673D02*
D03*
Y436673D02*
D03*
Y431673D02*
D03*
X200769Y446673D02*
D03*
Y441673D02*
D03*
Y436673D02*
D03*
Y431673D02*
D03*
D43*
X582339Y311205D02*
D03*
Y349000D02*
D03*
D44*
X577811Y311205D02*
D03*
X573874D02*
D03*
X569937D02*
D03*
X566000D02*
D03*
X562063D02*
D03*
X558126D02*
D03*
X554189D02*
D03*
X550252D02*
D03*
X546315D02*
D03*
X542378D02*
D03*
X538441D02*
D03*
X534504D02*
D03*
Y349000D02*
D03*
X538441D02*
D03*
X542378D02*
D03*
X546315D02*
D03*
X550252D02*
D03*
X554189D02*
D03*
X558126D02*
D03*
X562063D02*
D03*
X566000D02*
D03*
X569937D02*
D03*
X573874D02*
D03*
X577811D02*
D03*
D45*
X531551Y322228D02*
D03*
Y326165D02*
D03*
Y330102D02*
D03*
Y334039D02*
D03*
Y337976D02*
D03*
D46*
X303815Y295000D02*
D03*
X293185D02*
D03*
D47*
X197441Y324606D02*
D03*
Y313976D02*
D03*
X265681Y185525D02*
D03*
Y196154D02*
D03*
D48*
X241395Y479445D02*
D03*
Y490862D02*
D03*
D49*
X247694Y485350D02*
D03*
X235490D02*
D03*
D50*
X182000Y382500D02*
D03*
X191055D02*
D03*
D51*
X470421Y133004D02*
D03*
Y195130D02*
D03*
Y221508D02*
D03*
Y146193D02*
D03*
Y152886D02*
D03*
Y162453D02*
D03*
Y172296D02*
D03*
Y182138D02*
D03*
Y188634D02*
D03*
Y201823D02*
D03*
Y211666D02*
D03*
D52*
X553138Y241193D02*
D03*
X557862Y130957D02*
D03*
D53*
X155492Y176563D02*
D03*
X179508D02*
D03*
D54*
X170803Y153200D02*
D03*
X165803D02*
D03*
X160803D02*
D03*
X155803D02*
D03*
Y133800D02*
D03*
X160803D02*
D03*
X165803D02*
D03*
X170803D02*
D03*
D55*
X226177Y121339D02*
D03*
X210784Y121378D02*
D03*
D56*
X391500Y327953D02*
D03*
Y322441D02*
D03*
X168500Y192248D02*
D03*
Y197760D02*
D03*
X168500Y202244D02*
D03*
Y207756D02*
D03*
X250000Y374244D02*
D03*
Y379756D02*
D03*
X209766Y453173D02*
D03*
Y447661D02*
D03*
D57*
X210000Y382890D02*
D03*
Y394110D02*
D03*
D58*
X155811Y366000D02*
D03*
X145772D02*
D03*
X562500Y271500D02*
D03*
X572539D02*
D03*
X541000Y272000D02*
D03*
X530961D02*
D03*
X478500Y285000D02*
D03*
X468461D02*
D03*
X428000Y186500D02*
D03*
X438039D02*
D03*
X403020D02*
D03*
X392980D02*
D03*
X421047Y289614D02*
D03*
X431087D02*
D03*
X400264Y288583D02*
D03*
X390224D02*
D03*
X155811Y350394D02*
D03*
X145772D02*
D03*
D59*
X191500Y363563D02*
D03*
Y371437D02*
D03*
D60*
X182283Y230906D02*
D03*
X187795D02*
D03*
X180756Y191000D02*
D03*
X175244D02*
D03*
X183020Y250853D02*
D03*
X177508D02*
D03*
X165559Y161500D02*
D03*
X160047D02*
D03*
X193228Y197244D02*
D03*
X198740D02*
D03*
X149547Y126500D02*
D03*
X155059D02*
D03*
X290256Y263000D02*
D03*
X284744D02*
D03*
X422244Y397000D02*
D03*
X427756D02*
D03*
X505118Y389764D02*
D03*
X499606D02*
D03*
X458756Y195000D02*
D03*
X453244D02*
D03*
X249744Y385500D02*
D03*
X255256D02*
D03*
X375984Y342126D02*
D03*
X370472D02*
D03*
X395244Y355953D02*
D03*
X400756D02*
D03*
D61*
X559500Y300500D02*
D03*
Y290461D02*
D03*
X571000Y300500D02*
D03*
Y290461D02*
D03*
X534500Y300520D02*
D03*
Y290480D02*
D03*
X486221Y305217D02*
D03*
Y315256D02*
D03*
D62*
X447685Y188000D02*
D03*
X458315D02*
D03*
X241185Y348500D02*
D03*
X251815D02*
D03*
X241185Y340000D02*
D03*
X251815D02*
D03*
D63*
X135500Y140354D02*
D03*
Y134449D02*
D03*
X134646Y431299D02*
D03*
Y437205D02*
D03*
X144488Y378362D02*
D03*
Y384268D02*
D03*
X140138Y295035D02*
D03*
Y300941D02*
D03*
X545276Y112402D02*
D03*
Y118307D02*
D03*
X283768Y310433D02*
D03*
Y304528D02*
D03*
X278807Y304528D02*
D03*
Y310433D02*
D03*
X546000Y356547D02*
D03*
Y362453D02*
D03*
X538441Y356547D02*
D03*
Y362453D02*
D03*
X532500Y356547D02*
D03*
Y362453D02*
D03*
X478083Y340269D02*
D03*
Y334364D02*
D03*
X496053Y280609D02*
D03*
Y274704D02*
D03*
X199606Y378744D02*
D03*
Y372839D02*
D03*
X244500Y401453D02*
D03*
Y395547D02*
D03*
X249500Y395547D02*
D03*
Y401453D02*
D03*
X205118Y329724D02*
D03*
Y335630D02*
D03*
X375870Y363929D02*
D03*
Y358024D02*
D03*
X365370Y363929D02*
D03*
Y358024D02*
D03*
X148626Y300941D02*
D03*
Y295035D02*
D03*
X188583Y305472D02*
D03*
Y311378D02*
D03*
D64*
X318900Y264500D02*
D03*
X304100D02*
D03*
X263645Y240500D02*
D03*
X278445D02*
D03*
D65*
X211228Y92378D02*
D03*
X228551D02*
D03*
X459000Y210000D02*
D03*
X441677D02*
D03*
D66*
X487760Y296768D02*
D03*
X495240D02*
D03*
Y286728D02*
D03*
X491500D02*
D03*
X487760D02*
D03*
D67*
X549441Y273435D02*
D03*
X554559D02*
D03*
Y265365D02*
D03*
X552000D02*
D03*
X549441D02*
D03*
X408488Y285650D02*
D03*
X413606D02*
D03*
Y277579D02*
D03*
X411047D02*
D03*
X408488D02*
D03*
D120*
X180000Y201500D02*
D03*
D121*
X170584Y246068D02*
D03*
Y251068D02*
D03*
Y256068D02*
D03*
Y261068D02*
D03*
X152080D02*
D03*
Y256068D02*
D03*
Y251068D02*
D03*
Y246068D02*
D03*
X194508Y235405D02*
D03*
Y230405D02*
D03*
Y225406D02*
D03*
Y220406D02*
D03*
X213012D02*
D03*
Y225406D02*
D03*
Y230405D02*
D03*
Y235405D02*
D03*
D122*
X170584Y246068D02*
X177559D01*
X183020D02*
Y250853D01*
X142389Y255906D02*
X145320D01*
X140042Y253559D02*
X142389Y255906D01*
X140042Y251696D02*
Y253559D01*
X139414Y251068D02*
X140042Y251696D01*
X410972Y273657D02*
Y277504D01*
X411047Y277579D01*
X527998Y300524D02*
X528009Y300534D01*
X534486D01*
X534500Y300520D01*
X566000Y305500D02*
X568108Y303392D01*
Y302998D02*
Y303392D01*
Y302998D02*
X570606Y300500D01*
X571000D01*
X566000Y305500D02*
Y311205D01*
X559565Y300500D02*
X562063Y302998D01*
Y311205D01*
X534500Y300520D02*
X534504Y300524D01*
Y311205D01*
X447110Y351000D02*
X455118D01*
X447110Y346000D02*
X454953D01*
X447110Y341000D02*
X454953D01*
X447110Y336000D02*
X455118D01*
X447110Y331000D02*
X455118D01*
X454953Y326000D02*
X455118Y326165D01*
X447110Y326000D02*
X454953D01*
X402756Y325984D02*
X402772Y326000D01*
X410890D01*
X402756Y331000D02*
X410890D01*
X402756Y336000D02*
X410890D01*
X402756Y340945D02*
X402811Y341000D01*
X410890D01*
X395244Y360205D02*
X395276Y360236D01*
X395244Y355953D02*
Y360205D01*
X349213Y338016D02*
X349640D01*
X349656Y338000D01*
X354276D01*
X375984Y346457D02*
X375984Y346457D01*
Y342126D02*
Y346457D01*
X160803Y91617D02*
X160807Y91613D01*
X160803Y91617D02*
Y98425D01*
X126772Y361417D02*
X126969Y361614D01*
X130512D01*
D123*
X256230Y283000D02*
X261047D01*
X396457Y322441D02*
X396457Y322441D01*
X391500Y322441D02*
X396457D01*
X391500Y327953D02*
X396457D01*
X385236Y321555D02*
X390417D01*
X292520Y341420D02*
Y355906D01*
Y341420D02*
X295882Y338058D01*
X296276D01*
X296654Y337680D01*
Y337286D02*
Y337680D01*
X221695Y439778D02*
Y452715D01*
X219303Y437386D02*
X221695Y439778D01*
X218909Y437386D02*
X219303D01*
X218531Y437008D02*
X218909Y437386D01*
X218531Y436614D02*
Y437008D01*
X222830Y431102D02*
X222835D01*
X222789Y431143D02*
X222830Y431102D01*
X218465Y431143D02*
X222789D01*
X212559Y431295D02*
Y436548D01*
Y431143D02*
Y431295D01*
Y436548D02*
X212626Y436614D01*
X212181Y431673D02*
X212559Y431295D01*
X200769Y431673D02*
X212181D01*
X206366Y438189D02*
Y441673D01*
X205130Y436953D02*
X206366Y438189D01*
X201048Y436953D02*
X205130D01*
X200769Y436673D02*
X201048Y436953D01*
X218898Y455512D02*
X221695Y452715D01*
X200769Y441673D02*
X206366D01*
X170866Y449028D02*
X171653Y449815D01*
X170866Y445502D02*
Y449028D01*
X212185Y431517D02*
X212559Y431143D01*
X171653Y431890D02*
X171870Y431673D01*
X178525D01*
X172038Y446673D02*
X178525D01*
X170866Y445502D02*
X172038Y446673D01*
X170866Y443307D02*
Y445502D01*
Y443307D02*
X172500Y441673D01*
X178525D01*
X164764Y449815D02*
X169458Y454509D01*
X201125D01*
X207398Y448236D01*
X209191D01*
X209766Y447661D01*
X205831Y446673D02*
X206498Y447340D01*
X209445D01*
X209766Y447661D01*
X200769Y446673D02*
X205831D01*
X197441Y301315D02*
X197815Y300941D01*
X210000Y454509D02*
Y456562D01*
X171653Y436614D02*
X179291D01*
X179429Y436476D01*
X151650D02*
X152300Y435827D01*
X144744Y436476D02*
X151650D01*
X139567Y431299D02*
X144744Y436476D01*
X139567Y431299D02*
X148031Y422835D01*
X134646Y431299D02*
X139567D01*
X256301Y283071D02*
X256338D01*
X256230Y283000D02*
X256301Y283071D01*
X557862Y130957D02*
X557874Y130968D01*
X556627Y129721D02*
X557862Y130957D01*
X557874Y130968D02*
Y135039D01*
X553138Y139776D02*
X557874Y135039D01*
X553138Y139776D02*
Y241193D01*
X491500Y277165D02*
Y277319D01*
Y277165D02*
X493583Y275082D01*
X495675D01*
X496053Y274704D01*
X491500Y283071D02*
Y286728D01*
X545276Y107874D02*
X545276Y107874D01*
Y112402D01*
Y118307D02*
Y122441D01*
X552556Y129721D01*
X556627D01*
X399606Y169500D02*
X403547D01*
X405905Y179528D02*
X405933Y179500D01*
X410480D01*
X541718Y272718D02*
X542378Y272058D01*
X541718Y272718D02*
X542435Y273435D01*
X542378Y267323D02*
Y272058D01*
X539707Y264651D02*
X542378Y267323D01*
X539707Y261754D02*
Y264651D01*
X538583Y260630D02*
X539707Y261754D01*
X542435Y273435D02*
X543248Y274248D01*
X542435Y273435D02*
X549441D01*
X557900Y302165D02*
X559565Y300500D01*
X551378Y302165D02*
X557900D01*
X548032Y298819D02*
X551378Y302165D01*
X548032Y281102D02*
Y298819D01*
X543248Y276319D02*
X548032Y281102D01*
X543248Y274248D02*
Y276319D01*
X577787Y300500D02*
X577811Y300524D01*
X571000Y300500D02*
X577787D01*
X400756Y360205D02*
X400787Y360236D01*
X400756Y355953D02*
Y360205D01*
Y355953D02*
X400803Y356000D01*
X410890D01*
X370472Y346457D02*
X370472Y346457D01*
Y342126D02*
Y346457D01*
X370087Y341740D02*
X370472Y342126D01*
X363724Y341740D02*
X370087D01*
X189764Y137084D02*
Y140354D01*
X186480Y133800D02*
X189764Y137084D01*
X183256Y133800D02*
X186480D01*
X194488Y136469D02*
X250839Y192819D01*
X194488Y123228D02*
Y136469D01*
X190551Y119291D02*
X194488Y123228D01*
X157874Y119291D02*
X190551D01*
X155059Y122106D02*
X157874Y119291D01*
X197441Y301315D02*
Y313976D01*
X139370Y384551D02*
X139373Y384548D01*
X144208D01*
X144488Y384268D01*
X371500Y475437D02*
Y495000D01*
X361417Y465354D02*
X371500Y475437D01*
X274016Y465354D02*
X361417D01*
X256299Y447638D02*
X274016Y465354D01*
X140138Y305098D02*
X140157Y305118D01*
X140138Y300941D02*
Y305098D01*
X148626Y300941D02*
Y305906D01*
X165902Y300941D02*
X166929Y301969D01*
X148626Y300941D02*
X165902D01*
X140138Y288976D02*
Y295035D01*
X135413Y284252D02*
X140138Y288976D01*
X126772Y284252D02*
X135413D01*
X148626Y295035D02*
X148626Y295035D01*
X140138Y295035D02*
X148626D01*
X134646Y295035D02*
X140138D01*
X140138Y295035D01*
X113000Y316681D02*
X134646Y295035D01*
X113000Y316681D02*
Y323815D01*
X150791Y380390D02*
X150969Y380212D01*
X152978D01*
X156025Y377165D01*
X157087D01*
X148764Y378362D02*
X150791Y380390D01*
X144488Y378362D02*
X148764D01*
X114156Y381315D02*
X117109Y378362D01*
X113000Y381315D02*
X114156D01*
X117109Y378362D02*
X144488D01*
X134646Y440945D02*
X134646Y440945D01*
Y437205D02*
Y440945D01*
X122638Y431299D02*
X134646D01*
X122482Y431143D02*
X122638Y431299D01*
X120825Y431143D02*
X122482D01*
X112500Y439468D02*
X120825Y431143D01*
X112500Y439468D02*
Y439815D01*
X144488Y367283D02*
X145772Y366000D01*
X144488Y367283D02*
Y373228D01*
X132677Y339287D02*
X141211Y347822D01*
X143524D01*
X145772Y350070D01*
Y350394D01*
X132677Y323815D02*
Y339287D01*
X145772Y350394D02*
Y354457D01*
X141173Y359055D02*
X145772Y354457D01*
X138583Y359055D02*
X141173D01*
X143945Y364173D02*
X145772Y366000D01*
X138583Y364173D02*
X143945D01*
X250839Y192819D02*
Y195000D01*
X145669Y126378D02*
X145791Y126500D01*
X149547D01*
X249634Y385390D02*
X249744Y385500D01*
X243835Y385390D02*
X249634D01*
X155059Y122106D02*
Y126500D01*
X188189Y235433D02*
X188216Y235405D01*
X194508D01*
D124*
X569500Y376547D02*
X569937Y376110D01*
Y349000D02*
Y376110D01*
X195583Y485350D02*
X235445D01*
X195189Y484957D02*
X195583Y485350D01*
D125*
X145134Y191402D02*
Y197760D01*
X149874Y202500D01*
X158047D01*
X145134Y191402D02*
X151232Y197500D01*
X158047D01*
D126*
X411500Y415000D02*
D03*
X421500D02*
D03*
X451500D02*
D03*
X441500D02*
D03*
X431500D02*
D03*
X401500D02*
D03*
X391500D02*
D03*
X381500D02*
D03*
X371500D02*
D03*
X361500D02*
D03*
X351500D02*
D03*
X341500D02*
D03*
X331500D02*
D03*
X321500D02*
D03*
Y495000D02*
D03*
X331500D02*
D03*
X341500D02*
D03*
X351500D02*
D03*
X361500D02*
D03*
X371500D02*
D03*
X381500D02*
D03*
X391500D02*
D03*
X401500D02*
D03*
X431500D02*
D03*
X441500D02*
D03*
X421500D02*
D03*
X411500D02*
D03*
D127*
X451500D02*
D03*
D128*
X566429Y98425D02*
D03*
X565929Y488500D02*
D03*
X117110D02*
D03*
X117610Y98425D02*
D03*
D129*
X117106Y133063D02*
D03*
Y140937D02*
D03*
X116606Y219063D02*
D03*
Y226937D02*
D03*
Y176563D02*
D03*
Y184437D02*
D03*
D130*
X566130Y232138D02*
D03*
Y136862D02*
D03*
D131*
X185189Y494957D02*
D03*
X205189D02*
D03*
X185189Y474957D02*
D03*
X205189D02*
D03*
X195189Y484957D02*
D03*
X559937Y386547D02*
D03*
X579937D02*
D03*
X559937Y366547D02*
D03*
X579937D02*
D03*
X569937Y376547D02*
D03*
D132*
X378783Y95878D02*
D03*
Y85878D02*
D03*
X259283Y130878D02*
D03*
Y120878D02*
D03*
X299783Y120378D02*
D03*
Y130378D02*
D03*
X339283Y130878D02*
D03*
Y120878D02*
D03*
X378284Y130878D02*
D03*
Y120878D02*
D03*
X259784Y95878D02*
D03*
Y85878D02*
D03*
X300284Y96378D02*
D03*
Y86378D02*
D03*
X339784Y95878D02*
D03*
Y85878D02*
D03*
D133*
X150791Y242126D02*
D03*
X185433Y225590D02*
D03*
X177559Y246068D02*
D03*
X144488D02*
D03*
X145320Y255906D02*
D03*
X370266Y294750D02*
D03*
X365821D02*
D03*
X355906Y321622D02*
D03*
X396457Y322441D02*
D03*
Y327953D02*
D03*
X313779Y333858D02*
D03*
X347244Y312205D02*
D03*
X311811Y337729D02*
D03*
X351327Y313512D02*
D03*
X292520Y355906D02*
D03*
X330709Y362205D02*
D03*
X264152Y340158D02*
D03*
X222835Y431102D02*
D03*
X218898Y455512D02*
D03*
X208000Y443307D02*
D03*
X171653Y449815D02*
D03*
Y431890D02*
D03*
X210260Y457307D02*
D03*
X171653Y436614D02*
D03*
X152300Y435827D02*
D03*
X188732Y300713D02*
D03*
X298819Y332357D02*
D03*
X410972Y273657D02*
D03*
X256338Y283071D02*
D03*
X296260Y283787D02*
D03*
X290945D02*
D03*
X180000Y210236D02*
D03*
X445669Y172047D02*
D03*
X429921Y247244D02*
D03*
X454724Y170472D02*
D03*
X425197Y247244D02*
D03*
X465354Y206693D02*
D03*
X420276Y246850D02*
D03*
X478937Y345063D02*
D03*
X492913Y431890D02*
D03*
X398031Y468110D02*
D03*
X500394Y411417D02*
D03*
X511417Y380709D02*
D03*
X501968Y283858D02*
D03*
X491500Y277319D02*
D03*
Y283071D02*
D03*
X464567Y162453D02*
D03*
X460063D02*
D03*
X455953Y162402D02*
D03*
X387008Y218504D02*
D03*
X335827Y369291D02*
D03*
X394882Y192913D02*
D03*
X391339Y196063D02*
D03*
X545276Y107874D02*
D03*
X399606Y169500D02*
D03*
X405905Y179528D02*
D03*
X438039Y193898D02*
D03*
X434047Y197697D02*
D03*
X410480Y190945D02*
D03*
X408488Y196063D02*
D03*
X401968D02*
D03*
X449606Y206693D02*
D03*
X449522Y212598D02*
D03*
X447685Y195130D02*
D03*
X449522Y199606D02*
D03*
X443307D02*
D03*
X464567Y196063D02*
D03*
Y188000D02*
D03*
Y192126D02*
D03*
X316929Y470472D02*
D03*
X486221Y321260D02*
D03*
X477559Y315142D02*
D03*
Y321260D02*
D03*
X460236Y282687D02*
D03*
Y286736D02*
D03*
X537523Y327165D02*
D03*
X537370Y332061D02*
D03*
X543003Y342520D02*
D03*
X558126D02*
D03*
X559937Y317323D02*
D03*
X555118D02*
D03*
X511417Y359842D02*
D03*
X517323D02*
D03*
X523622D02*
D03*
X509331Y353015D02*
D03*
X517323Y352898D02*
D03*
X523622Y353015D02*
D03*
X509055Y346850D02*
D03*
X517323D02*
D03*
X523622D02*
D03*
X509055Y340269D02*
D03*
X517323D02*
D03*
X523622D02*
D03*
X509055Y334039D02*
D03*
X517323D02*
D03*
X523622D02*
D03*
X509055Y328124D02*
D03*
X517323D02*
D03*
X523622D02*
D03*
Y322228D02*
D03*
X517323D02*
D03*
X509055D02*
D03*
Y316535D02*
D03*
X515524D02*
D03*
X521654D02*
D03*
X527179D02*
D03*
X528009Y311205D02*
D03*
X521654D02*
D03*
X515524D02*
D03*
X509055D02*
D03*
X586614Y360475D02*
D03*
X586473Y374025D02*
D03*
Y379049D02*
D03*
X583858Y356000D02*
D03*
X579325D02*
D03*
X561937D02*
D03*
X556496D02*
D03*
X550754D02*
D03*
X551072Y362453D02*
D03*
X551378Y373561D02*
D03*
X533418Y382283D02*
D03*
X538742Y386547D02*
D03*
X544882Y383084D02*
D03*
Y389539D02*
D03*
X551378Y383084D02*
D03*
Y389539D02*
D03*
X545397Y395276D02*
D03*
X551378D02*
D03*
Y401575D02*
D03*
X557087Y395276D02*
D03*
Y401575D02*
D03*
Y407087D02*
D03*
X563400Y395276D02*
D03*
Y401575D02*
D03*
Y407087D02*
D03*
X563439Y412598D02*
D03*
X569500Y395276D02*
D03*
Y401575D02*
D03*
Y407087D02*
D03*
Y412598D02*
D03*
X575372Y395276D02*
D03*
Y401575D02*
D03*
Y407087D02*
D03*
Y412598D02*
D03*
X581496Y395276D02*
D03*
Y401575D02*
D03*
Y407087D02*
D03*
Y412598D02*
D03*
X586473Y395276D02*
D03*
Y401575D02*
D03*
Y407087D02*
D03*
X586614Y412598D02*
D03*
X586473Y418110D02*
D03*
X581496D02*
D03*
X575372D02*
D03*
X569500D02*
D03*
X509449Y258342D02*
D03*
Y263469D02*
D03*
Y268701D02*
D03*
Y274453D02*
D03*
Y280478D02*
D03*
Y287795D02*
D03*
Y293663D02*
D03*
X515524Y258268D02*
D03*
Y263531D02*
D03*
Y268701D02*
D03*
Y274541D02*
D03*
Y280478D02*
D03*
Y287795D02*
D03*
Y293663D02*
D03*
X563526Y342520D02*
D03*
X553138D02*
D03*
X547514D02*
D03*
X537523D02*
D03*
X563526Y337316D02*
D03*
X537370D02*
D03*
X563526Y332061D02*
D03*
X582339Y298143D02*
D03*
Y303319D02*
D03*
X581496Y292913D02*
D03*
Y287795D02*
D03*
Y278346D02*
D03*
Y283071D02*
D03*
X586473Y287795D02*
D03*
Y292913D02*
D03*
Y298143D02*
D03*
Y303319D02*
D03*
Y257394D02*
D03*
X579952D02*
D03*
X575242D02*
D03*
X569937D02*
D03*
X575242Y262918D02*
D03*
X586473D02*
D03*
X579952D02*
D03*
X569937D02*
D03*
X586473Y267758D02*
D03*
X579937D02*
D03*
X586473Y272718D02*
D03*
X579937Y272811D02*
D03*
X555724Y261754D02*
D03*
X550844D02*
D03*
X545397D02*
D03*
X586473Y278346D02*
D03*
X577122D02*
D03*
X569937D02*
D03*
X586473Y283101D02*
D03*
X576992D02*
D03*
X569937D02*
D03*
X552211Y287795D02*
D03*
X552362Y293663D02*
D03*
X563439Y327165D02*
D03*
X563400Y322228D02*
D03*
X537398D02*
D03*
X498032Y303150D02*
D03*
X564961Y317323D02*
D03*
X550000D02*
D03*
X544882D02*
D03*
X539764D02*
D03*
X534646D02*
D03*
X527998Y300524D02*
D03*
X542095Y293663D02*
D03*
Y287795D02*
D03*
X527998D02*
D03*
Y293663D02*
D03*
X521654D02*
D03*
Y287795D02*
D03*
X541617Y280478D02*
D03*
X535104D02*
D03*
X527998D02*
D03*
X521654D02*
D03*
Y274453D02*
D03*
Y268701D02*
D03*
X527998Y263469D02*
D03*
X521654D02*
D03*
X527998Y258268D02*
D03*
X521654D02*
D03*
X538189Y372047D02*
D03*
X514080Y374046D02*
D03*
X510268Y370472D02*
D03*
X532526D02*
D03*
X558661Y278346D02*
D03*
X561937Y281951D02*
D03*
X555118Y281855D02*
D03*
X478083Y330293D02*
D03*
X484307Y328931D02*
D03*
X495331Y348222D02*
D03*
X546000Y367063D02*
D03*
X577811Y300524D02*
D03*
X493720Y306693D02*
D03*
X478500Y296768D02*
D03*
X481496Y292126D02*
D03*
X476378D02*
D03*
X257357Y469291D02*
D03*
Y474957D02*
D03*
Y480626D02*
D03*
X252362Y484957D02*
D03*
X257357D02*
D03*
X257480Y490173D02*
D03*
Y495257D02*
D03*
Y501181D02*
D03*
X252362Y469291D02*
D03*
Y474957D02*
D03*
Y480626D02*
D03*
X250787Y490173D02*
D03*
X252362Y495257D02*
D03*
Y501181D02*
D03*
X246063Y469291D02*
D03*
X239370D02*
D03*
X246063Y474957D02*
D03*
X239370D02*
D03*
X246063Y495257D02*
D03*
Y501181D02*
D03*
X239370Y495257D02*
D03*
Y501181D02*
D03*
X232677Y469291D02*
D03*
Y474957D02*
D03*
Y495257D02*
D03*
Y501181D02*
D03*
X226772Y469291D02*
D03*
Y474957D02*
D03*
Y495257D02*
D03*
Y501181D02*
D03*
X220866Y469291D02*
D03*
Y474957D02*
D03*
Y495257D02*
D03*
Y501181D02*
D03*
X214961Y469291D02*
D03*
Y474957D02*
D03*
Y494957D02*
D03*
Y501181D02*
D03*
X195583Y469291D02*
D03*
X195189Y501181D02*
D03*
X176181D02*
D03*
Y494957D02*
D03*
Y488588D02*
D03*
Y482455D02*
D03*
Y476378D02*
D03*
Y470472D02*
D03*
X170866D02*
D03*
Y476378D02*
D03*
Y482455D02*
D03*
Y488588D02*
D03*
Y494957D02*
D03*
Y501181D02*
D03*
X418110Y397000D02*
D03*
X511417Y410630D02*
D03*
X505512Y394094D02*
D03*
X499606D02*
D03*
X509449Y385039D02*
D03*
X389764Y363779D02*
D03*
X401936Y382283D02*
D03*
X477953Y420079D02*
D03*
X379134Y464961D02*
D03*
X331500Y482677D02*
D03*
X473228Y382283D02*
D03*
Y388189D02*
D03*
X387008Y351575D02*
D03*
X428346Y376378D02*
D03*
X375984Y368504D02*
D03*
X365354D02*
D03*
X455118Y351000D02*
D03*
X454953Y346000D02*
D03*
Y341000D02*
D03*
X455118Y336000D02*
D03*
Y331000D02*
D03*
Y326165D02*
D03*
X402756Y325984D02*
D03*
Y331000D02*
D03*
Y336000D02*
D03*
Y340945D02*
D03*
X395276Y360236D02*
D03*
X400787D02*
D03*
X349213Y338016D02*
D03*
X375984Y346457D02*
D03*
X370472D02*
D03*
X259212Y185525D02*
D03*
X272456D02*
D03*
Y180485D02*
D03*
X265681D02*
D03*
X259283D02*
D03*
X189764Y140354D02*
D03*
X396850Y276500D02*
D03*
X399606Y266929D02*
D03*
X392913D02*
D03*
X399606Y272047D02*
D03*
X392913D02*
D03*
X438189Y287795D02*
D03*
X442126Y292044D02*
D03*
Y287795D02*
D03*
X438189Y292044D02*
D03*
X383071Y286736D02*
D03*
X377953D02*
D03*
X383071Y292044D02*
D03*
X377953D02*
D03*
X418898Y299606D02*
D03*
X414370D02*
D03*
X423228D02*
D03*
X414370Y303937D02*
D03*
X418898D02*
D03*
X278807Y314567D02*
D03*
X288189Y300394D02*
D03*
X281102Y300000D02*
D03*
X264173Y344882D02*
D03*
Y349606D02*
D03*
X258661Y340158D02*
D03*
Y344882D02*
D03*
Y349606D02*
D03*
X160807Y91613D02*
D03*
X203150Y87795D02*
D03*
Y94488D02*
D03*
Y101181D02*
D03*
Y107874D02*
D03*
Y114567D02*
D03*
Y120378D02*
D03*
Y126378D02*
D03*
Y131890D02*
D03*
X251575Y436614D02*
D03*
X246063Y437402D02*
D03*
X215512Y329842D02*
D03*
X180709Y141732D02*
D03*
X126772Y361417D02*
D03*
X139370Y384551D02*
D03*
X256299Y447638D02*
D03*
X140157Y305118D02*
D03*
X150791Y335433D02*
D03*
X148626Y305906D02*
D03*
X150791Y380390D02*
D03*
X134646Y440945D02*
D03*
X144488Y373228D02*
D03*
X158661Y357087D02*
D03*
X154331Y359498D02*
D03*
X206299Y169322D02*
D03*
X200787D02*
D03*
X194453D02*
D03*
X188189D02*
D03*
X206299Y173937D02*
D03*
X200787D02*
D03*
X194453D02*
D03*
X188189D02*
D03*
X206299Y179134D02*
D03*
X200787D02*
D03*
X194453D02*
D03*
X188189D02*
D03*
X206299Y184335D02*
D03*
X200787Y184437D02*
D03*
X194453D02*
D03*
X188189D02*
D03*
X145669Y126378D02*
D03*
X260507Y384548D02*
D03*
Y389876D02*
D03*
X253937Y399606D02*
D03*
X233567Y398827D02*
D03*
X237432Y396256D02*
D03*
X229921D02*
D03*
X237432Y401453D02*
D03*
X229921D02*
D03*
X239094Y368653D02*
D03*
X234405D02*
D03*
X229921D02*
D03*
X225378D02*
D03*
X215512Y400394D02*
D03*
X208000D02*
D03*
X199213Y394500D02*
D03*
Y400394D02*
D03*
X212992Y338583D02*
D03*
X201969Y342634D02*
D03*
X217849Y337815D02*
D03*
Y342634D02*
D03*
X193388Y354445D02*
D03*
X189764Y357347D02*
D03*
X234646Y338583D02*
D03*
Y343730D02*
D03*
Y348539D02*
D03*
X287743Y336215D02*
D03*
X274015Y305511D02*
D03*
X273997Y312221D02*
D03*
X200394Y335433D02*
D03*
X206693Y322835D02*
D03*
X197441Y329685D02*
D03*
X191535D02*
D03*
X135498Y130313D02*
D03*
X144488Y161417D02*
D03*
X203150Y197244D02*
D03*
X188189Y235433D02*
D03*
X177559Y230906D02*
D03*
X183020Y246068D02*
D03*
X216142Y239764D02*
D03*
X230315Y230709D02*
D03*
X270866Y301295D02*
D03*
X333465Y263000D02*
D03*
Y269815D02*
D03*
X327807Y263000D02*
D03*
Y270005D02*
D03*
X326693Y276500D02*
D03*
X317323D02*
D03*
X284110Y220866D02*
D03*
X275941Y260600D02*
D03*
X308906Y298202D02*
D03*
Y292913D02*
D03*
Y287327D02*
D03*
X304100Y285339D02*
D03*
X230315Y239370D02*
D03*
X189764Y207480D02*
D03*
M02*
