G04*
G04 #@! TF.GenerationSoftware,Altium Limited,Altium Designer,20.1.7 (139)*
G04*
G04 Layer_Color=255*
%FSLAX25Y25*%
%MOIN*%
G70*
G04*
G04 #@! TF.SameCoordinates,72195594-E7F7-4266-BDA2-BCA36E094617*
G04*
G04*
G04 #@! TF.FilePolarity,Positive*
G04*
G01*
G75*
%ADD22C,0.07874*%
%ADD126C,0.07087*%
%ADD127R,0.07087X0.07087*%
%ADD128C,0.23622*%
%ADD129C,0.06299*%
%ADD130C,0.05906*%
%ADD131C,0.11811*%
%ADD132C,0.08000*%
D22*
X113000Y323815D02*
D03*
Y333815D02*
D03*
Y343815D02*
D03*
X112500Y459815D02*
D03*
Y449815D02*
D03*
Y439815D02*
D03*
X113000Y381315D02*
D03*
Y391315D02*
D03*
Y401315D02*
D03*
D126*
X411500Y415000D02*
D03*
X421500D02*
D03*
X451500D02*
D03*
X441500D02*
D03*
X431500D02*
D03*
X401500D02*
D03*
X391500D02*
D03*
X381500D02*
D03*
X371500D02*
D03*
X361500D02*
D03*
X351500D02*
D03*
X341500D02*
D03*
X331500D02*
D03*
X321500D02*
D03*
Y495000D02*
D03*
X331500D02*
D03*
X341500D02*
D03*
X351500D02*
D03*
X361500D02*
D03*
X371500D02*
D03*
X381500D02*
D03*
X391500D02*
D03*
X401500D02*
D03*
X431500D02*
D03*
X441500D02*
D03*
X421500D02*
D03*
X411500D02*
D03*
D127*
X451500D02*
D03*
D128*
X566429Y98425D02*
D03*
X565929Y488500D02*
D03*
X117110D02*
D03*
X117610Y98425D02*
D03*
D129*
X117106Y133063D02*
D03*
Y140937D02*
D03*
X116606Y219063D02*
D03*
Y226937D02*
D03*
Y176563D02*
D03*
Y184437D02*
D03*
D130*
X566130Y232138D02*
D03*
Y136862D02*
D03*
D131*
X185189Y494957D02*
D03*
X205189D02*
D03*
X185189Y474957D02*
D03*
X205189D02*
D03*
X195189Y484957D02*
D03*
X559937Y386547D02*
D03*
X579937D02*
D03*
X559937Y366547D02*
D03*
X579937D02*
D03*
X569937Y376547D02*
D03*
D132*
X378783Y95878D02*
D03*
Y85878D02*
D03*
X259283Y130878D02*
D03*
Y120878D02*
D03*
X299783Y120378D02*
D03*
Y130378D02*
D03*
X339283Y130878D02*
D03*
Y120878D02*
D03*
X378284Y130878D02*
D03*
Y120878D02*
D03*
X259784Y95878D02*
D03*
Y85878D02*
D03*
X300284Y96378D02*
D03*
Y86378D02*
D03*
X339784Y95878D02*
D03*
Y85878D02*
D03*
M02*
