G04*
G04 #@! TF.GenerationSoftware,Altium Limited,Altium Designer,20.1.7 (139)*
G04*
G04 Layer_Physical_Order=4*
G04 Layer_Color=16711680*
%FSLAX25Y25*%
%MOIN*%
G70*
G04*
G04 #@! TF.SameCoordinates,72195594-E7F7-4266-BDA2-BCA36E094617*
G04*
G04*
G04 #@! TF.FilePolarity,Positive*
G04*
G01*
G75*
%ADD14C,0.00600*%
%ADD22C,0.07874*%
%ADD123C,0.02000*%
%ADD126C,0.07087*%
%ADD127R,0.07087X0.07087*%
%ADD128C,0.23622*%
%ADD129C,0.06299*%
%ADD130C,0.05906*%
%ADD131C,0.11811*%
%ADD132C,0.08000*%
%ADD133C,0.03000*%
G36*
X444882Y433071D02*
Y410236D01*
X437795D01*
Y430315D01*
X295669D01*
X291732Y426378D01*
Y412205D01*
X310236Y393701D01*
Y352362D01*
X332283D01*
X342913Y341732D01*
Y309842D01*
X474409D01*
X483465Y300787D01*
X483465Y280709D01*
Y261417D01*
X493307Y251575D01*
X537795D01*
X545276Y259055D01*
X557087D01*
X559449Y261417D01*
Y265748D01*
X552362Y272835D01*
Y284252D01*
X563386D01*
X566142Y281496D01*
Y255118D01*
X554331Y255118D01*
X543701Y244488D01*
X481102D01*
X474016Y251575D01*
X474016Y280709D01*
D01*
Y283407D01*
Y291660D01*
X474016Y291660D01*
Y296744D01*
X474016Y297244D01*
X474016Y298819D01*
X474016Y298819D01*
X474016Y297244D01*
X473516Y297244D01*
X424409D01*
D01*
X355118D01*
Y285827D01*
X412598Y228346D01*
Y182677D01*
X399606D01*
Y223228D01*
X346850Y275984D01*
Y297244D01*
X323622Y320472D01*
Y340158D01*
X270866D01*
X265748Y335039D01*
X255118D01*
Y352362D01*
X300424D01*
X300394Y393307D01*
X282283Y411417D01*
Y439764D01*
X438189D01*
X444882Y433071D01*
D02*
G37*
D14*
X142126Y243706D02*
X144488Y246068D01*
X142126Y240551D02*
Y243706D01*
Y240551D02*
X146457Y236221D01*
X161024D01*
X189764Y207480D01*
X230315Y239370D02*
X236221Y233465D01*
Y218898D02*
Y233465D01*
X224803Y207480D02*
X236221Y218898D01*
X189764Y207480D02*
X224803D01*
X462598Y502362D02*
X500394Y464567D01*
Y411417D02*
Y464567D01*
X358862Y502362D02*
X462598D01*
X298819Y332357D02*
X299606D01*
X280782D02*
X298819D01*
X275984Y327559D02*
X280782Y332357D01*
X299927Y320866D02*
X308661Y329601D01*
X289370Y320866D02*
X299927D01*
X275984Y316929D02*
Y327559D01*
X438976Y172047D02*
X445669D01*
X429921Y181102D02*
X438976Y172047D01*
X452901Y172296D02*
X454724Y170472D01*
X450690Y172296D02*
X452901D01*
X448041Y169647D02*
X450690Y172296D01*
X439408Y169647D02*
X448041D01*
X425197Y183858D02*
X439408Y169647D01*
X429921Y181102D02*
Y247244D01*
X425197Y183858D02*
Y247244D01*
X468110Y355890D02*
X478937Y345063D01*
X468110Y355890D02*
Y387795D01*
X492913Y412598D01*
Y431890D01*
X396457Y469685D02*
X396457D01*
X398031Y468110D01*
X395669Y470472D02*
X396457Y469685D01*
X351500Y470472D02*
X395669D01*
X341500Y480472D02*
X351500Y470472D01*
X341500Y480472D02*
Y495000D01*
X351500D02*
X358862Y502362D01*
X501968Y371260D02*
X511417Y380709D01*
X501968Y283858D02*
Y371260D01*
X389764Y363779D02*
Y370111D01*
X401936Y382283D01*
X349217Y464961D02*
X379134D01*
X331500Y482677D02*
X349217Y464961D01*
X272456Y257115D02*
X275941Y260600D01*
X272456Y232520D02*
Y257115D01*
Y232520D02*
X284110Y220866D01*
X274015Y305511D02*
X289370Y320866D01*
X273997Y314942D02*
X275984Y316929D01*
X273997Y312221D02*
Y314942D01*
X308661Y329601D02*
Y333853D01*
X306299Y336215D02*
X308661Y333853D01*
X287743Y336215D02*
X306299D01*
D22*
X113000Y323815D02*
D03*
Y333815D02*
D03*
Y343815D02*
D03*
X112500Y459815D02*
D03*
Y449815D02*
D03*
Y439815D02*
D03*
X113000Y381315D02*
D03*
Y391315D02*
D03*
Y401315D02*
D03*
D123*
X330709Y362205D02*
X331102Y362598D01*
X354331D01*
X370472Y346457D01*
X441500Y482283D02*
Y495000D01*
X411579Y452362D02*
X441500Y482283D01*
X222441Y452362D02*
X411579D01*
X213386Y443307D02*
X222441Y452362D01*
X208000Y443307D02*
X213386D01*
X226378Y447638D02*
X256299D01*
X204724Y425984D02*
X226378Y447638D01*
X189764Y425984D02*
X204724D01*
X166142Y402362D02*
X189764Y425984D01*
X166142Y330315D02*
Y402362D01*
X159642Y323815D02*
X166142Y330315D01*
X113000Y323815D02*
X159642D01*
X150791Y335433D02*
Y366925D01*
X144488Y373228D02*
X150791Y366925D01*
D126*
X411500Y415000D02*
D03*
X421500D02*
D03*
X451500D02*
D03*
X441500D02*
D03*
X431500D02*
D03*
X401500D02*
D03*
X391500D02*
D03*
X381500D02*
D03*
X371500D02*
D03*
X361500D02*
D03*
X351500D02*
D03*
X341500D02*
D03*
X331500D02*
D03*
X321500D02*
D03*
Y495000D02*
D03*
X331500D02*
D03*
X341500D02*
D03*
X351500D02*
D03*
X361500D02*
D03*
X371500D02*
D03*
X381500D02*
D03*
X391500D02*
D03*
X401500D02*
D03*
X431500D02*
D03*
X441500D02*
D03*
X421500D02*
D03*
X411500D02*
D03*
D127*
X451500D02*
D03*
D128*
X566429Y98425D02*
D03*
X565929Y488500D02*
D03*
X117110D02*
D03*
X117610Y98425D02*
D03*
D129*
X117106Y133063D02*
D03*
Y140937D02*
D03*
X116606Y219063D02*
D03*
Y226937D02*
D03*
Y176563D02*
D03*
Y184437D02*
D03*
D130*
X566130Y232138D02*
D03*
Y136862D02*
D03*
D131*
X185189Y494957D02*
D03*
X205189D02*
D03*
X185189Y474957D02*
D03*
X205189D02*
D03*
X195189Y484957D02*
D03*
X559937Y386547D02*
D03*
X579937D02*
D03*
X559937Y366547D02*
D03*
X579937D02*
D03*
X569937Y376547D02*
D03*
D132*
X378783Y95878D02*
D03*
Y85878D02*
D03*
X259283Y130878D02*
D03*
Y120878D02*
D03*
X299783Y120378D02*
D03*
Y130378D02*
D03*
X339283Y130878D02*
D03*
Y120878D02*
D03*
X378284Y130878D02*
D03*
Y120878D02*
D03*
X259784Y95878D02*
D03*
Y85878D02*
D03*
X300284Y96378D02*
D03*
Y86378D02*
D03*
X339784Y95878D02*
D03*
Y85878D02*
D03*
D133*
X150791Y242126D02*
D03*
X185433Y225590D02*
D03*
X177559Y246068D02*
D03*
X144488D02*
D03*
X145320Y255906D02*
D03*
X370266Y294750D02*
D03*
X365821D02*
D03*
X355906Y321622D02*
D03*
X396457Y322441D02*
D03*
Y327953D02*
D03*
X313779Y333858D02*
D03*
X347244Y312205D02*
D03*
X311811Y337729D02*
D03*
X351327Y313512D02*
D03*
X292520Y355906D02*
D03*
X330709Y362205D02*
D03*
X264152Y340158D02*
D03*
X222835Y431102D02*
D03*
X218898Y455512D02*
D03*
X208000Y443307D02*
D03*
X171653Y449815D02*
D03*
Y431890D02*
D03*
X210260Y457307D02*
D03*
X171653Y436614D02*
D03*
X152300Y435827D02*
D03*
X188732Y300713D02*
D03*
X298819Y332357D02*
D03*
X410972Y273657D02*
D03*
X256338Y283071D02*
D03*
X296260Y283787D02*
D03*
X290945D02*
D03*
X180000Y210236D02*
D03*
X445669Y172047D02*
D03*
X429921Y247244D02*
D03*
X454724Y170472D02*
D03*
X425197Y247244D02*
D03*
X465354Y206693D02*
D03*
X420276Y246850D02*
D03*
X478937Y345063D02*
D03*
X492913Y431890D02*
D03*
X398031Y468110D02*
D03*
X500394Y411417D02*
D03*
X511417Y380709D02*
D03*
X501968Y283858D02*
D03*
X491500Y277319D02*
D03*
Y283071D02*
D03*
X464567Y162453D02*
D03*
X460063D02*
D03*
X455953Y162402D02*
D03*
X387008Y218504D02*
D03*
X335827Y369291D02*
D03*
X394882Y192913D02*
D03*
X391339Y196063D02*
D03*
X545276Y107874D02*
D03*
X399606Y169500D02*
D03*
X405905Y179528D02*
D03*
X438039Y193898D02*
D03*
X434047Y197697D02*
D03*
X410480Y190945D02*
D03*
X408488Y196063D02*
D03*
X401968D02*
D03*
X449606Y206693D02*
D03*
X449522Y212598D02*
D03*
X447685Y195130D02*
D03*
X449522Y199606D02*
D03*
X443307D02*
D03*
X464567Y196063D02*
D03*
Y188000D02*
D03*
Y192126D02*
D03*
X316929Y470472D02*
D03*
X486221Y321260D02*
D03*
X477559Y315142D02*
D03*
Y321260D02*
D03*
X460236Y282687D02*
D03*
Y286736D02*
D03*
X537523Y327165D02*
D03*
X537370Y332061D02*
D03*
X543003Y342520D02*
D03*
X558126D02*
D03*
X559937Y317323D02*
D03*
X555118D02*
D03*
X511417Y359842D02*
D03*
X517323D02*
D03*
X523622D02*
D03*
X509331Y353015D02*
D03*
X517323Y352898D02*
D03*
X523622Y353015D02*
D03*
X509055Y346850D02*
D03*
X517323D02*
D03*
X523622D02*
D03*
X509055Y340269D02*
D03*
X517323D02*
D03*
X523622D02*
D03*
X509055Y334039D02*
D03*
X517323D02*
D03*
X523622D02*
D03*
X509055Y328124D02*
D03*
X517323D02*
D03*
X523622D02*
D03*
Y322228D02*
D03*
X517323D02*
D03*
X509055D02*
D03*
Y316535D02*
D03*
X515524D02*
D03*
X521654D02*
D03*
X527179D02*
D03*
X528009Y311205D02*
D03*
X521654D02*
D03*
X515524D02*
D03*
X509055D02*
D03*
X586614Y360475D02*
D03*
X586473Y374025D02*
D03*
Y379049D02*
D03*
X583858Y356000D02*
D03*
X579325D02*
D03*
X561937D02*
D03*
X556496D02*
D03*
X550754D02*
D03*
X551072Y362453D02*
D03*
X551378Y373561D02*
D03*
X533418Y382283D02*
D03*
X538742Y386547D02*
D03*
X544882Y383084D02*
D03*
Y389539D02*
D03*
X551378Y383084D02*
D03*
Y389539D02*
D03*
X545397Y395276D02*
D03*
X551378D02*
D03*
Y401575D02*
D03*
X557087Y395276D02*
D03*
Y401575D02*
D03*
Y407087D02*
D03*
X563400Y395276D02*
D03*
Y401575D02*
D03*
Y407087D02*
D03*
X563439Y412598D02*
D03*
X569500Y395276D02*
D03*
Y401575D02*
D03*
Y407087D02*
D03*
Y412598D02*
D03*
X575372Y395276D02*
D03*
Y401575D02*
D03*
Y407087D02*
D03*
Y412598D02*
D03*
X581496Y395276D02*
D03*
Y401575D02*
D03*
Y407087D02*
D03*
Y412598D02*
D03*
X586473Y395276D02*
D03*
Y401575D02*
D03*
Y407087D02*
D03*
X586614Y412598D02*
D03*
X586473Y418110D02*
D03*
X581496D02*
D03*
X575372D02*
D03*
X569500D02*
D03*
X509449Y258342D02*
D03*
Y263469D02*
D03*
Y268701D02*
D03*
Y274453D02*
D03*
Y280478D02*
D03*
Y287795D02*
D03*
Y293663D02*
D03*
X515524Y258268D02*
D03*
Y263531D02*
D03*
Y268701D02*
D03*
Y274541D02*
D03*
Y280478D02*
D03*
Y287795D02*
D03*
Y293663D02*
D03*
X563526Y342520D02*
D03*
X553138D02*
D03*
X547514D02*
D03*
X537523D02*
D03*
X563526Y337316D02*
D03*
X537370D02*
D03*
X563526Y332061D02*
D03*
X582339Y298143D02*
D03*
Y303319D02*
D03*
X581496Y292913D02*
D03*
Y287795D02*
D03*
Y278346D02*
D03*
Y283071D02*
D03*
X586473Y287795D02*
D03*
Y292913D02*
D03*
Y298143D02*
D03*
Y303319D02*
D03*
Y257394D02*
D03*
X579952D02*
D03*
X575242D02*
D03*
X569937D02*
D03*
X575242Y262918D02*
D03*
X586473D02*
D03*
X579952D02*
D03*
X569937D02*
D03*
X586473Y267758D02*
D03*
X579937D02*
D03*
X586473Y272718D02*
D03*
X579937Y272811D02*
D03*
X555724Y261754D02*
D03*
X550844D02*
D03*
X545397D02*
D03*
X586473Y278346D02*
D03*
X577122D02*
D03*
X569937D02*
D03*
X586473Y283101D02*
D03*
X576992D02*
D03*
X569937D02*
D03*
X552211Y287795D02*
D03*
X552362Y293663D02*
D03*
X563439Y327165D02*
D03*
X563400Y322228D02*
D03*
X537398D02*
D03*
X498032Y303150D02*
D03*
X564961Y317323D02*
D03*
X550000D02*
D03*
X544882D02*
D03*
X539764D02*
D03*
X534646D02*
D03*
X527998Y300524D02*
D03*
X542095Y293663D02*
D03*
Y287795D02*
D03*
X527998D02*
D03*
Y293663D02*
D03*
X521654D02*
D03*
Y287795D02*
D03*
X541617Y280478D02*
D03*
X535104D02*
D03*
X527998D02*
D03*
X521654D02*
D03*
Y274453D02*
D03*
Y268701D02*
D03*
X527998Y263469D02*
D03*
X521654D02*
D03*
X527998Y258268D02*
D03*
X521654D02*
D03*
X538189Y372047D02*
D03*
X514080Y374046D02*
D03*
X510268Y370472D02*
D03*
X532526D02*
D03*
X558661Y278346D02*
D03*
X561937Y281951D02*
D03*
X555118Y281855D02*
D03*
X478083Y330293D02*
D03*
X484307Y328931D02*
D03*
X495331Y348222D02*
D03*
X546000Y367063D02*
D03*
X577811Y300524D02*
D03*
X493720Y306693D02*
D03*
X478500Y296768D02*
D03*
X481496Y292126D02*
D03*
X476378D02*
D03*
X257357Y469291D02*
D03*
Y474957D02*
D03*
Y480626D02*
D03*
X252362Y484957D02*
D03*
X257357D02*
D03*
X257480Y490173D02*
D03*
Y495257D02*
D03*
Y501181D02*
D03*
X252362Y469291D02*
D03*
Y474957D02*
D03*
Y480626D02*
D03*
X250787Y490173D02*
D03*
X252362Y495257D02*
D03*
Y501181D02*
D03*
X246063Y469291D02*
D03*
X239370D02*
D03*
X246063Y474957D02*
D03*
X239370D02*
D03*
X246063Y495257D02*
D03*
Y501181D02*
D03*
X239370Y495257D02*
D03*
Y501181D02*
D03*
X232677Y469291D02*
D03*
Y474957D02*
D03*
Y495257D02*
D03*
Y501181D02*
D03*
X226772Y469291D02*
D03*
Y474957D02*
D03*
Y495257D02*
D03*
Y501181D02*
D03*
X220866Y469291D02*
D03*
Y474957D02*
D03*
Y495257D02*
D03*
Y501181D02*
D03*
X214961Y469291D02*
D03*
Y474957D02*
D03*
Y494957D02*
D03*
Y501181D02*
D03*
X195583Y469291D02*
D03*
X195189Y501181D02*
D03*
X176181D02*
D03*
Y494957D02*
D03*
Y488588D02*
D03*
Y482455D02*
D03*
Y476378D02*
D03*
Y470472D02*
D03*
X170866D02*
D03*
Y476378D02*
D03*
Y482455D02*
D03*
Y488588D02*
D03*
Y494957D02*
D03*
Y501181D02*
D03*
X418110Y397000D02*
D03*
X511417Y410630D02*
D03*
X505512Y394094D02*
D03*
X499606D02*
D03*
X509449Y385039D02*
D03*
X389764Y363779D02*
D03*
X401936Y382283D02*
D03*
X477953Y420079D02*
D03*
X379134Y464961D02*
D03*
X331500Y482677D02*
D03*
X473228Y382283D02*
D03*
Y388189D02*
D03*
X387008Y351575D02*
D03*
X428346Y376378D02*
D03*
X375984Y368504D02*
D03*
X365354D02*
D03*
X455118Y351000D02*
D03*
X454953Y346000D02*
D03*
Y341000D02*
D03*
X455118Y336000D02*
D03*
Y331000D02*
D03*
Y326165D02*
D03*
X402756Y325984D02*
D03*
Y331000D02*
D03*
Y336000D02*
D03*
Y340945D02*
D03*
X395276Y360236D02*
D03*
X400787D02*
D03*
X349213Y338016D02*
D03*
X375984Y346457D02*
D03*
X370472D02*
D03*
X259212Y185525D02*
D03*
X272456D02*
D03*
Y180485D02*
D03*
X265681D02*
D03*
X259283D02*
D03*
X189764Y140354D02*
D03*
X396850Y276500D02*
D03*
X399606Y266929D02*
D03*
X392913D02*
D03*
X399606Y272047D02*
D03*
X392913D02*
D03*
X438189Y287795D02*
D03*
X442126Y292044D02*
D03*
Y287795D02*
D03*
X438189Y292044D02*
D03*
X383071Y286736D02*
D03*
X377953D02*
D03*
X383071Y292044D02*
D03*
X377953D02*
D03*
X418898Y299606D02*
D03*
X414370D02*
D03*
X423228D02*
D03*
X414370Y303937D02*
D03*
X418898D02*
D03*
X278807Y314567D02*
D03*
X288189Y300394D02*
D03*
X281102Y300000D02*
D03*
X264173Y344882D02*
D03*
Y349606D02*
D03*
X258661Y340158D02*
D03*
Y344882D02*
D03*
Y349606D02*
D03*
X160807Y91613D02*
D03*
X203150Y87795D02*
D03*
Y94488D02*
D03*
Y101181D02*
D03*
Y107874D02*
D03*
Y114567D02*
D03*
Y120378D02*
D03*
Y126378D02*
D03*
Y131890D02*
D03*
X251575Y436614D02*
D03*
X246063Y437402D02*
D03*
X215512Y329842D02*
D03*
X180709Y141732D02*
D03*
X126772Y361417D02*
D03*
X139370Y384551D02*
D03*
X256299Y447638D02*
D03*
X140157Y305118D02*
D03*
X150791Y335433D02*
D03*
X148626Y305906D02*
D03*
X150791Y380390D02*
D03*
X134646Y440945D02*
D03*
X144488Y373228D02*
D03*
X158661Y357087D02*
D03*
X154331Y359498D02*
D03*
X206299Y169322D02*
D03*
X200787D02*
D03*
X194453D02*
D03*
X188189D02*
D03*
X206299Y173937D02*
D03*
X200787D02*
D03*
X194453D02*
D03*
X188189D02*
D03*
X206299Y179134D02*
D03*
X200787D02*
D03*
X194453D02*
D03*
X188189D02*
D03*
X206299Y184335D02*
D03*
X200787Y184437D02*
D03*
X194453D02*
D03*
X188189D02*
D03*
X145669Y126378D02*
D03*
X260507Y384548D02*
D03*
Y389876D02*
D03*
X253937Y399606D02*
D03*
X233567Y398827D02*
D03*
X237432Y396256D02*
D03*
X229921D02*
D03*
X237432Y401453D02*
D03*
X229921D02*
D03*
X239094Y368653D02*
D03*
X234405D02*
D03*
X229921D02*
D03*
X225378D02*
D03*
X215512Y400394D02*
D03*
X208000D02*
D03*
X199213Y394500D02*
D03*
Y400394D02*
D03*
X212992Y338583D02*
D03*
X201969Y342634D02*
D03*
X217849Y337815D02*
D03*
Y342634D02*
D03*
X193388Y354445D02*
D03*
X189764Y357347D02*
D03*
X234646Y338583D02*
D03*
Y343730D02*
D03*
Y348539D02*
D03*
X287743Y336215D02*
D03*
X274015Y305511D02*
D03*
X273997Y312221D02*
D03*
X200394Y335433D02*
D03*
X206693Y322835D02*
D03*
X197441Y329685D02*
D03*
X191535D02*
D03*
X135498Y130313D02*
D03*
X144488Y161417D02*
D03*
X203150Y197244D02*
D03*
X188189Y235433D02*
D03*
X177559Y230906D02*
D03*
X183020Y246068D02*
D03*
X216142Y239764D02*
D03*
X230315Y230709D02*
D03*
X270866Y301295D02*
D03*
X333465Y263000D02*
D03*
Y269815D02*
D03*
X327807Y263000D02*
D03*
Y270005D02*
D03*
X326693Y276500D02*
D03*
X317323D02*
D03*
X284110Y220866D02*
D03*
X275941Y260600D02*
D03*
X308906Y298202D02*
D03*
Y292913D02*
D03*
Y287327D02*
D03*
X304100Y285339D02*
D03*
X230315Y239370D02*
D03*
X189764Y207480D02*
D03*
M02*
