G04*
G04 #@! TF.GenerationSoftware,Altium Limited,Altium Designer,20.1.7 (139)*
G04*
G04 Layer_Physical_Order=3*
G04 Layer_Color=16440176*
%FSLAX25Y25*%
%MOIN*%
G70*
G04*
G04 #@! TF.SameCoordinates,72195594-E7F7-4266-BDA2-BCA36E094617*
G04*
G04*
G04 #@! TF.FilePolarity,Positive*
G04*
G01*
G75*
%ADD13C,0.01000*%
%ADD14C,0.00600*%
%ADD123C,0.02000*%
%ADD126C,0.07087*%
%ADD128C,0.23622*%
%ADD133C,0.03000*%
%ADD134C,0.05000*%
G36*
X512598Y383001D02*
X512098Y382714D01*
X511417Y382850D01*
X510980Y382763D01*
X510598Y382687D01*
X510334Y383105D01*
X510963Y383525D01*
X511427Y384220D01*
X511590Y385039D01*
X511427Y385859D01*
X510963Y386553D01*
X510268Y387017D01*
X509449Y387180D01*
X508629Y387017D01*
X507935Y386553D01*
X507471Y385859D01*
X507308Y385039D01*
X507471Y384220D01*
X507935Y383525D01*
X508629Y383061D01*
X509449Y382898D01*
X509886Y382985D01*
X510268Y383061D01*
X510532Y382643D01*
X509903Y382223D01*
X509439Y381528D01*
X509276Y380709D01*
X509439Y379889D01*
X509903Y379195D01*
X510598Y378731D01*
X511417Y378568D01*
X511794Y378642D01*
X512040Y378182D01*
X480442Y346583D01*
X479756Y347041D01*
X478937Y347204D01*
X478118Y347041D01*
X477423Y346577D01*
X476959Y345882D01*
X476796Y345063D01*
X476959Y344244D01*
X477417Y343558D01*
X449213Y315354D01*
X409055D01*
Y309842D01*
X403543Y304331D01*
Y264961D01*
X390158D01*
Y315354D01*
X352349Y315354D01*
X352146Y315490D01*
X351327Y315653D01*
X350507Y315490D01*
X350304Y315354D01*
X345276D01*
Y371654D01*
X450787Y371654D01*
X479134Y400000D01*
X512598D01*
Y383001D01*
D02*
G37*
G36*
X529134Y305118D02*
X579937Y305118D01*
X579937Y296063D01*
X502362Y296063D01*
X498032Y300394D01*
X490158D01*
Y309055D01*
X525197D01*
X529134Y305118D01*
D02*
G37*
%LPC*%
G36*
X505512Y396236D02*
X504692Y396073D01*
X503998Y395608D01*
X503534Y394914D01*
X503371Y394094D01*
X503534Y393275D01*
X503998Y392581D01*
X504692Y392116D01*
X505512Y391953D01*
X506331Y392116D01*
X507026Y392581D01*
X507490Y393275D01*
X507653Y394094D01*
X507490Y394914D01*
X507026Y395608D01*
X506331Y396073D01*
X505512Y396236D01*
D02*
G37*
G36*
X473228Y390330D02*
X472409Y390167D01*
X471714Y389703D01*
X471250Y389008D01*
X471087Y388189D01*
X471250Y387370D01*
X471714Y386675D01*
X472409Y386211D01*
X473228Y386048D01*
X474048Y386211D01*
X474742Y386675D01*
X475207Y387370D01*
X475370Y388189D01*
X475207Y389008D01*
X474742Y389703D01*
X474048Y390167D01*
X473228Y390330D01*
D02*
G37*
G36*
Y384425D02*
X472409Y384262D01*
X471714Y383798D01*
X471250Y383103D01*
X471087Y382283D01*
X471250Y381464D01*
X471714Y380769D01*
X472409Y380305D01*
X473228Y380142D01*
X474048Y380305D01*
X474742Y380769D01*
X475207Y381464D01*
X475370Y382283D01*
X475207Y383103D01*
X474742Y383798D01*
X474048Y384262D01*
X473228Y384425D01*
D02*
G37*
G36*
X389764Y365921D02*
X388944Y365758D01*
X388250Y365294D01*
X387786Y364599D01*
X387623Y363779D01*
X387786Y362960D01*
X388250Y362265D01*
X388944Y361801D01*
X389764Y361638D01*
X390583Y361801D01*
X391278Y362265D01*
X391742Y362960D01*
X391905Y363779D01*
X391742Y364599D01*
X391278Y365294D01*
X390583Y365758D01*
X389764Y365921D01*
D02*
G37*
G36*
X395276Y362377D02*
X394456Y362214D01*
X393762Y361750D01*
X393297Y361056D01*
X393134Y360236D01*
X393297Y359417D01*
X393762Y358722D01*
X394456Y358258D01*
X395276Y358095D01*
X396095Y358258D01*
X396790Y358722D01*
X397254Y359417D01*
X397417Y360236D01*
X397254Y361056D01*
X396790Y361750D01*
X396095Y362214D01*
X395276Y362377D01*
D02*
G37*
G36*
X455118Y353141D02*
X454299Y352978D01*
X453604Y352514D01*
X453140Y351819D01*
X452977Y351000D01*
X453140Y350181D01*
X453604Y349486D01*
X454299Y349022D01*
X455118Y348859D01*
X455937Y349022D01*
X456632Y349486D01*
X457096Y350181D01*
X457259Y351000D01*
X457096Y351819D01*
X456632Y352514D01*
X455937Y352978D01*
X455118Y353141D01*
D02*
G37*
G36*
X375984Y348598D02*
X375165Y348435D01*
X374470Y347971D01*
X374006Y347276D01*
X373843Y346457D01*
X374006Y345637D01*
X374470Y344943D01*
X375165Y344479D01*
X375984Y344316D01*
X376804Y344479D01*
X377498Y344943D01*
X377962Y345637D01*
X378125Y346457D01*
X377962Y347276D01*
X377498Y347971D01*
X376804Y348435D01*
X375984Y348598D01*
D02*
G37*
G36*
X454953Y348141D02*
X454133Y347978D01*
X453439Y347514D01*
X452975Y346819D01*
X452812Y346000D01*
X452975Y345181D01*
X453439Y344486D01*
X454133Y344022D01*
X454953Y343859D01*
X455772Y344022D01*
X456467Y344486D01*
X456931Y345181D01*
X457094Y346000D01*
X456931Y346819D01*
X456467Y347514D01*
X455772Y347978D01*
X454953Y348141D01*
D02*
G37*
G36*
Y343141D02*
X454133Y342978D01*
X453439Y342514D01*
X452975Y341819D01*
X452812Y341000D01*
X452975Y340181D01*
X453439Y339486D01*
X454133Y339022D01*
X454953Y338859D01*
X455772Y339022D01*
X456467Y339486D01*
X456931Y340181D01*
X457094Y341000D01*
X456931Y341819D01*
X456467Y342514D01*
X455772Y342978D01*
X454953Y343141D01*
D02*
G37*
G36*
X402756Y343086D02*
X401936Y342923D01*
X401242Y342459D01*
X400778Y341764D01*
X400615Y340945D01*
X400778Y340125D01*
X401242Y339431D01*
X401936Y338967D01*
X402756Y338804D01*
X403575Y338967D01*
X404270Y339431D01*
X404734Y340125D01*
X404897Y340945D01*
X404734Y341764D01*
X404270Y342459D01*
X403575Y342923D01*
X402756Y343086D01*
D02*
G37*
G36*
X349213Y340158D02*
X348393Y339995D01*
X347699Y339530D01*
X347234Y338836D01*
X347072Y338016D01*
X347234Y337197D01*
X347699Y336502D01*
X348393Y336038D01*
X349213Y335875D01*
X350032Y336038D01*
X350727Y336502D01*
X351191Y337197D01*
X351354Y338016D01*
X351191Y338836D01*
X350727Y339530D01*
X350032Y339995D01*
X349213Y340158D01*
D02*
G37*
G36*
X455118Y338141D02*
X454299Y337978D01*
X453604Y337514D01*
X453140Y336819D01*
X452977Y336000D01*
X453140Y335181D01*
X453604Y334486D01*
X454299Y334022D01*
X455118Y333859D01*
X455937Y334022D01*
X456632Y334486D01*
X457096Y335181D01*
X457259Y336000D01*
X457096Y336819D01*
X456632Y337514D01*
X455937Y337978D01*
X455118Y338141D01*
D02*
G37*
G36*
X402756D02*
X401936Y337978D01*
X401242Y337514D01*
X400778Y336819D01*
X400615Y336000D01*
X400778Y335181D01*
X401242Y334486D01*
X401936Y334022D01*
X402756Y333859D01*
X403575Y334022D01*
X404270Y334486D01*
X404734Y335181D01*
X404897Y336000D01*
X404734Y336819D01*
X404270Y337514D01*
X403575Y337978D01*
X402756Y338141D01*
D02*
G37*
G36*
X455118Y333141D02*
X454299Y332978D01*
X453604Y332514D01*
X453140Y331819D01*
X452977Y331000D01*
X453140Y330181D01*
X453604Y329486D01*
X454299Y329022D01*
X455118Y328859D01*
X455937Y329022D01*
X456632Y329486D01*
X457096Y330181D01*
X457259Y331000D01*
X457096Y331819D01*
X456632Y332514D01*
X455937Y332978D01*
X455118Y333141D01*
D02*
G37*
G36*
X402756D02*
X401936Y332978D01*
X401242Y332514D01*
X400778Y331819D01*
X400615Y331000D01*
X400778Y330181D01*
X401242Y329486D01*
X401936Y329022D01*
X402756Y328859D01*
X403575Y329022D01*
X404270Y329486D01*
X404734Y330181D01*
X404897Y331000D01*
X404734Y331819D01*
X404270Y332514D01*
X403575Y332978D01*
X402756Y333141D01*
D02*
G37*
G36*
X396457Y330094D02*
X395637Y329931D01*
X394943Y329467D01*
X394479Y328772D01*
X394316Y327953D01*
X394479Y327133D01*
X394943Y326439D01*
X395637Y325975D01*
X396457Y325812D01*
X397276Y325975D01*
X397971Y326439D01*
X398435Y327133D01*
X398598Y327953D01*
X398435Y328772D01*
X397971Y329467D01*
X397276Y329931D01*
X396457Y330094D01*
D02*
G37*
G36*
X455118Y328307D02*
X454299Y328144D01*
X453604Y327679D01*
X453140Y326985D01*
X452977Y326165D01*
X453140Y325346D01*
X453604Y324651D01*
X454299Y324187D01*
X455118Y324024D01*
X455937Y324187D01*
X456632Y324651D01*
X457096Y325346D01*
X457259Y326165D01*
X457096Y326985D01*
X456632Y327679D01*
X455937Y328144D01*
X455118Y328307D01*
D02*
G37*
G36*
X402756Y328125D02*
X401936Y327962D01*
X401242Y327498D01*
X400778Y326804D01*
X400615Y325984D01*
X400778Y325165D01*
X401242Y324470D01*
X401936Y324006D01*
X402756Y323843D01*
X403575Y324006D01*
X404270Y324470D01*
X404734Y325165D01*
X404897Y325984D01*
X404734Y326804D01*
X404270Y327498D01*
X403575Y327962D01*
X402756Y328125D01*
D02*
G37*
G36*
X355906Y323763D02*
X355086Y323600D01*
X354392Y323136D01*
X353927Y322441D01*
X353764Y321622D01*
X353927Y320802D01*
X354392Y320108D01*
X355086Y319643D01*
X355906Y319480D01*
X356725Y319643D01*
X357419Y320108D01*
X357884Y320802D01*
X358047Y321622D01*
X357884Y322441D01*
X357419Y323136D01*
X356725Y323600D01*
X355906Y323763D01*
D02*
G37*
%LPD*%
D13*
X150791Y241728D02*
Y242126D01*
Y241728D02*
X166929Y225590D01*
X185433D01*
D14*
X236221Y250000D02*
X241339Y244882D01*
X287743Y336215D02*
X291058Y339530D01*
X294488D01*
X296504Y337514D01*
X304100D01*
X307756Y333858D01*
X313779D01*
X284589Y348539D02*
X308906D01*
X460433Y206693D02*
X465354D01*
X420276Y246850D02*
X460433Y206693D01*
X387008Y218504D02*
Y258661D01*
X335827Y309842D02*
X387008Y258661D01*
X335827Y309842D02*
Y369291D01*
X241339Y193886D02*
Y244882D01*
X221468Y174016D02*
X241339Y193886D01*
X220079Y174016D02*
X221468D01*
X514172Y367063D02*
X546000D01*
X495331Y348222D02*
X514172Y367063D01*
X536191Y374046D02*
X538189Y372047D01*
X514080Y374046D02*
X536191D01*
X510268Y370472D02*
X532526D01*
X391500Y415000D02*
Y421421D01*
X398031Y427953D01*
X494095D01*
X511417Y410630D01*
X401936Y382283D02*
X404692Y379528D01*
X454133D01*
X477953Y403347D01*
Y420079D01*
X371500Y404657D02*
Y415000D01*
Y404657D02*
X399779Y376378D01*
X428346D01*
X201181Y155118D02*
X220079Y174016D01*
X194095Y155118D02*
X201181D01*
X281496Y300394D02*
X288189D01*
X281102Y300000D02*
X281496Y300394D01*
X269390Y333341D02*
X284589Y348539D01*
X219010Y333341D02*
X269390D01*
X215512Y329842D02*
X219010Y333341D01*
X253043Y426772D02*
X260236D01*
X246063Y433752D02*
X253043Y426772D01*
X246063Y433752D02*
Y437402D01*
X315354Y354988D02*
Y371654D01*
X260236Y426772D02*
X315354Y371654D01*
X251575Y433858D02*
Y436614D01*
Y433858D02*
X254724Y430709D01*
X261024D01*
X326693Y365039D01*
Y323228D02*
Y365039D01*
X308906Y348539D02*
X315354Y354988D01*
X321181Y317717D02*
X326693Y323228D01*
X296063Y317717D02*
X321181D01*
X288976Y324803D02*
X296063Y317717D01*
X270866Y324803D02*
X288976D01*
X236221Y290158D02*
X270866Y324803D01*
X236221Y250000D02*
Y290158D01*
X180709Y141732D02*
X194095Y155118D01*
D123*
X346457Y168504D02*
X396063Y218110D01*
X227559Y168504D02*
X346457D01*
X209842Y150787D02*
X227559Y168504D01*
X200197Y150787D02*
X209842D01*
X212849Y455512D02*
X218898D01*
X211544Y454207D02*
X212849Y455512D01*
X208976Y454207D02*
X211544D01*
X208853Y454331D02*
X208976Y454207D01*
X176169Y454331D02*
X208853D01*
X171653Y449815D02*
X176169Y454331D01*
X153358Y436614D02*
X171653D01*
X152570Y435827D02*
X153358Y436614D01*
X152300Y435827D02*
X152570D01*
X396063Y218110D02*
Y263779D01*
X392913Y266929D02*
X396063Y263779D01*
X189764Y140354D02*
X200197Y150787D01*
X148626Y333268D02*
X150791Y335433D01*
X148626Y305906D02*
Y333268D01*
X405118Y454331D02*
X431500Y480713D01*
Y495000D01*
X224732Y454331D02*
X405118D01*
X150791Y380390D02*
X224732Y454331D01*
D126*
X391500Y415000D02*
D03*
X371500D02*
D03*
X431500Y495000D02*
D03*
D128*
X117110Y488500D02*
D03*
D133*
X150791Y242126D02*
D03*
X185433Y225590D02*
D03*
X396457Y322441D02*
D03*
X313779Y333858D02*
D03*
X218898Y455512D02*
D03*
X171653Y449815D02*
D03*
Y436614D02*
D03*
X152300Y435827D02*
D03*
X465354Y206693D02*
D03*
X420276Y246850D02*
D03*
X387008Y218504D02*
D03*
X335827Y369291D02*
D03*
X316929Y470472D02*
D03*
X498032Y303150D02*
D03*
X527998Y300524D02*
D03*
X538189Y372047D02*
D03*
X514080Y374046D02*
D03*
X510268Y370472D02*
D03*
X532526D02*
D03*
X495331Y348222D02*
D03*
X546000Y367063D02*
D03*
X577811Y300524D02*
D03*
X493720Y306693D02*
D03*
X511417Y410630D02*
D03*
X499606Y394094D02*
D03*
X401936Y382283D02*
D03*
X477953Y420079D02*
D03*
X387008Y351575D02*
D03*
X428346Y376378D02*
D03*
X375984Y368504D02*
D03*
X365354D02*
D03*
X400787Y360236D02*
D03*
X370472Y346457D02*
D03*
X189764Y140354D02*
D03*
X396850Y276500D02*
D03*
X399606Y266929D02*
D03*
X392913D02*
D03*
X399606Y272047D02*
D03*
X392913D02*
D03*
X288189Y300394D02*
D03*
X281102Y300000D02*
D03*
X251575Y436614D02*
D03*
X246063Y437402D02*
D03*
X215512Y329842D02*
D03*
X180709Y141732D02*
D03*
X150791Y335433D02*
D03*
X148626Y305906D02*
D03*
X150791Y380390D02*
D03*
X287743Y336215D02*
D03*
D134*
X301181Y462205D02*
X309449Y470472D01*
X145768Y462205D02*
X301181D01*
X144587Y461024D02*
X145768Y462205D01*
X143682Y461221D02*
X144390D01*
X117110Y488500D02*
X144390Y461221D01*
X309449Y470472D02*
X316929D01*
M02*
