G04*
G04 #@! TF.GenerationSoftware,Altium Limited,Altium Designer,21.2.2 (38)*
G04*
G04 Layer_Color=16711935*
%FSLAX25Y25*%
%MOIN*%
G70*
G04*
G04 #@! TF.SameCoordinates,DFD624CB-2947-408E-94CE-297F991FFE17*
G04*
G04*
G04 #@! TF.FilePolarity,Positive*
G04*
G01*
G75*
%ADD11C,0.01000*%
G36*
X154014Y155618D02*
Y155615D01*
Y155612D01*
Y155604D01*
Y155593D01*
Y155579D01*
Y155562D01*
X154011Y155524D01*
Y155474D01*
X154008Y155418D01*
X154003Y155354D01*
X153997Y155288D01*
X153989Y155216D01*
X153981Y155141D01*
X153958Y154989D01*
X153942Y154911D01*
X153925Y154839D01*
X153903Y154767D01*
X153881Y154701D01*
X153878Y154698D01*
X153875Y154687D01*
X153867Y154668D01*
X153856Y154645D01*
X153839Y154615D01*
X153823Y154582D01*
X153800Y154546D01*
X153773Y154504D01*
X153742Y154460D01*
X153709Y154416D01*
X153670Y154371D01*
X153626Y154324D01*
X153579Y154277D01*
X153529Y154233D01*
X153471Y154188D01*
X153410Y154147D01*
X153407Y154144D01*
X153393Y154139D01*
X153374Y154127D01*
X153349Y154114D01*
X153313Y154097D01*
X153274Y154080D01*
X153224Y154061D01*
X153172Y154042D01*
X153108Y154022D01*
X153042Y154003D01*
X152970Y153986D01*
X152889Y153970D01*
X152803Y153956D01*
X152712Y153945D01*
X152618Y153939D01*
X152515Y153936D01*
X152463D01*
X152427Y153939D01*
X152380Y153942D01*
X152327Y153947D01*
X152266Y153953D01*
X152202Y153958D01*
X152133Y153970D01*
X152061Y153981D01*
X151989Y153997D01*
X151914Y154014D01*
X151842Y154036D01*
X151767Y154061D01*
X151698Y154089D01*
X151632Y154122D01*
X151629Y154125D01*
X151618Y154130D01*
X151598Y154141D01*
X151576Y154155D01*
X151549Y154174D01*
X151515Y154199D01*
X151482Y154227D01*
X151443Y154258D01*
X151404Y154294D01*
X151363Y154335D01*
X151321Y154377D01*
X151283Y154427D01*
X151244Y154476D01*
X151208Y154535D01*
X151174Y154593D01*
X151144Y154657D01*
X151141Y154662D01*
X151138Y154673D01*
X151130Y154692D01*
X151122Y154720D01*
X151111Y154756D01*
X151100Y154800D01*
X151086Y154850D01*
X151072Y154909D01*
X151058Y154975D01*
X151044Y155047D01*
X151033Y155125D01*
X151022Y155210D01*
X151014Y155302D01*
X151005Y155402D01*
X151003Y155507D01*
X151000Y155618D01*
Y157834D01*
X151507D01*
Y155621D01*
Y155615D01*
Y155598D01*
Y155573D01*
X151510Y155540D01*
Y155499D01*
X151512Y155452D01*
X151515Y155399D01*
X151518Y155341D01*
X151523Y155282D01*
X151529Y155222D01*
X151546Y155100D01*
X151557Y155042D01*
X151568Y154983D01*
X151582Y154931D01*
X151598Y154884D01*
Y154881D01*
X151604Y154873D01*
X151609Y154861D01*
X151618Y154845D01*
X151626Y154825D01*
X151640Y154803D01*
X151673Y154751D01*
X151717Y154692D01*
X151742Y154662D01*
X151773Y154632D01*
X151803Y154601D01*
X151839Y154573D01*
X151875Y154546D01*
X151917Y154521D01*
X151920D01*
X151928Y154515D01*
X151939Y154510D01*
X151958Y154501D01*
X151981Y154490D01*
X152006Y154479D01*
X152036Y154468D01*
X152072Y154457D01*
X152111Y154446D01*
X152152Y154435D01*
X152197Y154424D01*
X152246Y154413D01*
X152299Y154404D01*
X152355Y154399D01*
X152410Y154396D01*
X152471Y154393D01*
X152496D01*
X152524Y154396D01*
X152562D01*
X152609Y154402D01*
X152659Y154407D01*
X152717Y154416D01*
X152781Y154424D01*
X152845Y154438D01*
X152911Y154454D01*
X152978Y154476D01*
X153044Y154499D01*
X153108Y154529D01*
X153166Y154562D01*
X153221Y154601D01*
X153269Y154645D01*
X153271Y154648D01*
X153280Y154657D01*
X153291Y154673D01*
X153305Y154695D01*
X153324Y154726D01*
X153343Y154764D01*
X153366Y154809D01*
X153388Y154864D01*
X153410Y154925D01*
X153432Y154994D01*
X153451Y155075D01*
X153471Y155163D01*
X153485Y155263D01*
X153496Y155371D01*
X153504Y155490D01*
X153507Y155621D01*
Y157834D01*
X154014D01*
Y155618D01*
D02*
G37*
G36*
X156440Y154000D02*
X155969D01*
Y156997D01*
X155967Y156994D01*
X155961Y156989D01*
X155953Y156981D01*
X155939Y156969D01*
X155922Y156956D01*
X155900Y156936D01*
X155875Y156917D01*
X155850Y156895D01*
X155817Y156872D01*
X155784Y156845D01*
X155748Y156820D01*
X155709Y156789D01*
X155665Y156762D01*
X155620Y156731D01*
X155521Y156670D01*
X155518Y156667D01*
X155510Y156662D01*
X155493Y156654D01*
X155474Y156645D01*
X155451Y156632D01*
X155424Y156615D01*
X155391Y156598D01*
X155357Y156579D01*
X155280Y156540D01*
X155197Y156501D01*
X155111Y156463D01*
X155028Y156429D01*
Y156884D01*
X155033Y156886D01*
X155044Y156892D01*
X155066Y156903D01*
X155094Y156917D01*
X155127Y156933D01*
X155169Y156956D01*
X155213Y156981D01*
X155260Y157008D01*
X155313Y157042D01*
X155368Y157075D01*
X155485Y157152D01*
X155604Y157238D01*
X155717Y157332D01*
X155720Y157335D01*
X155731Y157343D01*
X155745Y157357D01*
X155764Y157377D01*
X155789Y157402D01*
X155817Y157429D01*
X155848Y157463D01*
X155881Y157496D01*
X155914Y157535D01*
X155950Y157576D01*
X156019Y157662D01*
X156083Y157753D01*
X156111Y157800D01*
X156136Y157847D01*
X156440D01*
Y154000D01*
D02*
G37*
D11*
X99606Y100000D02*
Y174803D01*
Y100000D02*
X204724D01*
Y174803D01*
X99606D02*
X204724D01*
M02*
